<?xml version="1.0" standalone="no"?>
<!DOCTYPE svg PUBLIC "-//W3C//DTD SVG 1.1//EN" "http://www.w3.org/Graphics/SVG/1.1/DTD/svg11.dtd" >
<svg xmlns="http://www.w3.org/2000/svg" xmlns:xlink="http://www.w3.org/1999/xlink" version="1.1">
<metadata>
Created by FontForge 20170731 at Thu Oct  6 00:34:10 2022
 By Aleksey,,,
America Movil S.A. de C.V.
</metadata>
<defs>
<font id="AMX-Bold" horiz-adv-x="617" >
  <font-face 
    font-family="AMX"
    font-weight="700"
    font-stretch="normal"
    units-per-em="1000"
    panose-1="0 0 0 0 0 0 0 0 0 0"
    ascent="742"
    descent="-258"
    x-height="518"
    cap-height="690"
    bbox="-35 -212 2880 1285"
    underline-thickness="50"
    underline-position="-175"
    unicode-range="U+0020-25CA"
  />
<missing-glyph horiz-adv-x="590" 
d="M500 690v-690h-410v690h410zM278 344l-153 282v-564zM295 376l151 279h-302zM445 35l-150 276l-150 -276h300zM465 62v564l-152 -282z" />
    <glyph glyph-name="arrowleft" unicode="&#x3c;&#x2d;" horiz-adv-x="910" 
d="M110 307l193 193h170l-170 -170l144 9h353v-155h-353l-144 9l170 -170h-170l-193 193v91z" />
    <glyph glyph-name="arrowup" unicode="&#x3c;&#x7c;" horiz-adv-x="697" 
d="M587 497v-170l-170 169l9 -143v-353h-155v353l9 143l-170 -169v170l193 193h91z" />
    <glyph glyph-name="arrowright" unicode="&#x2d;&#x3e;" horiz-adv-x="910" 
d="M607 23h-170l169 170l-143 -9h-353v155h353l143 -9l-169 170h170l193 -193v-91z" />
    <glyph glyph-name="arrowdown" unicode="&#x7c;&#x3e;" horiz-adv-x="697" 
d="M303 0l-193 193v170l170 -169l-9 143v353h155v-353l-9 -143l170 169v-170l-193 -193h-91z" />
    <glyph glyph-name="arrowboth" unicode="&#x3c;&#x2d;&#x3e;" horiz-adv-x="1098" 
d="M303 500h158l-171 -171l157 10h204l156 -10l-170 171h158l193 -193v-91l-193 -193h-158l170 171l-157 -10h-203l-157 10l171 -171h-158l-193 193v91z" />
    <glyph glyph-name="arrowupdn" unicode="&#x3c;&#x7c;&#x3e;" horiz-adv-x="697" 
d="M587 497v-158l-171 171l10 -157v-204l-10 -157l171 171v-158l-193 -193h-91l-193 193v158l171 -171l-10 158v203l10 157l-171 -171v158l193 193h91z" />
    <glyph glyph-name="uni2196" unicode="&#x3c;\" horiz-adv-x="733" 
d="M447 523l121 -121h-241l108 -95l250 -250l-110 -109l-249 249l-96 109v-241l-120 120v273l64 65h273z" />
    <glyph glyph-name="uni2197" unicode="&#x2f;&#x3e;" horiz-adv-x="733" 
d="M623 458v-273l-120 -121v241l-95 -108l-250 -249l-110 109l250 250l108 95h-240l120 120h273z" />
    <glyph glyph-name="uni2198" unicode="\&#x3e;" horiz-adv-x="733" 
d="M286 24l-121 121h241l-108 95l-250 250l110 109l250 -249l95 -108v240l120 -120v-273l-64 -65h-273z" />
    <glyph glyph-name="uni2199" unicode="&#x3c;&#x2f;" horiz-adv-x="733" 
d="M110 89v273l120 120v-241l96 109l249 249l110 -109l-250 -250l-108 -95h241l-121 -121h-273z" />
    <glyph glyph-name="logo" unicode="&#x3a;l&#x3a;" horiz-adv-x="3080" 
d="M2715 901l79 -81l-307 -307l-79 81zM245 500q45 76 121 121t167 45q73 0 137.5 -31t109 -87t62.5 -128h-136q-22 56 -69 88t-107 32q-56 0 -102.5 -27.5t-74 -75t-27.5 -104.5t27.5 -104.5t74 -75t102.5 -27.5q60 0 107 32t69 88h137q-18 -72 -63 -128t-109 -87t-138 -31
q-91 0 -167 45t-121 121t-45 167t45 167zM907 666h126v-666h-126v666zM1266 312l73 13q45 8 61 19.5t16 29.5q0 27 -23 39.5t-58 12.5q-42 0 -65.5 -18.5t-23.5 -50.5h-126q0 82 57.5 128t169.5 46q199 0 199 -162v-369h-126v55q-56 -55 -148 -55q-76 0 -120 38.5t-44 111.5
q0 135 158 162zM1304 90q55 0 85.5 39t30.5 104v33q-27 -22 -104 -36q-42 -8 -62 -25.5t-20 -50.5q0 -64 70 -64zM1630 509h121v-63q29 39 75 62t98 23v-130q-18 3 -35 3q-63 0 -98 -40.5t-35 -116.5v-247h-126v509zM1973.5 400q35.5 61 96.5 96t133 35q73 0 134 -35
t96.5 -96t35.5 -134t-35.5 -134t-97 -96.5t-133.5 -35.5t-133 35.5t-96.5 96.5t-35.5 134t35.5 134zM2083.5 194q18.5 -33 50.5 -52t69 -19q38 0 70 19t50.5 52t18.5 72t-18.5 71.5t-50.5 51.5t-70 19t-69.5 -19t-50 -51.5t-18.5 -71.5t18.5 -72zM2159 966h114v-330h-114
v330zM2544 386h336v-113h-336v113z" />
    <glyph glyph-name="logo1" unicode="&#x3a;l&#x31;&#x3a;" horiz-adv-x="1162" 
d="M894 908l81 -83l-314 -313l-81 82zM136 396.5q36 61.5 98.5 97.5t136.5 36t136 -36t98.5 -97.5t36.5 -136.5t-36.5 -137.5t-98.5 -98.5t-136 -36t-136.5 36t-98.5 98.5t-36 137.5t36 136.5zM248 186q19 -34 52 -53.5t71 -19.5t71 19.5t52 53.5t19 74t-19 73t-52 52.5
t-71 19.5t-71 -19.5t-52 -52.5t-19 -73t19 -74zM326 974h116v-336h-116v336zM719 382h343v-115h-343v115z" />
    <glyph glyph-name="logo2" unicode="&#x3a;l&#x32;&#x3a;" horiz-adv-x="740" 
d="M571 1218l81 -83l-315 -315l-81 83zM0 1285h117v-339h-117v339zM395 690h345v-116h-345v116z" />
    <glyph glyph-name="movil" unicode="&#x3a;m&#x3a;" horiz-adv-x="591" 
d="M144 614q27 27 75 27h154q48 0 75 -27t27 -75v-449q0 -48 -27 -75t-75 -27h-154q-48 0 -75 27t-27 75v449q0 48 27 75zM177 46q15 -15 47 -15h144q32 0 47 15t15 49v6h-268v-6q0 -34 15 -49zM430 121v413q0 34 -15 49t-47 15h-144q-32 0 -47 -15t-15 -49v-413h268z
M271 551h51q10 0 10 -10t-10 -10h-51q-10 0 -10 10t10 10z" />
    <glyph glyph-name="phone" unicode="&#x3a;t&#x3a;" horiz-adv-x="526" 
d="M284 250.5q9 -7.5 28 -7.5h53q45 0 45 -45v-165q0 -45 -45 -45h-29q-64 0 -114 46.5t-77.5 128t-27.5 182.5v40q0 101 27.5 182.5t77.5 128t114 46.5h29q45 0 45 -45v-165q0 -45 -45 -45h-53q-19 0 -28 -7.5t-9 -23.5v-182q0 -16 9 -23.5zM179.5 193
q17.5 -65 46.5 -104.5t64 -48.5v158q-26 0 -43 20t-17 57v180q0 37 17 57t43 20v158q-35 -9 -64 -48.5t-46.5 -104.5t-17.5 -147v-50q0 -82 17.5 -147zM365 33v165h-55v-165h55zM365 532v165h-55v-165h55z" />
    <glyph glyph-name="tv" unicode="&#x3a;tv&#x3a;" horiz-adv-x="1118" 
d="M144 586q27 27 76 27h679q49 0 76 -27t27 -75v-349q0 -48 -27 -75t-76 -27h-325v-32h100q6 0 10 -4t4 -10t-4 -10t-10 -4h-222q-6 0 -10 4t-4 10t4 10t10 4h94v32h-326q-49 0 -76 27t-27 75v349q0 48 27 75zM178 119q15 -15 47 -15h669q32 0 47 15t15 48v339q0 33 -15 48
t-47 15h-669q-32 0 -47 -15t-15 -48v-339q0 -33 15 -48z" />
    <glyph glyph-name="internet" unicode="&#x3a;i&#x3a;" horiz-adv-x="909" 
d="M284.5 33q-77.5 45 -122.5 122.5t-45 169.5t45 170t122.5 123.5t169.5 45.5t170 -45.5t123.5 -123.5t45.5 -170t-45.5 -169.5t-123.5 -122.5t-170 -45t-169.5 45zM173 246q68 -17 136 -17q-44 114 -44 242q0 48 5 83q-50 -41 -79 -101t-29 -128q0 -40 11 -79zM276.5 92.5
q65.5 -50.5 148.5 -58.5q-67 80 -107 172h-5q-65 0 -132 14q30 -77 95.5 -127.5zM337 229q145 6 273 80q-16 86 -55.5 165t-97.5 145h-3q-87 0 -158 -47q-8 -53 -8 -104q0 -120 49 -239zM459 33q84 1 155 47q8 53 8 104q0 48 -8 101q-126 -71 -267 -78q44 -97 112 -174z
M577.5 479q36.5 -75 53.5 -158q60 39 105 86q-24 84 -92 142t-156 68q53 -63 89.5 -138zM645 184q0 -38 -5 -86q51 41 79.5 100t28.5 127q0 26 -5 56q-49 -47 -107 -84q9 -55 9 -113z" />
    <glyph glyph-name=".notdef" horiz-adv-x="590" 
d="M500 690v-690h-410v690h410zM278 344l-153 282v-564zM295 376l151 279h-302zM445 35l-150 276l-150 -276h300zM465 62v564l-152 -282z" />
    <glyph glyph-name=".null" horiz-adv-x="0" 
 />
    <glyph glyph-name="nonmarkingreturn" horiz-adv-x="333" 
 />
    <glyph glyph-name="space" unicode=" " horiz-adv-x="198" 
 />
    <glyph glyph-name="space" unicode="&#xa0;" horiz-adv-x="198" 
 />
    <glyph glyph-name="exclam" unicode="!" horiz-adv-x="323" 
d="M241 690l-16 -484h-127l-17 484h160zM93 132q23 22 69 22q45 0 68 -22t23 -61t-23 -61t-68 -22q-46 0 -69 22t-23 61t23 61z" />
    <glyph glyph-name="quotedbl" unicode="&#x22;" horiz-adv-x="426" 
d="M171 647l-20 -233h-85l-21 233v83h126v-83zM381 647l-20 -233h-85l-21 233v83h126v-83z" />
    <glyph glyph-name="numbersign" unicode="#" horiz-adv-x="737" 
d="M604 730l-31 -188h107l-16 -96h-107l-26 -162h107l-16 -96h-107l-31 -188h-108l31 188h-136l-31 -188h-108l31 188h-106l15 96h107l26 162h-106l16 96h106l31 188h108l-31 -188h136l31 188h108zM423 284l26 162h-136l-26 -162h136z" />
    <glyph glyph-name="dollar" unicode="$" horiz-adv-x="540" 
d="M103 622q44 52 120 71v106h102v-97q67 -4 126 -29v-131q-39 15 -78.5 24t-70.5 9q-38 0 -62 -17t-24 -50q0 -30 22 -47t85 -43q74 -32 119.5 -80.5t45.5 -133.5q0 -84 -47.5 -138.5t-129.5 -71.5v-104h-101v99q-43 4 -85.5 16t-73.5 30v138q45 -26 98 -42t94 -16
q42 0 65 19t23 53q0 37 -27 58.5t-88 47.5q-69 28 -113 73.5t-44 126.5q0 77 44 129z" />
    <glyph glyph-name="percent" unicode="%" horiz-adv-x="802" 
d="M66 389.5q-46 50.5 -46 128.5t46 128t122 50t122 -50t46 -128t-46 -128.5t-122 -50.5t-122 50.5zM635 690h93l-562 -690h-93zM131.5 442q18.5 -30 56.5 -30t57 30t19 76t-19 76t-57 30t-56.5 -30t-18.5 -76t18.5 -76zM492 301q46 50 122 50q75 0 121.5 -50t46.5 -128
q0 -51 -21 -91.5t-59 -64t-88 -23.5q-76 0 -122 50.5t-46 128.5t46 128zM557.5 97q18.5 -30 56.5 -30t57 30.5t19 75.5t-19 75.5t-57 30.5t-56.5 -30t-18.5 -76t18.5 -76z" />
    <glyph glyph-name="ampersand" unicode="&#x26;" horiz-adv-x="706" 
d="M449.5 573.5q-34.5 5.5 -59.5 5.5q-45 0 -67.5 -18t-22.5 -50q0 -22 12 -45t36 -52l152 -182q6 51 6 172h137q0 -168 -67 -264l117 -140h-176l-56 67q-37 -37 -87 -58t-107 -21q-60 0 -109.5 23.5t-78.5 68.5t-29 106q0 71 38.5 123t102.5 83q-47 66 -47 132
q0 50 27 90.5t79.5 64t125.5 23.5q63 0 133 -17v-125q-25 8 -59.5 13.5zM224 132.5q29 -31.5 81 -31.5q54 0 99 34l-154 184q-26 -22 -40.5 -50t-14.5 -60q0 -45 29 -76.5z" />
    <glyph glyph-name="quotesingle" unicode="'" horiz-adv-x="216" 
d="M171 647l-20 -233h-85l-21 233v83h126v-83z" />
    <glyph glyph-name="parenleft" unicode="(" horiz-adv-x="366" 
d="M243 503q-28 -128 -28 -238t28 -238t80 -227h-115q-140 198 -140 465t140 465h115q-52 -99 -80 -227z" />
    <glyph glyph-name="parenright" unicode=")" horiz-adv-x="366" 
d="M265 507.5q33 -118.5 33 -242.5t-33 -242.5t-106 -222.5h-116q52 98 80 226t28 239t-28 239t-80 226h116q73 -104 106 -222.5z" />
    <glyph glyph-name="asterisk" unicode="*" horiz-adv-x="492" 
d="M210 468l-114 -78l-46 80l125 60l-125 60l46 80l114 -78l-10 138h92l-10 -138l114 78l46 -80l-125 -60l125 -60l-46 -80l-114 78l10 -138h-92z" />
    <glyph glyph-name="plus" unicode="+" horiz-adv-x="638" 
d="M251 280h-191v129h191v195h136v-195h191v-129h-191v-195h-136v195z" />
    <glyph glyph-name="comma" unicode="," horiz-adv-x="304" 
d="M131 -9q-35 5 -53 26.5t-18 55.5q0 39 23 61t70 22q91 0 91 -90q0 -52 -25.5 -119.5t-65.5 -118.5h-75q40 84 53 163z" />
    <glyph glyph-name="hyphen" unicode="-" horiz-adv-x="389" 
d="M349 309v-99h-309v99h309z" />
    <glyph glyph-name="period" unicode="." horiz-adv-x="307" 
d="M83.5 10.5q-23.5 22.5 -23.5 62.5t23.5 62t70.5 22t70 -22t23 -62t-23 -62.5t-70 -22.5t-70.5 22.5z" />
    <glyph glyph-name="slash" unicode="/" horiz-adv-x="371" 
d="M242 730h129l-242 -902h-129z" />
    <glyph glyph-name="zero" unicode="0" horiz-adv-x="654" 
d="M123 81.5q-73 93.5 -73 263.5t73 263.5t204 93.5t204 -93.5t73 -263.5t-73 -263.5t-204 -93.5t-204 93.5zM236 167q29 -60 91 -60t91.5 60.5t29.5 177.5t-29.5 177.5t-91.5 60.5t-91 -60t-29 -178t29 -178z" />
    <glyph glyph-name="one" unicode="1" horiz-adv-x="425" 
d="M163 554l-147 -73v119l181 90h121v-690h-155v554z" />
    <glyph glyph-name="two" unicode="2" horiz-adv-x="543" 
d="M50 0v128l177 194q46 53 69 90.5t23 79.5q0 43 -27.5 67t-79.5 24q-32 0 -71.5 -10t-73.5 -26v123q42 15 90.5 23.5t91.5 8.5q106 0 166.5 -50t60.5 -139q0 -48 -18.5 -91t-49 -81t-84.5 -95l-103 -112v-12h269v-122h-440z" />
    <glyph glyph-name="three" unicode="3" horiz-adv-x="527" 
d="M234 702q104 0 165.5 -41.5t61.5 -113.5q0 -53 -35 -95t-97 -68q70 -14 110 -59.5t40 -114.5q0 -222 -427 -222v119q135 0 202.5 28t67.5 88q0 82 -120 82q-40 0 -96 -9v108q92 13 145.5 41t53.5 72q0 31 -25.5 48.5t-72.5 17.5q-36 0 -78.5 -9t-76.5 -25v119
q88 34 182 34z" />
    <glyph glyph-name="four" unicode="4" horiz-adv-x="575" 
d="M325 154h-293v107l204 429h150l-198 -417h138l53 184h91v-184h86l-11 -119h-75v-154h-154z" />
    <glyph glyph-name="five" unicode="5" horiz-adv-x="535" 
d="M430 369.5q59 -48.5 59 -139.5q0 -123 -108.5 -182.5t-308.5 -59.5v119q131 0 196.5 27.5t65.5 86.5q0 42 -31.5 62t-88.5 20q-56 0 -142 -16v403h393v-122h-268v-154q48 4 69 4q105 0 164 -48.5z" />
    <glyph glyph-name="six" unicode="6" horiz-adv-x="615" 
d="M178.5 25.5q-62.5 37.5 -95.5 108t-33 166.5q0 130 58.5 222.5t160.5 139.5t231 47v-122q-122 0 -202.5 -56.5t-91.5 -168.5h7q29 36 73 57.5t96 21.5q56 0 101.5 -26t71.5 -74.5t26 -113.5q0 -72 -32 -126t-89.5 -83.5t-133.5 -29.5q-85 0 -147.5 37.5zM239 145
q30 -42 88 -42q48 0 77.5 29t29.5 83q0 50 -27 80.5t-78 30.5q-38 0 -70 -16.5t-54 -46.5q4 -76 34 -118z" />
    <glyph glyph-name="seven" unicode="7" horiz-adv-x="532" 
d="M496 690v-79q-91 -123 -139.5 -264.5t-48.5 -346.5h-158q0 175 40 306.5t113 240.5v11h-266v132h459z" />
    <glyph glyph-name="eight" unicode="8" horiz-adv-x="623" 
d="M85 262.5q35 40.5 96 64.5v5q-50 27 -79 67.5t-29 102.5q0 61 30.5 106t85.5 69.5t129 24.5q66 0 119 -20.5t83 -58.5t30 -88q0 -51 -29.5 -93t-81.5 -68v-6q67 -30 101 -70t34 -105q0 -100 -73 -152.5t-191 -52.5q-76 0 -135 21.5t-92 62t-33 94.5q0 56 35 96.5z
M225.5 118.5q31.5 -25.5 85.5 -25.5q55 0 87 25t32 61q0 33 -27 54.5t-77 40.5l-50 18q-39 -18 -60.5 -46t-21.5 -61q0 -41 31.5 -66.5zM238.5 457.5q28.5 -24.5 83.5 -44.5l26 -10q30 21 48 48t18 58q0 40 -27 64t-74 24t-75 -23t-28 -58q0 -34 28.5 -58.5z" />
    <glyph glyph-name="nine" unicode="9" horiz-adv-x="615" 
d="M435.5 663q62.5 -39 96 -110t33.5 -166q0 -128 -58.5 -219.5t-160.5 -139t-231 -47.5v122q121 0 201.5 53.5t91.5 166.5h-6q-28 -32 -72.5 -51.5t-94.5 -19.5q-57 0 -103 25.5t-72 73.5t-26 113q0 71 31.5 125t89 83.5t132.5 29.5q86 0 148.5 -39zM208 397q27 -30 78 -30
q37 0 69.5 15.5t54.5 42.5q-2 77 -32 119.5t-90 42.5q-48 0 -77.5 -28.5t-29.5 -81.5q0 -50 27 -80z" />
    <glyph glyph-name="colon" unicode=":" horiz-adv-x="307" 
d="M83.5 10.5q-23.5 22.5 -23.5 62.5t23.5 62t70.5 22t70 -22t23 -62t-23 -62.5t-70 -22.5t-70.5 22.5zM83.5 383.5q-23.5 22.5 -23.5 62.5t23.5 62t70.5 22t70 -22t23 -62t-23 -62.5t-70 -22.5t-70.5 22.5z" />
    <glyph glyph-name="semicolon" unicode=";" horiz-adv-x="307" 
d="M133 -9q-35 5 -53 26.5t-18 55.5q0 39 23 61t70 22q91 0 91 -90q0 -52 -25.5 -119.5t-65.5 -118.5h-75q40 84 53 163zM83.5 383.5q-23.5 22.5 -23.5 62.5t23.5 62t70.5 22t70 -22t23 -62t-23 -62.5t-70 -22.5t-70.5 22.5z" />
    <glyph glyph-name="less" unicode="&#x3c;" horiz-adv-x="623" 
d="M50 272v146l517 186v-132l-376 -122v-10l376 -122v-132z" />
    <glyph glyph-name="equal" unicode="=" horiz-adv-x="638" 
d="M60 148v129h518v-129h-518zM60 413v129h518v-129h-518z" />
    <glyph glyph-name="greater" unicode="&#x3e;" horiz-adv-x="623" 
d="M573 418v-146l-516 -186v132l376 122v10l-376 122v132z" />
    <glyph glyph-name="question" unicode="?" horiz-adv-x="468" 
d="M120 10.5q-23 22.5 -23 62.5q0 39 23 61t70 22q46 0 69.5 -22t23.5 -61q0 -40 -23.5 -62.5t-69.5 -22.5q-47 0 -70 22.5zM33 673q33 13 78.5 21t87.5 8q101 0 162.5 -46.5t61.5 -126.5q0 -53 -23 -88t-67 -77q-40 -38 -59.5 -66.5t-19.5 -68.5v-23h-130v34q0 46 13 80.5
t31 57t46 49.5q27 26 39 42.5t12 37.5q0 34 -23.5 51t-61.5 17q-71 0 -147 -33v131z" />
    <glyph glyph-name="at" unicode="@" horiz-adv-x="999" 
d="M565 361q-34 8 -53 8q-39 0 -64 -29t-36.5 -69t-11.5 -72q0 -34 14 -53.5t36 -19.5q33 0 61.5 44.5t38.5 104.5zM109 480.5q61 102.5 169 160t243 57.5q127 0 224.5 -50t151.5 -139.5t54 -204.5q0 -89 -32.5 -151.5t-87.5 -94t-122 -31.5q-61 0 -99 26t-56 70h-8
q-20 -39 -60.5 -67.5t-87.5 -28.5q-57 0 -92 43t-35 121q0 72 30.5 135.5t88 102.5t133.5 39q44 0 92.5 -12.5t88.5 -31.5l-34 -200q-4 -28 -4 -38q0 -39 17 -60t52 -21t65 22t47.5 65t17.5 103q0 94 -43.5 168t-122.5 115.5t-182 41.5q-110 0 -197 -47t-136.5 -132
t-49.5 -194q0 -112 51.5 -197.5t140 -132.5t196.5 -47q74 0 147 23.5t135 72.5v-82q-53 -40 -126.5 -66t-159.5 -26q-127 0 -235 57t-171.5 160.5t-63.5 237.5q0 131 61 233.5z" />
    <glyph glyph-name="A" unicode="A" horiz-adv-x="652" 
d="M476 0l-45 158h-216l-45 -158h-152l197 690h223l196 -690h-158zM405 280l-76 264h-11l-76 -264h163z" />
    <glyph glyph-name="B" unicode="B" horiz-adv-x="628" 
d="M80 690h287q91 0 144 -44t53 -123q0 -57 -26.5 -96t-68.5 -57v-6q58 -16 89.5 -60t31.5 -109q0 -91 -59 -143t-157 -52h-294v690zM338 110q48 0 74.5 24.5t26.5 70.5t-26.5 70.5t-74.5 24.5h-104v-190h104zM328 403q44 0 68 23t24 66t-24.5 65.5t-68.5 22.5h-93v-177h94z
" />
    <glyph glyph-name="C" unicode="C" horiz-adv-x="567" 
d="M443.5 562.5q-39.5 8.5 -73.5 8.5q-87 0 -129.5 -59.5t-42.5 -166.5t43 -166.5t131 -59.5q31 0 72.5 6.5t65.5 16.5v-135q-30 -9 -68.5 -14t-73.5 -5q-105 0 -179 44t-112.5 124t-38.5 188q0 109 38.5 189.5t112 124.5t176.5 44q82 0 145 -25v-135q-27 12 -66.5 20.5z
" />
    <glyph glyph-name="D" unicode="D" horiz-adv-x="691" 
d="M343 690q147 0 228 -92.5t81 -252.5q0 -106 -36 -183.5t-105.5 -119.5t-167.5 -42h-263v690h263zM343 128q151 0 151 217t-151 217h-107v-434h107z" />
    <glyph glyph-name="E" unicode="E" horiz-adv-x="541" 
d="M502 690v-123h-266v-156h193v-122h-193v-166h266v-123h-422v690h422z" />
    <glyph glyph-name="F" unicode="F" horiz-adv-x="529" 
d="M494 690v-126h-257v-186h192v-126h-192v-252h-157v690h414z" />
    <glyph glyph-name="G" unicode="G" horiz-adv-x="652" 
d="M476 565.5q-47 7.5 -85 7.5q-193 0 -193 -228q0 -111 44.5 -169.5t139.5 -58.5l49 2v214h148v-319q-45 -12 -102.5 -19t-101.5 -7q-109 0 -184.5 43.5t-114 124t-38.5 188.5q0 110 40 190.5t118.5 124t190.5 43.5q92 0 167 -24v-131q-31 11 -78 18.5z" />
    <glyph glyph-name="H" unicode="H" horiz-adv-x="698" 
d="M237 690v-276h225v276h157v-690h-157v288h-225v-288h-157v690h157z" />
    <glyph glyph-name="I" unicode="I" horiz-adv-x="317" 
d="M237 690v-690h-157v690h157z" />
    <glyph glyph-name="J" unicode="J" horiz-adv-x="410" 
d="M49.5 119q20.5 -2 35.5 -2q90 0 90 106v467h157v-470q0 -109 -59 -170.5t-172 -61.5q-45 0 -91 7v129q19 -3 39.5 -5z" />
    <glyph glyph-name="K" unicode="K" horiz-adv-x="650" 
d="M237 690v-309h7l208 309h162l-180 -274l189 -416h-169l-136 309h-5l-76 -117v-192h-157v690h157z" />
    <glyph glyph-name="L" unicode="L" horiz-adv-x="523" 
d="M237 690v-564h245v-126h-402v690h157z" />
    <glyph glyph-name="M" unicode="M" horiz-adv-x="1010" 
d="M499 152h14l146 538h213l78 -690h-159l-28 346q-8 97 -10 169h-11l-147 -515h-194l-149 515h-10q-6 -117 -11 -167l-32 -348h-139l77 690h216z" />
    <glyph glyph-name="N" unicode="N" horiz-adv-x="698" 
d="M80 690h151l259 -486h7q-19 130 -19 246v240h141v-690h-151l-260 485h-6q19 -140 19 -245v-240h-141v690z" />
    <glyph glyph-name="O" unicode="O" horiz-adv-x="691" 
d="M118.5 83.5q-80.5 95.5 -80.5 261.5t80.5 261.5t227.5 95.5t227 -95t80 -262t-80 -262t-227 -95t-227.5 95.5zM346 117q148 0 148 228t-148 228q-149 0 -149 -228t149 -228z" />
    <glyph glyph-name="P" unicode="P" horiz-adv-x="597" 
d="M80 690h251q71 0 123.5 -29.5t81 -84t28.5 -126.5t-28.5 -126.5t-81 -84t-123.5 -29.5h-94v-210h-157v690zM306 332q54 0 80.5 29t26.5 89t-26.5 89t-80.5 29h-69v-236h69z" />
    <glyph glyph-name="Q" unicode="Q" horiz-adv-x="691" 
d="M494 345q0 228 -148 228q-149 0 -149 -228t149 -228q148 0 148 228zM118.5 606.5q80.5 95.5 227.5 95.5t227 -95t80 -262q0 -152 -66.5 -245t-191.5 -109q18 -39 53 -60t79 -21q31 0 66 4.5t60 12.5v-124q-23 -7 -60.5 -11t-71.5 -4q-65 0 -118 26.5t-86.5 73.5
t-40.5 106q-115 22 -176.5 114t-61.5 237q0 166 80.5 261.5z" />
    <glyph glyph-name="R" unicode="R" horiz-adv-x="629" 
d="M80 690h283q92 0 145.5 -51t53.5 -144q0 -66 -28.5 -112.5t-75.5 -69.5v-7l138 -306h-168l-101 248h-91v-248h-156v690zM316 359q49 0 74 28t25 83q0 108 -99 108h-80v-219h80z" />
    <glyph glyph-name="S" unicode="S" horiz-adv-x="560" 
d="M119.5 646.5q70.5 55.5 186.5 55.5q44 0 90.5 -8t84.5 -21v-131q-49 15 -100 24t-86 9q-42 0 -65.5 -17.5t-23.5 -51.5q0 -31 19.5 -48t63.5 -34l77 -29q153 -58 153 -195q0 -65 -31.5 -113t-89.5 -73.5t-134 -25.5q-57 0 -119 13t-104 34v138q52 -26 115 -42t112 -16
q43 0 68 17.5t25 51.5q0 31 -21 50t-69 37l-67 25q-75 27 -115 73.5t-40 121.5q0 100 70.5 155.5z" />
    <glyph glyph-name="T" unicode="T" horiz-adv-x="553" 
d="M528 564h-173v-564h-157v564h-173v126h503v-126z" />
    <glyph glyph-name="U" unicode="U" horiz-adv-x="685" 
d="M536 54.5q-70 -66.5 -193 -66.5t-193 66.5t-70 179.5v456h157v-449q0 -58 25.5 -91t80.5 -33t80.5 33t25.5 91v449h157v-456q0 -113 -70 -179.5z" />
    <glyph glyph-name="V" unicode="V" horiz-adv-x="644" 
d="M184 690l138 -540h10l138 540h151l-185 -690h-228l-185 690h161z" />
    <glyph glyph-name="W" unicode="W" horiz-adv-x="1075" 
d="M184 690l126 -544h14l109 544h228l108 -544h13l126 544h144l-173 -690h-217l-113 548h-14l-114 -548h-225l-173 690h161z" />
    <glyph glyph-name="X" unicode="X" horiz-adv-x="631" 
d="M190 690l125 -253h8l123 253h162l-164 -336l171 -354h-167l-134 268h-5l-130 -268h-162l170 349l-164 341h167z" />
    <glyph glyph-name="Y" unicode="Y" horiz-adv-x="625" 
d="M187 690l121 -310h13l121 310h166l-216 -466v-224h-158v224l-217 466h170z" />
    <glyph glyph-name="Z" unicode="Z" horiz-adv-x="612" 
d="M552 690v-95l-313 -473l323 5v-127h-512v95l312 473l-305 -5v127h495z" />
    <glyph glyph-name="bracketleft" unicode="[" horiz-adv-x="388" 
d="M328 730v-116h-84v-698h84v-116h-228v930h228z" />
    <glyph glyph-name="backslash" unicode="\" horiz-adv-x="371" 
d="M242 -172l-242 902h129l242 -902h-129z" />
    <glyph glyph-name="bracketright" unicode="]" horiz-adv-x="388" 
d="M288 -200h-228v116h84v698h-84v116h228v-930z" />
    <glyph glyph-name="asciicircum" unicode="^" horiz-adv-x="527" 
d="M191 690h145l182 -345h-130l-122 238h-5l-122 -238h-130z" />
    <glyph glyph-name="underscore" unicode="_" horiz-adv-x="459" 
d="M459 -85v-99h-459v99h459z" />
    <glyph glyph-name="grave" unicode="`" horiz-adv-x="260" 
d="M150 742l47 -168h-101l-89 156v12h143z" />
    <glyph glyph-name="a" unicode="a" horiz-adv-x="528" 
d="M336 52h-8q-29 -30 -66 -47t-80 -17q-67 0 -110 41t-43 118q0 83 51.5 123.5t143.5 40.5q32 0 84 -6v29q0 78 -91 78q-34 0 -74 -10t-71 -25v119q77 34 170 34q105 0 163 -49t58 -143v-195l17 -143h-122zM179 101.5q17 -18.5 48 -18.5q41 0 82 31l-1 3v106l-56 2
q-90 0 -90 -73q0 -32 17 -50.5z" />
    <glyph glyph-name="b" unicode="b" horiz-adv-x="592" 
d="M68 730h155v-268h10q21 31 55 49.5t77 18.5q55 0 98.5 -30t69 -89t25.5 -143q0 -138 -70.5 -209t-200.5 -71q-59 0 -117.5 13t-101.5 32v697zM293 107q108 0 108 151q0 78 -23.5 116t-66.5 38q-40 0 -64 -29.5t-24 -77.5v-187q40 -11 70 -11z" />
    <glyph glyph-name="c" unicode="c" horiz-adv-x="451" 
d="M353.5 402q-28.5 6 -51.5 6q-53 0 -80 -37t-27 -110q0 -151 112 -151q23 0 50 6t46 14v-124q-49 -18 -109 -18q-80 0 -138.5 33.5t-90 95t-31.5 143.5q0 81 31.5 142t90.5 94.5t139 33.5q52 0 108 -15v-127q-21 8 -49.5 14z" />
    <glyph glyph-name="d" unicode="d" horiz-adv-x="590" 
d="M393 0l-11 67h-10q-55 -79 -144 -79q-56 0 -100 30.5t-69 89t-25 139.5q0 92 33 156t88.5 95.5t123.5 31.5q49 0 90 -18v218h155v-587l17 -143h-148zM214 145q23 -38 67 -38q40 0 64 29t24 77v183q-43 16 -75 16q-103 0 -103 -153q0 -76 23 -114z" />
    <glyph glyph-name="e" unicode="e" horiz-adv-x="531" 
d="M384.5 -5q-46.5 -7 -85.5 -7q-128 0 -196.5 74t-68.5 200q0 123 62.5 195.5t172.5 72.5q106 0 167 -68t61 -188q0 -36 -4 -60h-312q8 -113 136 -113q76 0 148 28v-114q-34 -13 -80.5 -20zM359 303v11q0 49 -22 80t-64 31q-45 0 -68 -36.5t-25 -85.5h179z" />
    <glyph glyph-name="f" unicode="f" horiz-adv-x="376" 
d="M120.5 695.5q48.5 46.5 140.5 46.5q50 0 106 -15v-126q-55 19 -91 19q-59 0 -59 -64v-51h147v-115h-137v-390h-155v390h-55v84l55 15v80q0 80 48.5 126.5z" />
    <glyph glyph-name="g" unicode="g" horiz-adv-x="526" 
d="M204 154q-7 -13 -7 -27q0 -36 46 -36h107q76 0 117.5 -34.5t41.5 -97.5q0 -82 -71 -126.5t-199 -44.5q-97 0 -211 32v103q52 -17 110 -26.5t112 -9.5q58 0 88.5 13t30.5 38q0 14 -10.5 22.5t-29.5 8.5h-131q-63 0 -97.5 28t-34.5 73q0 33 17 58.5t45 42.5v7
q-50 21 -77.5 63t-27.5 102q0 89 59.5 138t154.5 49q62 0 140 -7.5t128 -17.5v-120q-40 28 -116 54v-13q29 -14 45 -42.5t16 -70.5q0 -76 -56.5 -118.5t-153.5 -42.5q-14 0 -36 2zM184 274.5q19 -23.5 54 -23.5t55.5 24t20.5 65t-20.5 65.5t-55.5 24.5t-54 -24t-19 -66
t19 -65.5z" />
    <glyph glyph-name="h" unicode="h" horiz-adv-x="592" 
d="M223 730v-260h6q32 27 72 43.5t83 16.5q66 0 104.5 -39t38.5 -111v-380h-155v325q0 33 -18 51.5t-50 18.5q-39 0 -81 -30v-365h-155v730h155z" />
    <glyph glyph-name="i" unicode="i" horiz-adv-x="291" 
d="M223 518v-518h-155v518h155zM82.5 711q21.5 19 63.5 19t63 -19t21 -53q0 -35 -21 -54t-63 -19t-63.5 19.5t-21.5 53.5t21.5 53z" />
    <glyph glyph-name="j" unicode="j" horiz-adv-x="291" 
d="M53 -74q15 18 15 51v541h155v-555q0 -85 -42.5 -129.5t-123.5 -45.5q-28 0 -49 5v115q30 0 45 18zM82.5 711q21.5 19 63.5 19t63 -19t21 -53q0 -35 -21 -54t-63 -19t-63.5 19.5t-21.5 53.5t21.5 53z" />
    <glyph glyph-name="k" unicode="k" horiz-adv-x="566" 
d="M68 730h155v-398h10l162 186h149l-138 -165l146 -353h-157l-103 246h-8l-61 -72v-174h-155v730z" />
    <glyph glyph-name="l" unicode="l" horiz-adv-x="291" 
d="M68 730h155v-730h-155v730z" />
    <glyph glyph-name="m" unicode="m" horiz-adv-x="877" 
d="M199 518l11 -63h9q28 33 68.5 54t85.5 21q44 0 77.5 -20t50.5 -57h9q29 34 70 55.5t87 21.5q66 0 105.5 -43.5t39.5 -113.5v-373h-155v325q0 33 -17 51.5t-47 18.5q-36 0 -75 -28v-367h-155v325q0 33 -17 51.5t-47 18.5q-38 0 -76 -29v-366h-155v376l-17 142h148z" />
    <glyph glyph-name="n" unicode="n" horiz-adv-x="592" 
d="M199 518l11 -63h9q29 33 70.5 54t88.5 21q68 0 108.5 -43.5t40.5 -113.5v-373h-155v325q0 33 -18 51.5t-50 18.5q-39 0 -81 -30v-365h-155v376l-17 142h148z" />
    <glyph glyph-name="o" unicode="o" horiz-adv-x="573" 
d="M101 61.5q-67 73.5 -67 197.5t67 197.5t186 73.5q78 0 135 -33.5t87 -94.5t30 -143t-30 -143t-87 -94.5t-135 -33.5q-119 0 -186 73.5zM213.5 146q22.5 -39 72.5 -39q97 0 97 152q0 153 -97 153q-95 0 -95 -153q0 -74 22.5 -113z" />
    <glyph glyph-name="p" unicode="p" horiz-adv-x="592" 
d="M199 518l11 -66h10q56 78 144 78q55 0 99 -30.5t69.5 -89t25.5 -139.5q0 -92 -33 -156t-88.5 -95.5t-124.5 -31.5q-51 0 -89 19v-207h-155v576l-17 142h148zM297 107q53 0 78.5 39.5t25.5 112.5q0 77 -23.5 115t-67.5 38q-39 0 -63 -29.5t-24 -77.5v-182q37 -16 74 -16z
" />
    <glyph glyph-name="q" unicode="q" horiz-adv-x="592" 
d="M524 -200h-155v256h-10q-22 -31 -55 -49.5t-77 -18.5q-55 0 -98.5 30t-69 89t-25.5 143q0 138 70.5 209t200.5 71q59 0 117 -13t102 -31v-686zM214.5 145q23.5 -38 66.5 -38q40 0 64 29t24 77v188q-40 11 -70 11q-108 0 -108 -152q0 -77 23.5 -115z" />
    <glyph glyph-name="r" unicode="r" horiz-adv-x="410" 
d="M199 518l11 -67h9q26 37 61 58t72 21q23 0 33 -1v-154q-28 9 -55 9q-30 0 -57.5 -11t-49.5 -30v-343h-155v376l-17 142h148z" />
    <glyph glyph-name="s" unicode="s" horiz-adv-x="455" 
d="M95.5 488.5q57.5 41.5 158.5 41.5q34 0 73 -4t61 -11v-122q-32 13 -73 22.5t-67 9.5q-28 0 -45.5 -11t-17.5 -33q0 -20 13.5 -31t40.5 -22l46 -16q67 -23 103.5 -57t36.5 -99q0 -79 -56.5 -123.5t-161.5 -44.5q-44 0 -94 7.5t-80 20.5v124q42 -20 90 -33t85 -13
q33 0 50.5 12.5t17.5 35.5q0 20 -13.5 30.5t-46.5 22.5l-42 15q-62 22 -99 57.5t-37 100.5q0 79 57.5 120.5z" />
    <glyph glyph-name="t" unicode="t" horiz-adv-x="387" 
d="M72 404h-56v90l63 13l46 139h102v-128h135v-114h-135v-228q0 -31 13 -48t39 -17q34 0 83 19v-124q-23 -8 -58.5 -13t-64.5 -5q-79 0 -123 44.5t-44 119.5v252z" />
    <glyph glyph-name="u" unicode="u" horiz-adv-x="583" 
d="M384 0l-11 63h-9q-28 -33 -68.5 -54t-85.5 -21q-66 0 -105.5 43.5t-39.5 113.5v373h155v-324q0 -34 17 -52.5t47 -18.5q38 0 76 29v366h155v-375l17 -143h-148z" />
    <glyph glyph-name="v" unicode="v" horiz-adv-x="527" 
d="M170 518l92 -389h13l93 389h150l-148 -518h-212l-149 518h161z" />
    <glyph glyph-name="w" unicode="w" horiz-adv-x="881" 
d="M168 518l82 -389h12l81 389h211l77 -389h12l82 389h146l-139 -518h-203l-83 391h-12l-83 -391h-202l-140 518h159z" />
    <glyph glyph-name="x" unicode="x" horiz-adv-x="509" 
d="M171 518l85 -170h4l89 170h146l-135 -254l142 -264h-159l-88 179h-8l-93 -179h-147l141 267l-135 251h158z" />
    <glyph glyph-name="y" unicode="y" horiz-adv-x="527" 
d="M170 518l92 -389h13l93 389h150l-149 -512q-28 -100 -92.5 -159t-164.5 -59q-27 0 -60.5 4t-53.5 11v124q22 -8 52 -12.5t53 -4.5q47 0 77 23t51 72h-74l-148 513h161z" />
    <glyph glyph-name="z" unicode="z" horiz-adv-x="446" 
d="M411 518v-97l-225 -310l233 4v-115h-399v97l226 310l-224 -3v114h389z" />
    <glyph glyph-name="braceleft" unicode="{" horiz-adv-x="413" 
d="M291 36q-9 -47 -9 -66q0 -27 15.5 -42t40.5 -15h17v-113h-40q-78 0 -129 37.5t-51 111.5q0 26 10 94q10 64 10 88q0 42 -19 61t-56 19h-7v108h7q37 0 56 19t19 61q0 24 -10 88q-10 68 -10 94q0 74 51 111.5t129 37.5h40v-113h-17q-25 0 -40.5 -15t-15.5 -42q0 -19 9 -66
q11 -66 11 -88q0 -47 -26 -83t-70 -53v-10q44 -17 70 -53t26 -83q0 -22 -11 -88z" />
    <glyph glyph-name="bar" unicode="|" horiz-adv-x="327" 
d="M237 730v-930h-147v930h147z" />
    <glyph glyph-name="braceright" unicode="}" horiz-adv-x="413" 
d="M137 207q26 36 70 53v10q-44 17 -70 53t-26 83q0 22 11 88q9 47 9 66q0 27 -15.5 42t-40.5 15h-17v113h40q78 0 129 -37.5t51 -111.5q0 -26 -10 -94q-10 -64 -10 -88q0 -42 19 -61t56 -19h7v-108h-7q-37 0 -56 -19t-19 -61q0 -24 10 -88q10 -68 10 -94q0 -74 -51 -111.5
t-129 -37.5h-40v113h17q25 0 40.5 15t15.5 42q0 19 -9 66q-11 66 -11 88q0 47 26 83z" />
    <glyph glyph-name="asciitilde" unicode="~" horiz-adv-x="638" 
d="M441 260q-32 0 -59.5 6.5t-63.5 19.5t-63.5 19.5t-58.5 6.5q-38 0 -73 -11t-63 -31v118q28 20 63.5 31t74.5 11q32 0 58.5 -6.5t63.5 -19.5q36 -13 63.5 -19.5t58.5 -6.5q38 0 73.5 11t62.5 31v-118q-58 -42 -137 -42z" />
    <glyph glyph-name="exclamdown" unicode="&#xa1;" horiz-adv-x="323" 
d="M98 313h127l16 -485h-160zM93 508q23 22 69 22q45 0 68 -22t23 -61t-22.5 -60.5t-68.5 -21.5t-69 21.5t-23 60.5t23 61z" />
    <glyph glyph-name="cent" unicode="&#xa2;" horiz-adv-x="471" 
d="M363.5 509q-28.5 6 -51.5 6q-107 0 -107 -148q0 -151 112 -151q22 0 49 6t47 14v-124q-49 -18 -109 -18v-94h-101v110q-76 27 -117.5 94t-41.5 162q0 94 41.5 161t117.5 94v109h101v-93h1q48 0 108 -16v-126q-21 8 -49.5 14z" />
    <glyph glyph-name="sterling" unicode="&#xa3;" horiz-adv-x="574" 
d="M514 0h-452v95q43 37 66.5 85t23.5 96q0 15 -1 22h-89v84h61q-23 46 -32.5 73t-9.5 65q0 86 61 134t166 48q43 0 91 -8.5t90 -23.5v-123q-34 16 -73 26t-72 10q-52 0 -79.5 -23t-27.5 -63q0 -21 6.5 -43t19.5 -52q3 -5 4.5 -10.5t3.5 -9.5h168v-84h-146q1 -5 1 -16
q0 -83 -91 -160h311v-122z" />
    <glyph glyph-name="currency" unicode="&#xa4;" horiz-adv-x="637" 
d="M211 142l-89 -89l-72 72l89 89q-30 51 -30 108t30 106l-89 89l72 73l90 -90q49 30 107 30q57 0 106 -30l90 90l72 -73l-89 -89q30 -49 30 -106t-30 -108l89 -89l-72 -72l-89 89q-51 -30 -107 -30q-57 0 -108 30zM238 241q34 -34 81 -34t80.5 34t33.5 81t-33.5 80.5
t-80.5 33.5t-81 -33.5t-34 -80.5t34 -81z" />
    <glyph glyph-name="yen" unicode="&#xa5;" horiz-adv-x="635" 
d="M192 690l121 -310h13l121 310h166l-178 -384h104v-84h-142v-60h142v-83h-142v-79h-158v79h-138v83h138v60h-138v84h100l-179 384h170z" />
    <glyph glyph-name="brokenbar" unicode="&#xa6;" horiz-adv-x="327" 
d="M90 730h147v-342h-147v342zM90 142h147v-342h-147v342z" />
    <glyph glyph-name="section" unicode="&#xa7;" horiz-adv-x="552" 
d="M142 325.5q18 -41.5 44 -72.5t69 -75q37 -38 57 -62t34 -53t14 -61q0 -56 -45 -103h12q99 67 99 177q0 48 -18 89t-43 71.5t-68 73.5q-53 53 -79.5 91.5t-26.5 85.5q0 58 44 104h-12q-99 -65 -99 -175q0 -49 18 -90.5zM85 552q44 70 122 110t175 40q42 0 88 -8v-130
q-54 11 -101 11q-45 0 -70.5 -20t-25.5 -52q0 -30 22.5 -59.5t67.5 -72.5q47 -47 76 -81t50.5 -82t21.5 -105q0 -78 -40.5 -150.5t-117.5 -118.5t-181 -46q-56 0 -94 6v130q51 -9 102 -9q46 0 72 20t26 49q0 30 -20.5 57.5t-66.5 73.5q-46 45 -76.5 81.5t-52 86.5t-21.5 112
q0 87 44 157z" />
    <glyph glyph-name="dieresis" unicode="&#xa8;" horiz-adv-x="454" 
d="M69 604q-19 19 -19 54q0 34 19 53t56 19q38 0 57.5 -19t19.5 -53q0 -35 -19.5 -54t-57.5 -19q-37 0 -56 19zM275.5 711q19.5 19 56.5 19q38 0 57 -19t19 -53q0 -35 -19 -54t-57 -19q-37 0 -56.5 19.5t-19.5 53.5t19.5 53z" />
    <glyph glyph-name="copyright" unicode="&#xa9;" horiz-adv-x="801" 
d="M466.5 457q-21.5 5 -40.5 5q-45 0 -67.5 -30.5t-22.5 -86.5t22.5 -86.5t68.5 -30.5q16 0 39 3.5t37 8.5v-81q-38 -11 -78 -11q-89 0 -137.5 52.5t-48.5 143.5t49 144t135 53q46 0 80 -14v-82q-15 7 -36.5 12zM94.5 524q47.5 82 129 130t177.5 48t177.5 -48t129 -130
t47.5 -179t-47.5 -179t-129 -130t-177.5 -48t-177.5 48t-129 130t-47.5 179t47.5 179zM160 199q35 -64 97.5 -99t143.5 -35q80 0 142.5 35t97.5 99t35 146t-35 146t-97.5 99t-142.5 35q-81 0 -143.5 -35t-97.5 -99t-35 -146t35 -146z" />
    <glyph glyph-name="ordfeminine" unicode="&#xaa;" horiz-adv-x="361" 
d="M224 385h-5q-40 -42 -94 -42q-44 0 -72.5 27t-28.5 79q0 54 33.5 80t93.5 26q29 0 54 -3v15q0 48 -57 48q-22 0 -48.5 -6.5t-46.5 -16.5v83q51 22 112 22q71 0 109.5 -32.5t38.5 -94.5v-123l11 -96h-85zM127 420.5q10 -11.5 29 -11.5q25 0 49 19v67l-34 1q-54 0 -54 -44
q0 -20 10 -31.5z" />
    <glyph glyph-name="guillemotleft" unicode="&#xab;" horiz-adv-x="558" 
d="M148 263v-8l165 -199h-132l-144 173v60l144 173h132zM353 263v-8l165 -199h-132l-144 173v60l144 173h132z" />
    <glyph glyph-name="logicalnot" unicode="&#xac;" horiz-adv-x="638" 
d="M442 113v167h-382v129h518v-296h-136z" />
    <glyph glyph-name="registered" unicode="&#xae;" horiz-adv-x="804" 
d="M273 534h164q50 0 80 -28t30 -80q0 -36 -15 -60.5t-41 -38.5v-1l75 -171h-102l-52 131h-44v-131h-95v379zM94.5 524q47.5 82 129 130t178.5 48t178.5 -48t129 -130t47.5 -179t-47.5 -179t-129 -130t-178.5 -48t-178.5 48t-129 130t-47.5 179t47.5 179zM161.5 198.5
q34.5 -63.5 97 -98.5t143.5 -35t143.5 35t97 98.5t34.5 146.5t-34.5 146.5t-97 98.5t-143.5 35t-143.5 -35t-97 -98.5t-34.5 -146.5t34.5 -146.5zM408 354q49 0 49 56t-49 56h-40v-112h40z" />
    <glyph glyph-name="macron" unicode="&#xaf;" horiz-adv-x="354" 
d="M307 705v-94h-260v94h260z" />
    <glyph glyph-name="degree" unicode="&#xb0;" horiz-adv-x="390" 
d="M122.5 431.5q-33.5 19.5 -53 53t-19.5 72.5t19.5 72.5t53 53t72.5 19.5t72.5 -19.5t53 -53t19.5 -72.5t-19.5 -72.5t-53 -53t-72.5 -19.5t-72.5 19.5zM145 505.5q21 -21.5 50 -21.5t50 21.5t21 51.5t-21 51.5t-50 21.5t-50 -21.5t-21 -51.5t21 -51.5z" />
    <glyph glyph-name="plusminus" unicode="&#xb1;" horiz-adv-x="642" 
d="M254 358h-194v122h194v138h130v-138h194v-122h-194v-138h-130v138zM63 165h519v-117h-519v117z" />
    <glyph glyph-name="acute" unicode="&#xb4;" horiz-adv-x="260" 
d="M254 730l-90 -156h-101l47 168h144v-12z" />
    <glyph glyph-name="paragraph" unicode="&#xb6;" horiz-adv-x="671" 
d="M285 -134v344h-19q-71 0 -123.5 29.5t-81 84t-28.5 126.5t28.5 126.5t81 84t123.5 29.5h125v-824h-106zM486 690h105v-824h-105v824z" />
    <glyph glyph-name="periodcentered" unicode="&#xb7;" horiz-adv-x="347" 
d="M104.5 283.5q-24.5 23.5 -24.5 61.5q0 39 24.5 61.5t69.5 22.5t69 -22.5t24 -61.5q0 -38 -24 -61.5t-69 -23.5t-69.5 23.5z" />
    <glyph glyph-name="cedilla" unicode="&#xb8;" horiz-adv-x="244" 
d="M67 -136q44 0 44 21q0 20 -35 20q-16 0 -39 -5v62q33 6 62 6q50 0 78.5 -20.5t28.5 -59.5q0 -40 -32 -63.5t-90 -23.5l-57 2v64q23 -3 40 -3z" />
    <glyph glyph-name="ordmasculine" unicode="&#xba;" horiz-adv-x="386" 
d="M70.5 391q-44.5 48 -44.5 129t44.5 129t122.5 48t122.5 -48t44.5 -129t-44.5 -129t-122.5 -48t-122.5 48zM149.5 451q13.5 -24 43.5 -24t44 24t14 70q0 94 -58 94q-30 0 -43.5 -24t-13.5 -70t13.5 -70z" />
    <glyph glyph-name="guillemotright" unicode="&#xbb;" horiz-adv-x="558" 
d="M205 255v8l-165 199h133l144 -173v-60l-144 -173h-133zM410 255v8l-165 199h133l144 -173v-60l-144 -173h-133z" />
    <glyph glyph-name="onequarter" unicode="&#xbc;" horiz-adv-x="641" 
d="M85 609l-76 -37v73l94 45h73v-345h-91v264zM527 690h93l-562 -690h-93zM503 75h-151v65l101 205h96l-107 -197h64l31 86h51v-86h44l-7 -73h-37v-75h-90z" />
    <glyph glyph-name="onehalf" unicode="&#xbd;" horiz-adv-x="644" 
d="M85 609l-76 -37v73l94 45h73v-345h-91v264zM527 690h93l-562 -690h-93zM383 0v76l90 88q22 21 33.5 38t11.5 35q0 19 -13 30.5t-38 11.5q-35 0 -75 -19v75q44 16 97 16q57 0 89 -25.5t32 -71.5q0 -37 -20.5 -67t-62.5 -66l-51 -45v-1h141v-75h-234z" />
    <glyph glyph-name="threequarters" unicode="&#xbe;" horiz-adv-x="671" 
d="M124 696q56 0 88.5 -20.5t32.5 -57.5q0 -27 -18.5 -48t-50.5 -33v-3q37 -8 57.5 -30t20.5 -55q0 -110 -227 -110v71q135 0 135 50q0 31 -50 31q-27 0 -57 -5v62q53 8 76 19t23 29q0 15 -11 22t-31 7q-19 0 -42 -4.5t-43 -12.5v71q44 17 97 17zM558 690h93l-562 -690h-93z
M534 75h-151v65l101 205h96l-107 -197h64l31 86h51v-86h44l-7 -73h-37v-75h-90z" />
    <glyph glyph-name="questiondown" unicode="&#xbf;" horiz-adv-x="468" 
d="M347.5 507.5q23.5 -22.5 23.5 -61.5q0 -40 -23.5 -62t-69.5 -22t-69.5 22t-23.5 62q0 39 23.5 61.5t69.5 22.5t69.5 -22.5zM68 77q23 35 67 77q40 39 59.5 67.5t19.5 68.5v23h129v-35q0 -45 -13 -79.5t-31 -57t-46 -49.5q-27 -26 -39 -43t-12 -38q0 -33 24 -50.5
t62 -17.5q34 0 72.5 9t73.5 24v-131q-33 -12 -79 -20.5t-87 -8.5q-100 0 -161.5 46.5t-61.5 127.5q0 52 23 87z" />
    <glyph glyph-name="Agrave" unicode="&#xc0;" horiz-adv-x="652" 
d="M476 0l-45 158h-216l-45 -158h-152l197 690h223l196 -690h-158zM405 280l-76 264h-11l-76 -264h163zM343 914l47 -168h-101l-89 156v12h143z" />
    <glyph glyph-name="Aacute" unicode="&#xc1;" horiz-adv-x="652" 
d="M476 0l-45 158h-216l-45 -158h-152l197 690h223l196 -690h-158zM405 280l-76 264h-11l-76 -264h163zM457 902l-90 -156h-101l47 168h144v-12z" />
    <glyph glyph-name="Acircumflex" unicode="&#xc2;" horiz-adv-x="652" 
d="M476 0l-45 158h-216l-45 -158h-152l197 690h223l196 -690h-158zM405 280l-76 264h-11l-76 -264h163zM399 746l-74 79l-74 -79h-79v12l94 156h119l94 -156v-12h-80z" />
    <glyph glyph-name="Atilde" unicode="&#xc3;" horiz-adv-x="652" 
d="M476 0l-45 158h-216l-45 -158h-152l197 690h223l196 -690h-158zM405 280l-76 264h-11l-76 -264h163zM268 895q15 0 27 -4t32 -12q18 -8 30.5 -12t27.5 -4q38 0 64 32h7v-91q-31 -39 -72 -39q-15 0 -27.5 4t-30.5 12q-20 8 -32 12t-27 4q-37 0 -63 -32h-8v91q31 39 72 39z
" />
    <glyph glyph-name="Adieresis" unicode="&#xc4;" horiz-adv-x="652" 
d="M476 0l-45 158h-216l-45 -158h-152l197 690h223l196 -690h-158zM405 280l-76 264h-11l-76 -264h163zM168 776q-19 19 -19 54q0 34 19 53t56 19q38 0 57.5 -19t19.5 -53q0 -35 -19.5 -54t-57.5 -19q-37 0 -56 19zM374.5 883q19.5 19 56.5 19q38 0 57 -19t19 -53
q0 -35 -19 -54t-57 -19q-37 0 -56.5 19.5t-19.5 53.5t19.5 53z" />
    <glyph glyph-name="Aring" unicode="&#xc5;" horiz-adv-x="652" 
d="M476 0l-45 158h-216l-45 -158h-152l197 690h223l196 -690h-158zM405 280l-76 264h-11l-76 -264h163zM251.5 765q-28.5 24 -28.5 65t28.5 65t77.5 24t77.5 -24t28.5 -65t-28.5 -65t-77.5 -24t-77.5 24zM302.5 808q9.5 -8 26.5 -8q16 0 25.5 8t9.5 22t-9.5 22t-25.5 8
q-17 0 -26.5 -8t-9.5 -22t9.5 -22z" />
    <glyph glyph-name="AE" unicode="&#xc6;" horiz-adv-x="879" 
d="M840 567h-267v-156h194v-122h-194v-166h267v-123h-416v158h-192l-75 -158h-152l331 690h504v-123zM424 280v264h-11l-128 -264h139z" />
    <glyph glyph-name="Ccedilla" unicode="&#xc7;" horiz-adv-x="567" 
d="M443.5 562.5q-39.5 8.5 -73.5 8.5q-87 0 -129.5 -59.5t-42.5 -166.5t43 -166.5t131 -59.5q31 0 72.5 6.5t65.5 16.5v-135q-30 -9 -68.5 -14t-73.5 -5q-105 0 -179 44t-112.5 124t-38.5 188q0 109 38.5 189.5t112 124.5t176.5 44q82 0 145 -25v-135q-27 12 -66.5 20.5z
M265 -136q44 0 44 21q0 20 -35 20q-16 0 -39 -5v62q33 6 62 6q50 0 78.5 -20.5t28.5 -59.5q0 -40 -32 -63.5t-90 -23.5l-57 2v64q23 -3 40 -3z" />
    <glyph glyph-name="Egrave" unicode="&#xc8;" horiz-adv-x="541" 
d="M502 690v-123h-266v-156h193v-122h-193v-166h266v-123h-422v690h422zM309 914l47 -168h-101l-89 156v12h143z" />
    <glyph glyph-name="Eacute" unicode="&#xc9;" horiz-adv-x="541" 
d="M502 690v-123h-266v-156h193v-122h-193v-166h266v-123h-422v690h422zM423 902l-90 -156h-101l47 168h144v-12z" />
    <glyph glyph-name="Ecircumflex" unicode="&#xca;" horiz-adv-x="541" 
d="M502 690v-123h-266v-156h193v-122h-193v-166h266v-123h-422v690h422zM365 746l-74 79l-74 -79h-79v12l94 156h119l94 -156v-12h-80z" />
    <glyph glyph-name="Edieresis" unicode="&#xcb;" horiz-adv-x="541" 
d="M502 690v-123h-266v-156h193v-122h-193v-166h266v-123h-422v690h422zM134 776q-19 19 -19 54q0 34 19 53t56 19q38 0 57.5 -19t19.5 -53q0 -35 -19.5 -54t-57.5 -19q-37 0 -56 19zM340.5 883q19.5 19 56.5 19q38 0 57 -19t19 -53q0 -35 -19 -54t-57 -19q-37 0 -56.5 19.5
t-19.5 53.5t19.5 53z" />
    <glyph glyph-name="Igrave" unicode="&#xcc;" horiz-adv-x="317" 
d="M237 690v-690h-157v690h157zM175 914l47 -168h-101l-89 156v12h143z" />
    <glyph glyph-name="Iacute" unicode="&#xcd;" horiz-adv-x="317" 
d="M237 690v-690h-157v690h157zM289 902l-90 -156h-101l47 168h144v-12z" />
    <glyph glyph-name="Icircumflex" unicode="&#xce;" horiz-adv-x="317" 
d="M237 690v-690h-157v690h157zM232 746l-74 79l-74 -79h-79v12l94 156h119l94 -156v-12h-80z" />
    <glyph glyph-name="Idieresis" unicode="&#xcf;" horiz-adv-x="317" 
d="M237 690v-690h-157v690h157zM0 776q-19 19 -19 54q0 34 19 53t56 19q38 0 57.5 -19t19.5 -53q0 -35 -19.5 -54t-57.5 -19q-37 0 -56 19zM206.5 883q19.5 19 56.5 19q38 0 57 -19t19 -53q0 -35 -19 -54t-57 -19q-37 0 -56.5 19.5t-19.5 53.5t19.5 53z" />
    <glyph glyph-name="Eth" unicode="&#xd0;" horiz-adv-x="691" 
d="M343 690q147 0 228 -92.5t81 -252.5q0 -106 -36 -183.5t-105.5 -119.5t-167.5 -42h-263v298h-59v93h59v299h263zM343 128q151 0 151 217t-151 217h-107v-171h133v-93h-133v-170h107z" />
    <glyph glyph-name="Ntilde" unicode="&#xd1;" horiz-adv-x="698" 
d="M80 690h151l259 -486h7q-19 130 -19 246v240h141v-690h-151l-260 485h-6q19 -140 19 -245v-240h-141v690zM292 895q15 0 27 -4t32 -12q18 -8 30.5 -12t27.5 -4q38 0 64 32h7v-91q-31 -39 -72 -39q-15 0 -27.5 4t-30.5 12q-20 8 -32 12t-27 4q-37 0 -63 -32h-8v91
q31 39 72 39z" />
    <glyph glyph-name="Ograve" unicode="&#xd2;" horiz-adv-x="691" 
d="M118.5 83.5q-80.5 95.5 -80.5 261.5t80.5 261.5t227.5 95.5t227 -95t80 -262t-80 -262t-227 -95t-227.5 95.5zM346 117q148 0 148 228t-148 228q-149 0 -149 -228t149 -228zM362 914l47 -168h-101l-89 156v12h143z" />
    <glyph glyph-name="Oacute" unicode="&#xd3;" horiz-adv-x="691" 
d="M118.5 83.5q-80.5 95.5 -80.5 261.5t80.5 261.5t227.5 95.5t227 -95t80 -262t-80 -262t-227 -95t-227.5 95.5zM346 117q148 0 148 228t-148 228q-149 0 -149 -228t149 -228zM477 902l-90 -156h-101l47 168h144v-12z" />
    <glyph glyph-name="Ocircumflex" unicode="&#xd4;" horiz-adv-x="691" 
d="M118.5 83.5q-80.5 95.5 -80.5 261.5t80.5 261.5t227.5 95.5t227 -95t80 -262t-80 -262t-227 -95t-227.5 95.5zM346 117q148 0 148 228t-148 228q-149 0 -149 -228t149 -228zM419 746l-74 79l-74 -79h-79v12l94 156h119l94 -156v-12h-80z" />
    <glyph glyph-name="Otilde" unicode="&#xd5;" horiz-adv-x="691" 
d="M118.5 83.5q-80.5 95.5 -80.5 261.5t80.5 261.5t227.5 95.5t227 -95t80 -262t-80 -262t-227 -95t-227.5 95.5zM346 117q148 0 148 228t-148 228q-149 0 -149 -228t149 -228zM288 895q15 0 27 -4t32 -12q18 -8 30.5 -12t27.5 -4q38 0 64 32h7v-91q-31 -39 -72 -39
q-15 0 -27.5 4t-30.5 12q-20 8 -32 12t-27 4q-37 0 -63 -32h-8v91q31 39 72 39z" />
    <glyph glyph-name="Odieresis" unicode="&#xd6;" horiz-adv-x="691" 
d="M118.5 83.5q-80.5 95.5 -80.5 261.5t80.5 261.5t227.5 95.5t227 -95t80 -262t-80 -262t-227 -95t-227.5 95.5zM346 117q148 0 148 228t-148 228q-149 0 -149 -228t149 -228zM188 776q-19 19 -19 54q0 34 19 53t56 19q38 0 57.5 -19t19.5 -53q0 -35 -19.5 -54t-57.5 -19
q-37 0 -56 19zM394.5 883q19.5 19 56.5 19q38 0 57 -19t19 -53q0 -35 -19 -54t-57 -19q-37 0 -56.5 19.5t-19.5 53.5t19.5 53z" />
    <glyph glyph-name="multiply" unicode="&#xd7;" horiz-adv-x="572" 
d="M197 347l-138 137l88 87l137 -137l140 140l92 -92l-140 -140l137 -137l-87 -87l-137 137l-140 -140l-92 92z" />
    <glyph glyph-name="Oslash" unicode="&#xd8;" horiz-adv-x="691" 
d="M207 16l-34 -58h-101l62 108q-47 46 -71.5 117t-24.5 162q0 166 80.5 261.5t227.5 95.5q77 0 139 -28l33 58h101l-62 -108q47 -46 71.5 -117t24.5 -162q0 -167 -80 -262t-227 -95q-78 0 -139 28zM217 209l199 347q-29 17 -70 17q-149 0 -149 -228q0 -83 20 -136zM346 117
q148 0 148 228q0 83 -20 136l-199 -346q29 -18 71 -18z" />
    <glyph glyph-name="Ugrave" unicode="&#xd9;" horiz-adv-x="685" 
d="M536 54.5q-70 -66.5 -193 -66.5t-193 66.5t-70 179.5v456h157v-449q0 -58 25.5 -91t80.5 -33t80.5 33t25.5 91v449h157v-456q0 -113 -70 -179.5zM359 914l47 -168h-101l-89 156v12h143z" />
    <glyph glyph-name="Uacute" unicode="&#xda;" horiz-adv-x="685" 
d="M536 54.5q-70 -66.5 -193 -66.5t-193 66.5t-70 179.5v456h157v-449q0 -58 25.5 -91t80.5 -33t80.5 33t25.5 91v449h157v-456q0 -113 -70 -179.5zM473 902l-90 -156h-101l47 168h144v-12z" />
    <glyph glyph-name="Ucircumflex" unicode="&#xdb;" horiz-adv-x="685" 
d="M536 54.5q-70 -66.5 -193 -66.5t-193 66.5t-70 179.5v456h157v-449q0 -58 25.5 -91t80.5 -33t80.5 33t25.5 91v449h157v-456q0 -113 -70 -179.5zM416 746l-74 79l-74 -79h-79v12l94 156h119l94 -156v-12h-80z" />
    <glyph glyph-name="Udieresis" unicode="&#xdc;" horiz-adv-x="685" 
d="M536 54.5q-70 -66.5 -193 -66.5t-193 66.5t-70 179.5v456h157v-449q0 -58 25.5 -91t80.5 -33t80.5 33t25.5 91v449h157v-456q0 -113 -70 -179.5zM184 776q-19 19 -19 54q0 34 19 53t56 19q38 0 57.5 -19t19.5 -53q0 -35 -19.5 -54t-57.5 -19q-37 0 -56 19zM390.5 883
q19.5 19 56.5 19q38 0 57 -19t19 -53q0 -35 -19 -54t-57 -19q-37 0 -56.5 19.5t-19.5 53.5t19.5 53z" />
    <glyph glyph-name="Yacute" unicode="&#xdd;" horiz-adv-x="625" 
d="M187 690l121 -310h13l121 310h166l-216 -466v-224h-158v224l-217 466h170zM443 902l-90 -156h-101l47 168h144v-12z" />
    <glyph glyph-name="Thorn" unicode="&#xde;" horiz-adv-x="602" 
d="M80 690h157v-105h94q71 0 123.5 -29.5t81 -84t28.5 -126.5t-28.5 -126.5t-81 -84t-123.5 -29.5h-94v-105h-157v690zM306 227q54 0 80.5 29t26.5 89t-26.5 89t-80.5 29h-69v-236h69z" />
    <glyph glyph-name="germandbls" unicode="&#xdf;" horiz-adv-x="629" 
d="M409 721q49 -21 74.5 -58t25.5 -83q0 -34 -13.5 -60t-38.5 -57q-19 -25 -27 -39t-8 -30q0 -22 16 -36.5t50 -34.5q36 -22 59 -40.5t40 -50t17 -76.5q0 -79 -50.5 -123.5t-142.5 -44.5q-36 0 -73 7.5t-60 20.5v124q25 -18 63.5 -32t63.5 -14t38 13.5t13 34.5
q0 24 -17 40.5t-53 40.5q-33 21 -53 38t-34.5 42.5t-14.5 60.5q0 30 11 54.5t32 58.5q17 27 25.5 44.5t8.5 36.5q0 28 -18 45t-49 17q-74 0 -74 -108v-512h-155v512q0 108 57.5 169t171.5 61q66 0 115 -21z" />
    <glyph glyph-name="agrave" unicode="&#xe0;" horiz-adv-x="528" 
d="M336 52h-8q-29 -30 -66 -47t-80 -17q-67 0 -110 41t-43 118q0 83 51.5 123.5t143.5 40.5q32 0 84 -6v29q0 78 -91 78q-34 0 -74 -10t-71 -25v119q77 34 170 34q105 0 163 -49t58 -143v-195l17 -143h-122zM179 101.5q17 -18.5 48 -18.5q41 0 82 31l-1 3v106l-56 2
q-90 0 -90 -73q0 -32 17 -50.5zM273 742l47 -168h-101l-89 156v12h143z" />
    <glyph glyph-name="aacute" unicode="&#xe1;" horiz-adv-x="528" 
d="M336 52h-8q-29 -30 -66 -47t-80 -17q-67 0 -110 41t-43 118q0 83 51.5 123.5t143.5 40.5q32 0 84 -6v29q0 78 -91 78q-34 0 -74 -10t-71 -25v119q77 34 170 34q105 0 163 -49t58 -143v-195l17 -143h-122zM179 101.5q17 -18.5 48 -18.5q41 0 82 31l-1 3v106l-56 2
q-90 0 -90 -73q0 -32 17 -50.5zM387 730l-90 -156h-101l47 168h144v-12z" />
    <glyph glyph-name="acircumflex" unicode="&#xe2;" horiz-adv-x="528" 
d="M336 52h-8q-29 -30 -66 -47t-80 -17q-67 0 -110 41t-43 118q0 83 51.5 123.5t143.5 40.5q32 0 84 -6v29q0 78 -91 78q-34 0 -74 -10t-71 -25v119q77 34 170 34q105 0 163 -49t58 -143v-195l17 -143h-122zM179 101.5q17 -18.5 48 -18.5q41 0 82 31l-1 3v106l-56 2
q-90 0 -90 -73q0 -32 17 -50.5zM330 574l-74 79l-74 -79h-79v12l94 156h119l94 -156v-12h-80z" />
    <glyph glyph-name="atilde" unicode="&#xe3;" horiz-adv-x="528" 
d="M336 52h-8q-29 -30 -66 -47t-80 -17q-67 0 -110 41t-43 118q0 83 51.5 123.5t143.5 40.5q32 0 84 -6v29q0 78 -91 78q-34 0 -74 -10t-71 -25v119q77 34 170 34q105 0 163 -49t58 -143v-195l17 -143h-122zM179 101.5q17 -18.5 48 -18.5q41 0 82 31l-1 3v106l-56 2
q-90 0 -90 -73q0 -32 17 -50.5zM198 723q15 0 27 -4t32 -12q18 -8 30.5 -12t27.5 -4q38 0 64 32h7v-91q-31 -39 -72 -39q-15 0 -27.5 4t-30.5 12q-20 8 -32 12t-27 4q-37 0 -63 -32h-8v91q31 39 72 39z" />
    <glyph glyph-name="adieresis" unicode="&#xe4;" horiz-adv-x="528" 
d="M336 52h-8q-29 -30 -66 -47t-80 -17q-67 0 -110 41t-43 118q0 83 51.5 123.5t143.5 40.5q32 0 84 -6v29q0 78 -91 78q-34 0 -74 -10t-71 -25v119q77 34 170 34q105 0 163 -49t58 -143v-195l17 -143h-122zM179 101.5q17 -18.5 48 -18.5q41 0 82 31l-1 3v106l-56 2
q-90 0 -90 -73q0 -32 17 -50.5zM98 604q-19 19 -19 54q0 34 19 53t56 19q38 0 57.5 -19t19.5 -53q0 -35 -19.5 -54t-57.5 -19q-37 0 -56 19zM304.5 711q19.5 19 56.5 19q38 0 57 -19t19 -53q0 -35 -19 -54t-57 -19q-37 0 -56.5 19.5t-19.5 53.5t19.5 53z" />
    <glyph glyph-name="aring" unicode="&#xe5;" horiz-adv-x="528" 
d="M336 52h-8q-29 -30 -66 -47t-80 -17q-67 0 -110 41t-43 118q0 83 51.5 123.5t143.5 40.5q32 0 84 -6v29q0 78 -91 78q-34 0 -74 -10t-71 -25v119q77 34 170 34q105 0 163 -49t58 -143v-195l17 -143h-122zM179 101.5q17 -18.5 48 -18.5q41 0 82 31l-1 3v106l-56 2
q-90 0 -90 -73q0 -32 17 -50.5zM181.5 593q-28.5 24 -28.5 65t28.5 65t77.5 24t77.5 -24t28.5 -65t-28.5 -65t-77.5 -24t-77.5 24zM232.5 636q9.5 -8 26.5 -8q16 0 25.5 8t9.5 22t-9.5 22t-25.5 8q-17 0 -26.5 -8t-9.5 -22t9.5 -22z" />
    <glyph glyph-name="ae" unicode="&#xe6;" horiz-adv-x="805" 
d="M217 412q-34 0 -74 -10t-71 -25v119q35 16 79 25t89 9q103 0 157 -51q59 51 148 51q104 0 165 -68t61 -189q0 -35 -4 -59h-312q8 -113 136 -113q76 0 148 28v-114q-34 -13 -80 -20t-85 -7q-125 0 -193 76q-37 -35 -84 -55.5t-100 -20.5q-74 0 -121 42t-47 120
q0 81 52 121t144 40q31 0 83 -6v29q0 78 -91 78zM181.5 101.5q19.5 -18.5 52.5 -18.5q29 0 55.5 14.5t47.5 39.5q-14 37 -19 86l-66 2q-90 0 -90 -72q0 -33 19.5 -51.5zM633 303v11q0 49 -22 80t-64 31q-45 0 -68 -36.5t-25 -85.5h179z" />
    <glyph glyph-name="ccedilla" unicode="&#xe7;" horiz-adv-x="451" 
d="M353.5 402q-28.5 6 -51.5 6q-53 0 -80 -37t-27 -110q0 -151 112 -151q23 0 50 6t46 14v-124q-49 -18 -109 -18q-80 0 -138.5 33.5t-90 95t-31.5 143.5q0 81 31.5 142t90.5 94.5t139 33.5q52 0 108 -15v-127q-21 8 -49.5 14zM207 -136q44 0 44 21q0 20 -35 20
q-16 0 -39 -5v62q33 6 62 6q50 0 78.5 -20.5t28.5 -59.5q0 -40 -32 -63.5t-90 -23.5l-57 2v64q23 -3 40 -3z" />
    <glyph glyph-name="egrave" unicode="&#xe8;" horiz-adv-x="531" 
d="M384.5 -5q-46.5 -7 -85.5 -7q-128 0 -196.5 74t-68.5 200q0 123 62.5 195.5t172.5 72.5q106 0 167 -68t61 -188q0 -36 -4 -60h-312q8 -113 136 -113q76 0 148 28v-114q-34 -13 -80.5 -20zM359 303v11q0 49 -22 80t-64 31q-45 0 -68 -36.5t-25 -85.5h179zM282 742l47 -168
h-101l-89 156v12h143z" />
    <glyph glyph-name="eacute" unicode="&#xe9;" horiz-adv-x="531" 
d="M384.5 -5q-46.5 -7 -85.5 -7q-128 0 -196.5 74t-68.5 200q0 123 62.5 195.5t172.5 72.5q106 0 167 -68t61 -188q0 -36 -4 -60h-312q8 -113 136 -113q76 0 148 28v-114q-34 -13 -80.5 -20zM359 303v11q0 49 -22 80t-64 31q-45 0 -68 -36.5t-25 -85.5h179zM396 730
l-90 -156h-101l47 168h144v-12z" />
    <glyph glyph-name="ecircumflex" unicode="&#xea;" horiz-adv-x="531" 
d="M384.5 -5q-46.5 -7 -85.5 -7q-128 0 -196.5 74t-68.5 200q0 123 62.5 195.5t172.5 72.5q106 0 167 -68t61 -188q0 -36 -4 -60h-312q8 -113 136 -113q76 0 148 28v-114q-34 -13 -80.5 -20zM359 303v11q0 49 -22 80t-64 31q-45 0 -68 -36.5t-25 -85.5h179zM339 574l-74 79
l-74 -79h-79v12l94 156h119l94 -156v-12h-80z" />
    <glyph glyph-name="edieresis" unicode="&#xeb;" horiz-adv-x="531" 
d="M384.5 -5q-46.5 -7 -85.5 -7q-128 0 -196.5 74t-68.5 200q0 123 62.5 195.5t172.5 72.5q106 0 167 -68t61 -188q0 -36 -4 -60h-312q8 -113 136 -113q76 0 148 28v-114q-34 -13 -80.5 -20zM359 303v11q0 49 -22 80t-64 31q-45 0 -68 -36.5t-25 -85.5h179zM107 604
q-19 19 -19 54q0 34 19 53t56 19q38 0 57.5 -19t19.5 -53q0 -35 -19.5 -54t-57.5 -19q-37 0 -56 19zM313.5 711q19.5 19 56.5 19q38 0 57 -19t19 -53q0 -35 -19 -54t-57 -19q-37 0 -56.5 19.5t-19.5 53.5t19.5 53z" />
    <glyph glyph-name="igrave" unicode="&#xec;" horiz-adv-x="291" 
d="M223 518v-518h-155v518h155zM162 742l47 -168h-101l-89 156v12h143z" />
    <glyph glyph-name="iacute" unicode="&#xed;" horiz-adv-x="291" 
d="M223 518v-518h-155v518h155zM277 730l-90 -156h-101l47 168h144v-12z" />
    <glyph glyph-name="icircumflex" unicode="&#xee;" horiz-adv-x="291" 
d="M223 518v-518h-155v518h155zM219 574l-74 79l-74 -79h-79v12l94 156h119l94 -156v-12h-80z" />
    <glyph glyph-name="idieresis" unicode="&#xef;" horiz-adv-x="291" 
d="M223 518v-518h-155v518h155zM6 617q-18 20 -18 53t18 52.5t53 19.5t53 -19.5t18 -52.5t-18 -53t-53 -20t-53 20zM179 722.5q18 19.5 54 19.5q35 0 53 -19.5t18 -52.5t-18 -53t-53 -20t-53.5 20t-18.5 53t18 52.5z" />
    <glyph glyph-name="eth" unicode="&#xf0;" horiz-adv-x="604" 
d="M306 607q-58 65 -147 111v12h172q50 -33 91 -73l109 47l26 -66l-86 -37q95 -127 95 -295q0 -99 -33.5 -170.5t-95.5 -109.5t-148 -38q-76 0 -133.5 29t-89.5 82.5t-32 123.5q0 66 27.5 115.5t75.5 76t107 26.5q51 0 91 -20t67 -56h7q-7 101 -59 183l-121 -52l-26 67z
M212 132.5q30 -29.5 78 -29.5q57 0 86.5 42.5t33.5 119.5q-21 28 -52.5 44.5t-68.5 16.5q-50 0 -78.5 -30.5t-28.5 -80.5q0 -53 30 -82.5z" />
    <glyph glyph-name="ntilde" unicode="&#xf1;" horiz-adv-x="592" 
d="M199 518l11 -63h9q29 33 70.5 54t88.5 21q68 0 108.5 -43.5t40.5 -113.5v-373h-155v325q0 33 -18 51.5t-50 18.5q-39 0 -81 -30v-365h-155v376l-17 142h148zM238 723q15 0 27 -4t32 -12q18 -8 30.5 -12t27.5 -4q38 0 64 32h7v-91q-31 -39 -72 -39q-15 0 -27.5 4t-30.5 12
q-20 8 -32 12t-27 4q-37 0 -63 -32h-8v91q31 39 72 39z" />
    <glyph glyph-name="ograve" unicode="&#xf2;" horiz-adv-x="573" 
d="M101 61.5q-67 73.5 -67 197.5t67 197.5t186 73.5q78 0 135 -33.5t87 -94.5t30 -143t-30 -143t-87 -94.5t-135 -33.5q-119 0 -186 73.5zM213.5 146q22.5 -39 72.5 -39q97 0 97 152q0 153 -97 153q-95 0 -95 -153q0 -74 22.5 -113zM304 742l47 -168h-101l-89 156v12h143z
" />
    <glyph glyph-name="oacute" unicode="&#xf3;" horiz-adv-x="573" 
d="M101 61.5q-67 73.5 -67 197.5t67 197.5t186 73.5q78 0 135 -33.5t87 -94.5t30 -143t-30 -143t-87 -94.5t-135 -33.5q-119 0 -186 73.5zM213.5 146q22.5 -39 72.5 -39q97 0 97 152q0 153 -97 153q-95 0 -95 -153q0 -74 22.5 -113zM418 730l-90 -156h-101l47 168h144v-12z
" />
    <glyph glyph-name="ocircumflex" unicode="&#xf4;" horiz-adv-x="573" 
d="M101 61.5q-67 73.5 -67 197.5t67 197.5t186 73.5q78 0 135 -33.5t87 -94.5t30 -143t-30 -143t-87 -94.5t-135 -33.5q-119 0 -186 73.5zM213.5 146q22.5 -39 72.5 -39q97 0 97 152q0 153 -97 153q-95 0 -95 -153q0 -74 22.5 -113zM360 574l-74 79l-74 -79h-79v12l94 156
h119l94 -156v-12h-80z" />
    <glyph glyph-name="otilde" unicode="&#xf5;" horiz-adv-x="573" 
d="M101 61.5q-67 73.5 -67 197.5t67 197.5t186 73.5q78 0 135 -33.5t87 -94.5t30 -143t-30 -143t-87 -94.5t-135 -33.5q-119 0 -186 73.5zM213.5 146q22.5 -39 72.5 -39q97 0 97 152q0 153 -97 153q-95 0 -95 -153q0 -74 22.5 -113zM229 723q15 0 27 -4t32 -12
q18 -8 30.5 -12t27.5 -4q38 0 64 32h7v-91q-31 -39 -72 -39q-15 0 -27.5 4t-30.5 12q-20 8 -32 12t-27 4q-37 0 -63 -32h-8v91q31 39 72 39z" />
    <glyph glyph-name="odieresis" unicode="&#xf6;" horiz-adv-x="573" 
d="M101 61.5q-67 73.5 -67 197.5t67 197.5t186 73.5q78 0 135 -33.5t87 -94.5t30 -143t-30 -143t-87 -94.5t-135 -33.5q-119 0 -186 73.5zM213.5 146q22.5 -39 72.5 -39q97 0 97 152q0 153 -97 153q-95 0 -95 -153q0 -74 22.5 -113zM129 604q-19 19 -19 54q0 34 19 53t56 19
q38 0 57.5 -19t19.5 -53q0 -35 -19.5 -54t-57.5 -19q-37 0 -56 19zM335.5 711q19.5 19 56.5 19q38 0 57 -19t19 -53q0 -35 -19 -54t-57 -19q-37 0 -56.5 19.5t-19.5 53.5t19.5 53z" />
    <glyph glyph-name="divide" unicode="&#xf7;" horiz-adv-x="638" 
d="M254.5 506.5q-21.5 20.5 -21.5 57.5t21.5 57t64.5 20t64.5 -20t21.5 -57t-21.5 -57.5t-64.5 -20.5t-64.5 20.5zM60 409h518v-129h-518v129zM254.5 183q21.5 20 64.5 20t64.5 -20t21.5 -57t-21.5 -57.5t-64.5 -20.5t-64.5 20.5t-21.5 57.5t21.5 57z" />
    <glyph glyph-name="oslash" unicode="&#xf8;" horiz-adv-x="573" 
d="M167 13l-38 -55h-96l70 102q-34 35 -51.5 86t-17.5 113q0 124 67 197.5t186 73.5q66 0 119 -25l39 56h96l-70 -103q68 -74 68 -199q0 -82 -30 -143t-87 -94.5t-135 -33.5q-67 0 -120 25zM198 188l141 208q-22 16 -53 16q-95 0 -95 -153q0 -42 7 -71zM286 107q97 0 97 152
q0 42 -7 70l-141 -207q21 -15 51 -15z" />
    <glyph glyph-name="ugrave" unicode="&#xf9;" horiz-adv-x="583" 
d="M384 0l-11 63h-9q-28 -33 -68.5 -54t-85.5 -21q-66 0 -105.5 43.5t-39.5 113.5v373h155v-324q0 -34 17 -52.5t47 -18.5q38 0 76 29v366h155v-375l17 -143h-148zM307 742l47 -168h-101l-89 156v12h143z" />
    <glyph glyph-name="uacute" unicode="&#xfa;" horiz-adv-x="583" 
d="M384 0l-11 63h-9q-28 -33 -68.5 -54t-85.5 -21q-66 0 -105.5 43.5t-39.5 113.5v373h155v-324q0 -34 17 -52.5t47 -18.5q38 0 76 29v366h155v-375l17 -143h-148zM421 730l-90 -156h-101l47 168h144v-12z" />
    <glyph glyph-name="ucircumflex" unicode="&#xfb;" horiz-adv-x="583" 
d="M384 0l-11 63h-9q-28 -33 -68.5 -54t-85.5 -21q-66 0 -105.5 43.5t-39.5 113.5v373h155v-324q0 -34 17 -52.5t47 -18.5q38 0 76 29v366h155v-375l17 -143h-148zM363 574l-74 79l-74 -79h-79v12l94 156h119l94 -156v-12h-80z" />
    <glyph glyph-name="udieresis" unicode="&#xfc;" horiz-adv-x="583" 
d="M384 0l-11 63h-9q-28 -33 -68.5 -54t-85.5 -21q-66 0 -105.5 43.5t-39.5 113.5v373h155v-324q0 -34 17 -52.5t47 -18.5q38 0 76 29v366h155v-375l17 -143h-148zM132 604q-19 19 -19 54q0 34 19 53t56 19q38 0 57.5 -19t19.5 -53q0 -35 -19.5 -54t-57.5 -19q-37 0 -56 19z
M338.5 711q19.5 19 56.5 19q38 0 57 -19t19 -53q0 -35 -19 -54t-57 -19q-37 0 -56.5 19.5t-19.5 53.5t19.5 53z" />
    <glyph glyph-name="yacute" unicode="&#xfd;" horiz-adv-x="527" 
d="M170 518l92 -389h13l93 389h150l-149 -512q-28 -100 -92.5 -159t-164.5 -59q-27 0 -60.5 4t-53.5 11v124q22 -8 52 -12.5t53 -4.5q47 0 77 23t51 72h-74l-148 513h161zM394 730l-90 -156h-101l47 168h144v-12z" />
    <glyph glyph-name="thorn" unicode="&#xfe;" horiz-adv-x="592" 
d="M68 730h155v-272h6q18 31 53.5 51.5t81.5 20.5q55 0 99 -30.5t69.5 -89t25.5 -139.5q0 -92 -33 -156t-88.5 -95.5t-124.5 -31.5q-51 0 -89 19v-207h-155v930zM297 107q53 0 78.5 39.5t25.5 112.5q0 77 -23.5 115t-67.5 38q-39 0 -63 -29.5t-24 -77.5v-182q37 -16 74 -16z
" />
    <glyph glyph-name="ydieresis" unicode="&#xff;" horiz-adv-x="527" 
d="M170 518l92 -389h13l93 389h150l-149 -512q-28 -100 -92.5 -159t-164.5 -59q-27 0 -60.5 4t-53.5 11v124q22 -8 52 -12.5t53 -4.5q47 0 77 23t51 72h-74l-148 513h161zM105 604q-19 19 -19 54q0 34 19 53t56 19q38 0 57.5 -19t19.5 -53q0 -35 -19.5 -54t-57.5 -19
q-37 0 -56 19zM311.5 711q19.5 19 56.5 19q38 0 57 -19t19 -53q0 -35 -19 -54t-57 -19q-37 0 -56.5 19.5t-19.5 53.5t19.5 53z" />
    <glyph glyph-name="Amacron" unicode="&#x100;" horiz-adv-x="652" 
d="M476 0l-45 158h-216l-45 -158h-152l197 690h223l196 -690h-158zM405 280l-76 264h-11l-76 -264h163zM456 877v-94h-260v94h260z" />
    <glyph glyph-name="amacron" unicode="&#x101;" horiz-adv-x="528" 
d="M336 52h-8q-29 -30 -66 -47t-80 -17q-67 0 -110 41t-43 118q0 83 51.5 123.5t143.5 40.5q32 0 84 -6v29q0 78 -91 78q-34 0 -74 -10t-71 -25v119q77 34 170 34q105 0 163 -49t58 -143v-195l17 -143h-122zM179 101.5q17 -18.5 48 -18.5q41 0 82 31l-1 3v106l-56 2
q-90 0 -90 -73q0 -32 17 -50.5zM386 705v-94h-260v94h260z" />
    <glyph glyph-name="Abreve" unicode="&#x102;" horiz-adv-x="652" 
d="M476 0l-45 158h-216l-45 -158h-152l197 690h223l196 -690h-158zM405 280l-76 264h-11l-76 -264h163zM435 793.5q-38 -44.5 -109 -44.5t-109 44.5t-38 120.5h81q0 -38 16.5 -62t49.5 -24t49.5 24t16.5 62h81q0 -76 -38 -120.5z" />
    <glyph glyph-name="abreve" unicode="&#x103;" horiz-adv-x="528" 
d="M336 52h-8q-29 -30 -66 -47t-80 -17q-67 0 -110 41t-43 118q0 83 51.5 123.5t143.5 40.5q32 0 84 -6v29q0 78 -91 78q-34 0 -74 -10t-71 -25v119q77 34 170 34q105 0 163 -49t58 -143v-195l17 -143h-122zM179 101.5q17 -18.5 48 -18.5q41 0 82 31l-1 3v106l-56 2
q-90 0 -90 -73q0 -32 17 -50.5zM365 621.5q-38 -44.5 -109 -44.5t-109 44.5t-38 120.5h81q0 -38 16.5 -62t49.5 -24t49.5 24t16.5 62h81q0 -76 -38 -120.5z" />
    <glyph glyph-name="Cacute" unicode="&#x106;" horiz-adv-x="567" 
d="M443.5 562.5q-39.5 8.5 -73.5 8.5q-87 0 -129.5 -59.5t-42.5 -166.5t43 -166.5t131 -59.5q31 0 72.5 6.5t65.5 16.5v-135q-30 -9 -68.5 -14t-73.5 -5q-105 0 -179 44t-112.5 124t-38.5 188q0 109 38.5 189.5t112 124.5t176.5 44q82 0 145 -25v-135q-27 12 -66.5 20.5z
M451 902l-90 -156h-101l47 168h144v-12z" />
    <glyph glyph-name="cacute" unicode="&#x107;" horiz-adv-x="451" 
d="M353.5 402q-28.5 6 -51.5 6q-53 0 -80 -37t-27 -110q0 -151 112 -151q23 0 50 6t46 14v-124q-49 -18 -109 -18q-80 0 -138.5 33.5t-90 95t-31.5 143.5q0 81 31.5 142t90.5 94.5t139 33.5q52 0 108 -15v-127q-21 8 -49.5 14zM368 730l-90 -156h-101l47 168h144v-12z" />
    <glyph glyph-name="Ccaron" unicode="&#x10c;" horiz-adv-x="567" 
d="M443.5 562.5q-39.5 8.5 -73.5 8.5q-87 0 -129.5 -59.5t-42.5 -166.5t43 -166.5t131 -59.5q31 0 72.5 6.5t65.5 16.5v-135q-30 -9 -68.5 -14t-73.5 -5q-105 0 -179 44t-112.5 124t-38.5 188q0 109 38.5 189.5t112 124.5t176.5 44q82 0 145 -25v-135q-27 12 -66.5 20.5z
M474 902l-94 -156h-119l-94 156v12h79l74 -79l74 79h80v-12z" />
    <glyph glyph-name="ccaron" unicode="&#x10d;" horiz-adv-x="451" 
d="M353.5 402q-28.5 6 -51.5 6q-53 0 -80 -37t-27 -110q0 -151 112 -151q23 0 50 6t46 14v-124q-49 -18 -109 -18q-80 0 -138.5 33.5t-90 95t-31.5 143.5q0 81 31.5 142t90.5 94.5t139 33.5q52 0 108 -15v-127q-21 8 -49.5 14zM390 730l-94 -156h-119l-94 156v12h79l74 -79
l74 79h80v-12z" />
    <glyph glyph-name="Dcaron" unicode="&#x10e;" horiz-adv-x="691" 
d="M343 690q147 0 228 -92.5t81 -252.5q0 -106 -36 -183.5t-105.5 -119.5t-167.5 -42h-263v690h263zM343 128q151 0 151 217t-151 217h-107v-434h107zM499 902l-94 -156h-119l-94 156v12h79l74 -79l74 79h80v-12z" />
    <glyph glyph-name="Dcroat" unicode="&#x110;" horiz-adv-x="691" 
d="M343 690q147 0 228 -92.5t81 -252.5q0 -106 -36 -183.5t-105.5 -119.5t-167.5 -42h-263v298h-59v93h59v299h263zM343 128q151 0 151 217t-151 217h-107v-171h133v-93h-133v-170h107z" />
    <glyph glyph-name="dcroat" unicode="&#x111;" horiz-adv-x="590" 
d="M393 0l-11 67h-10q-55 -79 -144 -79q-56 0 -100 30.5t-69 89t-25 139.5q0 92 33 156t88.5 95.5t123.5 31.5q49 0 90 -18v63h-117v93h117v62h155v-62h76v-93h-76v-432l17 -143h-148zM214 145q23 -38 67 -38q40 0 64 29t24 77v183q-43 16 -75 16q-103 0 -103 -153
q0 -76 23 -114z" />
    <glyph glyph-name="Emacron" unicode="&#x112;" horiz-adv-x="541" 
d="M502 690v-123h-266v-156h193v-122h-193v-166h266v-123h-422v690h422zM422 877v-94h-260v94h260z" />
    <glyph glyph-name="emacron" unicode="&#x113;" horiz-adv-x="531" 
d="M384.5 -5q-46.5 -7 -85.5 -7q-128 0 -196.5 74t-68.5 200q0 123 62.5 195.5t172.5 72.5q106 0 167 -68t61 -188q0 -36 -4 -60h-312q8 -113 136 -113q76 0 148 28v-114q-34 -13 -80.5 -20zM359 303v11q0 49 -22 80t-64 31q-45 0 -68 -36.5t-25 -85.5h179zM395 705v-94
h-260v94h260z" />
    <glyph glyph-name="Ebreve" unicode="&#x114;" horiz-adv-x="541" 
d="M502 690v-123h-266v-156h193v-122h-193v-166h266v-123h-422v690h422zM401 793.5q-38 -44.5 -109 -44.5t-109 44.5t-38 120.5h81q0 -38 16.5 -62t49.5 -24t49.5 24t16.5 62h81q0 -76 -38 -120.5z" />
    <glyph glyph-name="ebreve" unicode="&#x115;" horiz-adv-x="531" 
d="M384.5 -5q-46.5 -7 -85.5 -7q-128 0 -196.5 74t-68.5 200q0 123 62.5 195.5t172.5 72.5q106 0 167 -68t61 -188q0 -36 -4 -60h-312q8 -113 136 -113q76 0 148 28v-114q-34 -13 -80.5 -20zM359 303v11q0 49 -22 80t-64 31q-45 0 -68 -36.5t-25 -85.5h179zM374 621.5
q-38 -44.5 -109 -44.5t-109 44.5t-38 120.5h81q0 -38 16.5 -62t49.5 -24t49.5 24t16.5 62h81q0 -76 -38 -120.5z" />
    <glyph glyph-name="Edotaccent" unicode="&#x116;" horiz-adv-x="541" 
d="M502 690v-123h-266v-156h193v-122h-193v-166h266v-123h-422v690h422zM229 776q-21 19 -21 54q0 34 21 53t63 19t63.5 -19t21.5 -53q0 -35 -21.5 -54t-63.5 -19t-63 19z" />
    <glyph glyph-name="edotaccent" unicode="&#x117;" horiz-adv-x="531" 
d="M384.5 -5q-46.5 -7 -85.5 -7q-128 0 -196.5 74t-68.5 200q0 123 62.5 195.5t172.5 72.5q106 0 167 -68t61 -188q0 -36 -4 -60h-312q8 -113 136 -113q76 0 148 28v-114q-34 -13 -80.5 -20zM359 303v11q0 49 -22 80t-64 31q-45 0 -68 -36.5t-25 -85.5h179zM202 604
q-21 19 -21 54q0 34 21 53t63 19t63.5 -19t21.5 -53q0 -35 -21.5 -54t-63.5 -19t-63 19z" />
    <glyph glyph-name="Ecaron" unicode="&#x11a;" horiz-adv-x="541" 
d="M502 690v-123h-266v-156h193v-122h-193v-166h266v-123h-422v690h422zM445 902l-94 -156h-119l-94 156v12h79l74 -79l74 79h80v-12z" />
    <glyph glyph-name="ecaron" unicode="&#x11b;" horiz-adv-x="531" 
d="M384.5 -5q-46.5 -7 -85.5 -7q-128 0 -196.5 74t-68.5 200q0 123 62.5 195.5t172.5 72.5q106 0 167 -68t61 -188q0 -36 -4 -60h-312q8 -113 136 -113q76 0 148 28v-114q-34 -13 -80.5 -20zM359 303v11q0 49 -22 80t-64 31q-45 0 -68 -36.5t-25 -85.5h179zM419 730
l-94 -156h-119l-94 156v12h79l74 -79l74 79h80v-12z" />
    <glyph glyph-name="Gbreve" unicode="&#x11e;" horiz-adv-x="652" 
d="M476 565.5q-47 7.5 -85 7.5q-193 0 -193 -228q0 -111 44.5 -169.5t139.5 -58.5l49 2v214h148v-319q-45 -12 -102.5 -19t-101.5 -7q-109 0 -184.5 43.5t-114 124t-38.5 188.5q0 110 40 190.5t118.5 124t190.5 43.5q92 0 167 -24v-131q-31 11 -78 18.5zM451 793.5
q-38 -44.5 -109 -44.5t-109 44.5t-38 120.5h81q0 -38 16.5 -62t49.5 -24t49.5 24t16.5 62h81q0 -76 -38 -120.5z" />
    <glyph glyph-name="gbreve" unicode="&#x11f;" horiz-adv-x="526" 
d="M204 154q-7 -13 -7 -27q0 -36 46 -36h107q76 0 117.5 -34.5t41.5 -97.5q0 -82 -71 -126.5t-199 -44.5q-97 0 -211 32v103q52 -17 110 -26.5t112 -9.5q58 0 88.5 13t30.5 38q0 14 -10.5 22.5t-29.5 8.5h-131q-63 0 -97.5 28t-34.5 73q0 33 17 58.5t45 42.5v7
q-50 21 -77.5 63t-27.5 102q0 89 59.5 138t154.5 49q62 0 140 -7.5t128 -17.5v-120q-40 28 -116 54v-13q29 -14 45 -42.5t16 -70.5q0 -76 -56.5 -118.5t-153.5 -42.5q-14 0 -36 2zM184 274.5q19 -23.5 54 -23.5t55.5 24t20.5 65t-20.5 65.5t-55.5 24.5t-54 -24t-19 -66
t19 -65.5zM372 621.5q-38 -44.5 -109 -44.5t-109 44.5t-38 120.5h81q0 -38 16.5 -62t49.5 -24t49.5 24t16.5 62h81q0 -76 -38 -120.5z" />
    <glyph glyph-name="Imacron" unicode="&#x12a;" horiz-adv-x="317" 
d="M237 690v-690h-157v690h157zM288 877v-94h-260v94h260z" />
    <glyph glyph-name="imacron" unicode="&#x12b;" horiz-adv-x="291" 
d="M223 518v-518h-155v518h155zM276 705v-94h-260v94h260z" />
    <glyph glyph-name="Ibreve" unicode="&#x12c;" horiz-adv-x="317" 
d="M237 690v-690h-157v690h157zM267 793.5q-38 -44.5 -109 -44.5t-109 44.5t-38 120.5h81q0 -38 16.5 -62t49.5 -24t49.5 24t16.5 62h81q0 -76 -38 -120.5z" />
    <glyph glyph-name="ibreve" unicode="&#x12d;" horiz-adv-x="291" 
d="M223 518v-518h-155v518h155zM255 621.5q-38 -44.5 -109 -44.5t-109 44.5t-38 120.5h81q0 -38 16.5 -62t49.5 -24t49.5 24t16.5 62h81q0 -76 -38 -120.5z" />
    <glyph glyph-name="Idotaccent" unicode="&#x130;" horiz-adv-x="317" 
d="M237 690v-690h-157v690h157zM95 776q-21 19 -21 54q0 34 21 53t63 19t63.5 -19t21.5 -53q0 -35 -21.5 -54t-63.5 -19t-63 19z" />
    <glyph glyph-name="dotlessi" unicode="&#x131;" horiz-adv-x="291" 
d="M223 518v-518h-155v518h155z" />
    <glyph glyph-name="IJ" unicode="&#x132;" horiz-adv-x="727" 
d="M237 690v-690h-157v690h157zM366.5 119q20.5 -2 35.5 -2q90 0 90 106v467h157v-470q0 -109 -59 -170.5t-172 -61.5q-45 0 -91 7v129q19 -3 39.5 -5z" />
    <glyph glyph-name="ij" unicode="&#x133;" horiz-adv-x="583" 
d="M223 518v-518h-155v518h155zM82.5 711q21.5 19 63.5 19t63 -19t21 -53q0 -35 -21 -54t-63 -19t-63.5 19.5t-21.5 53.5t21.5 53zM344 -74q15 18 15 51v541h155v-555q0 -85 -42.5 -129.5t-123.5 -45.5q-28 0 -49 5v115q30 0 45 18zM373.5 711q21.5 19 63.5 19t63 -19
t21 -53q0 -35 -21 -54t-63 -19t-63.5 19.5t-21.5 53.5t21.5 53z" />
    <glyph glyph-name="Ncaron" unicode="&#x147;" horiz-adv-x="698" 
d="M80 690h151l259 -486h7q-19 130 -19 246v240h141v-690h-151l-260 485h-6q19 -140 19 -245v-240h-141v690zM503 902l-94 -156h-119l-94 156v12h79l74 -79l74 79h80v-12z" />
    <glyph glyph-name="ncaron" unicode="&#x148;" horiz-adv-x="592" 
d="M199 518l11 -63h9q29 33 70.5 54t88.5 21q68 0 108.5 -43.5t40.5 -113.5v-373h-155v325q0 33 -18 51.5t-50 18.5q-39 0 -81 -30v-365h-155v376l-17 142h148zM450 730l-94 -156h-119l-94 156v12h79l74 -79l74 79h80v-12z" />
    <glyph glyph-name="Omacron" unicode="&#x14c;" horiz-adv-x="691" 
d="M118.5 83.5q-80.5 95.5 -80.5 261.5t80.5 261.5t227.5 95.5t227 -95t80 -262t-80 -262t-227 -95t-227.5 95.5zM346 117q148 0 148 228t-148 228q-149 0 -149 -228t149 -228zM476 877v-94h-260v94h260z" />
    <glyph glyph-name="omacron" unicode="&#x14d;" horiz-adv-x="573" 
d="M101 61.5q-67 73.5 -67 197.5t67 197.5t186 73.5q78 0 135 -33.5t87 -94.5t30 -143t-30 -143t-87 -94.5t-135 -33.5q-119 0 -186 73.5zM213.5 146q22.5 -39 72.5 -39q97 0 97 152q0 153 -97 153q-95 0 -95 -153q0 -74 22.5 -113zM417 705v-94h-260v94h260z" />
    <glyph glyph-name="Obreve" unicode="&#x14e;" horiz-adv-x="691" 
d="M118.5 83.5q-80.5 95.5 -80.5 261.5t80.5 261.5t227.5 95.5t227 -95t80 -262t-80 -262t-227 -95t-227.5 95.5zM346 117q148 0 148 228t-148 228q-149 0 -149 -228t149 -228zM455 793.5q-38 -44.5 -109 -44.5t-109 44.5t-38 120.5h81q0 -38 16.5 -62t49.5 -24t49.5 24
t16.5 62h81q0 -76 -38 -120.5z" />
    <glyph glyph-name="obreve" unicode="&#x14f;" horiz-adv-x="573" 
d="M101 61.5q-67 73.5 -67 197.5t67 197.5t186 73.5q78 0 135 -33.5t87 -94.5t30 -143t-30 -143t-87 -94.5t-135 -33.5q-119 0 -186 73.5zM213.5 146q22.5 -39 72.5 -39q97 0 97 152q0 153 -97 153q-95 0 -95 -153q0 -74 22.5 -113zM396 621.5q-38 -44.5 -109 -44.5
t-109 44.5t-38 120.5h81q0 -38 16.5 -62t49.5 -24t49.5 24t16.5 62h81q0 -76 -38 -120.5z" />
    <glyph glyph-name="OE" unicode="&#x152;" horiz-adv-x="875" 
d="M836 567h-266v-156h193v-122h-193v-166h266v-123h-399q-42 -12 -91 -12q-98 0 -167 44t-105 124.5t-36 188.5t36 188.5t105 124.5t167 44q49 0 91 -12h399v-123zM233 176q36 -59 118 -59q33 0 63 11v434q-30 11 -63 11q-82 0 -118 -59t-36 -169t36 -169z" />
    <glyph glyph-name="oe" unicode="&#x153;" horiz-adv-x="880" 
d="M151 21.5q-56 33.5 -86.5 95t-30.5 142.5q0 82 30 143t86 94.5t132 33.5q111 0 172 -72q59 72 166 72q104 0 165 -68t61 -188q0 -30 -5 -60h-312q8 -113 136 -113q77 0 148 28v-114q-33 -13 -79.5 -20t-85.5 -7q-124 0 -190 77q-63 -77 -176 -77q-75 0 -131 33.5z
M213.5 146q22.5 -39 72.5 -39q97 0 97 152q0 153 -97 153q-95 0 -95 -153q0 -74 22.5 -113zM707 303v11q0 49 -22 80t-64 31q-45 0 -68 -36.5t-25 -85.5h179z" />
    <glyph glyph-name="Scedilla" unicode="&#x15e;" horiz-adv-x="560" 
d="M119.5 646.5q70.5 55.5 186.5 55.5q44 0 90.5 -8t84.5 -21v-131q-49 15 -100 24t-86 9q-42 0 -65.5 -17.5t-23.5 -51.5q0 -31 19.5 -48t63.5 -34l77 -29q153 -58 153 -195q0 -65 -31.5 -113t-89.5 -73.5t-134 -25.5q-57 0 -119 13t-104 34v138q52 -26 115 -42t112 -16
q43 0 68 17.5t25 51.5q0 31 -21 50t-69 37l-67 25q-75 27 -115 73.5t-40 121.5q0 100 70.5 155.5zM262 -136q44 0 44 21q0 20 -35 20q-16 0 -39 -5v62q33 6 62 6q50 0 78.5 -20.5t28.5 -59.5q0 -40 -32 -63.5t-90 -23.5l-57 2v64q23 -3 40 -3z" />
    <glyph glyph-name="scedilla" unicode="&#x15f;" horiz-adv-x="455" 
d="M95.5 488.5q57.5 41.5 158.5 41.5q34 0 73 -4t61 -11v-122q-32 13 -73 22.5t-67 9.5q-28 0 -45.5 -11t-17.5 -33q0 -20 13.5 -31t40.5 -22l46 -16q67 -23 103.5 -57t36.5 -99q0 -79 -56.5 -123.5t-161.5 -44.5q-44 0 -94 7.5t-80 20.5v124q42 -20 90 -33t85 -13
q33 0 50.5 12.5t17.5 35.5q0 20 -13.5 30.5t-46.5 22.5l-42 15q-62 22 -99 57.5t-37 100.5q0 79 57.5 120.5zM195 -136q44 0 44 21q0 20 -35 20q-16 0 -39 -5v62q33 6 62 6q50 0 78.5 -20.5t28.5 -59.5q0 -40 -32 -63.5t-90 -23.5l-57 2v64q23 -3 40 -3z" />
    <glyph glyph-name="Scaron" unicode="&#x160;" horiz-adv-x="560" 
d="M119.5 646.5q70.5 55.5 186.5 55.5q44 0 90.5 -8t84.5 -21v-131q-49 15 -100 24t-86 9q-42 0 -65.5 -17.5t-23.5 -51.5q0 -31 19.5 -48t63.5 -34l77 -29q153 -58 153 -195q0 -65 -31.5 -113t-89.5 -73.5t-134 -25.5q-57 0 -119 13t-104 34v138q52 -26 115 -42t112 -16
q43 0 68 17.5t25 51.5q0 31 -21 50t-69 37l-67 25q-75 27 -115 73.5t-40 121.5q0 100 70.5 155.5zM433 902l-94 -156h-119l-94 156v12h79l74 -79l74 79h80v-12z" />
    <glyph glyph-name="scaron" unicode="&#x161;" horiz-adv-x="455" 
d="M95.5 488.5q57.5 41.5 158.5 41.5q34 0 73 -4t61 -11v-122q-32 13 -73 22.5t-67 9.5q-28 0 -45.5 -11t-17.5 -33q0 -20 13.5 -31t40.5 -22l46 -16q67 -23 103.5 -57t36.5 -99q0 -79 -56.5 -123.5t-161.5 -44.5q-44 0 -94 7.5t-80 20.5v124q42 -20 90 -33t85 -13
q33 0 50.5 12.5t17.5 35.5q0 20 -13.5 30.5t-46.5 22.5l-42 15q-62 22 -99 57.5t-37 100.5q0 79 57.5 120.5zM370 730l-94 -156h-119l-94 156v12h79l74 -79l74 79h80v-12z" />
    <glyph glyph-name="Tcaron" unicode="&#x164;" horiz-adv-x="553" 
d="M528 564h-173v-564h-157v564h-173v126h503v-126zM430 902l-94 -156h-119l-94 156v12h79l74 -79l74 79h80v-12z" />
    <glyph glyph-name="tcaron" unicode="&#x165;" horiz-adv-x="387" 
d="M72 404h-56v90l63 13l46 139h102v-128h135v-114h-135v-228q0 -31 13 -48t39 -17q34 0 83 19v-124q-23 -8 -58.5 -13t-64.5 -5q-79 0 -123 44.5t-44 119.5v252zM267 781h109v-91l-30 -131h-79v222z" />
    <glyph glyph-name="Umacron" unicode="&#x16a;" horiz-adv-x="685" 
d="M536 54.5q-70 -66.5 -193 -66.5t-193 66.5t-70 179.5v456h157v-449q0 -58 25.5 -91t80.5 -33t80.5 33t25.5 91v449h157v-456q0 -113 -70 -179.5zM472 877v-94h-260v94h260z" />
    <glyph glyph-name="umacron" unicode="&#x16b;" horiz-adv-x="583" 
d="M384 0l-11 63h-9q-28 -33 -68.5 -54t-85.5 -21q-66 0 -105.5 43.5t-39.5 113.5v373h155v-324q0 -34 17 -52.5t47 -18.5q38 0 76 29v366h155v-375l17 -143h-148zM420 705v-94h-260v94h260z" />
    <glyph glyph-name="Ubreve" unicode="&#x16c;" horiz-adv-x="685" 
d="M536 54.5q-70 -66.5 -193 -66.5t-193 66.5t-70 179.5v456h157v-449q0 -58 25.5 -91t80.5 -33t80.5 33t25.5 91v449h157v-456q0 -113 -70 -179.5zM451 793.5q-38 -44.5 -109 -44.5t-109 44.5t-38 120.5h81q0 -38 16.5 -62t49.5 -24t49.5 24t16.5 62h81q0 -76 -38 -120.5z
" />
    <glyph glyph-name="ubreve" unicode="&#x16d;" horiz-adv-x="583" 
d="M384 0l-11 63h-9q-28 -33 -68.5 -54t-85.5 -21q-66 0 -105.5 43.5t-39.5 113.5v373h155v-324q0 -34 17 -52.5t47 -18.5q38 0 76 29v366h155v-375l17 -143h-148zM399 621.5q-38 -44.5 -109 -44.5t-109 44.5t-38 120.5h81q0 -38 16.5 -62t49.5 -24t49.5 24t16.5 62h81
q0 -76 -38 -120.5z" />
    <glyph glyph-name="Uring" unicode="&#x16e;" horiz-adv-x="685" 
d="M536 54.5q-70 -66.5 -193 -66.5t-193 66.5t-70 179.5v456h157v-449q0 -58 25.5 -91t80.5 -33t80.5 33t25.5 91v449h157v-456q0 -113 -70 -179.5zM267.5 765q-28.5 24 -28.5 65t28.5 65t77.5 24t77.5 -24t28.5 -65t-28.5 -65t-77.5 -24t-77.5 24zM318.5 808
q9.5 -8 26.5 -8q16 0 25.5 8t9.5 22t-9.5 22t-25.5 8q-17 0 -26.5 -8t-9.5 -22t9.5 -22z" />
    <glyph glyph-name="uring" unicode="&#x16f;" horiz-adv-x="583" 
d="M384 0l-11 63h-9q-28 -33 -68.5 -54t-85.5 -21q-66 0 -105.5 43.5t-39.5 113.5v373h155v-324q0 -34 17 -52.5t47 -18.5q38 0 76 29v366h155v-375l17 -143h-148zM215.5 593q-28.5 24 -28.5 65t28.5 65t77.5 24t77.5 -24t28.5 -65t-28.5 -65t-77.5 -24t-77.5 24zM266.5 636
q9.5 -8 26.5 -8q16 0 25.5 8t9.5 22t-9.5 22t-25.5 8q-17 0 -26.5 -8t-9.5 -22t9.5 -22z" />
    <glyph glyph-name="Wcircumflex" unicode="&#x174;" horiz-adv-x="1075" 
d="M184 690l126 -544h14l109 544h228l108 -544h13l126 544h144l-173 -690h-217l-113 548h-14l-114 -548h-225l-173 690h161zM611 746l-74 79l-74 -79h-79v12l94 156h119l94 -156v-12h-80z" />
    <glyph glyph-name="wcircumflex" unicode="&#x175;" horiz-adv-x="881" 
d="M168 518l82 -389h12l81 389h211l77 -389h12l82 389h146l-139 -518h-203l-83 391h-12l-83 -391h-202l-140 518h159zM514 574l-74 79l-74 -79h-79v12l94 156h119l94 -156v-12h-80z" />
    <glyph glyph-name="Ycircumflex" unicode="&#x176;" horiz-adv-x="625" 
d="M187 690l121 -310h13l121 310h166l-216 -466v-224h-158v224l-217 466h170zM386 746l-74 79l-74 -79h-79v12l94 156h119l94 -156v-12h-80z" />
    <glyph glyph-name="ycircumflex" unicode="&#x177;" horiz-adv-x="527" 
d="M170 518l92 -389h13l93 389h150l-149 -512q-28 -100 -92.5 -159t-164.5 -59q-27 0 -60.5 4t-53.5 11v124q22 -8 52 -12.5t53 -4.5q47 0 77 23t51 72h-74l-148 513h161zM337 574l-74 79l-74 -79h-79v12l94 156h119l94 -156v-12h-80z" />
    <glyph glyph-name="Ydieresis" unicode="&#x178;" horiz-adv-x="625" 
d="M187 690l121 -310h13l121 310h166l-216 -466v-224h-158v224l-217 466h170zM154 776q-19 19 -19 54q0 34 19 53t56 19q38 0 57.5 -19t19.5 -53q0 -35 -19.5 -54t-57.5 -19q-37 0 -56 19zM360.5 883q19.5 19 56.5 19q38 0 57 -19t19 -53q0 -35 -19 -54t-57 -19
q-37 0 -56.5 19.5t-19.5 53.5t19.5 53z" />
    <glyph glyph-name="Zacute" unicode="&#x179;" horiz-adv-x="612" 
d="M552 690v-95l-313 -473l323 5v-127h-512v95l312 473l-305 -5v127h495zM437 902l-90 -156h-101l47 168h144v-12z" />
    <glyph glyph-name="zacute" unicode="&#x17a;" horiz-adv-x="446" 
d="M411 518v-97l-225 -310l233 4v-115h-399v97l226 310l-224 -3v114h389zM354 730l-90 -156h-101l47 168h144v-12z" />
    <glyph glyph-name="Zdotaccent" unicode="&#x17b;" horiz-adv-x="612" 
d="M552 690v-95l-313 -473l323 5v-127h-512v95l312 473l-305 -5v127h495zM243 776q-21 19 -21 54q0 34 21 53t63 19t63.5 -19t21.5 -53q0 -35 -21.5 -54t-63.5 -19t-63 19z" />
    <glyph glyph-name="zdotaccent" unicode="&#x17c;" horiz-adv-x="446" 
d="M411 518v-97l-225 -310l233 4v-115h-399v97l226 310l-224 -3v114h389zM160 604q-21 19 -21 54q0 34 21 53t63 19t63.5 -19t21.5 -53q0 -35 -21.5 -54t-63.5 -19t-63 19z" />
    <glyph glyph-name="Zcaron" unicode="&#x17d;" horiz-adv-x="612" 
d="M552 690v-95l-313 -473l323 5v-127h-512v95l312 473l-305 -5v127h495zM460 902l-94 -156h-119l-94 156v12h79l74 -79l74 79h80v-12z" />
    <glyph glyph-name="zcaron" unicode="&#x17e;" horiz-adv-x="446" 
d="M411 518v-97l-225 -310l233 4v-115h-399v97l226 310l-224 -3v114h389zM377 730l-94 -156h-119l-94 156v12h79l74 -79l74 79h80v-12z" />
    <glyph glyph-name="uni0237" unicode="&#x237;" horiz-adv-x="291" 
d="M53 -74q15 18 15 51v541h155v-555q0 -85 -42.5 -129.5t-123.5 -45.5q-28 0 -49 5v115q30 0 45 18z" />
    <glyph glyph-name="circumflex" unicode="&#x2c6;" horiz-adv-x="407" 
d="M277 574l-74 79l-74 -79h-79v12l94 156h119l94 -156v-12h-80z" />
    <glyph glyph-name="caron" unicode="&#x2c7;" horiz-adv-x="407" 
d="M357 730l-94 -156h-119l-94 156v12h79l74 -79l74 79h80v-12z" />
    <glyph glyph-name="breve" unicode="&#x2d8;" horiz-adv-x="378" 
d="M298 621.5q-38 -44.5 -109 -44.5t-109 44.5t-38 120.5h81q0 -38 16.5 -62t49.5 -24t49.5 24t16.5 62h81q0 -76 -38 -120.5z" />
    <glyph glyph-name="dotaccent" unicode="&#x2d9;" horiz-adv-x="262" 
d="M68 604q-21 19 -21 54q0 34 21 53t63 19t63.5 -19t21.5 -53q0 -35 -21.5 -54t-63.5 -19t-63 19z" />
    <glyph glyph-name="ring" unicode="&#x2da;" horiz-adv-x="306" 
d="M75.5 593q-28.5 24 -28.5 65t28.5 65t77.5 24t77.5 -24t28.5 -65t-28.5 -65t-77.5 -24t-77.5 24zM126.5 636q9.5 -8 26.5 -8q16 0 25.5 8t9.5 22t-9.5 22t-25.5 8q-17 0 -26.5 -8t-9.5 -22t9.5 -22z" />
    <glyph glyph-name="tilde" unicode="&#x2dc;" horiz-adv-x="354" 
d="M119 723q15 0 27 -4t32 -12q18 -8 30.5 -12t27.5 -4q38 0 64 32h7v-91q-31 -39 -72 -39q-15 0 -27.5 4t-30.5 12q-20 8 -32 12t-27 4q-37 0 -63 -32h-8v91q31 39 72 39z" />
    <glyph glyph-name="gravecomb" unicode="&#x300;" horiz-adv-x="0" 
d="M150 742l47 -168h-101l-89 156v12h143z" />
    <glyph glyph-name="acutecomb" unicode="&#x301;" horiz-adv-x="0" 
d="M254 730l-90 -156h-101l47 168h144v-12z" />
    <glyph glyph-name="uni0302" unicode="&#x302;" horiz-adv-x="0" 
d="M277 574l-74 79l-74 -79h-79v12l94 156h119l94 -156v-12h-80z" />
    <glyph glyph-name="tildecomb" unicode="&#x303;" horiz-adv-x="0" 
d="M119 723q15 0 27 -4t32 -12q18 -8 30.5 -12t27.5 -4q38 0 64 32h7v-91q-31 -39 -72 -39q-15 0 -27.5 4t-30.5 12q-20 8 -32 12t-27 4q-37 0 -63 -32h-8v91q31 39 72 39z" />
    <glyph glyph-name="uni0304" unicode="&#x304;" horiz-adv-x="0" 
d="M307 705v-94h-260v94h260z" />
    <glyph glyph-name="uni0306" unicode="&#x306;" horiz-adv-x="0" 
d="M298 621.5q-38 -44.5 -109 -44.5t-109 44.5t-38 120.5h81q0 -38 16.5 -62t49.5 -24t49.5 24t16.5 62h81q0 -76 -38 -120.5z" />
    <glyph glyph-name="uni0307" unicode="&#x307;" horiz-adv-x="0" 
d="M68 604q-21 19 -21 54q0 34 21 53t63 19t63.5 -19t21.5 -53q0 -35 -21.5 -54t-63.5 -19t-63 19z" />
    <glyph glyph-name="uni0308" unicode="&#x308;" horiz-adv-x="0" 
d="M69 604q-19 19 -19 54q0 34 19 53t56 19q38 0 57.5 -19t19.5 -53q0 -35 -19.5 -54t-57.5 -19q-37 0 -56 19zM275.5 711q19.5 19 56.5 19q38 0 57 -19t19 -53q0 -35 -19 -54t-57 -19q-37 0 -56.5 19.5t-19.5 53.5t19.5 53z" />
    <glyph glyph-name="uni030A" unicode="&#x30a;" horiz-adv-x="0" 
d="M75.5 593q-28.5 24 -28.5 65t28.5 65t77.5 24t77.5 -24t28.5 -65t-28.5 -65t-77.5 -24t-77.5 24zM126.5 636q9.5 -8 26.5 -8q16 0 25.5 8t9.5 22t-9.5 22t-25.5 8q-17 0 -26.5 -8t-9.5 -22t9.5 -22z" />
    <glyph glyph-name="uni030C" unicode="&#x30c;" horiz-adv-x="0" 
d="M357 730l-94 -156h-119l-94 156v12h79l74 -79l74 79h80v-12z" />
    <glyph glyph-name="uni0327" unicode="&#x327;" horiz-adv-x="0" 
d="M67 -136q44 0 44 21q0 20 -35 20q-16 0 -39 -5v62q33 6 62 6q50 0 78.5 -20.5t28.5 -59.5q0 -40 -32 -63.5t-90 -23.5l-57 2v64q23 -3 40 -3z" />
    <glyph glyph-name="uni0335" unicode="&#x335;" horiz-adv-x="0" 
d="M398 336v-93h-348v93h348z" />
    <glyph glyph-name="uni0337" unicode="&#x337;" horiz-adv-x="0" 
d="M101 76l19 17l232 342l4 15l76 111h96l-81 -119l-16 -13l-233 -343l-5 -17l-77 -111h-96z" />
    <glyph glyph-name="uni0338" unicode="&#x338;" horiz-adv-x="0" 
d="M474 732h101l-446 -774h-101z" />
    <glyph glyph-name="Wgrave" unicode="&#x1e80;" horiz-adv-x="1075" 
d="M184 690l126 -544h14l109 544h228l108 -544h13l126 544h144l-173 -690h-217l-113 548h-14l-114 -548h-225l-173 690h161zM555 914l47 -168h-101l-89 156v12h143z" />
    <glyph glyph-name="wgrave" unicode="&#x1e81;" horiz-adv-x="881" 
d="M168 518l82 -389h12l81 389h211l77 -389h12l82 389h146l-139 -518h-203l-83 391h-12l-83 -391h-202l-140 518h159zM457 742l47 -168h-101l-89 156v12h143z" />
    <glyph glyph-name="Wacute" unicode="&#x1e82;" horiz-adv-x="1075" 
d="M184 690l126 -544h14l109 544h228l108 -544h13l126 544h144l-173 -690h-217l-113 548h-14l-114 -548h-225l-173 690h161zM669 902l-90 -156h-101l47 168h144v-12z" />
    <glyph glyph-name="wacute" unicode="&#x1e83;" horiz-adv-x="881" 
d="M168 518l82 -389h12l81 389h211l77 -389h12l82 389h146l-139 -518h-203l-83 391h-12l-83 -391h-202l-140 518h159zM571 730l-90 -156h-101l47 168h144v-12z" />
    <glyph glyph-name="Wdieresis" unicode="&#x1e84;" horiz-adv-x="1075" 
d="M184 690l126 -544h14l109 544h228l108 -544h13l126 544h144l-173 -690h-217l-113 548h-14l-114 -548h-225l-173 690h161zM380 776q-19 19 -19 54q0 34 19 53t56 19q38 0 57.5 -19t19.5 -53q0 -35 -19.5 -54t-57.5 -19q-37 0 -56 19zM586.5 883q19.5 19 56.5 19
q38 0 57 -19t19 -53q0 -35 -19 -54t-57 -19q-37 0 -56.5 19.5t-19.5 53.5t19.5 53z" />
    <glyph glyph-name="wdieresis" unicode="&#x1e85;" horiz-adv-x="881" 
d="M168 518l82 -389h12l81 389h211l77 -389h12l82 389h146l-139 -518h-203l-83 391h-12l-83 -391h-202l-140 518h159zM282 604q-19 19 -19 54q0 34 19 53t56 19q38 0 57.5 -19t19.5 -53q0 -35 -19.5 -54t-57.5 -19q-37 0 -56 19zM488.5 711q19.5 19 56.5 19q38 0 57 -19
t19 -53q0 -35 -19 -54t-57 -19q-37 0 -56.5 19.5t-19.5 53.5t19.5 53z" />
    <glyph glyph-name="Ygrave" unicode="&#x1ef2;" horiz-adv-x="625" 
d="M187 690l121 -310h13l121 310h166l-216 -466v-224h-158v224l-217 466h170zM329 914l47 -168h-101l-89 156v12h143z" />
    <glyph glyph-name="ygrave" unicode="&#x1ef3;" horiz-adv-x="527" 
d="M170 518l92 -389h13l93 389h150l-149 -512q-28 -100 -92.5 -159t-164.5 -59q-27 0 -60.5 4t-53.5 11v124q22 -8 52 -12.5t53 -4.5q47 0 77 23t51 72h-74l-148 513h161zM280 742l47 -168h-101l-89 156v12h143z" />
    <glyph glyph-name="endash" unicode="&#x2013;" horiz-adv-x="459" 
d="M459 309v-99h-459v99h459z" />
    <glyph glyph-name="emdash" unicode="&#x2014;" horiz-adv-x="744" 
d="M744 309v-99h-743v99h743z" />
    <glyph glyph-name="quoteleft" unicode="&#x2018;" horiz-adv-x="304" 
d="M172 571q36 -5 54 -26.5t18 -55.5q0 -39 -23.5 -61t-70.5 -22q-90 0 -90 90q0 52 25.5 120t64.5 118h76q-41 -82 -54 -163z" />
    <glyph glyph-name="quoteright" unicode="&#x2019;" horiz-adv-x="304" 
d="M131 577q-35 5 -53 26.5t-18 55.5q0 39 23 61t70 22q91 0 91 -90q0 -52 -25.5 -119.5t-65.5 -118.5h-75q40 84 53 163z" />
    <glyph glyph-name="quotesinglbase" unicode="&#x201a;" horiz-adv-x="304" 
d="M131 -9q-35 5 -53 26.5t-18 55.5q0 39 23 61t70 22q91 0 91 -90q0 -52 -25.5 -119.5t-65.5 -118.5h-75q40 84 53 163z" />
    <glyph glyph-name="quotedblleft" unicode="&#x201c;" horiz-adv-x="529" 
d="M397 567q36 -5 54 -26.5t18 -55.5q0 -39 -23.5 -61t-70.5 -22q-90 0 -90 90q0 52 25.5 120t64.5 118h76q-41 -82 -54 -163zM172 567q36 -5 54 -26.5t18 -55.5q0 -39 -23.5 -61t-70.5 -22q-90 0 -90 90q0 52 25.5 120t64.5 118h76q-41 -82 -54 -163z" />
    <glyph glyph-name="quotedblright" unicode="&#x201d;" horiz-adv-x="529" 
d="M356 577q-35 5 -53 26.5t-18 55.5q0 39 23 61t70 22q91 0 91 -90q0 -52 -25.5 -119.5t-65.5 -118.5h-75q40 84 53 163zM131 577q-35 5 -53 26.5t-18 55.5q0 39 23 61t70 22q91 0 91 -90q0 -52 -25.5 -119.5t-65.5 -118.5h-75q40 84 53 163z" />
    <glyph glyph-name="quotedblbase" unicode="&#x201e;" horiz-adv-x="529" 
d="M356 -9q-35 5 -53 26.5t-18 55.5q0 39 23 61t70 22q91 0 91 -90q0 -52 -25.5 -119.5t-65.5 -118.5h-75q40 84 53 163zM131 -9q-35 5 -53 26.5t-18 55.5q0 39 23 61t70 22q91 0 91 -90q0 -52 -25.5 -119.5t-65.5 -118.5h-75q40 84 53 163z" />
    <glyph glyph-name="dagger" unicode="&#x2020;" horiz-adv-x="600" 
d="M223 452h-160v118h160v160h155v-160h159v-118h-159v-452h-155v452z" />
    <glyph glyph-name="daggerdbl" unicode="&#x2021;" horiz-adv-x="600" 
d="M223 160h-160v118h160v174h-160v118h160v160h155v-160h159v-118h-159v-174h159v-118h-159v-160h-155v160z" />
    <glyph glyph-name="bullet" unicode="&#x2022;" horiz-adv-x="427" 
d="M115 257q-35 34 -35 88q0 55 35 88t99 33t98.5 -33t34.5 -88q0 -54 -35 -88t-98 -34q-64 0 -99 34z" />
    <glyph glyph-name="ellipsis" unicode="&#x2026;" horiz-adv-x="861" 
d="M637.5 10.5q-23.5 22.5 -23.5 62.5t23.5 62t70.5 22t70 -22t23 -62t-23 -62.5t-70 -22.5t-70.5 22.5zM360.5 10.5q-23.5 22.5 -23.5 62.5t23.5 62t70.5 22t70 -22t23 -62t-23 -62.5t-70 -22.5t-70.5 22.5zM83.5 10.5q-23.5 22.5 -23.5 62.5t23.5 62t70.5 22t70 -22
t23 -62t-23 -62.5t-70 -22.5t-70.5 22.5z" />
    <glyph glyph-name="perthousand" unicode="&#x2030;" horiz-adv-x="1192" 
d="M66 389.5q-46 50.5 -46 128.5t46 128t122 50t122 -50t46 -128t-46 -128.5t-122 -50.5t-122 50.5zM635 690h93l-562 -690h-93zM131.5 442q18.5 -30 56.5 -30t57 30t19 76t-19 76t-57 30t-56.5 -30t-18.5 -76t18.5 -76zM492 301q46 50 122 50q75 0 121.5 -50t46.5 -128
q0 -51 -21 -91.5t-59 -64t-88 -23.5q-76 0 -122 50.5t-46 128.5t46 128zM557.5 97q18.5 -30 56.5 -30t57 30.5t19 75.5t-19 75.5t-57 30.5t-56.5 -30t-18.5 -76t18.5 -76zM882 301q46 50 122 50q75 0 121.5 -50t46.5 -128q0 -51 -21 -91.5t-59 -64t-88 -23.5
q-76 0 -122 50.5t-46 128.5t46 128zM947.5 97q18.5 -30 56.5 -30t57 30.5t19 75.5t-19 75.5t-57 30.5t-56.5 -30t-18.5 -76t18.5 -76z" />
    <glyph glyph-name="guilsinglleft" unicode="&#x2039;" horiz-adv-x="353" 
d="M148 263v-8l165 -199h-132l-144 173v60l144 173h132z" />
    <glyph glyph-name="guilsinglright" unicode="&#x203a;" horiz-adv-x="353" 
d="M205 255v8l-165 199h133l144 -173v-60l-144 -173h-133z" />
    <glyph glyph-name="fraction" unicode="&#x2044;" horiz-adv-x="649" 
d="M559 690h93l-562 -690h-93z" />
    <glyph glyph-name="colonmonetary" unicode="&#x20a1;" horiz-adv-x="587" 
d="M453.5 562.5q-39.5 8.5 -73.5 8.5q-87 0 -129.5 -59.5t-42.5 -166.5t43 -166.5t131 -59.5q31 0 72.5 6.5t65.5 16.5v-135q-30 -9 -68.5 -14t-73.5 -5h-21l-20 -98h-77l22 109q-27 6 -49 16l-25 -125h-76l34 165q-58 46 -88 120t-30 169q0 133 57.5 223t162.5 121l23 111
h77l-21 -98q9 1 28 1q16 0 24 -1l20 98h77l-22 -108q32 -8 46 -14v-135q-27 12 -66.5 20.5z" />
    <glyph glyph-name="Euro" unicode="&#x20ac;" horiz-adv-x="587" 
d="M453.5 562.5q-39.5 8.5 -73.5 8.5q-60 0 -99 -29t-57 -84h178v-83h-193q-1 -10 -1 -30t1 -30h193v-83h-178q38 -113 158 -113q31 0 72.5 6.5t65.5 16.5v-135q-30 -9 -68.5 -14t-73.5 -5q-105 0 -179 44t-112.5 124t-38.5 188q0 109 38.5 189.5t112 124.5t176.5 44
q82 0 145 -25v-135q-27 12 -66.5 20.5z" />
    <glyph glyph-name="uni20B2" unicode="&#x20b2;" horiz-adv-x="652" 
d="M476 565.5q-47 7.5 -85 7.5q-193 0 -193 -228q0 -111 44.5 -169.5t139.5 -58.5l49 2v214h148v-319q-38 -10 -84.5 -16.5t-87.5 -8.5v-99h-101v103q-130 20 -199 112.5t-69 238.5q0 148 72.5 241t208.5 112v102h101v-98q73 -3 134 -23v-131q-31 11 -78 18.5z" />
    <glyph glyph-name="trademark" unicode="&#x2122;" horiz-adv-x="866" 
d="M302 614h-94v-303h-96v303h-94v76h284v-76zM369 690h132l74 -288h7l74 288h130l43 -379h-97l-15 184q-2 27 -4 88h-6l-74 -272h-119l-76 272h-5l-5 -87l-16 -185h-85z" />
    <glyph glyph-name="uni2153" unicode="&#x2153;" horiz-adv-x="635" 
d="M85 609l-76 -37v73l94 45h73v-345h-91v264zM527 690h93l-562 -690h-93zM481 351q56 0 88.5 -20.5t32.5 -57.5q0 -27 -18.5 -48t-50.5 -33v-3q37 -8 57.5 -30t20.5 -55q0 -110 -227 -110v71q135 0 135 50q0 31 -50 31q-27 0 -57 -5v62q53 8 76 19t23 29q0 15 -11 22t-31 7
q-19 0 -42 -4.5t-43 -12.5v71q44 17 97 17z" />
    <glyph glyph-name="uni2154" unicode="&#x2154;" horiz-adv-x="695" 
d="M26 345v76l90 88q22 21 33.5 38t11.5 35q0 19 -13 30.5t-38 11.5q-35 0 -75 -19v75q44 16 97 16q57 0 89 -25.5t32 -71.5q0 -37 -20.5 -67t-62.5 -66l-51 -45v-1h141v-75h-234zM586 690h93l-562 -690h-93zM540 351q56 0 88.5 -20.5t32.5 -57.5q0 -27 -18.5 -48t-50.5 -33
v-3q37 -8 57.5 -30t20.5 -55q0 -110 -227 -110v71q135 0 135 50q0 31 -50 31q-27 0 -57 -5v62q53 8 76 19t23 29q0 15 -11 22t-31 7q-19 0 -42 -4.5t-43 -12.5v71q44 17 97 17z" />
    <glyph glyph-name="oneeighth" unicode="&#x215b;" horiz-adv-x="659" 
d="M85 609l-76 -37v73l94 45h73v-345h-91v264zM527 690h93l-562 -690h-93zM418 159v5q-52 30 -52 84q0 48 36.5 75.5t97.5 27.5q53 0 88 -22t35 -61q0 -25 -15 -45.5t-42 -34.5v-3q32 -15 50.5 -36t18.5 -54q0 -49 -39.5 -75t-102.5 -26q-62 0 -100.5 24t-38.5 65
q0 52 64 76zM452.5 64q15.5 -12 43.5 -12q26 0 41 10.5t15 26.5q0 17 -18 27t-60 24q-37 -17 -37 -46q0 -18 15.5 -30zM462.5 228.5q17.5 -11.5 51.5 -23.5q30 21 30 48q0 17 -12.5 28.5t-37.5 11.5q-22 0 -35.5 -10t-13.5 -25q0 -18 17.5 -29.5z" />
    <glyph glyph-name="threeeighths" unicode="&#x215c;" horiz-adv-x="690" 
d="M124 696q56 0 88.5 -20.5t32.5 -57.5q0 -27 -18.5 -48t-50.5 -33v-3q37 -8 57.5 -30t20.5 -55q0 -110 -227 -110v71q135 0 135 50q0 31 -50 31q-27 0 -57 -5v62q53 8 76 19t23 29q0 15 -11 22t-31 7q-19 0 -42 -4.5t-43 -12.5v71q44 17 97 17zM558 690h93l-562 -690h-93z
M449 159v5q-52 30 -52 84q0 48 36.5 75.5t97.5 27.5q53 0 88 -22t35 -61q0 -25 -15 -45.5t-42 -34.5v-3q32 -15 50.5 -36t18.5 -54q0 -49 -39.5 -75t-102.5 -26q-62 0 -100.5 24t-38.5 65q0 52 64 76zM483.5 64q15.5 -12 43.5 -12q26 0 41 10.5t15 26.5q0 17 -18 27t-60 24
q-37 -17 -37 -46q0 -18 15.5 -30zM493.5 228.5q17.5 -11.5 51.5 -23.5q30 21 30 48q0 17 -12.5 28.5t-37.5 11.5q-22 0 -35.5 -10t-13.5 -25q0 -18 17.5 -29.5z" />
    <glyph glyph-name="fiveeighths" unicode="&#x215d;" horiz-adv-x="686" 
d="M230 530.5q29 -25.5 29 -69.5q0 -60 -58 -91t-164 -31v71q68 0 99.5 12t31.5 36q0 33 -51 33q-35 0 -80 -10v209h210v-75h-136v-64q23 5 43 5q47 0 76 -25.5zM554 690h93l-562 -690h-93zM445 159v5q-52 30 -52 84q0 48 36.5 75.5t97.5 27.5q53 0 88 -22t35 -61
q0 -25 -15 -45.5t-42 -34.5v-3q32 -15 50.5 -36t18.5 -54q0 -49 -39.5 -75t-102.5 -26q-62 0 -100.5 24t-38.5 65q0 52 64 76zM479.5 64q15.5 -12 43.5 -12q26 0 41 10.5t15 26.5q0 17 -18 27t-60 24q-37 -17 -37 -46q0 -18 15.5 -30zM489.5 228.5q17.5 -11.5 51.5 -23.5
q30 21 30 48q0 17 -12.5 28.5t-37.5 11.5q-22 0 -35.5 -10t-13.5 -25q0 -18 17.5 -29.5z" />
    <glyph glyph-name="seveneighths" unicode="&#x215e;" horiz-adv-x="673" 
d="M264 690v-48q-46 -58 -71 -127t-25 -170h-93q0 153 80 257v8h-137v80h246zM541 690h93l-562 -690h-93zM432 159v5q-52 30 -52 84q0 48 36.5 75.5t97.5 27.5q53 0 88 -22t35 -61q0 -25 -15 -45.5t-42 -34.5v-3q32 -15 50.5 -36t18.5 -54q0 -49 -39.5 -75t-102.5 -26
q-62 0 -100.5 24t-38.5 65q0 52 64 76zM466.5 64q15.5 -12 43.5 -12q26 0 41 10.5t15 26.5q0 17 -18 27t-60 24q-37 -17 -37 -46q0 -18 15.5 -30zM476.5 228.5q17.5 -11.5 51.5 -23.5q30 21 30 48q0 17 -12.5 28.5t-37.5 11.5q-22 0 -35.5 -10t-13.5 -25q0 -18 17.5 -29.5z
" />
    <glyph glyph-name="partialdiff" unicode="&#x2202;" horiz-adv-x="627" 
d="M217 727q49 13 96 13q89 0 148.5 -48t87.5 -129t28 -183q0 -111 -33.5 -199.5t-101.5 -140.5t-166 -52q-78 0 -132.5 31t-82 84.5t-27.5 119.5q0 67 28 120t78 83t112 30q52 0 94.5 -21t68.5 -55h7v7q0 113 -40 175.5t-116 62.5q-32 0 -68 -12.5t-68 -35.5v115
q38 22 87 35zM208 131q27 -28 73 -28q116 0 136 174q-20 29 -52 46.5t-69 17.5q-55 0 -85 -36t-30 -93q0 -53 27 -81z" />
    <glyph glyph-name="product" unicode="&#x220f;" horiz-adv-x="680" 
d="M657 564h-74v-664h-154v664h-178v-664h-154v664h-74v126h634v-126z" />
    <glyph glyph-name="summation" unicode="&#x2211;" horiz-adv-x="596" 
d="M546 563h-322l166 -268l-166 -268h322v-127h-496v96l186 299l-186 299v96h496v-127z" />
    <glyph glyph-name="minus" unicode="&#x2212;" horiz-adv-x="638" 
d="M60 280v129h518v-129h-518z" />
    <glyph glyph-name="radical" unicode="&#x221a;" horiz-adv-x="572" 
d="M170 351l73 -326h10l159 705h150l-213 -830h-212l-127 451h160z" />
    <glyph glyph-name="infinity" unicode="&#x221e;" horiz-adv-x="980" 
d="M785.5 201.5q35.5 36.5 35.5 93.5q0 58 -38 94.5t-92 36.5q-50 0 -88 -32t-60 -86q40 -71 74 -107t83 -36q50 0 85.5 36.5zM85.5 416q32.5 53 86 82t114.5 29q71 0 120 -37t91 -103q30 63 84.5 101.5t126.5 38.5q64 0 113.5 -30.5t77 -83t27.5 -116.5q0 -70 -32 -123
t-85 -82t-115 -29q-71 0 -120.5 37.5t-91.5 103.5q-29 -62 -82.5 -101.5t-126.5 -39.5q-65 0 -115 30.5t-77.5 83t-27.5 116.5q0 70 32.5 123zM196 201q38 -36 92 -36q50 0 88 31.5t60 85.5q-40 71 -74 107.5t-82 36.5q-32 0 -60 -16.5t-45 -46.5t-17 -68q0 -58 38 -94z" />
    <glyph glyph-name="integral" unicode="&#x222b;" horiz-adv-x="517" 
d="M95 18q32 0 48 20t20 67l34 401q8 94 58 145t147 51q50 0 102 -15l-10 -126q-44 19 -75 19t-47.5 -19.5t-20.5 -67.5l-34 -401q-16 -196 -205 -196q-49 0 -102 15l10 126q44 -19 75 -19z" />
    <glyph glyph-name="approxequal" unicode="&#x2248;" horiz-adv-x="638" 
d="M441 385q-32 0 -59.5 6.5t-63.5 19.5t-63.5 19.5t-58.5 6.5q-38 0 -73 -11t-63 -31v118q28 20 63.5 31t74.5 11q32 0 58.5 -6.5t63.5 -19.5q36 -13 63.5 -19.5t58.5 -6.5q38 0 73.5 11t62.5 31v-118q-58 -42 -137 -42zM441 135q-32 0 -59.5 6.5t-63.5 19.5t-63.5 19.5
t-58.5 6.5q-38 0 -73 -11t-63 -31v118q28 20 63.5 31t74.5 11q32 0 58.5 -6.5t63.5 -19.5q36 -13 63.5 -19.5t58.5 -6.5q38 0 73.5 11t62.5 31v-118q-58 -42 -137 -42z" />
    <glyph glyph-name="notequal" unicode="&#x2260;" horiz-adv-x="638" 
d="M276 148l-65 -148h-95l65 148h-121v129h178l61 136h-239v129h296l65 148h95l-65 -148h127v-129h-184l-61 -136h245v-129h-302z" />
    <glyph glyph-name="lessequal" unicode="&#x2264;" horiz-adv-x="628" 
d="M50 323v185l517 107v-124l-414 -72v-7l414 -73v-123zM53 171h519v-117h-519v117z" />
    <glyph glyph-name="greaterequal" unicode="&#x2265;" horiz-adv-x="628" 
d="M62 339l414 73v7l-414 72v124l516 -107v-185l-516 -107v123zM57 171h518v-117h-518v117z" />
    <glyph glyph-name="lozenge" unicode="&#x25ca;" horiz-adv-x="654" 
d="M234 690h185l184 -345l-184 -345h-185l-184 345zM319 88h15l137 257l-137 257h-15l-136 -257z" />
    <glyph glyph-name="space.frac" horiz-adv-x="77" 
 />
    <glyph glyph-name="space.tf" 
 />
    <glyph glyph-name="space.sinf" horiz-adv-x="190" 
 />
    <glyph glyph-name="space.sups" horiz-adv-x="190" 
 />
    <glyph glyph-name="uni004A0301" horiz-adv-x="410" 
d="M49.5 119q20.5 -2 35.5 -2q90 0 90 106v467h157v-470q0 -109 -59 -170.5t-172 -61.5q-45 0 -91 7v129q19 -3 39.5 -5zM374 902l-90 -156h-101l47 168h144v-12z" />
    <glyph glyph-name="uni006A0301" horiz-adv-x="291" 
d="M53 -74q15 18 15 51v541h155v-555q0 -85 -42.5 -129.5t-123.5 -45.5q-28 0 -49 5v115q30 0 45 18zM277 730l-90 -156h-101l47 168h144v-12z" />
    <glyph glyph-name="A.sups" horiz-adv-x="457" 
d="M322 351l-28 99h-135l-28 -99h-106l126 449h156l125 -449h-110zM277 534l-47 165h-7l-46 -165h100z" />
    <glyph glyph-name="B.sups" horiz-adv-x="441" 
d="M63 800h192q59 0 94.5 -28.5t35.5 -79.5q0 -36 -17.5 -61t-45.5 -39v-4q38 -10 58.5 -38t20.5 -71q0 -60 -39 -94t-102 -34h-197v449zM234 428q29 0 45.5 15t16.5 43q0 27 -16.5 42.5t-45.5 15.5h-63v-116h63zM227 615q27 0 42 14t15 41q0 26 -15 40t-42 14h-56v-109h56z
" />
    <glyph glyph-name="C.sups" horiz-adv-x="392" 
d="M301.5 710.5q-25.5 5.5 -47.5 5.5q-54 0 -81 -37t-27 -104t27 -104t82 -37q19 0 46.5 4.5t43.5 10.5v-93q-44 -13 -93 -13q-103 0 -160 62.5t-57 169.5t57 169.5t158 62.5q54 0 95 -16v-94q-18 8 -43.5 13.5z" />
    <glyph glyph-name="D.sups" horiz-adv-x="475" 
d="M237 800q97 0 150 -60t53 -165q0 -104 -53.5 -164t-149.5 -60h-174v449h174zM238 440q91 0 91 135t-91 135h-66v-270h66z" />
    <glyph glyph-name="E.sups" horiz-adv-x="385" 
d="M340 800v-86h-168v-93h121v-85h-121v-99h168v-86h-277v449h277z" />
    <glyph glyph-name="F.sups" horiz-adv-x="373" 
d="M336 800v-88h-163v-113h120v-88h-120v-160h-110v449h273z" />
    <glyph glyph-name="G.sups" horiz-adv-x="450" 
d="M321 712.5q-31 5.5 -55 5.5q-120 0 -120 -143q0 -142 115 -142q16 0 26 1v135h103v-208q-30 -9 -67.5 -13.5t-66.5 -4.5q-106 0 -163.5 62.5t-57.5 169.5q0 108 59.5 170t168.5 62q62 0 111 -16v-91q-22 7 -53 12.5z" />
    <glyph glyph-name="H.sups" horiz-adv-x="482" 
d="M173 800v-176h137v176h109v-449h-109v184h-137v-184h-110v449h110z" />
    <glyph glyph-name="I.sups" horiz-adv-x="236" 
d="M173 800v-449h-110v449h110z" />
    <glyph glyph-name="J.sups" horiz-adv-x="290" 
d="M61 433q56 0 56 68v299h110v-302q0 -72 -40 -113.5t-115 -41.5q-22 0 -59 5v89q30 -4 48 -4z" />
    <glyph glyph-name="K.sups" horiz-adv-x="440" 
d="M173 800v-197h5l128 197h113l-114 -177l119 -272h-118l-82 197h-4l-47 -75v-122h-110v449h110z" />
    <glyph glyph-name="L.sups" horiz-adv-x="362" 
d="M173 800v-361h156v-88h-266v449h110z" />
    <glyph glyph-name="M.sups" horiz-adv-x="691" 
d="M342 456h9l90 344h149l50 -449h-111l-18 220l-6 106h-6l-90 -326h-136l-92 326h-6q-4 -76 -7 -104l-19 -222h-97l49 449h152z" />
    <glyph glyph-name="N.sups" horiz-adv-x="482" 
d="M63 800h105l162 -308h5q-14 95 -14 160v148h98v-449h-105l-161 307h-5q13 -86 13 -159v-148h-98v449z" />
    <glyph glyph-name="O.sups" horiz-adv-x="474" 
d="M88 405.5q-53 62.5 -53 169.5q0 108 53 170t150 62q96 0 148.5 -61.5t52.5 -170.5q0 -107 -52.5 -169.5t-148.5 -62.5q-97 0 -150 62.5zM237 433q91 0 91 142q0 143 -91 143t-91 -143q0 -142 91 -142z" />
    <glyph glyph-name="P.sups" horiz-adv-x="415" 
d="M63 800h168q71 0 112.5 -43.5t41.5 -115.5q0 -71 -41.5 -114.5t-112.5 -43.5h-58v-132h-110v449zM214 569q34 0 50 17.5t16 54.5t-16 55t-50 18h-41v-145h41z" />
    <glyph glyph-name="Q.sups" horiz-adv-x="474" 
d="M328 575q0 143 -91 143t-91 -143q0 -142 91 -142t91 142zM88 745q53 62 150 62q96 0 148.5 -61.5t52.5 -170.5q0 -97 -43.5 -158t-123.5 -72q15 -22 39 -34t55 -12q44 0 73 11v-87q-14 -4 -36.5 -7t-40.5 -3q-68 0 -113.5 37.5t-67.5 99.5q-71 17 -108.5 76t-37.5 149
q0 108 53 170z" />
    <glyph glyph-name="R.sups" horiz-adv-x="432" 
d="M63 800h191q60 0 95 -33.5t35 -93.5q0 -43 -18 -72.5t-48 -45.5v-4l89 -200h-118l-62 158h-55v-158h-109v449zM221 586q60 0 60 68q0 35 -15 51.5t-45 16.5h-49v-136h49z" />
    <glyph glyph-name="S.sups" horiz-adv-x="382" 
d="M83.5 770.5q45.5 36.5 123.5 36.5q63 0 117 -18v-92q-31 10 -64.5 16t-56.5 6q-25 0 -40 -10t-15 -30q0 -18 12.5 -29.5t36.5 -19.5l45 -15q53 -19 80 -50t27 -81q0 -65 -46 -103t-122 -38q-37 0 -78.5 8.5t-69.5 22.5v96q34 -17 76 -27.5t73 -10.5q27 0 42 10.5t15 31.5
q0 18 -11.5 28.5t-35.5 18.5l-45 16q-50 18 -79.5 48t-29.5 84q0 65 45.5 101.5z" />
    <glyph glyph-name="T.sups" horiz-adv-x="399" 
d="M366 712h-111v-361h-111v361h-111v88h333v-88z" />
    <glyph glyph-name="U.sups" horiz-adv-x="473" 
d="M363.5 386.5q-46.5 -43.5 -127.5 -43.5t-127 43.5t-46 118.5v295h110v-291q0 -76 63 -76q34 0 49.5 20.5t15.5 55.5v291h109v-295q0 -75 -46.5 -118.5z" />
    <glyph glyph-name="V.sups" horiz-adv-x="446" 
d="M138 800l85 -345h8l85 345h105l-117 -449h-160l-119 449h113z" />
    <glyph glyph-name="W.sups" horiz-adv-x="731" 
d="M138 800l80 -347h8l66 347h160l66 -347h8l79 347h101l-112 -449h-151l-69 350h-9l-70 -350h-157l-113 449h113z" />
    <glyph glyph-name="X.sups" horiz-adv-x="444" 
d="M145 800l77 -161h5l75 161h113l-104 -219l108 -230h-116l-82 171h-3l-80 -171h-114l108 227l-104 222h117z" />
    <glyph glyph-name="Y.sups" horiz-adv-x="420" 
d="M133 800l75 -196h8l74 196h116l-140 -304v-145h-111v145l-141 304h119z" />
    <glyph glyph-name="Z.sups" horiz-adv-x="387" 
d="M355 800v-66l-198 -297l205 3v-89h-337v66l198 297l-193 -3v89h325z" />
    <glyph glyph-name="a.sups" horiz-adv-x="361" 
d="M224 385h-5q-40 -42 -94 -42q-44 0 -72.5 27t-28.5 79q0 54 33.5 80t93.5 26q29 0 54 -3v15q0 48 -57 48q-22 0 -48.5 -6.5t-46.5 -16.5v83q51 22 112 22q71 0 109.5 -32.5t38.5 -94.5v-123l11 -96h-85zM127 420.5q10 -11.5 29 -11.5q25 0 49 19v67l-34 1q-54 0 -54 -44
q0 -20 10 -31.5z" />
    <glyph glyph-name="b.sups" horiz-adv-x="399" 
d="M48 826h109v-173h6q14 20 35.5 32t49.5 12q54 0 89.5 -44t35.5 -126q0 -91 -47 -137.5t-133 -46.5q-39 0 -77.5 9t-67.5 22v452zM198 427q65 0 65 92q0 96 -54 96q-24 0 -38 -17.5t-14 -46.5v-118q20 -6 41 -6z" />
    <glyph glyph-name="c.sups" horiz-adv-x="309" 
d="M238 608q-19 4 -34 4q-66 0 -66 -90q0 -93 69 -93q14 0 32 3.5t30 8.5v-86q-33 -12 -70 -12q-80 0 -126.5 48t-46.5 129t46.5 129t126.5 48q32 0 70 -10v-87q-12 4 -31 8z" />
    <glyph glyph-name="d.sups" horiz-adv-x="399" 
d="M258 351l-7 44h-6q-37 -52 -93 -52q-55 0 -90.5 45t-35.5 124q0 90 46 137.5t115 47.5q31 0 55 -11v140h108v-379l11 -96h-103zM190 427q23 0 37.5 17t14.5 46v116q-25 9 -44 9q-62 0 -62 -94t54 -94z" />
    <glyph glyph-name="e.sups" horiz-adv-x="358" 
d="M257.5 348q-30.5 -5 -55.5 -5q-85 0 -130.5 48.5t-45.5 130.5q0 80 41 127.5t114 47.5q70 0 110.5 -44t40.5 -122q0 -24 -3 -42h-200q7 -67 86 -67q50 0 96 18v-79q-23 -8 -53.5 -13zM236 551v7q0 29 -13.5 47.5t-38.5 18.5q-27 0 -41 -21.5t-15 -51.5h108z" />
    <glyph glyph-name="f.sups" horiz-adv-x="264" 
d="M86 802.5q33 30.5 95 30.5q35 0 69 -9v-88q-33 13 -58 13q-38 0 -38 -40v-29h95v-80h-88v-249h-108v249h-35v58l35 10v50q0 54 33 84.5z" />
    <glyph glyph-name="g.sups" horiz-adv-x="357" 
d="M143 450q-2 -8 -2 -13q0 -22 28 -22h68q51 0 78.5 -22.5t27.5 -65.5q0 -55 -47.5 -84.5t-133.5 -29.5q-64 0 -141 21v71q71 -23 151 -23q73 0 73 30q0 8 -6 13t-17 5h-86q-41 0 -64 18.5t-23 47.5q0 22 11.5 39t30.5 28v5q-33 13 -51 40.5t-18 66.5q0 58 39 89.5
t102 32.5h1h1h4q43 -1 92 -5.5t79 -10.5v-83q-24 15 -61 28v-6q25 -20 25 -62q0 -50 -38 -79.5t-102 -29.5q-14 0 -21 1zM131.5 534q11.5 -14 32.5 -14t33 14t12 39t-12 39.5t-33 14.5t-32.5 -14t-11.5 -40q0 -25 11.5 -39z" />
    <glyph glyph-name="h.sups" horiz-adv-x="401" 
d="M157 826v-174q18 21 44 33t56 12q44 0 69.5 -26.5t25.5 -72.5v-247h-108v210q0 20 -10.5 30.5t-30.5 10.5q-24 0 -46 -16v-235h-109v475h109z" />
    <glyph glyph-name="i.sups" horiz-adv-x="208" 
d="M158 689v-338h-108v338h108zM60.5 815q14.5 13 43.5 13q59 0 59 -49q0 -23 -14.5 -36.5t-44.5 -13.5q-29 0 -43.5 13.5t-14.5 36.5t14.5 36z" />
    <glyph glyph-name="j.sups" horiz-adv-x="209" 
d="M41 308q10 11 10 32v349h108v-358q0 -58 -29 -88t-83 -30q-11 0 -35 4v80q19 0 29 11zM61 815q15 13 44 13t44 -13t15 -36t-15 -36.5t-44 -13.5t-44 13.5t-15 36.5t15 36z" />
    <glyph glyph-name="k.sups" horiz-adv-x="390" 
d="M48 826h109v-253h7l99 116h104l-88 -107l93 -231h-111l-63 156h-5l-36 -42v-114h-109v475z" />
    <glyph glyph-name="l.sups" horiz-adv-x="205" 
d="M48 826h109v-475h-109v475z" />
    <glyph glyph-name="m.sups" horiz-adv-x="585" 
d="M141 689l7 -41h5q18 22 44 35.5t56 13.5q29 0 50.5 -13t32.5 -37h6q19 22 45 36t56 14q43 0 68.5 -28t25.5 -74v-244h-108v210q0 19 -10 30t-28 11q-22 0 -44 -15v-236h-109v210q0 19 -10 30t-27 11q-22 0 -44 -15v-236h-109v243l-11 95h104z" />
    <glyph glyph-name="n.sups" horiz-adv-x="401" 
d="M141 689l7 -41h5q19 22 46 35.5t58 13.5q44 0 69.5 -26.5t25.5 -72.5v-247h-108v210q0 20 -10.5 30.5t-30.5 10.5q-24 0 -46 -16v-235h-109v243l-11 95h104z" />
    <glyph glyph-name="o.sups" horiz-adv-x="386" 
d="M70.5 391q-44.5 48 -44.5 129t44.5 129t122.5 48t122.5 -48t44.5 -129t-44.5 -129t-122.5 -48t-122.5 48zM149.5 451q13.5 -24 43.5 -24t44 24t14 70q0 94 -58 94q-30 0 -43.5 -24t-13.5 -70t13.5 -70z" />
    <glyph glyph-name="p.sups" horiz-adv-x="399" 
d="M141 689l7 -42h6q35 50 92 50q55 0 91 -44.5t36 -124.5q0 -90 -46.5 -137.5t-114.5 -47.5q-31 0 -55 11v-133h-109v373l-11 95h104zM201 427q62 0 62 93q0 48 -14 71.5t-40 23.5q-24 0 -38 -17.5t-14 -46.5v-116q22 -8 44 -8z" />
    <glyph glyph-name="q.sups" horiz-adv-x="399" 
d="M351 221h-109v166h-7q-14 -20 -35 -32t-49 -12q-54 0 -89.5 44.5t-35.5 126.5q0 91 46.5 137t132.5 46q39 0 77.5 -8.5t68.5 -21.5v-446zM189 427q24 0 38.5 17t14.5 46v118q-23 7 -42 7q-34 0 -49 -24.5t-15 -69.5q0 -94 53 -94z" />
    <glyph glyph-name="r.sups" horiz-adv-x="281" 
d="M141 689l7 -43h5q17 24 39.5 37.5t46.5 13.5l22 -1v-108q-16 6 -38 6q-36 0 -66 -22v-221h-109v243l-11 95h104z" />
    <glyph glyph-name="s.sups" horiz-adv-x="324" 
d="M71.5 670q36.5 27 104.5 27q24 0 50.5 -3t41.5 -7v-85q-22 9 -50 15.5t-46 6.5q-16 0 -25 -6.5t-9 -19.5q0 -19 29 -29l34 -12q44 -15 67.5 -35.5t23.5 -66.5q0 -53 -37 -82.5t-108 -29.5q-28 0 -61.5 5t-53.5 13v86q29 -13 62 -21.5t56 -8.5q19 0 29 7t10 20
q0 11 -8 17.5t-24 12.5l-31 11q-41 14 -66 36t-25 69q0 53 36.5 80z" />
    <glyph glyph-name="t.sups" horiz-adv-x="272" 
d="M53 609h-36v64l41 9l32 89h71v-82h86v-80h-86v-139q0 -41 33 -41q21 0 53 12v-86q-15 -6 -38.5 -9t-42.5 -3q-53 0 -83 30.5t-30 80.5v155z" />
    <glyph glyph-name="u.sups" horiz-adv-x="391" 
d="M251 351l-7 41h-5q-19 -22 -45 -35.5t-58 -13.5q-43 0 -67 25t-24 69v252h108v-208q0 -20 10 -31.5t28 -11.5q23 0 44 16v235h108v-242l11 -96h-103z" />
    <glyph glyph-name="v.sups" horiz-adv-x="361" 
d="M124 689l55 -248h10l55 248h105l-94 -338h-149l-94 338h112z" />
    <glyph glyph-name="w.sups" horiz-adv-x="594" 
d="M124 689l49 -248h7l49 248h148l47 -248h7l49 248h103l-90 -338h-141l-52 250h-6l-51 -250h-141l-90 338h112z" />
    <glyph glyph-name="x.sups" horiz-adv-x="354" 
d="M126 689l52 -106h3l54 106h103l-87 -165l91 -173h-111l-54 113h-5l-57 -113h-102l90 174l-86 164h109z" />
    <glyph glyph-name="y.sups" horiz-adv-x="360" 
d="M124 689l55 -248h9l55 248h105l-93 -330q-18 -67 -62 -106.5t-112 -39.5q-18 0 -40 3t-36 7v87q14 -5 34.5 -8t35.5 -3q30 0 49.5 14t32.5 42h-52l-94 334h113z" />
    <glyph glyph-name="z.sups" horiz-adv-x="315" 
d="M282 689v-68l-140 -193l147 3v-80h-263v69l140 192l-138 -3v80h254z" />
    <glyph glyph-name="A.sinf" horiz-adv-x="457" 
d="M322 0l-28 99h-135l-28 -99h-106l126 449h156l125 -449h-110zM277 183l-47 165h-7l-46 -165h100z" />
    <glyph glyph-name="B.sinf" horiz-adv-x="441" 
d="M63 449h192q59 0 94.5 -28.5t35.5 -79.5q0 -36 -17.5 -61t-45.5 -39v-4q38 -10 58.5 -38t20.5 -71q0 -60 -39 -94t-102 -34h-197v449zM234 77q29 0 45.5 15t16.5 43q0 27 -16.5 42.5t-45.5 15.5h-63v-116h63zM227 264q27 0 42 14t15 41q0 26 -15 40t-42 14h-56v-109h56z
" />
    <glyph glyph-name="C.sinf" horiz-adv-x="392" 
d="M301.5 359.5q-25.5 5.5 -47.5 5.5q-54 0 -81 -37t-27 -104t27 -104t82 -37q19 0 46.5 4.5t43.5 10.5v-93q-44 -13 -93 -13q-103 0 -160 62.5t-57 169.5t57 169.5t158 62.5q54 0 95 -16v-94q-18 8 -43.5 13.5z" />
    <glyph glyph-name="D.sinf" horiz-adv-x="475" 
d="M237 449q97 0 150 -60t53 -165q0 -104 -53.5 -164t-149.5 -60h-174v449h174zM238 89q91 0 91 135t-91 135h-66v-270h66z" />
    <glyph glyph-name="E.sinf" horiz-adv-x="385" 
d="M340 449v-86h-168v-93h121v-85h-121v-99h168v-86h-277v449h277z" />
    <glyph glyph-name="F.sinf" horiz-adv-x="373" 
d="M336 449v-88h-163v-113h120v-88h-120v-160h-110v449h273z" />
    <glyph glyph-name="G.sinf" horiz-adv-x="450" 
d="M321 361.5q-31 5.5 -55 5.5q-120 0 -120 -143q0 -142 115 -142q16 0 26 1v135h103v-208q-30 -9 -67.5 -13.5t-66.5 -4.5q-106 0 -163.5 62.5t-57.5 169.5q0 108 59.5 170t168.5 62q62 0 111 -16v-91q-22 7 -53 12.5z" />
    <glyph glyph-name="H.sinf" horiz-adv-x="482" 
d="M173 449v-176h137v176h109v-449h-109v184h-137v-184h-110v449h110z" />
    <glyph glyph-name="I.sinf" horiz-adv-x="236" 
d="M173 449v-449h-110v449h110z" />
    <glyph glyph-name="J.sinf" horiz-adv-x="290" 
d="M61 82q56 0 56 68v299h110v-302q0 -72 -40 -113.5t-115 -41.5q-22 0 -59 5v89q30 -4 48 -4z" />
    <glyph glyph-name="K.sinf" horiz-adv-x="440" 
d="M173 449v-197h5l128 197h113l-114 -177l119 -272h-118l-82 197h-4l-47 -75v-122h-110v449h110z" />
    <glyph glyph-name="L.sinf" horiz-adv-x="362" 
d="M173 449v-361h156v-88h-266v449h110z" />
    <glyph glyph-name="M.sinf" horiz-adv-x="691" 
d="M342 105h9l90 344h149l50 -449h-111l-18 220l-6 106h-6l-90 -326h-136l-92 326h-6q-4 -76 -7 -104l-19 -222h-97l49 449h152z" />
    <glyph glyph-name="N.sinf" horiz-adv-x="482" 
d="M63 449h105l162 -308h5q-14 95 -14 160v148h98v-449h-105l-161 307h-5q13 -86 13 -159v-148h-98v449z" />
    <glyph glyph-name="O.sinf" horiz-adv-x="474" 
d="M88 54.5q-53 62.5 -53 169.5q0 108 53 170t150 62q96 0 148.5 -61.5t52.5 -170.5q0 -107 -52.5 -169.5t-148.5 -62.5q-97 0 -150 62.5zM237 82q91 0 91 142q0 143 -91 143t-91 -143q0 -142 91 -142z" />
    <glyph glyph-name="P.sinf" horiz-adv-x="415" 
d="M63 449h168q71 0 112.5 -43.5t41.5 -115.5q0 -71 -41.5 -114.5t-112.5 -43.5h-58v-132h-110v449zM214 218q34 0 50 17.5t16 54.5t-16 55t-50 18h-41v-145h41z" />
    <glyph glyph-name="Q.sinf" horiz-adv-x="474" 
d="M328 224q0 143 -91 143t-91 -143q0 -142 91 -142t91 142zM88 394q53 62 150 62q96 0 148.5 -61.5t52.5 -170.5q0 -97 -43.5 -158t-123.5 -72q15 -22 39 -34t55 -12q44 0 73 11v-87q-14 -4 -36.5 -7t-40.5 -3q-68 0 -113.5 37.5t-67.5 99.5q-71 17 -108.5 76t-37.5 149
q0 108 53 170z" />
    <glyph glyph-name="R.sinf" horiz-adv-x="432" 
d="M63 449h191q60 0 95 -33.5t35 -93.5q0 -43 -18 -72.5t-48 -45.5v-4l89 -200h-118l-62 158h-55v-158h-109v449zM221 235q60 0 60 68q0 35 -15 51.5t-45 16.5h-49v-136h49z" />
    <glyph glyph-name="S.sinf" horiz-adv-x="382" 
d="M83.5 419.5q45.5 36.5 123.5 36.5q63 0 117 -18v-92q-31 10 -64.5 16t-56.5 6q-25 0 -40 -10t-15 -30q0 -18 12.5 -29.5t36.5 -19.5l45 -15q53 -19 80 -50t27 -81q0 -65 -46 -103t-122 -38q-37 0 -78.5 8.5t-69.5 22.5v96q34 -17 76 -27.5t73 -10.5q27 0 42 10.5t15 31.5
q0 18 -11.5 28.5t-35.5 18.5l-45 16q-50 18 -79.5 48t-29.5 84q0 65 45.5 101.5z" />
    <glyph glyph-name="T.sinf" horiz-adv-x="399" 
d="M366 361h-111v-361h-111v361h-111v88h333v-88z" />
    <glyph glyph-name="U.sinf" horiz-adv-x="473" 
d="M363.5 35.5q-46.5 -43.5 -127.5 -43.5t-127 43.5t-46 118.5v295h110v-291q0 -76 63 -76q34 0 49.5 20.5t15.5 55.5v291h109v-295q0 -75 -46.5 -118.5z" />
    <glyph glyph-name="V.sinf" horiz-adv-x="446" 
d="M138 449l85 -345h8l85 345h105l-117 -449h-160l-119 449h113z" />
    <glyph glyph-name="W.sinf" horiz-adv-x="731" 
d="M138 449l80 -347h8l66 347h160l66 -347h8l79 347h101l-112 -449h-151l-69 350h-9l-70 -350h-157l-113 449h113z" />
    <glyph glyph-name="X.sinf" horiz-adv-x="444" 
d="M145 449l77 -161h5l75 161h113l-104 -219l108 -230h-116l-82 171h-3l-80 -171h-114l108 227l-104 222h117z" />
    <glyph glyph-name="Y.sinf" horiz-adv-x="420" 
d="M133 449l75 -196h8l74 196h116l-140 -304v-145h-111v145l-141 304h119z" />
    <glyph glyph-name="Z.sinf" horiz-adv-x="387" 
d="M355 449v-66l-198 -297l205 3v-89h-337v66l198 297l-193 -3v89h325z" />
    <glyph glyph-name="a.sinf" horiz-adv-x="361" 
d="M224 34h-5q-40 -42 -94 -42q-44 0 -72.5 27t-28.5 79q0 54 33.5 80t93.5 26q29 0 54 -3v15q0 48 -57 48q-22 0 -48.5 -6.5t-46.5 -16.5v83q51 22 112 22q71 0 109.5 -32.5t38.5 -94.5v-123l11 -96h-85zM127 69.5q10 -11.5 29 -11.5q25 0 49 19v67l-34 1q-54 0 -54 -44
q0 -20 10 -31.5z" />
    <glyph glyph-name="b.sinf" horiz-adv-x="399" 
d="M48 475h109v-173h6q14 20 35.5 32t49.5 12q54 0 89.5 -44t35.5 -126q0 -91 -47 -137.5t-133 -46.5q-39 0 -77.5 9t-67.5 22v452zM198 76q65 0 65 92q0 96 -54 96q-24 0 -38 -17.5t-14 -46.5v-118q20 -6 41 -6z" />
    <glyph glyph-name="c.sinf" horiz-adv-x="309" 
d="M238 257q-19 4 -34 4q-66 0 -66 -90q0 -93 69 -93q14 0 32 3.5t30 8.5v-86q-33 -12 -70 -12q-80 0 -126.5 48t-46.5 129t46.5 129t126.5 48q32 0 70 -10v-87q-12 4 -31 8z" />
    <glyph glyph-name="d.sinf" horiz-adv-x="399" 
d="M258 0l-7 44h-6q-37 -52 -93 -52q-55 0 -90.5 45t-35.5 124q0 90 46 137.5t115 47.5q31 0 55 -11v140h108v-379l11 -96h-103zM190 76q23 0 37.5 17t14.5 46v116q-25 9 -44 9q-62 0 -62 -94t54 -94z" />
    <glyph glyph-name="e.sinf" horiz-adv-x="358" 
d="M257.5 -3q-30.5 -5 -55.5 -5q-85 0 -130.5 48.5t-45.5 130.5q0 80 41 127.5t114 47.5q70 0 110.5 -44t40.5 -122q0 -24 -3 -42h-200q7 -67 86 -67q50 0 96 18v-79q-23 -8 -53.5 -13zM236 200v7q0 29 -13.5 47.5t-38.5 18.5q-27 0 -41 -21.5t-15 -51.5h108z" />
    <glyph glyph-name="f.sinf" horiz-adv-x="264" 
d="M86 451.5q33 30.5 95 30.5q35 0 69 -9v-88q-33 13 -58 13q-38 0 -38 -40v-29h95v-80h-88v-249h-108v249h-35v58l35 10v50q0 54 33 84.5z" />
    <glyph glyph-name="g.sinf" horiz-adv-x="357" 
d="M143 99q-2 -8 -2 -13q0 -22 28 -22h68q51 0 78.5 -22.5t27.5 -65.5q0 -55 -47.5 -84.5t-133.5 -29.5q-64 0 -141 21v71q71 -23 151 -23q73 0 73 30q0 8 -6 13t-17 5h-86q-41 0 -64 18.5t-23 47.5q0 22 11.5 39t30.5 28v5q-33 13 -51 40.5t-18 66.5q0 58 39 89.5t102 32.5
h1h1h4q43 -1 92 -5.5t79 -10.5v-83q-24 15 -61 28v-6q25 -20 25 -62q0 -50 -38 -79.5t-102 -29.5q-14 0 -21 1zM131.5 183q11.5 -14 32.5 -14t33 14t12 39t-12 39.5t-33 14.5t-32.5 -14t-11.5 -40q0 -25 11.5 -39z" />
    <glyph glyph-name="h.sinf" horiz-adv-x="401" 
d="M157 475v-174q18 21 44 33t56 12q44 0 69.5 -26.5t25.5 -72.5v-247h-108v210q0 20 -10.5 30.5t-30.5 10.5q-24 0 -46 -16v-235h-109v475h109z" />
    <glyph glyph-name="i.sinf" horiz-adv-x="208" 
d="M158 338v-338h-108v338h108zM60.5 464q14.5 13 43.5 13q59 0 59 -49q0 -23 -14.5 -36.5t-44.5 -13.5q-29 0 -43.5 13.5t-14.5 36.5t14.5 36z" />
    <glyph glyph-name="j.sinf" horiz-adv-x="209" 
d="M41 -43q10 11 10 32v349h108v-358q0 -58 -29 -88t-83 -30q-11 0 -35 4v80q19 0 29 11zM61 464q15 13 44 13t44 -13t15 -36t-15 -36.5t-44 -13.5t-44 13.5t-15 36.5t15 36z" />
    <glyph glyph-name="k.sinf" horiz-adv-x="390" 
d="M48 475h109v-253h7l99 116h104l-88 -107l93 -231h-111l-63 156h-5l-36 -42v-114h-109v475z" />
    <glyph glyph-name="l.sinf" horiz-adv-x="205" 
d="M48 475h109v-475h-109v475z" />
    <glyph glyph-name="m.sinf" horiz-adv-x="585" 
d="M141 338l7 -41h5q18 22 44 35.5t56 13.5q29 0 50.5 -13t32.5 -37h6q19 22 45 36t56 14q43 0 68.5 -28t25.5 -74v-244h-108v210q0 19 -10 30t-28 11q-22 0 -44 -15v-236h-109v210q0 19 -10 30t-27 11q-22 0 -44 -15v-236h-109v243l-11 95h104z" />
    <glyph glyph-name="n.sinf" horiz-adv-x="401" 
d="M141 338l7 -41h5q19 22 46 35.5t58 13.5q44 0 69.5 -26.5t25.5 -72.5v-247h-108v210q0 20 -10.5 30.5t-30.5 10.5q-24 0 -46 -16v-235h-109v243l-11 95h104z" />
    <glyph glyph-name="o.sinf" horiz-adv-x="386" 
d="M70.5 40q-44.5 48 -44.5 129t44.5 129t122.5 48t122.5 -48t44.5 -129t-44.5 -129t-122.5 -48t-122.5 48zM149.5 100q13.5 -24 43.5 -24t44 24t14 70q0 94 -58 94q-30 0 -43.5 -24t-13.5 -70t13.5 -70z" />
    <glyph glyph-name="p.sinf" horiz-adv-x="399" 
d="M141 338l7 -42h6q35 50 92 50q55 0 91 -44.5t36 -124.5q0 -90 -46.5 -137.5t-114.5 -47.5q-31 0 -55 11v-133h-109v373l-11 95h104zM201 76q62 0 62 93q0 48 -14 71.5t-40 23.5q-24 0 -38 -17.5t-14 -46.5v-116q22 -8 44 -8z" />
    <glyph glyph-name="q.sinf" horiz-adv-x="399" 
d="M351 -130h-109v166h-7q-14 -20 -35 -32t-49 -12q-54 0 -89.5 44.5t-35.5 126.5q0 91 46.5 137t132.5 46q39 0 77.5 -8.5t68.5 -21.5v-446zM189 76q24 0 38.5 17t14.5 46v118q-23 7 -42 7q-34 0 -49 -24.5t-15 -69.5q0 -94 53 -94z" />
    <glyph glyph-name="r.sinf" horiz-adv-x="281" 
d="M141 338l7 -43h5q17 24 39.5 37.5t46.5 13.5l22 -1v-108q-16 6 -38 6q-36 0 -66 -22v-221h-109v243l-11 95h104z" />
    <glyph glyph-name="s.sinf" horiz-adv-x="324" 
d="M71.5 319q36.5 27 104.5 27q24 0 50.5 -3t41.5 -7v-85q-22 9 -50 15.5t-46 6.5q-16 0 -25 -6.5t-9 -19.5q0 -19 29 -29l34 -12q44 -15 67.5 -35.5t23.5 -66.5q0 -53 -37 -82.5t-108 -29.5q-28 0 -61.5 5t-53.5 13v86q29 -13 62 -21.5t56 -8.5q19 0 29 7t10 20
q0 11 -8 17.5t-24 12.5l-31 11q-41 14 -66 36t-25 69q0 53 36.5 80z" />
    <glyph glyph-name="t.sinf" horiz-adv-x="272" 
d="M53 258h-36v64l41 9l32 89h71v-82h86v-80h-86v-139q0 -41 33 -41q21 0 53 12v-86q-15 -6 -38.5 -9t-42.5 -3q-53 0 -83 30.5t-30 80.5v155z" />
    <glyph glyph-name="u.sinf" horiz-adv-x="391" 
d="M251 0l-7 41h-5q-19 -22 -45 -35.5t-58 -13.5q-43 0 -67 25t-24 69v252h108v-208q0 -20 10 -31.5t28 -11.5q23 0 44 16v235h108v-242l11 -96h-103z" />
    <glyph glyph-name="v.sinf" horiz-adv-x="361" 
d="M124 338l55 -248h10l55 248h105l-94 -338h-149l-94 338h112z" />
    <glyph glyph-name="w.sinf" horiz-adv-x="594" 
d="M124 338l49 -248h7l49 248h148l47 -248h7l49 248h103l-90 -338h-141l-52 250h-6l-51 -250h-141l-90 338h112z" />
    <glyph glyph-name="x.sinf" horiz-adv-x="354" 
d="M126 338l52 -106h3l54 106h103l-87 -165l91 -173h-111l-54 113h-5l-57 -113h-102l90 174l-86 164h109z" />
    <glyph glyph-name="y.sinf" horiz-adv-x="360" 
d="M124 338l55 -248h9l55 248h105l-93 -330q-18 -67 -62 -106.5t-112 -39.5q-18 0 -40 3t-36 7v87q14 -5 34.5 -8t35.5 -3q30 0 49.5 14t32.5 42h-52l-94 334h113z" />
    <glyph glyph-name="z.sinf" horiz-adv-x="315" 
d="M282 338v-68l-140 -193l147 3v-80h-263v69l140 192l-138 -3v80h254z" />
    <glyph glyph-name="zero.osf" horiz-adv-x="654" 
d="M178.5 22q-62.5 34 -95.5 95t-33 142t33 142.5t95.5 95t148.5 33.5t148.5 -33.5t95.5 -95t33 -142.5t-33 -142t-95.5 -95t-148.5 -34t-148.5 34zM236.5 148.5q29.5 -41.5 90.5 -41.5t91 41.5t30 110.5t-30 111t-91 42t-90.5 -42t-29.5 -111t29.5 -110.5z" />
    <glyph glyph-name="one.osf" horiz-adv-x="425" 
d="M163 383l-147 -74v119l181 90h121v-518h-155v383z" />
    <glyph glyph-name="two.osf" horiz-adv-x="543" 
d="M50 0v130l178 108q47 29 68.5 52t21.5 53q0 31 -24 50t-67 19q-32 0 -77 -10.5t-83 -26.5v123q41 15 90 23.5t94 8.5q102 0 163.5 -44t61.5 -123q0 -58 -36.5 -103.5t-106.5 -84.5l-94 -55v-11l251 13v-122h-440z" />
    <glyph glyph-name="three.osf" horiz-adv-x="527" 
d="M234 530q104 0 165.5 -41.5t61.5 -113.5q0 -53 -35 -95t-97 -68q70 -14 110 -59.5t40 -114.5q0 -222 -427 -222v119q135 0 202.5 28t67.5 88q0 82 -120 82q-40 0 -96 -9v108q92 13 145.5 41t53.5 72q0 31 -25.5 48.5t-72.5 17.5q-36 0 -78.5 -9t-76.5 -25v119
q88 34 182 34z" />
    <glyph glyph-name="four.osf" horiz-adv-x="575" 
d="M325 0h-293v107l204 429h150l-198 -417h138l53 184h91v-184h86l-11 -119h-75v-154h-154z" />
    <glyph glyph-name="five.osf" horiz-adv-x="535" 
d="M430 193.5q59 -48.5 59 -139.5q0 -123 -108.5 -182.5t-308.5 -59.5v119q131 0 196.5 27.5t65.5 86.5q0 42 -31.5 62t-88.5 20q-56 0 -142 -16v403h393v-122h-268v-154q48 4 69 4q105 0 164 -48.5z" />
    <glyph glyph-name="six.osf" horiz-adv-x="615" 
d="M178.5 25.5q-62.5 37.5 -95.5 108t-33 166.5q0 130 58.5 222.5t160.5 139.5t231 47v-122q-122 0 -202.5 -56.5t-91.5 -168.5h7q29 36 73 57.5t96 21.5q56 0 101.5 -26t71.5 -74.5t26 -113.5q0 -72 -32 -126t-89.5 -83.5t-133.5 -29.5q-85 0 -147.5 37.5zM239 145
q30 -42 88 -42q48 0 77.5 29t29.5 83q0 50 -27 80.5t-78 30.5q-38 0 -70 -16.5t-54 -46.5q4 -76 34 -118z" />
    <glyph glyph-name="seven.osf" horiz-adv-x="532" 
d="M496 518v-79q-91 -123 -139.5 -264.5t-48.5 -346.5h-158q0 175 40 306.5t113 240.5v11h-266v132h459z" />
    <glyph glyph-name="eight.osf" horiz-adv-x="623" 
d="M85 262.5q35 40.5 96 64.5v5q-50 27 -79 67.5t-29 102.5q0 61 30.5 106t85.5 69.5t129 24.5q66 0 119 -20.5t83 -58.5t30 -88q0 -51 -29.5 -93t-81.5 -68v-6q67 -30 101 -70t34 -105q0 -100 -73 -152.5t-191 -52.5q-76 0 -135 21.5t-92 62t-33 94.5q0 56 35 96.5z
M225.5 118.5q31.5 -25.5 85.5 -25.5q55 0 87 25t32 61q0 33 -27 54.5t-77 40.5l-50 18q-39 -18 -60.5 -46t-21.5 -61q0 -41 31.5 -66.5zM238.5 457.5q28.5 -24.5 83.5 -44.5l26 -10q30 21 48 48t18 58q0 40 -27 64t-74 24t-75 -23t-28 -58q0 -34 28.5 -58.5z" />
    <glyph glyph-name="nine.osf" horiz-adv-x="615" 
d="M435.5 491q62.5 -39 96 -110t33.5 -166q0 -128 -58.5 -219.5t-160.5 -139t-231 -47.5v122q121 0 201.5 53.5t91.5 166.5h-6q-28 -32 -72.5 -51.5t-94.5 -19.5q-57 0 -103 25.5t-72 73.5t-26 113q0 71 31.5 125t89 83.5t132.5 29.5q86 0 148.5 -39zM208 225q27 -30 78 -30
q37 0 69.5 15.5t54.5 42.5q-2 77 -32 119.5t-90 42.5q-48 0 -77.5 -28.5t-29.5 -81.5q0 -50 27 -80z" />
    <glyph glyph-name="zero.tf" 
d="M112 81.5q-70 93.5 -70 263.5t70 263.5t197 93.5t197 -93.5t70 -263.5t-70 -263.5t-197 -93.5t-197 93.5zM224.5 166.5q25.5 -59.5 83.5 -59.5t84.5 60t26.5 178t-26.5 178t-84.5 60t-83.5 -59.5t-25.5 -178.5t25.5 -178.5z" />
    <glyph glyph-name="one.tf" 
d="M85 122h149v432l-149 -73v119l183 90h121v-568h143v-122h-447v122z" />
    <glyph glyph-name="two.tf" 
d="M80 0v128l176 194q46 52 69 90t23 80q0 43 -27 67t-80 24q-32 0 -71 -10t-74 -26v123q42 15 90.5 23.5t91.5 8.5q106 0 166.5 -49.5t60.5 -139.5q0 -48 -18.5 -91t-49 -81.5t-83.5 -94.5l-104 -113v-11h270v-122h-440z" />
    <glyph glyph-name="three.tf" 
d="M275 702q104 0 165.5 -41.5t61.5 -113.5q0 -53 -35 -95t-97 -68q70 -14 110 -59.5t40 -114.5q0 -222 -427 -222v119q135 0 202.5 28t67.5 88q0 82 -120 82q-40 0 -96 -9v108q92 13 145.5 41t53.5 72q0 31 -25.5 48.5t-72.5 17.5q-36 0 -78.5 -9t-76.5 -25v119
q88 34 182 34z" />
    <glyph glyph-name="four.tf" 
d="M339 154h-293v107l204 429h150l-198 -417h138l53 184h91v-184h86l-11 -119h-75v-154h-154z" />
    <glyph glyph-name="five.tf" 
d="M480.5 369.5q58.5 -48.5 58.5 -139.5q0 -123 -108.5 -182.5t-308.5 -59.5v119q132 0 197.5 27.5t65.5 86.5q0 42 -32 62t-89 20q-56 0 -142 -16v403h394v-122h-269v-154q48 4 70 4q105 0 163.5 -48.5z" />
    <glyph glyph-name="six.tf" 
d="M172 25.5q-62 37.5 -95 108t-33 166.5q0 130 58.5 222.5t160 139.5t229.5 47v-122q-121 0 -200.5 -56.5t-90.5 -168.5h6q29 36 72.5 57.5t95.5 21.5q56 0 101.5 -26t71.5 -74.5t26 -113.5q0 -72 -32 -126t-90 -83.5t-134 -29.5q-84 0 -146 37.5zM232.5 145.5
q29.5 -42.5 86.5 -42.5q48 0 77.5 29t29.5 83q0 50 -27 80.5t-78 30.5q-37 0 -68 -16.5t-53 -45.5q3 -76 32.5 -118.5z" />
    <glyph glyph-name="seven.tf" 
d="M543 690v-79q-91 -123 -139.5 -264.5t-48.5 -346.5h-158q0 175 40.5 306.5t113.5 240.5v11h-267v132h459z" />
    <glyph glyph-name="eight.tf" 
d="M81.5 262.5q34.5 40.5 96.5 64.5v5q-50 27 -79 67.5t-29 102.5q0 61 30.5 106t85.5 69.5t129 24.5q66 0 119 -20.5t83 -58.5t30 -88q0 -51 -29.5 -93t-82.5 -69v-5q67 -30 101 -70t34 -105q0 -100 -72.5 -152.5t-190.5 -52.5q-76 0 -135 21.5t-92 62t-33 94.5
q0 56 34.5 96.5zM222 118.5q31 -25.5 86 -25.5t86.5 25t31.5 61q0 33 -26.5 54.5t-76.5 40.5l-50 18q-39 -18 -60.5 -46t-21.5 -61q0 -41 31 -66.5zM235 457.5q29 -24.5 84 -44.5l26 -10q65 46 65 106q0 40 -27 64t-74 24q-46 0 -74.5 -23t-28.5 -58q0 -34 29 -58.5z" />
    <glyph glyph-name="nine.tf" 
d="M444.5 663q62.5 -39 95.5 -110t33 -166q0 -128 -58.5 -219.5t-160 -139t-229.5 -47.5v122q120 0 199.5 53.5t90.5 166.5h-5q-29 -32 -72.5 -51.5t-93.5 -19.5q-57 0 -102.5 25.5t-72 73.5t-26.5 113q0 71 32 125t89.5 83.5t131.5 29.5q86 0 148.5 -39zM218 397
q27 -30 78 -30q37 0 68 15t53 41q-5 164 -120 164q-48 0 -77 -28.5t-29 -81.5q0 -50 27 -80z" />
    <glyph glyph-name="zero.sups" horiz-adv-x="456" 
d="M93.5 404q-48.5 61 -48.5 171q0 111 48.5 171.5t135.5 60.5q86 0 134 -60.5t48 -171.5q0 -110 -48 -171t-134 -61q-87 0 -135.5 61zM172 464q17 -37 56 -37q74 0 74 148q0 74 -18 112t-56 38q-39 0 -56 -37.5t-17 -112.5q0 -74 17 -111z" />
    <glyph glyph-name="one.sups" horiz-adv-x="300" 
d="M112 706l-95 -48v83l117 59h86v-449h-108v355z" />
    <glyph glyph-name="two.sups" horiz-adv-x="375" 
d="M38 351v87l114 121q29 32 43.5 55.5t14.5 49.5q0 28 -17 44.5t-50 16.5q-21 0 -46.5 -6.5t-47.5 -17.5v86q58 20 121 20q70 0 109.5 -32t39.5 -91q0 -46 -24.5 -84.5t-75.5 -89.5l-64 -65v-8h173v-86h-290z" />
    <glyph glyph-name="three.sups" horiz-adv-x="363" 
d="M160 807q69 0 109 -26.5t40 -73.5q0 -35 -22 -62t-62 -45q45 -9 70.5 -38.5t25.5 -73.5q0 -145 -282 -145v84q88 0 130 17t42 53q0 49 -73 49q-24 0 -64 -6v75q58 8 92 25.5t34 44.5q0 19 -15.5 29.5t-44.5 10.5q-23 0 -50.5 -6t-50.5 -16v83q59 21 121 21z" />
    <glyph glyph-name="four.sups" horiz-adv-x="395" 
d="M215 451h-189v74l129 275h105l-125 -266h81l38 117h62v-117h55l-7 -83h-48v-100h-107z" />
    <glyph glyph-name="five.sups" horiz-adv-x="372" 
d="M289 593q38 -32 38 -91q0 -81 -71 -120t-203 -39v84q85 0 126 16.5t41 52.5q0 49 -73 49q-32 0 -94 -11v266h260v-85h-173v-93q23 3 42 3q69 0 107 -32z" />
    <glyph glyph-name="six.sups" horiz-adv-x="430" 
d="M94 397.5q-49 54.5 -49 148.5q0 84 38.5 144t105.5 91t153 31v-85q-77 0 -128.5 -34.5t-58.5 -102.5h8q18 24 45 37t59 13q56 0 93 -38t37 -102q0 -71 -47 -114t-123 -43q-84 0 -133 54.5zM228 424q29 0 47 17.5t18 50.5q0 31 -16.5 49.5t-47.5 18.5q-45 0 -75 -37
q5 -99 74 -99z" />
    <glyph glyph-name="seven.sups" horiz-adv-x="371" 
d="M337 800v-54q-57 -78 -89 -172t-32 -223h-110q0 103 27.5 192t75.5 157v9h-176v91h304z" />
    <glyph glyph-name="eight.sups" horiz-adv-x="440" 
d="M130 562v3q-68 39 -68 110q0 62 44.5 97t118.5 35q67 0 110 -29t43 -79q0 -32 -18.5 -59t-51.5 -44v-4q43 -20 64.5 -45.5t21.5 -67.5q0 -66 -48.5 -101t-126.5 -35q-77 0 -124.5 32t-47.5 85q0 70 83 102zM166 432.5q19 -15.5 54 -15.5q34 0 53.5 15t19.5 37
q0 20 -16 32.5t-47 23.5l-35 13q-23 -11 -35.5 -28.5t-12.5 -36.5q0 -25 19 -40.5zM175 650.5q18 -14.5 52 -26.5l19 -7q37 28 37 64q0 24 -16.5 39t-45.5 15t-46.5 -14.5t-17.5 -34.5q0 -21 18 -35.5z" />
    <glyph glyph-name="nine.sups" horiz-adv-x="429" 
d="M334.5 750.5q49.5 -56.5 49.5 -150.5q0 -82 -38.5 -141t-106 -89.5t-153.5 -30.5v85q77 0 128.5 32t59.5 101h-4q-19 -20 -47 -32t-59 -12q-57 0 -94 37.5t-37 101.5q0 70 45.5 112.5t120.5 42.5q86 0 135.5 -56.5zM152 611.5q16 -18.5 48 -18.5q23 0 42.5 9t32.5 24
q-3 101 -74 101q-30 0 -47.5 -17t-17.5 -50q0 -30 16 -48.5z" />
    <glyph glyph-name="zero.sinf" horiz-adv-x="456" 
d="M93.5 53q-48.5 61 -48.5 171q0 111 48.5 171.5t135.5 60.5q86 0 134 -60.5t48 -171.5q0 -110 -48 -171t-134 -61q-87 0 -135.5 61zM172 113q17 -37 56 -37q74 0 74 148q0 74 -18 112t-56 38q-39 0 -56 -37.5t-17 -112.5q0 -74 17 -111z" />
    <glyph glyph-name="one.sinf" horiz-adv-x="300" 
d="M112 355l-95 -48v83l117 59h86v-449h-108v355z" />
    <glyph glyph-name="two.sinf" horiz-adv-x="375" 
d="M38 0v87l114 121q29 32 43.5 55.5t14.5 49.5q0 28 -17 44.5t-50 16.5q-21 0 -46.5 -6.5t-47.5 -17.5v86q58 20 121 20q70 0 109.5 -32t39.5 -91q0 -46 -24.5 -84.5t-75.5 -89.5l-64 -65v-8h173v-86h-290z" />
    <glyph glyph-name="three.sinf" horiz-adv-x="363" 
d="M160 456q69 0 109 -26.5t40 -73.5q0 -35 -22 -62t-62 -45q45 -9 70.5 -38.5t25.5 -73.5q0 -145 -282 -145v84q88 0 130 17t42 53q0 49 -73 49q-24 0 -64 -6v75q58 8 92 25.5t34 44.5q0 19 -15.5 29.5t-44.5 10.5q-23 0 -50.5 -6t-50.5 -16v83q59 21 121 21z" />
    <glyph glyph-name="four.sinf" horiz-adv-x="395" 
d="M215 100h-189v74l129 275h105l-125 -266h81l38 117h62v-117h55l-7 -83h-48v-100h-107z" />
    <glyph glyph-name="five.sinf" horiz-adv-x="372" 
d="M289 242q38 -32 38 -91q0 -81 -71 -120t-203 -39v84q85 0 126 16.5t41 52.5q0 49 -73 49q-32 0 -94 -11v266h260v-85h-173v-93q23 3 42 3q69 0 107 -32z" />
    <glyph glyph-name="six.sinf" horiz-adv-x="430" 
d="M94 46.5q-49 54.5 -49 148.5q0 84 38.5 144t105.5 91t153 31v-85q-77 0 -128.5 -34.5t-58.5 -102.5h8q18 24 45 37t59 13q56 0 93 -38t37 -102q0 -71 -47 -114t-123 -43q-84 0 -133 54.5zM228 73q29 0 47 17.5t18 50.5q0 31 -16.5 49.5t-47.5 18.5q-45 0 -75 -37
q5 -99 74 -99z" />
    <glyph glyph-name="seven.sinf" horiz-adv-x="371" 
d="M337 449v-54q-57 -78 -89 -172t-32 -223h-110q0 103 27.5 192t75.5 157v9h-176v91h304z" />
    <glyph glyph-name="eight.sinf" horiz-adv-x="440" 
d="M130 211v3q-68 39 -68 110q0 62 44.5 97t118.5 35q67 0 110 -29t43 -79q0 -32 -18.5 -59t-51.5 -44v-4q43 -20 64.5 -45.5t21.5 -67.5q0 -66 -48.5 -101t-126.5 -35q-77 0 -124.5 32t-47.5 85q0 70 83 102zM166 81.5q19 -15.5 54 -15.5q34 0 53.5 15t19.5 37
q0 20 -16 32.5t-47 23.5l-35 13q-23 -11 -35.5 -28.5t-12.5 -36.5q0 -25 19 -40.5zM175 299.5q18 -14.5 52 -26.5l19 -7q37 28 37 64q0 24 -16.5 39t-45.5 15t-46.5 -14.5t-17.5 -34.5q0 -21 18 -35.5z" />
    <glyph glyph-name="nine.sinf" horiz-adv-x="429" 
d="M334.5 399.5q49.5 -56.5 49.5 -150.5q0 -82 -38.5 -141t-106 -89.5t-153.5 -30.5v85q77 0 128.5 32t59.5 101h-4q-19 -20 -47 -32t-59 -12q-57 0 -94 37.5t-37 101.5q0 70 45.5 112.5t120.5 42.5q86 0 135.5 -56.5zM152 260.5q16 -18.5 48 -18.5q23 0 42.5 9t32.5 24
q-3 101 -74 101q-30 0 -47.5 -17t-17.5 -50q0 -30 16 -48.5z" />
    <glyph glyph-name="zero.numr" horiz-adv-x="344" 
d="M63 385.5q-39 46.5 -39 132.5q0 85 39 131.5t109 46.5t109 -46.5t39 -131.5q0 -86 -39 -132.5t-109 -46.5t-109 46.5zM130 438.5q13 -26.5 42 -26.5t42.5 26.5t13.5 79.5t-13.5 79.5t-42.5 26.5t-42 -26.5t-13 -79.5t13 -79.5z" />
    <glyph glyph-name="one.numr" horiz-adv-x="228" 
d="M85 609l-76 -37v73l94 45h73v-345h-91v264z" />
    <glyph glyph-name="two.numr" horiz-adv-x="287" 
d="M26 345v76l90 88q22 21 33.5 38t11.5 35q0 19 -13 30.5t-38 11.5q-35 0 -75 -19v75q44 16 97 16q57 0 89 -25.5t32 -71.5q0 -37 -20.5 -67t-62.5 -66l-51 -45v-1h141v-75h-234z" />
    <glyph glyph-name="three.numr" horiz-adv-x="279" 
d="M124 696q56 0 88.5 -20.5t32.5 -57.5q0 -27 -18.5 -48t-50.5 -33v-3q37 -8 57.5 -30t20.5 -55q0 -110 -227 -110v71q135 0 135 50q0 31 -50 31q-27 0 -57 -5v62q53 8 76 19t23 29q0 15 -11 22t-31 7q-19 0 -42 -4.5t-43 -12.5v71q44 17 97 17z" />
    <glyph glyph-name="four.numr" horiz-adv-x="297" 
d="M160 420h-151v65l101 205h96l-107 -197h64l31 86h51v-86h44l-7 -73h-37v-75h-90z" />
    <glyph glyph-name="five.numr" horiz-adv-x="282" 
d="M230 530.5q29 -25.5 29 -69.5q0 -60 -58 -91t-164 -31v71q68 0 99.5 12t31.5 36q0 33 -51 33q-35 0 -80 -10v209h210v-75h-136v-64q23 5 43 5q47 0 76 -25.5z" />
    <glyph glyph-name="six.numr" horiz-adv-x="325" 
d="M63.5 380.5q-39.5 41.5 -39.5 113.5q0 64 31.5 110.5t86 71t123.5 24.5v-74q-61 0 -104 -25t-47 -75h9q14 17 37 28t50 11q44 0 71 -27.5t27 -75.5q0 -55 -37.5 -89t-99.5 -34q-68 0 -107.5 41.5zM172 407q23 0 37 13.5t14 35.5q0 21 -12.5 33.5t-37.5 12.5
q-38 0 -59 -26q5 -69 58 -69z" />
    <glyph glyph-name="seven.numr" horiz-adv-x="282" 
d="M264 690v-48q-46 -58 -71 -127t-25 -170h-93q0 153 80 257v8h-137v80h246z" />
    <glyph glyph-name="eight.numr" horiz-adv-x="329" 
d="M88 504v5q-52 30 -52 84q0 48 36.5 75.5t97.5 27.5q53 0 88 -22t35 -61q0 -25 -15 -45.5t-42 -34.5v-3q32 -15 50.5 -36t18.5 -54q0 -49 -39.5 -75t-102.5 -26q-62 0 -100.5 24t-38.5 65q0 52 64 76zM122.5 409q15.5 -12 43.5 -12q26 0 41 10.5t15 26.5q0 17 -18 27
t-60 24q-37 -17 -37 -46q0 -18 15.5 -30zM132.5 573.5q17.5 -11.5 51.5 -23.5q30 21 30 48q0 17 -12.5 28.5t-37.5 11.5q-22 0 -35.5 -10t-13.5 -25q0 -18 17.5 -29.5z" />
    <glyph glyph-name="nine.numr" horiz-adv-x="324" 
d="M261.5 653.5q39.5 -42.5 39.5 -117.5q0 -96 -66 -148.5t-175 -52.5v74q61 0 103.5 25t46.5 75h-8q-14 -17 -37.5 -28t-50.5 -11q-44 0 -70.5 27.5t-26.5 75.5q0 55 37 89t99 34q69 0 108.5 -42.5zM114 545.5q13 -12.5 38 -12.5q36 0 58 25q-3 70 -57 70
q-23 0 -37.5 -13.5t-14.5 -35.5q0 -21 13 -33.5z" />
    <glyph glyph-name="zero.dnom" horiz-adv-x="344" 
d="M63 40.5q-39 46.5 -39 132.5q0 85 39 131.5t109 46.5t109 -46.5t39 -131.5q0 -86 -39 -132.5t-109 -46.5t-109 46.5zM130 93.5q13 -26.5 42 -26.5t42.5 26.5t13.5 79.5t-13.5 79.5t-42.5 26.5t-42 -26.5t-13 -79.5t13 -79.5z" />
    <glyph glyph-name="one.dnom" horiz-adv-x="228" 
d="M85 264l-76 -37v73l94 45h73v-345h-91v264z" />
    <glyph glyph-name="two.dnom" horiz-adv-x="287" 
d="M26 0v76l90 88q22 21 33.5 38t11.5 35q0 19 -13 30.5t-38 11.5q-35 0 -75 -19v75q44 16 97 16q57 0 89 -25.5t32 -71.5q0 -37 -20.5 -67t-62.5 -66l-51 -45v-1h141v-75h-234z" />
    <glyph glyph-name="three.dnom" horiz-adv-x="279" 
d="M124 351q56 0 88.5 -20.5t32.5 -57.5q0 -27 -18.5 -48t-50.5 -33v-3q37 -8 57.5 -30t20.5 -55q0 -110 -227 -110v71q135 0 135 50q0 31 -50 31q-27 0 -57 -5v62q53 8 76 19t23 29q0 15 -11 22t-31 7q-19 0 -42 -4.5t-43 -12.5v71q44 17 97 17z" />
    <glyph glyph-name="four.dnom" horiz-adv-x="297" 
d="M160 75h-151v65l101 205h96l-107 -197h64l31 86h51v-86h44l-7 -73h-37v-75h-90z" />
    <glyph glyph-name="five.dnom" horiz-adv-x="282" 
d="M230 185.5q29 -25.5 29 -69.5q0 -60 -58 -91t-164 -31v71q68 0 99.5 12t31.5 36q0 33 -51 33q-35 0 -80 -10v209h210v-75h-136v-64q23 5 43 5q47 0 76 -25.5z" />
    <glyph glyph-name="six.dnom" horiz-adv-x="325" 
d="M63.5 35.5q-39.5 41.5 -39.5 113.5q0 64 31.5 110.5t86 71t123.5 24.5v-74q-61 0 -104 -25t-47 -75h9q14 17 37 28t50 11q44 0 71 -27.5t27 -75.5q0 -55 -37.5 -89t-99.5 -34q-68 0 -107.5 41.5zM172 62q23 0 37 13.5t14 35.5q0 21 -12.5 33.5t-37.5 12.5q-38 0 -59 -26
q5 -69 58 -69z" />
    <glyph glyph-name="seven.dnom" horiz-adv-x="282" 
d="M264 345v-48q-46 -58 -71 -127t-25 -170h-93q0 153 80 257v8h-137v80h246z" />
    <glyph glyph-name="eight.dnom" horiz-adv-x="329" 
d="M88 159v5q-52 30 -52 84q0 48 36.5 75.5t97.5 27.5q53 0 88 -22t35 -61q0 -25 -15 -45.5t-42 -34.5v-3q32 -15 50.5 -36t18.5 -54q0 -49 -39.5 -75t-102.5 -26q-62 0 -100.5 24t-38.5 65q0 52 64 76zM122.5 64q15.5 -12 43.5 -12q26 0 41 10.5t15 26.5q0 17 -18 27
t-60 24q-37 -17 -37 -46q0 -18 15.5 -30zM132.5 228.5q17.5 -11.5 51.5 -23.5q30 21 30 48q0 17 -12.5 28.5t-37.5 11.5q-22 0 -35.5 -10t-13.5 -25q0 -18 17.5 -29.5z" />
    <glyph glyph-name="nine.dnom" horiz-adv-x="324" 
d="M261.5 308.5q39.5 -42.5 39.5 -117.5q0 -96 -66 -148.5t-175 -52.5v74q61 0 103.5 25t46.5 75h-8q-14 -17 -37.5 -28t-50.5 -11q-44 0 -70.5 27.5t-26.5 75.5q0 55 37 89t99 34q69 0 108.5 -42.5zM114 200.5q13 -12.5 38 -12.5q36 0 58 25q-3 70 -57 70
q-23 0 -37.5 -13.5t-14.5 -35.5q0 -21 13 -33.5z" />
    <glyph glyph-name="exclamdown.case" horiz-adv-x="323" 
d="M98 485h127l16 -485h-160zM93 680q23 22 69 22q45 0 68 -22t23 -61t-22.5 -60.5t-68.5 -21.5t-69 21.5t-23 60.5t23 61z" />
    <glyph glyph-name="questiondown.case" horiz-adv-x="468" 
d="M347.5 679.5q23.5 -22.5 23.5 -61.5q0 -40 -23.5 -62t-69.5 -22t-69.5 22t-23.5 62q0 39 23.5 61.5t69.5 22.5t69.5 -22.5zM68 249q23 35 67 77q40 39 59.5 67.5t19.5 68.5v23h129v-35q0 -45 -13 -79.5t-31 -57t-46 -49.5q-27 -26 -39 -43t-12 -38q0 -33 24 -50.5
t62 -17.5q34 0 72.5 9t73.5 24v-131q-33 -12 -79 -20.5t-87 -8.5q-100 0 -161.5 46.5t-61.5 127.5q0 52 23 87z" />
    <glyph glyph-name="parenleft.case" horiz-adv-x="366" 
d="M243 583q-28 -128 -28 -238t28 -238t80 -227h-115q-140 198 -140 465t140 465h115q-52 -99 -80 -227z" />
    <glyph glyph-name="parenright.case" horiz-adv-x="366" 
d="M265 587.5q33 -118.5 33 -242.5t-33 -242.5t-106 -222.5h-116q52 98 80 226t28 239t-28 239t-80 226h116q73 -104 106 -222.5z" />
    <glyph glyph-name="braceleft.case" horiz-adv-x="413" 
d="M291 116q-9 -47 -9 -66q0 -27 15.5 -42t40.5 -15h17v-113h-40q-78 0 -129 37.5t-51 111.5q0 26 10 94q10 64 10 88q0 42 -19 61t-56 19h-7v108h7q37 0 56 19t19 61q0 24 -10 88q-10 68 -10 94q0 74 51 111.5t129 37.5h40v-113h-17q-25 0 -40.5 -15t-15.5 -42q0 -19 9 -66
q11 -66 11 -88q0 -47 -26 -83t-70 -53v-10q44 -17 70 -53t26 -83q0 -22 -11 -88z" />
    <glyph glyph-name="braceright.case" horiz-adv-x="413" 
d="M137 287q26 36 70 53v10q-44 17 -70 53t-26 83q0 22 11 88q9 47 9 66q0 27 -15.5 42t-40.5 15h-17v113h40q78 0 129 -37.5t51 -111.5q0 -26 -10 -94q-10 -64 -10 -88q0 -42 19 -61t56 -19h7v-108h-7q-37 0 -56 -19t-19 -61q0 -24 10 -88q10 -68 10 -94q0 -74 -51 -111.5
t-129 -37.5h-40v113h17q25 0 40.5 15t15.5 42q0 19 -9 66q-11 66 -11 88q0 47 26 83z" />
    <glyph glyph-name="bracketleft.case" horiz-adv-x="388" 
d="M328 810v-116h-84v-698h84v-116h-228v930h228z" />
    <glyph glyph-name="bracketright.case" horiz-adv-x="388" 
d="M288 -120h-228v116h84v698h-84v116h228v-930z" />
    <glyph glyph-name="period.tf" 
d="M238.5 10.5q-23.5 22.5 -23.5 62.5t23.5 62t70.5 22t70 -22t23 -62t-23 -62.5t-70 -22.5t-70.5 22.5z" />
    <glyph glyph-name="comma.tf" 
d="M287 -9q-35 5 -53 26.5t-18 55.5q0 39 23 61t70 22q91 0 91 -90q0 -52 -25.5 -119.5t-65.5 -118.5h-75q40 84 53 163z" />
    <glyph glyph-name="colon.tf" 
d="M238.5 10.5q-23.5 22.5 -23.5 62.5t23.5 62t70.5 22t70 -22t23 -62t-23 -62.5t-70 -22.5t-70.5 22.5zM238.5 383.5q-23.5 22.5 -23.5 62.5t23.5 62t70.5 22t70 -22t23 -62t-23 -62.5t-70 -22.5t-70.5 22.5z" />
    <glyph glyph-name="semicolon.tf" 
d="M288 -9q-35 5 -53 26.5t-18 55.5q0 39 23 61t70 22q91 0 91 -90q0 -52 -25.5 -119.5t-65.5 -118.5h-75q40 84 53 163zM238.5 383.5q-23.5 22.5 -23.5 62.5t23.5 62t70.5 22t70 -22t23 -62t-23 -62.5t-70 -22.5t-70.5 22.5z" />
    <glyph glyph-name="numbersign.tf" 
d="M544 730l-31 -188h107l-16 -96h-107l-26 -162h107l-16 -96h-107l-31 -188h-108l31 188h-136l-31 -188h-108l31 188h-106l15 96h107l26 162h-106l16 96h106l31 188h108l-31 -188h136l31 188h108zM363 284l26 162h-136l-26 -162h136z" />
    <glyph glyph-name="parenleft.tf" 
d="M353 503q-28 -128 -28 -238t28 -238t80 -227h-115q-140 198 -140 465t140 465h115q-52 -99 -80 -227z" />
    <glyph glyph-name="parenright.tf" 
d="M405 507.5q33 -118.5 33 -242.5t-33 -242.5t-106 -222.5h-116q52 98 80 226t28 239t-28 239t-80 226h116q73 -104 106 -222.5z" />
    <glyph glyph-name="braceleft.tf" 
d="M394 36q-9 -47 -9 -66q0 -27 15.5 -42t40.5 -15h17v-113h-40q-78 0 -129 37.5t-51 111.5q0 26 10 94q10 64 10 88q0 42 -19 61t-56 19h-7v108h7q37 0 56 19t19 61q0 24 -10 88q-10 68 -10 94q0 74 51 111.5t129 37.5h40v-113h-17q-25 0 -40.5 -15t-15.5 -42q0 -19 9 -66
q11 -66 11 -88q0 -47 -26 -83t-70 -53v-10q44 -17 70 -53t26 -83q0 -22 -11 -88z" />
    <glyph glyph-name="braceright.tf" 
d="M238 207q26 36 70 53v10q-44 17 -70 53t-26 83q0 22 11 88q9 47 9 66q0 27 -15.5 42t-40.5 15h-17v113h40q78 0 129 -37.5t51 -111.5q0 -26 -10 -94q-10 -64 -10 -88q0 -42 19 -61t56 -19h7v-108h-7q-37 0 -56 -19t-19 -61q0 -24 10 -88q10 -68 10 -94q0 -74 -51 -111.5
t-129 -37.5h-40v113h17q25 0 40.5 15t15.5 42q0 19 -9 66q-11 66 -11 88q0 47 26 83z" />
    <glyph glyph-name="bracketleft.tf" 
d="M434 730v-116h-84v-698h84v-116h-228v930h228z" />
    <glyph glyph-name="bracketright.tf" 
d="M411 -200h-228v116h84v698h-84v116h228v-930z" />
    <glyph glyph-name="period.sups" horiz-adv-x="247" 
d="M74 358.5q-16 15.5 -16 43.5q0 27 16 42t49 15q32 0 48 -15t16 -42q0 -28 -16 -43.5t-48 -15.5q-33 0 -49 15.5z" />
    <glyph glyph-name="comma.sups" horiz-adv-x="244" 
d="M107 346q-49 7 -49 56q0 26 16 41t48 15q63 0 63 -60q0 -35 -17.5 -79.5t-44.5 -79.5h-52q28 55 36 107z" />
    <glyph glyph-name="colon.sups" horiz-adv-x="247" 
d="M74 358.5q-16 15.5 -16 43.5q0 27 16 42t49 15q32 0 48 -15t16 -42q0 -28 -16 -43.5t-48 -15.5q-33 0 -49 15.5zM74 682q16 15 49 15q32 0 48 -15t16 -42q0 -28 -16 -43t-48 -15q-65 0 -65 58q0 27 16 42z" />
    <glyph glyph-name="semicolon.sups" horiz-adv-x="247" 
d="M108 346q-48 7 -48 56q0 26 16 41t48 15q63 0 63 -60q0 -35 -17.5 -79.5t-44.5 -79.5h-52q26 52 35 107zM74 682q16 15 49 15q32 0 48 -15t16 -42q0 -28 -16 -43t-48 -15q-65 0 -65 58q0 27 16 42z" />
    <glyph glyph-name="exclam.sups" horiz-adv-x="233" 
d="M173 800l-12 -311h-89l-12 311h113zM69 442q16 15 48 15q31 0 47 -15t16 -41q0 -27 -16 -42t-47 -15q-32 0 -48 15t-16 42q0 26 16 41z" />
    <glyph glyph-name="exclamdown.sups" horiz-adv-x="233" 
d="M72 662h89l12 -311h-113zM69 793q16 15 48 15q31 0 47 -15t16 -42t-15.5 -41.5t-47.5 -14.5q-64 0 -64 56q0 27 16 42z" />
    <glyph glyph-name="question.sups" horiz-adv-x="323" 
d="M267.5 639q-14.5 -22 -43.5 -50q-25 -23 -37.5 -41.5t-12.5 -43.5v-15h-90v22q0 44 15.5 70t42.5 52q16 16 23 25.5t7 21.5q0 19 -14 29t-36 10q-47 0 -96 -22v92q21 8 51.5 13t58.5 5q66 0 106 -30t40 -82q0 -34 -14.5 -56zM81 444q16 15 48 15t48 -15t16 -42
q0 -28 -16 -43t-48 -15t-48 15t-16 43q0 27 16 42z" />
    <glyph glyph-name="questiondown.sups" horiz-adv-x="323" 
d="M55.5 512q14.5 22 43.5 50q25 23 37.5 41.5t12.5 43.5v15h90v-22q0 -44 -15.5 -70t-42.5 -52q-16 -16 -23 -25.5t-7 -21.5q0 -19 14 -29t36 -10q23 0 48 6t47 16v-92q-21 -8 -51 -13t-58 -5q-66 0 -106 30t-40 82q0 34 14.5 56zM146 792q16 15 48 15t48 -15t16 -43
q0 -27 -16 -42t-48 -15t-48 15t-16 42q0 28 16 43z" />
    <glyph glyph-name="bullet.sups" horiz-adv-x="314" 
d="M89 515q-24 23 -24 60q0 38 24 60.5t68 22.5t68 -22.5t24 -60.5q0 -37 -24 -60t-68 -23t-68 23z" />
    <glyph glyph-name="numbersign.sups" horiz-adv-x="517" 
d="M415 826l-20 -120h70l-11 -67h-70l-16 -101h69l-11 -67h-69l-20 -120h-75l20 120h-86l-20 -120h-75l20 120h-69l10 67h70l16 101h-69l12 67h68l20 120h75l-20 -120h86l20 120h75zM293 538l16 101h-86l-16 -101h86z" />
    <glyph glyph-name="slash.sups" horiz-adv-x="283" 
d="M171 826h95l-155 -587h-94z" />
    <glyph glyph-name="parenleft.sups" horiz-adv-x="261" 
d="M170 678q-18 -83 -18 -155q0 -71 18 -154t51 -148h-80q-92 130 -92 302q0 173 92 303h80q-33 -65 -51 -148z" />
    <glyph glyph-name="parenright.sups" horiz-adv-x="261" 
d="M213 523q0 -173 -93 -302h-80q33 64 51 147t18 155q0 73 -17.5 156t-51.5 147h80q93 -129 93 -303z" />
    <glyph glyph-name="braceleft.sups" horiz-adv-x="295" 
d="M202 377q-6 -32 -6 -41q0 -18 10 -27.5t27 -9.5h11v-78h-28q-53 0 -88 25.5t-35 74.5q0 22 7 60q6 40 6 56q0 49 -46 49h-5v75h5q46 0 46 49q0 15 -6 57q-7 37 -7 60q0 49 35 74t88 25h28v-78h-11q-17 0 -27 -9.5t-10 -26.5q0 -9 6 -41l4 -24t3 -30q0 -31 -17 -55
t-46 -35v-6q29 -11 46 -35t17 -55q0 -12 -7 -54z" />
    <glyph glyph-name="braceright.sups" horiz-adv-x="295" 
d="M102 485q17 24 46 35v7q-29 11 -46 35.5t-17 54.5q0 12 3 30l4 24q6 32 6 41q0 17 -9.5 26.5t-26.5 9.5h-12v78h29q53 0 87.5 -25t34.5 -74q0 -23 -7 -60q-6 -42 -6 -57q0 -49 47 -49h5v-75h-5q-47 0 -47 -49q0 -16 6 -56q7 -38 7 -60q0 -49 -35 -74.5t-87 -25.5h-29v78
h12q17 0 26.5 9.5t9.5 27.5q0 9 -6 41q-7 42 -7 54q0 30 17 54z" />
    <glyph glyph-name="bracketleft.sups" horiz-adv-x="275" 
d="M224 826v-81h-52v-443h52v-81h-153v605h153z" />
    <glyph glyph-name="bracketright.sups" horiz-adv-x="275" 
d="M204 221h-153v81h53v443h-53v81h153v-605z" />
    <glyph glyph-name="period.sinf" horiz-adv-x="247" 
d="M74 7.5q-16 15.5 -16 43.5q0 27 16 42t49 15q32 0 48 -15t16 -42q0 -28 -16 -43.5t-48 -15.5q-33 0 -49 15.5z" />
    <glyph glyph-name="comma.sinf" horiz-adv-x="244" 
d="M107 -5q-49 7 -49 56q0 26 16 41t48 15q63 0 63 -60q0 -35 -17.5 -79.5t-44.5 -79.5h-52q28 55 36 107z" />
    <glyph glyph-name="colon.sinf" horiz-adv-x="247" 
d="M74 7.5q-16 15.5 -16 43.5q0 27 16 42t49 15q32 0 48 -15t16 -42q0 -28 -16 -43.5t-48 -15.5q-33 0 -49 15.5zM74 331q16 15 49 15q32 0 48 -15t16 -42q0 -28 -16 -43t-48 -15q-65 0 -65 58q0 27 16 42z" />
    <glyph glyph-name="semicolon.sinf" horiz-adv-x="247" 
d="M108 -5q-48 7 -48 56q0 26 16 41t48 15q63 0 63 -60q0 -35 -17.5 -79.5t-44.5 -79.5h-52q26 52 35 107zM74 331q16 15 49 15q32 0 48 -15t16 -42q0 -28 -16 -43t-48 -15q-65 0 -65 58q0 27 16 42z" />
    <glyph glyph-name="exclam.sinf" horiz-adv-x="233" 
d="M173 449l-12 -311h-89l-12 311h113zM69 91q16 15 48 15q31 0 47 -15t16 -41q0 -27 -16 -42t-47 -15q-32 0 -48 15t-16 42q0 26 16 41z" />
    <glyph glyph-name="exclamdown.sinf" horiz-adv-x="233" 
d="M72 311h89l12 -311h-113zM69 442q16 15 48 15q31 0 47 -15t16 -42t-15.5 -41.5t-47.5 -14.5q-64 0 -64 56q0 27 16 42z" />
    <glyph glyph-name="question.sinf" horiz-adv-x="323" 
d="M267.5 288q-14.5 -22 -43.5 -50q-25 -23 -37.5 -41.5t-12.5 -43.5v-15h-90v22q0 44 15.5 70t42.5 52q16 16 23 25.5t7 21.5q0 19 -14 29t-36 10q-47 0 -96 -22v92q21 8 51.5 13t58.5 5q66 0 106 -30t40 -82q0 -34 -14.5 -56zM81 93q16 15 48 15t48 -15t16 -42
q0 -28 -16 -43t-48 -15t-48 15t-16 43q0 27 16 42z" />
    <glyph glyph-name="questiondown.sinf" horiz-adv-x="323" 
d="M55.5 161q14.5 22 43.5 50q25 23 37.5 41.5t12.5 43.5v15h90v-22q0 -44 -15.5 -70t-42.5 -52q-16 -16 -23 -25.5t-7 -21.5q0 -19 14 -29t36 -10q23 0 48 6t47 16v-92q-21 -8 -51 -13t-58 -5q-66 0 -106 30t-40 82q0 34 14.5 56zM146 441q16 15 48 15t48 -15t16 -43
q0 -27 -16 -42t-48 -15t-48 15t-16 42q0 28 16 43z" />
    <glyph glyph-name="bullet.sinf" horiz-adv-x="314" 
d="M89 164q-24 23 -24 60q0 38 24 60.5t68 22.5t68 -22.5t24 -60.5q0 -37 -24 -60t-68 -23t-68 23z" />
    <glyph glyph-name="numbersign.sinf" horiz-adv-x="517" 
d="M415 475l-20 -120h70l-11 -67h-70l-16 -101h69l-11 -67h-69l-20 -120h-75l20 120h-86l-20 -120h-75l20 120h-69l10 67h70l16 101h-69l12 67h68l20 120h75l-20 -120h86l20 120h75zM293 187l16 101h-86l-16 -101h86z" />
    <glyph glyph-name="slash.sinf" horiz-adv-x="283" 
d="M171 475h95l-155 -587h-94z" />
    <glyph glyph-name="parenleft.sinf" horiz-adv-x="261" 
d="M170 327q-18 -83 -18 -155q0 -71 18 -154t51 -148h-80q-92 130 -92 302q0 173 92 303h80q-33 -65 -51 -148z" />
    <glyph glyph-name="parenright.sinf" horiz-adv-x="261" 
d="M213 172q0 -173 -93 -302h-80q33 64 51 147t18 155q0 73 -17.5 156t-51.5 147h80q93 -129 93 -303z" />
    <glyph glyph-name="braceleft.sinf" horiz-adv-x="295" 
d="M202 26q-6 -32 -6 -41q0 -18 10 -27.5t27 -9.5h11v-78h-28q-53 0 -88 25.5t-35 74.5q0 22 7 60q6 40 6 56q0 49 -46 49h-5v75h5q46 0 46 49q0 15 -6 57q-7 37 -7 60q0 49 35 74t88 25h28v-78h-11q-17 0 -27 -9.5t-10 -26.5q0 -9 6 -41l4 -24t3 -30q0 -31 -17 -55t-46 -35
v-6q29 -11 46 -35t17 -55q0 -12 -7 -54z" />
    <glyph glyph-name="braceright.sinf" horiz-adv-x="295" 
d="M102 134q17 24 46 35v7q-29 11 -46 35.5t-17 54.5q0 12 3 30l4 24q6 32 6 41q0 17 -9.5 26.5t-26.5 9.5h-12v78h29q53 0 87.5 -25t34.5 -74q0 -23 -7 -60q-6 -42 -6 -57q0 -49 47 -49h5v-75h-5q-47 0 -47 -49q0 -16 6 -56q7 -38 7 -60q0 -49 -35 -74.5t-87 -25.5h-29v78
h12q17 0 26.5 9.5t9.5 27.5q0 9 -6 41q-7 42 -7 54q0 30 17 54z" />
    <glyph glyph-name="bracketleft.sinf" horiz-adv-x="275" 
d="M224 475v-81h-52v-443h52v-81h-153v605h153z" />
    <glyph glyph-name="bracketright.sinf" horiz-adv-x="275" 
d="M204 -130h-153v81h53v443h-53v81h153v-605z" />
    <glyph glyph-name="at.case" horiz-adv-x="999" 
d="M565 461q-34 8 -53 8q-39 0 -64 -29t-36.5 -69t-11.5 -72q0 -34 14 -53.5t36 -19.5q33 0 61.5 44.5t38.5 104.5zM109 580.5q61 102.5 169 160t243 57.5q127 0 224.5 -50t151.5 -139.5t54 -204.5q0 -89 -32.5 -151.5t-87.5 -94t-122 -31.5q-61 0 -99 26t-56 70h-8
q-20 -39 -60.5 -67.5t-87.5 -28.5q-57 0 -92 43t-35 121q0 72 30.5 135.5t88 102.5t133.5 39q44 0 92.5 -12.5t88.5 -31.5l-34 -200q-4 -28 -4 -38q0 -39 17 -60t52 -21t65 22t47.5 65t17.5 103q0 94 -43.5 168t-122.5 115.5t-182 41.5q-110 0 -197 -47t-136.5 -132
t-49.5 -194q0 -112 51.5 -197.5t140 -132.5t196.5 -47q74 0 147 23.5t135 72.5v-82q-53 -40 -126.5 -66t-159.5 -26q-127 0 -235 57t-171.5 160.5t-63.5 237.5q0 131 61 233.5z" />
    <glyph glyph-name="currency.tf" 
d="M200 142l-89 -89l-72 72l89 89q-30 51 -30 108t30 106l-89 89l72 73l90 -90q49 30 107 30q57 0 106 -30l90 90l72 -73l-89 -89q30 -49 30 -106t-30 -108l89 -89l-72 -72l-89 89q-51 -30 -107 -30q-57 0 -108 30zM227 241q34 -34 81 -34t80.5 34t33.5 81t-33.5 80.5
t-80.5 33.5t-81 -33.5t-34 -80.5t34 -81z" />
    <glyph glyph-name="cent.tf" 
d="M427.5 509q-28.5 6 -51.5 6q-107 0 -107 -148q0 -151 112 -151q22 0 49 6t47 14v-124q-49 -18 -109 -18v-94h-101v110q-76 27 -117.5 94t-41.5 162q0 94 41.5 161t117.5 94v109h101v-93h1q48 0 108 -16v-126q-21 8 -49.5 14z" />
    <glyph glyph-name="colonmonetary.tf" 
d="M465.5 562.5q-39.5 8.5 -73.5 8.5q-87 0 -129.5 -59.5t-42.5 -166.5t43 -166.5t131 -59.5q31 0 72.5 6.5t65.5 16.5v-135q-30 -9 -68.5 -14t-73.5 -5h-21l-20 -98h-77l22 109q-27 6 -49 16l-25 -125h-76l34 165q-58 46 -88 120t-30 169q0 133 57.5 223t162.5 121l23 111
h77l-21 -98q9 1 28 1q16 0 24 -1l20 98h77l-22 -108q32 -8 46 -14v-135q-27 12 -66.5 20.5z" />
    <glyph glyph-name="dollar.tf" 
d="M142 622q44 52 120 71v106h102v-97q67 -4 126 -29v-131q-39 15 -78.5 24t-70.5 9q-38 0 -62 -17t-24 -50q0 -30 22 -47t85 -43q74 -32 119.5 -80.5t45.5 -133.5q0 -84 -47.5 -138.5t-129.5 -71.5v-104h-101v99q-43 4 -85.5 16t-73.5 30v138q45 -26 98 -42t94 -16
q42 0 65 19t23 53q0 37 -27 58.5t-88 47.5q-69 28 -113 73.5t-44 126.5q0 77 44 129z" />
    <glyph glyph-name="Euro.tf" 
d="M466.5 562.5q-39.5 8.5 -73.5 8.5q-60 0 -99 -29t-57 -84h178v-83h-193q-1 -10 -1 -30t1 -30h193v-83h-178q38 -113 158 -113q31 0 72.5 6.5t65.5 16.5v-135q-30 -9 -68.5 -14t-73.5 -5q-105 0 -179 44t-112.5 124t-38.5 188q0 109 38.5 189.5t112 124.5t176.5 44
q82 0 145 -25v-135q-27 12 -66.5 20.5z" />
    <glyph glyph-name="uni20B2.tf" 
d="M458 565.5q-47 7.5 -85 7.5q-193 0 -193 -228q0 -111 44.5 -169.5t139.5 -58.5l49 2v214h148v-319q-38 -10 -84.5 -16.5t-87.5 -8.5v-99h-101v103q-130 20 -199 112.5t-69 238.5q0 148 72.5 241t208.5 112v102h101v-98q73 -3 134 -23v-131q-31 11 -78 18.5z" />
    <glyph glyph-name="sterling.tf" 
d="M540 0h-452v95q43 37 66.5 85t23.5 96q0 15 -1 22h-89v84h61q-23 46 -32.5 73t-9.5 65q0 86 61 134t166 48q43 0 91 -8.5t90 -23.5v-123q-34 16 -73 26t-72 10q-52 0 -79.5 -23t-27.5 -63q0 -21 6.5 -43t19.5 -52q3 -5 4.5 -10.5t3.5 -9.5h168v-84h-146q1 -5 1 -16
q0 -83 -91 -160h311v-122z" />
    <glyph glyph-name="yen.tf" 
d="M183 690l121 -310h13l121 310h166l-178 -384h104v-84h-142v-60h142v-83h-142v-79h-158v79h-138v83h138v60h-138v84h100l-179 384h170z" />
    <glyph glyph-name="cent.sups" horiz-adv-x="329" 
d="M206 831v-63h3q32 0 70 -10v-88q-36 13 -65 13q-66 0 -66 -90q0 -93 69 -93q14 0 32 3.5t30 8.5v-86q-33 -12 -70 -12h-3v-63h-70v76q-48 19 -74 61.5t-26 102.5t26 102.5t74 61.5v76h70z" />
    <glyph glyph-name="dollar.sups" horiz-adv-x="388" 
d="M88 753.5q29 34.5 79 46.5v70h71v-63q49 -3 82 -18v-92q-56 22 -103 22q-21 0 -34.5 -9t-13.5 -28q0 -18 14 -28.5t54 -27.5q53 -23 80.5 -55t27.5 -84q0 -55 -31 -91.5t-85 -47.5v-68h-70v64q-58 4 -104 30v96q29 -18 64 -28t62 -10q25 0 39.5 11t14.5 31t-15.5 33
t-59.5 32q-46 21 -73.5 49t-27.5 80q0 51 29 85.5z" />
    <glyph glyph-name="colonmonetary.sups" horiz-adv-x="422" 
d="M321.5 710.5q-25.5 5.5 -47.5 5.5q-54 0 -81 -37t-27 -104t27 -104t82 -37q19 0 46.5 4.5t43.5 10.5v-93q-44 -13 -93 -13q-14 0 -21 1l-13 -64h-53l15 73q-16 4 -30 10l-17 -83h-53l23 115q-33 30 -50.5 76t-17.5 104q0 82 34.5 139.5t97.5 79.5l16 76h53l-13 -64
q8 1 27 1h5l13 63h53l-14 -68q26 -6 38 -11v-94q-18 8 -43.5 13.5z" />
    <glyph glyph-name="Euro.sups" horiz-adv-x="422" 
d="M281 594h-114q-1 -6 -1 -19v-17h115v-58h-103q24 -66 97 -66q19 0 46.5 4.5t43.5 10.5v-93q-44 -13 -93 -13q-103 0 -160 62.5t-57 169.5t57 169.5t158 62.5q54 0 95 -16v-94q-18 8 -43.5 13.5t-47.5 5.5q-71 0 -96 -64h103v-58z" />
    <glyph glyph-name="uni20B2.sups" horiz-adv-x="464" 
d="M302 870v-63q53 -3 92 -16v-91q-22 7 -53 12.5t-55 5.5q-120 0 -120 -143q0 -142 115 -142q16 0 26 1v135h103v-208q-52 -14 -116 -18v-63h-71v68q-81 15 -124.5 74.5t-43.5 152.5q0 95 45.5 154.5t131.5 73.5v67h70z" />
    <glyph glyph-name="sterling.sups" horiz-adv-x="396" 
d="M344 351h-298v67q28 23 42.5 53.5t14.5 61.5q0 7 -1 11h-56v58h38q-13 25 -19.5 43.5t-6.5 43.5q0 56 40 87t110 31q29 0 61 -5t58 -15v-86q-22 11 -47 17.5t-47 6.5q-32 0 -49 -14t-17 -39q0 -13 4 -26t9.5 -26t7.5 -18h107v-58h-91v-7q0 -52 -57 -100h197v-86z" />
    <glyph glyph-name="yen.sups" horiz-adv-x="460" 
d="M286 494v-36h93v-58h-93v-49h-111v49h-90v58h90v36h-90v58h64l-115 248h119l75 -196h8l74 196h116l-114 -248h67v-58h-93z" />
    <glyph glyph-name="cent.sinf" horiz-adv-x="329" 
d="M206 480v-63h3q32 0 70 -10v-88q-36 13 -65 13q-66 0 -66 -90q0 -93 69 -93q14 0 32 3.5t30 8.5v-86q-33 -12 -70 -12h-3v-63h-70v76q-48 19 -74 61.5t-26 102.5t26 102.5t74 61.5v76h70z" />
    <glyph glyph-name="dollar.sinf" horiz-adv-x="388" 
d="M88 402.5q29 34.5 79 46.5v70h71v-63q49 -3 82 -18v-92q-56 22 -103 22q-21 0 -34.5 -9t-13.5 -28q0 -18 14 -28.5t54 -27.5q53 -23 80.5 -55t27.5 -84q0 -55 -31 -91.5t-85 -47.5v-68h-70v64q-58 4 -104 30v96q29 -18 64 -28t62 -10q25 0 39.5 11t14.5 31t-15.5 33
t-59.5 32q-46 21 -73.5 49t-27.5 80q0 51 29 85.5z" />
    <glyph glyph-name="colonmonetary.sinf" horiz-adv-x="422" 
d="M321.5 359.5q-25.5 5.5 -47.5 5.5q-54 0 -81 -37t-27 -104t27 -104t82 -37q19 0 46.5 4.5t43.5 10.5v-93q-44 -13 -93 -13q-14 0 -21 1l-13 -64h-53l15 73q-16 4 -30 10l-17 -83h-53l23 115q-33 30 -50.5 76t-17.5 104q0 82 34.5 139.5t97.5 79.5l16 76h53l-13 -64
q8 1 27 1h5l13 63h53l-14 -68q26 -6 38 -11v-94q-18 8 -43.5 13.5z" />
    <glyph glyph-name="Euro.sinf" horiz-adv-x="422" 
d="M281 243h-114q-1 -6 -1 -19v-17h115v-58h-103q24 -66 97 -66q19 0 46.5 4.5t43.5 10.5v-93q-44 -13 -93 -13q-103 0 -160 62.5t-57 169.5t57 169.5t158 62.5q54 0 95 -16v-94q-18 8 -43.5 13.5t-47.5 5.5q-71 0 -96 -64h103v-58z" />
    <glyph glyph-name="uni20B2.sinf" horiz-adv-x="464" 
d="M302 519v-63q53 -3 92 -16v-91q-22 7 -53 12.5t-55 5.5q-120 0 -120 -143q0 -142 115 -142q16 0 26 1v135h103v-208q-52 -14 -116 -18v-63h-71v68q-81 15 -124.5 74.5t-43.5 152.5q0 95 45.5 154.5t131.5 73.5v67h70z" />
    <glyph glyph-name="sterling.sinf" horiz-adv-x="396" 
d="M344 0h-298v67q28 23 42.5 53.5t14.5 61.5q0 7 -1 11h-56v58h38q-13 25 -19.5 43.5t-6.5 43.5q0 56 40 87t110 31q29 0 61 -5t58 -15v-86q-22 11 -47 17.5t-47 6.5q-32 0 -49 -14t-17 -39q0 -13 4 -26t9.5 -26t7.5 -18h107v-58h-91v-7q0 -52 -57 -100h197v-86z" />
    <glyph glyph-name="yen.sinf" horiz-adv-x="460" 
d="M286 143v-36h93v-58h-93v-49h-111v49h-90v58h90v36h-90v58h64l-115 248h119l75 -196h8l74 196h116l-114 -248h67v-58h-93z" />
    <glyph glyph-name="plus.tf" 
d="M240 280h-191v129h191v195h136v-195h191v-129h-191v-195h-136v195z" />
    <glyph glyph-name="minus.tf" 
d="M49 280v129h518v-129h-518z" />
    <glyph glyph-name="multiply.tf" 
d="M219 347l-138 137l88 87l137 -137l140 140l92 -92l-140 -140l137 -137l-87 -87l-137 137l-140 -140l-92 92z" />
    <glyph glyph-name="divide.tf" 
d="M243.5 506.5q-21.5 20.5 -21.5 57.5t21.5 57t64.5 20t64.5 -20t21.5 -57t-21.5 -57.5t-64.5 -20.5t-64.5 20.5zM49 409h518v-129h-518v129zM243.5 183q21.5 20 64.5 20t64.5 -20t21.5 -57t-21.5 -57.5t-64.5 -20.5t-64.5 20.5t-21.5 57.5t21.5 57z" />
    <glyph glyph-name="equal.tf" 
d="M49 148v129h518v-129h-518zM49 413v129h518v-129h-518z" />
    <glyph glyph-name="notequal.tf" 
d="M265 148l-65 -148h-95l65 148h-121v129h178l61 136h-239v129h296l65 148h95l-65 -148h127v-129h-184l-61 -136h245v-129h-302z" />
    <glyph glyph-name="greater.tf" 
d="M571 418v-146l-516 -186v132l376 122v10l-376 122v132z" />
    <glyph glyph-name="less.tf" 
d="M45 272v146l517 186v-132l-376 -122v-10l376 -122v-132z" />
    <glyph glyph-name="greaterequal.tf" 
d="M57 339l414 73v7l-414 72v124l516 -107v-185l-516 -107v123zM52 171h518v-117h-518v117z" />
    <glyph glyph-name="lessequal.tf" 
d="M43 323v185l517 107v-124l-414 -72v-7l414 -73v-123zM46 171h519v-117h-519v117z" />
    <glyph glyph-name="plusminus.tf" 
d="M241 358h-194v122h194v138h130v-138h194v-122h-194v-138h-130v138zM50 165h519v-117h-519v117z" />
    <glyph glyph-name="percent.tf" 
d="M497 690h80l-457 -690h-80zM44.5 651q38.5 45 106.5 45q69 0 107 -45t38 -126q0 -83 -38 -128t-107 -45q-68 0 -106.5 45t-38.5 128q0 81 38.5 126zM111 450q12 -25 40 -25q53 0 53 100q0 99 -53 99q-28 0 -40 -25t-12 -74q0 -50 12 -75zM359.5 293q38.5 45 106.5 45
q69 0 107 -45t38 -127t-38 -127t-107 -45q-68 0 -106.5 45t-38.5 127t38.5 127zM426.5 92q12.5 -25 39.5 -25q53 0 53 99t-53 99q-27 0 -39.5 -25t-12.5 -74t12.5 -74z" />
    <glyph glyph-name="perthousand.tf" 
d="M504 690h80l-213 -320h-80zM47 286q38 44 106 44t106 -44t38 -124t-38 -124t-106 -44t-106 44t-38 124t38 124zM47 652.5q38 43.5 106 43.5t106 -43.5t38 -123.5q0 -81 -38 -125t-106 -44t-106 44t-38 125q0 80 38 123.5zM114 90.5q12 -23.5 39 -23.5q52 0 52 95t-52 95
q-27 0 -39 -23.5t-12 -71.5t12 -71.5zM114 456.5q12 -23.5 39 -23.5q52 0 52 96q0 95 -52 95q-27 0 -39 -24t-12 -71q0 -49 12 -72.5zM359 286q38 44 106 44t106 -44t38 -124t-38 -124t-106 -44t-106 44t-38 124t38 124zM426 90.5q12 -23.5 39 -23.5q52 0 52 95t-52 95
q-27 0 -39 -23.5t-12 -71.5t12 -71.5z" />
    <glyph glyph-name="plus.sups" horiz-adv-x="431" 
d="M168 530h-121v90h121v124h95v-124h121v-90h-121v-124h-95v124z" />
    <glyph glyph-name="minus.sups" horiz-adv-x="431" 
d="M47 530v90h337v-90h-337z" />
    <glyph glyph-name="equal.sups" horiz-adv-x="431" 
d="M47 443v90h337v-90h-337zM47 707h337v-90h-337v90z" />
    <glyph glyph-name="plus.sinf" horiz-adv-x="431" 
d="M168 179h-121v90h121v124h95v-124h121v-90h-121v-124h-95v124z" />
    <glyph glyph-name="minus.sinf" horiz-adv-x="431" 
d="M47 179v90h337v-90h-337z" />
    <glyph glyph-name="equal.sinf" horiz-adv-x="431" 
d="M47 92v90h337v-90h-337zM47 356h337v-90h-337v90z" />
    <glyph glyph-name="percent.sups" horiz-adv-x="584" 
d="M73.5 604.5q-30.5 33.5 -30.5 83.5t30.5 83t79.5 33q50 0 80.5 -33t30.5 -83q0 -51 -30.5 -84t-80.5 -33q-49 0 -79.5 33.5zM442 800h64l-365 -449h-64zM118.5 640.5q11.5 -18.5 34.5 -18.5q24 0 35.5 18.5t11.5 47.5t-11.5 47.5t-35.5 18.5q-23 0 -34.5 -18.5
t-11.5 -47.5t11.5 -47.5zM349.5 546.5q30.5 32.5 80.5 32.5t80 -32.5t30 -82.5q0 -51 -30 -84t-80 -33q-49 0 -80 33.5t-31 83.5t30.5 82.5zM395.5 416.5q11.5 -18.5 34.5 -18.5t35 19t12 47t-12 47t-35 19t-34.5 -18.5t-11.5 -47.5t11.5 -47.5z" />
    <glyph glyph-name="perthousand.sups" horiz-adv-x="842" 
d="M608.5 380.5q-30.5 33.5 -30.5 83.5t30 82.5t80 32.5t80.5 -32.5t30.5 -82.5t-31 -83.5t-80 -33.5t-79.5 33.5zM73.5 771q30.5 33 79.5 33q50 0 80.5 -33t30.5 -83q0 -51 -30.5 -84t-80.5 -33q-49 0 -79.5 33.5t-30.5 83.5t30.5 83zM442 800h64l-365 -449h-64z
M118.5 640.5q11.5 -18.5 34.5 -18.5q24 0 35.5 18.5t11.5 47.5t-11.5 47.5t-35.5 18.5q-23 0 -34.5 -18.5t-11.5 -47.5t11.5 -47.5zM349.5 546.5q30.5 32.5 80.5 32.5t80 -32.5t30 -82.5q0 -51 -30 -84t-80 -33q-49 0 -80 33.5t-31 83.5t30.5 82.5zM395.5 416.5
q11.5 -18.5 34.5 -18.5t35 19t12 47t-12 47t-35 19t-34.5 -18.5t-11.5 -47.5t11.5 -47.5zM653.5 416.5q11.5 -18.5 34.5 -18.5t35 19t12 47t-12 47t-35 19t-34.5 -18.5t-11.5 -47.5t11.5 -47.5z" />
    <glyph glyph-name="percent.sinf" horiz-adv-x="584" 
d="M73.5 253.5q-30.5 33.5 -30.5 83.5t30.5 83t79.5 33q50 0 80.5 -33t30.5 -83q0 -51 -30.5 -84t-80.5 -33q-49 0 -79.5 33.5zM442 449h64l-365 -449h-64zM118.5 289.5q11.5 -18.5 34.5 -18.5q24 0 35.5 18.5t11.5 47.5t-11.5 47.5t-35.5 18.5q-23 0 -34.5 -18.5
t-11.5 -47.5t11.5 -47.5zM349.5 195.5q30.5 32.5 80.5 32.5t80 -32.5t30 -82.5q0 -51 -30 -84t-80 -33q-49 0 -80 33.5t-31 83.5t30.5 82.5zM395.5 65.5q11.5 -18.5 34.5 -18.5t35 19t12 47t-12 47t-35 19t-34.5 -18.5t-11.5 -47.5t11.5 -47.5z" />
    <glyph glyph-name="perthousand.sinf" horiz-adv-x="842" 
d="M608.5 29.5q-30.5 33.5 -30.5 83.5t30 82.5t80 32.5t80.5 -32.5t30.5 -82.5t-31 -83.5t-80 -33.5t-79.5 33.5zM73.5 420q30.5 33 79.5 33q50 0 80.5 -33t30.5 -83q0 -51 -30.5 -84t-80.5 -33q-49 0 -79.5 33.5t-30.5 83.5t30.5 83zM442 449h64l-365 -449h-64z
M118.5 289.5q11.5 -18.5 34.5 -18.5q24 0 35.5 18.5t11.5 47.5t-11.5 47.5t-35.5 18.5q-23 0 -34.5 -18.5t-11.5 -47.5t11.5 -47.5zM349.5 195.5q30.5 32.5 80.5 32.5t80 -32.5t30 -82.5q0 -51 -30 -84t-80 -33q-49 0 -80 33.5t-31 83.5t30.5 82.5zM395.5 65.5
q11.5 -18.5 34.5 -18.5t35 19t12 47t-12 47t-35 19t-34.5 -18.5t-11.5 -47.5t11.5 -47.5zM653.5 65.5q11.5 -18.5 34.5 -18.5t35 19t12 47t-12 47t-35 19t-34.5 -18.5t-11.5 -47.5t11.5 -47.5z" />
    <glyph glyph-name="uni030C.alt" horiz-adv-x="0" 
d="M83 781h109v-91l-30 -131h-79v222z" />
    <glyph glyph-name="uni0308.ss01" horiz-adv-x="0" 
d="M68 617q-18 20 -18 53t18 52.5t53 19.5t53 -19.5t18 -52.5t-18 -53t-53 -20t-53 20zM241 722.5q18 19.5 54 19.5q35 0 53 -19.5t18 -52.5t-18 -53t-53 -20t-53.5 20t-18.5 53t18 52.5z" />
    <glyph glyph-name="dieresis.ss01" horiz-adv-x="416" 
d="M68 617q-18 20 -18 53t18 52.5t53 19.5t53 -19.5t18 -52.5t-18 -53t-53 -20t-53 20zM241 722.5q18 19.5 54 19.5q35 0 53 -19.5t18 -52.5t-18 -53t-53 -20t-53.5 20t-18.5 53t18 52.5z" />
    </font>
</defs>
</svg>
