<?xml version="1.0" standalone="no"?>
<!DOCTYPE svg PUBLIC "-//W3C//DTD SVG 1.1//EN" "http://www.w3.org/Graphics/SVG/1.1/DTD/svg11.dtd" >
<svg xmlns="http://www.w3.org/2000/svg" xmlns:xlink="http://www.w3.org/1999/xlink" version="1.1">
<metadata>
Created by FontForge 20170731 at Thu Oct  6 00:34:10 2022
 By Aleksey,,,
America Movil S.A. de C.V.
</metadata>
<defs>
<font id="AMX-Regular" horiz-adv-x="570" >
  <font-face 
    font-family="AMX"
    font-weight="400"
    font-stretch="normal"
    units-per-em="1000"
    panose-1="0 0 0 0 0 0 0 0 0 0"
    ascent="742"
    descent="-258"
    x-height="509"
    cap-height="690"
    bbox="-52 -212 2880 1285"
    underline-thickness="50"
    underline-position="-175"
    unicode-range="U+0020-25CA"
  />
<missing-glyph horiz-adv-x="590" 
d="M500 690v-690h-410v690h410zM278 344l-153 282v-564zM295 376l151 279h-302zM445 35l-150 276l-150 -276h300zM465 62v564l-152 -282z" />
    <glyph glyph-name="arrowleft" unicode="&#x3c;&#x2d;" horiz-adv-x="966" 
d="M138 283l193 193h86l-182 -183l151 6h442v-75h-442l-152 6l183 -184h-86l-193 193v44z" />
    <glyph glyph-name="arrowup" unicode="&#x3c;&#x7c;" horiz-adv-x="706" 
d="M568 497v-87l-184 184l6 -153v-441h-75v441l7 153l-184 -184v87l193 193h44z" />
    <glyph glyph-name="arrowright" unicode="&#x2d;&#x3e;" horiz-adv-x="966" 
d="M635 46h-87l184 184l-153 -6h-441v75h441l152 -6l-183 183h87l193 -193v-44z" />
    <glyph glyph-name="arrowdown" unicode="&#x7c;&#x3e;" horiz-adv-x="706" 
d="M331 0l-193 193v87l184 -184l-7 153v441h75v-441l-6 -153l184 184v-87l-193 -193h-44z" />
    <glyph glyph-name="arrowboth" unicode="&#x3c;&#x2d;&#x3e;" horiz-adv-x="1137" 
d="M331 476h83l-183 -183l155 6h364l156 -6l-183 183h83l193 -193v-44l-193 -193h-83l184 184l-157 -6h-364l-156 6l184 -184h-83l-193 193v44z" />
    <glyph glyph-name="arrowupdn" unicode="&#x3c;&#x7c;&#x3e;" horiz-adv-x="706" 
d="M568 497v-83l-184 184l6 -157v-364l-6 -156l184 184v-83l-193 -193h-44l-193 193v83l184 -184l-7 157v363l7 157l-184 -184v83l193 193h44z" />
    <glyph glyph-name="uni2196" unicode="&#x3c;\" horiz-adv-x="728" 
d="M442 503l61 -61h-260l113 -104l312 -312l-53 -54l-312 313l-104 112v-260l-61 61v273l31 32h273z" />
    <glyph glyph-name="uni2197" unicode="&#x2f;&#x3e;" horiz-adv-x="727" 
d="M590 471v-273l-61 -62v261l-104 -113l-312 -312l-53 53l312 313l112 103h-260l61 61h273z" />
    <glyph glyph-name="uni2198" unicode="\&#x3e;" horiz-adv-x="728" 
d="M286 48l-61 61h261l-114 105l-312 311l54 54l311 -313l104 -112v260l61 -61v-273l-31 -32h-273z" />
    <glyph glyph-name="uni2199" unicode="&#x3c;&#x2f;" horiz-adv-x="728" 
d="M138 80v273l61 61v-260l104 112l312 313l53 -54l-312 -311l-114 -105h261l-61 -61h-273z" />
    <glyph glyph-name="logo" unicode="&#x3a;l&#x3a;" horiz-adv-x="3080" 
d="M2715 901l79 -81l-307 -307l-79 81zM245 500q45 76 121 121t167 45q73 0 137.5 -31t109 -87t62.5 -128h-136q-22 56 -69 88t-107 32q-56 0 -102.5 -27.5t-74 -75t-27.5 -104.5t27.5 -104.5t74 -75t102.5 -27.5q60 0 107 32t69 88h137q-18 -72 -63 -128t-109 -87t-138 -31
q-91 0 -167 45t-121 121t-45 167t45 167zM907 666h126v-666h-126v666zM1266 312l73 13q45 8 61 19.5t16 29.5q0 27 -23 39.5t-58 12.5q-42 0 -65.5 -18.5t-23.5 -50.5h-126q0 82 57.5 128t169.5 46q199 0 199 -162v-369h-126v55q-56 -55 -148 -55q-76 0 -120 38.5t-44 111.5
q0 135 158 162zM1304 90q55 0 85.5 39t30.5 104v33q-27 -22 -104 -36q-42 -8 -62 -25.5t-20 -50.5q0 -64 70 -64zM1630 509h121v-63q29 39 75 62t98 23v-130q-18 3 -35 3q-63 0 -98 -40.5t-35 -116.5v-247h-126v509zM1973.5 400q35.5 61 96.5 96t133 35q73 0 134 -35
t96.5 -96t35.5 -134t-35.5 -134t-97 -96.5t-133.5 -35.5t-133 35.5t-96.5 96.5t-35.5 134t35.5 134zM2083.5 194q18.5 -33 50.5 -52t69 -19q38 0 70 19t50.5 52t18.5 72t-18.5 71.5t-50.5 51.5t-70 19t-69.5 -19t-50 -51.5t-18.5 -71.5t18.5 -72zM2159 966h114v-330h-114
v330zM2544 386h336v-113h-336v113z" />
    <glyph glyph-name="logo1" unicode="&#x3a;l&#x31;&#x3a;" horiz-adv-x="1145" 
d="M879 892l80 -81l-309 -308l-78 81zM135.5 389q35.5 61 96.5 96.5t134 35.5q72 0 133.5 -35.5t97.5 -96.5t36 -134q0 -74 -36 -135t-97 -96.5t-134 -35.5t-134 35.5t-96.5 96.5t-35.5 135q0 73 35.5 134zM246 182q19 -33 50.5 -52t69.5 -19t70 19t50.5 52t18.5 73
q0 39 -18.5 71.5t-50.5 51.5t-70 19t-69.5 -19t-50.5 -51.5t-19 -71.5q0 -40 19 -73zM322 957h114v-331h-114v331zM708 375h337v-113h-337v113z" />
    <glyph glyph-name="logo2" unicode="&#x3a;l&#x32;&#x3a;" horiz-adv-x="740" 
d="M571 1218l81 -83l-315 -315l-81 83zM0 1285h117v-339h-117v339zM395 690h345v-116h-345v116z" />
    <glyph glyph-name="movil" unicode="&#x3a;m&#x3a;" horiz-adv-x="638" 
d="M167 614q27 27 75 27h154q48 0 75 -27t27 -75v-449q0 -48 -27 -75t-75 -27h-154q-48 0 -75 27t-27 75v449q0 48 27 75zM200 47q15 -15 47 -15h144q32 0 47 15t15 48v6h-268v-6q0 -33 15 -48zM453 121v413q0 33 -15 48t-47 15h-144q-32 0 -47 -15t-15 -48v-413h268z
M294 551h51q10 0 10 -10t-10 -10h-51q-10 0 -10 10t10 10z" />
    <glyph glyph-name="phone" unicode="&#x3a;t&#x3a;" horiz-adv-x="573" 
d="M307 250.5q9 -7.5 28 -7.5h53q45 0 45 -45v-165q0 -45 -45 -45h-29q-64 0 -114 46.5t-77.5 128t-27.5 182.5v40q0 101 27.5 182.5t77.5 128t114 46.5h29q45 0 45 -45v-165q0 -45 -45 -45h-53q-19 0 -28 -7.5t-9 -23.5v-182q0 -16 9 -23.5zM202.5 193
q17.5 -65 46.5 -104.5t64 -48.5v158q-26 0 -43 20t-17 57v180q0 37 17 57t43 20v158q-35 -9 -64 -48.5t-46.5 -104.5t-17.5 -147v-50q0 -82 17.5 -147zM388 33v165h-55v-165h55zM388 532v165h-55v-165h55z" />
    <glyph glyph-name="tv" unicode="&#x3a;tv&#x3a;" horiz-adv-x="1165" 
d="M167 586q27 27 76 27h679q49 0 76 -27t27 -75v-349q0 -48 -27 -75t-76 -27h-325v-32h100q6 0 10 -4t4 -10t-4 -10t-10 -4h-222q-6 0 -10 4t-4 10t4 10t10 4h94v32h-326q-49 0 -76 27t-27 75v349q0 48 27 75zM201 119q15 -15 47 -15h669q32 0 47 15t15 48v339q0 33 -15 48
t-47 15h-669q-32 0 -47 -15t-15 -48v-339q0 -33 15 -48z" />
    <glyph glyph-name="internet" unicode="&#x3a;i&#x3a;" horiz-adv-x="956" 
d="M307.5 33q-77.5 45 -122.5 122.5t-45 169.5t45 170t122.5 123.5t169.5 45.5t170 -45.5t123.5 -123.5t45.5 -170t-45.5 -169.5t-123.5 -122.5t-170 -45t-169.5 45zM196 246q68 -17 136 -17q-44 114 -44 242q0 48 5 83q-50 -41 -79 -101t-29 -128q0 -40 11 -79zM299.5 92.5
q65.5 -50.5 148.5 -58.5q-67 80 -107 172h-5q-65 0 -132 14q30 -77 95.5 -127.5zM360 229q145 6 273 80q-16 86 -55.5 165t-97.5 145h-3q-87 0 -158 -47q-8 -53 -8 -104q0 -120 49 -239zM482 33q84 1 155 47q8 53 8 104q0 48 -8 101q-126 -71 -267 -78q44 -97 112 -174z
M600.5 479q36.5 -75 53.5 -158q60 39 105 86q-24 84 -92 142t-156 68q53 -63 89.5 -138zM668 184q0 -38 -5 -86q51 41 79.5 100t28.5 127q0 26 -5 56q-49 -47 -107 -84q9 -55 9 -113z" />
    <glyph glyph-name=".notdef" horiz-adv-x="590" 
d="M500 690v-690h-410v690h410zM278 344l-153 282v-564zM295 376l151 279h-302zM445 35l-150 276l-150 -276h300zM465 62v564l-152 -282z" />
    <glyph glyph-name=".null" horiz-adv-x="0" 
 />
    <glyph glyph-name="nonmarkingreturn" horiz-adv-x="333" 
 />
    <glyph glyph-name="space" unicode=" " horiz-adv-x="194" 
 />
    <glyph glyph-name="space" unicode="&#xa0;" horiz-adv-x="194" 
 />
    <glyph glyph-name="exclam" unicode="!" horiz-adv-x="251" 
d="M165 690l-10 -530h-61l-9 530h80zM84 82.5q14 14.5 41 14.5t41.5 -14.5t14.5 -39.5t-14.5 -40t-41.5 -15t-41 15t-14 40t14 39.5z" />
    <glyph glyph-name="quotedbl" unicode="&#x22;" horiz-adv-x="337" 
d="M120 670l-12 -199h-47l-12 199v60h71v-60zM288 670l-12 -199h-47l-12 199v60h71v-60z" />
    <glyph glyph-name="numbersign" unicode="#" horiz-adv-x="677" 
d="M537 730l-35 -214h109l-8 -50h-109l-34 -202h110l-9 -50h-109l-35 -214h-55l35 214h-166l-35 -214h-56l35 214h-109l8 50h109l34 202h-110l9 50h109l35 214h56l-35 -214h166l35 214h55zM405 264l34 202h-166l-34 -202h166z" />
    <glyph glyph-name="dollar" unicode="$" horiz-adv-x="500" 
d="M116.5 638.5q43.5 46.5 114.5 59.5v107h54v-103q35 0 67.5 -7.5t54.5 -20.5v-69q-26 13 -60.5 22t-66.5 9q-57 0 -93.5 -29.5t-36.5 -81.5q0 -32 15 -55t39.5 -39.5t69.5 -38.5q80 -39 122.5 -85.5t42.5 -124.5q0 -79 -44.5 -129.5t-120.5 -61.5v-108h-53v105
q-44 2 -86.5 16t-74.5 37v71q36 -26 83.5 -42t90.5 -16q60 0 94 33t34 89q0 53 -31.5 84.5t-97.5 65.5q-49 25 -82 48t-55.5 59.5t-22.5 88.5q0 70 43.5 116.5z" />
    <glyph glyph-name="percent" unicode="%" horiz-adv-x="773" 
d="M61 389.5q-41 50.5 -41 128.5t41 128t113 50t113 -50t41 -128t-41 -128.5t-113 -50.5t-113 50.5zM98.5 419q25.5 -38 75.5 -38t75.5 38t25.5 99t-25.5 99t-75.5 38t-75.5 -38t-25.5 -99t25.5 -99zM639 690h56l-562 -690h-56zM486 301q41 50 113 50t113 -50t41 -128
t-41 -128.5t-113 -50.5t-113 50.5t-41 128.5t41 128zM524 74q25 -38 75 -38t75.5 38t25.5 99t-25.5 99t-75.5 38t-75 -38t-25 -99t25 -99z" />
    <glyph glyph-name="ampersand" unicode="&#x26;" horiz-adv-x="670" 
d="M413.5 630.5q-37.5 6.5 -68.5 6.5q-62 0 -94 -26.5t-32 -72.5q0 -54 54 -115l214 -249q17 41 22 93t5 129h71q0 -78 -13.5 -144t-48.5 -119l115 -133h-90l-76 89q-38 -48 -91 -74.5t-113 -26.5q-55 0 -102 23.5t-74.5 67t-27.5 101.5q0 69 40.5 122.5t106.5 87.5l-6 7
q-63 72 -63 144q0 71 53 116t150 45q65 0 129 -19v-67q-23 8 -60.5 14.5zM155.5 121q17.5 -32 50.5 -51.5t77 -19.5q45 0 85 20t71 56l-194 225q-47 -27 -77 -69t-30 -91q0 -38 17.5 -70z" />
    <glyph glyph-name="quotesingle" unicode="'" horiz-adv-x="169" 
d="M120 670l-12 -199h-47l-12 199v60h71v-60z" />
    <glyph glyph-name="parenleft" unicode="(" horiz-adv-x="316" 
d="M182.5 504q-30.5 -129 -30.5 -239t30.5 -239t85.5 -226h-59q-66 101 -97.5 222t-31.5 243t31.5 243t97.5 222h59q-55 -97 -85.5 -226z" />
    <glyph glyph-name="parenright" unicode=")" horiz-adv-x="316" 
d="M204.5 508q31.5 -121 31.5 -243t-31.5 -243t-97.5 -222h-59q55 97 85.5 226t30.5 239t-30.5 239t-85.5 226h59q66 -101 97.5 -222z" />
    <glyph glyph-name="asterisk" unicode="*" horiz-adv-x="416" 
d="M190 497l-142 -90l-26 46l149 77l-149 77l26 46l142 -90l-8 167h52l-8 -168l142 91l26 -46l-148 -77l148 -77l-26 -46l-142 91l8 -168h-52z" />
    <glyph glyph-name="plus" unicode="+" horiz-adv-x="657" 
d="M295 313h-221v63h221v223h67v-223h221v-63h-221v-223h-67v223z" />
    <glyph glyph-name="comma" unicode="," horiz-adv-x="259" 
d="M122 -11q-23 2 -35.5 17t-12.5 38q0 25 14.5 40t42.5 15t41 -16t13 -49q0 -42 -19 -103t-45 -103h-40q33 85 41 161z" />
    <glyph glyph-name="hyphen" unicode="-" horiz-adv-x="399" 
d="M352 287v-56h-305v56h305z" />
    <glyph glyph-name="period" unicode="." horiz-adv-x="262" 
d="M88.5 3q-14.5 15 -14.5 41t14.5 41t42.5 15t42.5 -15t14.5 -41t-14.5 -41t-42.5 -15t-42.5 15z" />
    <glyph glyph-name="slash" unicode="/" horiz-adv-x="335" 
d="M270 730h65l-270 -902h-65z" />
    <glyph glyph-name="zero" unicode="0" horiz-adv-x="625" 
d="M128.5 81.5q-64.5 93.5 -64.5 263.5t64.5 263.5t184.5 93.5q119 0 183.5 -94t64.5 -263t-64.5 -263t-183.5 -94q-120 0 -184.5 93.5zM183 125q43 -77 129 -77q87 0 130.5 77t43.5 220t-43.5 220t-130.5 77q-86 0 -129 -77t-43 -220t43 -220z" />
    <glyph glyph-name="one" unicode="1" horiz-adv-x="373" 
d="M168 619l-158 -81v62l180 90h53v-690h-75v619z" />
    <glyph glyph-name="two" unicode="2" horiz-adv-x="510" 
d="M50 0v65l191 229q59 70 86 117.5t27 101.5q0 62 -36.5 95.5t-103.5 33.5q-36 0 -76.5 -10t-75.5 -27v64q38 15 81.5 24t83.5 9q94 0 149 -47.5t55 -133.5q0 -64 -32 -121.5t-105 -142.5l-157 -187v-9h315v-61h-402z" />
    <glyph glyph-name="three" unicode="3" horiz-adv-x="499" 
d="M132.5 692.5q43.5 9.5 84.5 9.5q89 0 144 -42t55 -112q0 -55 -36 -96t-101 -63v-3q75 -10 117.5 -54t42.5 -118q0 -118 -104.5 -172t-280.5 -54v60q308 0 308 170q0 125 -166 125q-33 0 -85 -5v54q229 33 229 146q0 48 -35.5 76t-96.5 28q-36 0 -78.5 -10t-75.5 -26v61
q35 16 78.5 25.5z" />
    <glyph glyph-name="four" unicode="4" horiz-adv-x="533" 
d="M347 163h-313v54l241 473h73l-237 -466h232l23 207h48v-207h96l-5 -61h-91v-163h-74z" />
    <glyph glyph-name="five" unicode="5" horiz-adv-x="512" 
d="M396 356.5q60 -45.5 60 -136.5q0 -121 -102 -176.5t-280 -55.5v60q141 0 223.5 39t82.5 129q0 65 -44.5 96t-122.5 31q-29 0 -67.5 -4t-71.5 -10v361h354v-61h-291v-235q51 8 95 8q104 0 164 -45.5z" />
    <glyph glyph-name="six" unicode="6" horiz-adv-x="574" 
d="M129 71q-65 83 -65 230q0 134 53.5 224.5t143.5 134.5t201 44v-61q-138 0 -227.5 -78t-94.5 -242h4q30 42 82 68t112 26q56 0 101 -24.5t70.5 -71.5t25.5 -111q0 -67 -28.5 -117.5t-79.5 -77.5t-117 -27q-116 0 -181 83zM188 104.5q43 -57.5 124 -57.5q67 0 108.5 42
t41.5 116q0 71 -39 111.5t-106 40.5q-54 0 -100.5 -26t-76.5 -72q5 -97 48 -154.5z" />
    <glyph glyph-name="seven" unicode="7" horiz-adv-x="497" 
d="M451 690v-41q-66 -92 -110 -181.5t-69 -204.5t-25 -263h-76q0 203 47 344t135 269v12h-307v65h405z" />
    <glyph glyph-name="eight" unicode="8" horiz-adv-x="586" 
d="M104.5 271q40.5 47 111.5 74v4q-130 65 -130 174q0 50 25.5 91t73 64.5t109.5 23.5q61 0 108 -22.5t72.5 -61t25.5 -84.5q0 -57 -37 -103.5t-95 -71.5v-4q154 -66 154 -183q0 -55 -29.5 -96.5t-82 -64.5t-119.5 -23t-118.5 22.5t-80 62t-28.5 90.5q0 61 40.5 108z
M179 80.5q43 -36.5 113 -36.5t114 35.5t44 88.5q0 90 -141 143l-36 13q-63 -21 -100 -60.5t-37 -90.5q0 -56 43 -92.5zM305 379l9 -3q51 22 84 59.5t33 89.5q0 55 -39 88t-99 33t-99.5 -32.5t-39.5 -83.5q0 -96 151 -151z" />
    <glyph glyph-name="nine" unicode="9" horiz-adv-x="574" 
d="M444.5 618q65.5 -84 65.5 -230q0 -134 -53.5 -224t-143.5 -134t-201 -44v61q138 0 227 76.5t95 241.5h-4q-30 -39 -81.5 -63t-109.5 -24q-89 0 -144.5 54.5t-55.5 149.5q0 66 28.5 116t79 77t116.5 27q116 0 181.5 -84zM151 377q39 -40 106 -40q53 0 100 25t77 68
q-4 97 -47.5 155t-124.5 58q-67 0 -108.5 -41.5t-41.5 -114.5q0 -70 39 -110z" />
    <glyph glyph-name="colon" unicode=":" horiz-adv-x="262" 
d="M88.5 3q-14.5 15 -14.5 41t14.5 41t42.5 15t42.5 -15t14.5 -41t-14.5 -41t-42.5 -15t-42.5 15zM88.5 424q-14.5 15 -14.5 41t14.5 41t42.5 15t42.5 -15t14.5 -41t-14.5 -41t-42.5 -15t-42.5 15z" />
    <glyph glyph-name="semicolon" unicode=";" horiz-adv-x="262" 
d="M124 -11q-23 2 -35.5 17t-12.5 38q0 25 14.5 40t42.5 15t41 -16t13 -49q0 -42 -19 -103t-45 -103h-40q33 85 41 161zM88.5 424q-14.5 15 -14.5 41t14.5 41t42.5 15t42.5 -15t14.5 -41t-14.5 -41t-42.5 -15t-42.5 15z" />
    <glyph glyph-name="less" unicode="&#x3c;" horiz-adv-x="614" 
d="M50 305v80l505 196v-66l-441 -167v-6l441 -167v-66z" />
    <glyph glyph-name="equal" unicode="=" horiz-adv-x="657" 
d="M74 195v63h509v-63h-509zM74 432v63h509v-63h-509z" />
    <glyph glyph-name="greater" unicode="&#x3e;" horiz-adv-x="614" 
d="M564 385v-80l-505 -196v66l441 167v6l-441 167v66z" />
    <glyph glyph-name="question" unicode="?" horiz-adv-x="459" 
d="M145 3q-14 15 -14 40t14 40t41 15q28 0 42.5 -15t14.5 -40t-14.5 -40t-42.5 -15q-27 0 -41 15zM45 674q30 13 71 20.5t78 7.5q95 0 154 -46.5t59 -131.5q0 -52 -24 -89t-72 -84q-46 -45 -68.5 -78.5t-22.5 -80.5v-32h-67v38q0 59 25 98.5t72 85.5q41 41 60 69t19 67
q0 58 -39 88t-102 30q-35 0 -73.5 -8.5t-69.5 -22.5v69z" />
    <glyph glyph-name="at" unicode="@" horiz-adv-x="1007" 
d="M670 -179.5q-69 -22.5 -149 -22.5q-128 0 -233 55.5t-166.5 157.5t-61.5 234q0 131 60 232.5t167 158t243 56.5q126 0 220.5 -49t145.5 -137t51 -203q0 -89 -30 -151.5t-80 -93.5t-111 -31t-96 30t-48 78h-8q-25 -46 -65 -77t-86 -31q-55 0 -88 43.5t-33 118.5
q0 66 26 130.5t77.5 106t122.5 41.5q35 0 76 -10t73 -24l-33 -198q-4 -30 -4 -45q0 -52 23.5 -84t74.5 -32q43 0 78.5 25t56.5 75t21 122q0 103 -44.5 182.5t-127.5 123.5t-194 44q-120 0 -214.5 -50.5t-147.5 -142t-53 -208.5q0 -119 53.5 -210t148 -141t213.5 -50
q151 0 263 88v-50q-52 -39 -121 -61.5zM388.5 111.5q20.5 -30.5 54.5 -30.5q43 0 83 47.5t54 115.5l25 152q-48 16 -87 16q-50 0 -84 -35t-50 -86t-16 -98q0 -51 20.5 -81.5z" />
    <glyph glyph-name="A" unicode="A" horiz-adv-x="585" 
d="M485 0l-65 207h-257l-66 -207h-74l217 690h105l217 -690h-77zM405 268l-110 339h-8l-109 -339h227z" />
    <glyph glyph-name="B" unicode="B" horiz-adv-x="574" 
d="M94 690h230q83 0 132 -45.5t49 -122.5q0 -58 -27 -98.5t-68 -57.5v-6q61 -18 92.5 -63t31.5 -110q0 -86 -54.5 -136.5t-147.5 -50.5h-238v690zM314 58q72 0 108 35t36 100q0 66 -36 100.5t-107 34.5h-145v-270h144zM306 384q62 0 94 32t32 92t-32 92t-94 32h-136v-248
h136z" />
    <glyph glyph-name="C" unicode="C" horiz-adv-x="541" 
d="M421.5 627.5q-40.5 7.5 -75.5 7.5q-108 0 -163 -77.5t-55 -212.5t55 -212.5t163 -77.5q34 0 75.5 6.5t67.5 17.5v-71q-29 -9 -68.5 -14.5t-72.5 -5.5q-144 0 -221 96.5t-77 260.5t76.5 260.5t220.5 96.5q35 0 74 -5.5t68 -16.5v-71q-27 11 -67.5 18.5z" />
    <glyph glyph-name="D" unicode="D" horiz-adv-x="664" 
d="M326 690q139 0 213.5 -92t74.5 -253t-75 -253t-213 -92h-232v690h232zM325 65q107 0 159 74t52 206t-52 206t-159 74h-154v-560h154z" />
    <glyph glyph-name="E" unicode="E" horiz-adv-x="524" 
d="M488 690v-63h-318v-244h240v-63h-240v-257h318v-63h-394v690h394z" />
    <glyph glyph-name="F" unicode="F" horiz-adv-x="503" 
d="M468 690v-64h-297v-265h239v-64h-239v-297h-77v690h374z" />
    <glyph glyph-name="G" unicode="G" horiz-adv-x="635" 
d="M461 629.5q-40 6.5 -78 6.5q-128 0 -191.5 -77.5t-63.5 -213.5q0 -138 58 -214.5t180 -76.5q51 0 111 9v264h73v-316q-37 -11 -90.5 -17t-93.5 -6q-158 0 -237 96t-79 261t85.5 261t249.5 96q79 0 145 -20v-69q-29 10 -69 16.5z" />
    <glyph glyph-name="H" unicode="H" horiz-adv-x="664" 
d="M171 690v-306h322v306h77v-690h-77v320h-322v-320h-77v690h77z" />
    <glyph glyph-name="I" unicode="I" horiz-adv-x="265" 
d="M171 690v-690h-77v690h77z" />
    <glyph glyph-name="J" unicode="J" horiz-adv-x="363" 
d="M45 58q26 -4 45 -4q56 0 82.5 33t26.5 91v512h77v-513q0 -88 -45.5 -138.5t-135.5 -50.5q-51 0 -92 10v69q16 -5 42 -9z" />
    <glyph glyph-name="K" unicode="K" horiz-adv-x="590" 
d="M171 690v-355h7l282 355h81l-214 -276l227 -414h-84l-196 358h-6l-97 -124v-234h-77v690h77z" />
    <glyph glyph-name="L" unicode="L" horiz-adv-x="486" 
d="M171 690v-626h278v-64h-355v690h77z" />
    <glyph glyph-name="M" unicode="M" horiz-adv-x="937" 
d="M463 85h11l202 605h107l80 -690h-77l-43 399q-15 143 -19 212h-7l-207 -611h-90l-209 611h-7q-11 -140 -18 -210l-44 -401h-68l80 690h107z" />
    <glyph glyph-name="N" unicode="N" horiz-adv-x="664" 
d="M94 690h71l339 -577h6q-11 117 -11 254v323h71v-690h-71l-339 576h-6q11 -115 11 -253v-323h-71v690z" />
    <glyph glyph-name="O" unicode="O" horiz-adv-x="665" 
d="M122 82.5q-72 94.5 -72 262.5t72 262.5t211 94.5q138 0 210 -94.5t72 -262.5t-72 -262.5t-210 -94.5q-139 0 -211 94.5zM178 130q50 -76 155 -76q104 0 154 76t50 215t-50 215t-154 76q-105 0 -155 -76t-50 -215t50 -215z" />
    <glyph glyph-name="P" unicode="P" horiz-adv-x="538" 
d="M94 690h200q96 0 151 -57.5t55 -158.5q0 -102 -55 -159.5t-151 -57.5h-123v-257h-77v690zM282 319q144 0 144 155q0 76 -36 115t-108 39h-111v-309h111z" />
    <glyph glyph-name="Q" unicode="Q" horiz-adv-x="665" 
d="M487 130q50 76 50 215t-50 215t-154 76q-105 0 -155 -76t-50 -215t50 -215t155 -76q104 0 154 76zM122 607.5q72 94.5 211 94.5q138 0 210 -94.5t72 -262.5q0 -163 -67.5 -257t-198.5 -100q8 -65 49.5 -102t107.5 -37q55 0 109 17v-63q-49 -15 -110 -15q-64 0 -112 27
t-75 73t-31 103q-116 16 -176.5 108.5t-60.5 245.5q0 168 72 262.5z" />
    <glyph glyph-name="R" unicode="R" horiz-adv-x="562" 
d="M94 690h212q91 0 142 -49t51 -138q0 -69 -32 -119.5t-88 -69.5v-5l145 -309h-82l-131 290h-140v-290h-77v690zM285 346q70 0 105.5 39t35.5 109q0 137 -141 137h-114v-285h114z" />
    <glyph glyph-name="S" unicode="S" horiz-adv-x="520" 
d="M123 653.5q61 48.5 161 48.5q39 0 80 -7.5t73 -20.5v-69q-36 14 -78 22.5t-79 8.5q-64 0 -101.5 -29.5t-37.5 -87.5q0 -49 27 -75t86 -49l63 -24q73 -28 113 -73.5t40 -116.5q0 -89 -60.5 -141t-159.5 -52q-52 0 -106.5 14t-93.5 39v71q43 -26 97.5 -42t104.5 -16
q65 0 102.5 31.5t37.5 89.5q0 51 -29.5 80.5t-94.5 54.5l-53 20q-77 29 -115 73t-38 112q0 90 61 138.5z" />
    <glyph glyph-name="T" unicode="T" horiz-adv-x="523" 
d="M484 626h-185v-626h-77v626h-183v64h445v-64z" />
    <glyph glyph-name="U" unicode="U" horiz-adv-x="635" 
d="M488 51q-60 -63 -171 -63q-110 0 -170 63t-60 174v465h77v-463q0 -81 38.5 -127t114.5 -46q77 0 115.5 46t38.5 127v463h77v-465q0 -111 -60 -174z" />
    <glyph glyph-name="V" unicode="V" horiz-adv-x="586" 
d="M112 690l180 -606h6l180 606h73l-206 -690h-104l-206 690h77z" />
    <glyph glyph-name="W" unicode="W" horiz-adv-x="969" 
d="M112 690l152 -613h9l162 613h108l162 -613h9l152 613h68l-174 -690h-104l-164 615h-12l-163 -615h-108l-174 690h77z" />
    <glyph glyph-name="X" unicode="X" horiz-adv-x="588" 
d="M119 690l175 -292h5l173 292h81l-197 -337l206 -353h-84l-186 309h-1l-184 -309h-81l206 350l-197 340h84z" />
    <glyph glyph-name="Y" unicode="Y" horiz-adv-x="572" 
d="M113 690l171 -367h8l170 367h84l-221 -449v-241h-77v241l-222 449h87z" />
    <glyph glyph-name="Z" unicode="Z" horiz-adv-x="565" 
d="M512 690v-48l-371 -581l374 3v-64h-465v48l371 581l-369 -3v64h460z" />
    <glyph glyph-name="bracketleft" unicode="[" horiz-adv-x="336" 
d="M276 730v-61h-104v-808h104v-61h-176v930h176z" />
    <glyph glyph-name="backslash" unicode="\" horiz-adv-x="335" 
d="M270 -172l-270 902h65l270 -902h-65z" />
    <glyph glyph-name="bracketright" unicode="]" horiz-adv-x="336" 
d="M236 -200h-176v61h104v808h-104v61h176v-930z" />
    <glyph glyph-name="asciicircum" unicode="^" horiz-adv-x="472" 
d="M196 690h80l179 -345h-65l-151 292h-6l-151 -292h-65z" />
    <glyph glyph-name="underscore" unicode="_" horiz-adv-x="391" 
d="M391 -106v-56h-391v56h391z" />
    <glyph glyph-name="grave" unicode="`" horiz-adv-x="204" 
d="M94 742l49 -168h-46l-81 161v7h78z" />
    <glyph glyph-name="a" unicode="a" horiz-adv-x="497" 
d="M345 60h-8q-29 -33 -67 -52.5t-82 -19.5q-66 0 -105.5 40t-39.5 107q0 76 52.5 116.5t147.5 40.5q44 0 89 -6v62q0 54 -29.5 83.5t-84.5 29.5q-35 0 -74.5 -10.5t-67.5 -26.5v62q31 15 72.5 25t81.5 10q85 0 131 -43.5t46 -124.5v-240l19 -113h-64zM136 66q24 -25 68 -25
q37 0 70 17.5t58 45.5v1v132q-39 4 -84 4q-136 0 -136 -106q0 -44 24 -69z" />
    <glyph glyph-name="b" unicode="b" horiz-adv-x="571" 
d="M94 730h75v-287h10q21 35 58.5 56.5t85.5 21.5q59 0 103 -32t67.5 -91.5t23.5 -139.5q0 -128 -61.5 -199t-180.5 -71q-44 0 -95.5 9t-85.5 21v712zM277 48q83 0 123.5 55t40.5 153q0 95 -34.5 150t-101.5 55q-61 0 -98.5 -45.5t-37.5 -120.5v-230q60 -17 108 -17z" />
    <glyph glyph-name="c" unicode="c" horiz-adv-x="441" 
d="M332 453.5q-29 6.5 -53 6.5q-73 0 -110 -54t-37 -151t38 -151.5t113 -54.5q24 0 50 6.5t48 18.5v-64q-47 -22 -104 -22q-106 0 -164.5 72.5t-58.5 194.5t58 194t167 72q50 0 102 -18v-65q-20 9 -49 15.5z" />
    <glyph glyph-name="d" unicode="d" 
d="M424 0l-14 72h-11q-23 -37 -62 -60.5t-90 -23.5q-59 0 -103 33t-67 92t-23 136q0 84 28 145.5t79 94t119 32.5q70 0 122 -35v244h75v-617l18 -113h-71zM164.5 103q34.5 -55 102.5 -55q61 0 98 45.5t37 120.5v210q-55 37 -118 37q-75 0 -114.5 -56t-39.5 -154
q0 -93 34.5 -148z" />
    <glyph glyph-name="e" unicode="e" horiz-adv-x="514" 
d="M355 -3.5q-40 -8.5 -76 -8.5q-109 0 -167 72.5t-58 196.5q0 122 54.5 193t152.5 71q94 0 146.5 -66.5t52.5 -188.5q0 -22 -2 -34h-331q2 -86 41 -135.5t118 -49.5q35 0 72.5 9t70.5 26v-61q-34 -16 -74 -24.5zM390 284v4q0 79 -32 128t-97 49q-72 0 -101.5 -55.5
t-32.5 -125.5h263z" />
    <glyph glyph-name="f" unicode="f" horiz-adv-x="339" 
d="M130 703.5q35 38.5 105 38.5q44 0 96 -16v-64q-22 8 -49 13.5t-46 5.5q-35 0 -52 -23.5t-17 -64.5v-88h157v-58h-154v-447h-75v447h-61v40l61 13v98q0 67 35 105.5z" />
    <glyph glyph-name="g" unicode="g" horiz-adv-x="500" 
d="M173 149q-22 -22 -22 -51q0 -26 17 -40.5t51 -14.5h121q64 0 98.5 -28.5t34.5 -80.5q0 -69 -62 -107.5t-170 -38.5q-99 0 -194 36v58q42 -18 94.5 -29t103.5 -11q74 0 117 22.5t43 61.5q0 26 -19 41t-52 15h-128q-58 0 -88.5 26.5t-30.5 67.5q0 53 47 87v5
q-43 20 -67.5 63.5t-24.5 100.5q0 85 51.5 137t135.5 52q54 0 127 -10t117 -22v-62q-47 24 -124 42v-8q32 -20 49 -55.5t17 -81.5q0 -82 -50 -132t-135 -50q-27 0 -57 7zM143.5 233.5q30.5 -36.5 85.5 -36.5q54 0 86 36.5t32 97.5t-32 98.5t-86 37.5t-85 -37t-31 -99
q0 -61 30.5 -97.5zM305 479h-1h-1h2z" />
    <glyph glyph-name="h" unicode="h" horiz-adv-x="574" 
d="M169 730v-277h4q32 31 74 49.5t89 18.5q68 0 108.5 -41t40.5 -114v-366h-75v345q0 53 -28 82t-77 29q-38 0 -73 -17.5t-63 -46.5v-392h-75v730h75z" />
    <glyph glyph-name="i" unicode="i" horiz-adv-x="263" 
d="M169 509v-509h-75v509h75zM94 694q13 14 37 14q25 0 37.5 -13.5t12.5 -36.5t-12.5 -36t-37.5 -13q-24 0 -37 13.5t-13 35.5t13 36z" />
    <glyph glyph-name="j" unicode="j" horiz-adv-x="263" 
d="M77 -126.5q17 23.5 17 64.5v571h75v-576q0 -66 -30.5 -104.5t-91.5 -40.5q-14 0 -21 1v61q34 0 51 23.5zM94 694q13 14 37 14q25 0 37.5 -13.5t12.5 -36.5t-12.5 -36t-37.5 -13q-24 0 -37 13.5t-13 35.5t13 36z" />
    <glyph glyph-name="k" unicode="k" horiz-adv-x="517" 
d="M94 730h75v-457h6l223 236h77l-152 -165l165 -344h-76l-142 292h-5l-96 -103v-189h-75v730z" />
    <glyph glyph-name="l" unicode="l" horiz-adv-x="263" 
d="M94 730h75v-730h-75v730z" />
    <glyph glyph-name="m" unicode="m" horiz-adv-x="864" 
d="M147 509l12 -63h10q31 33 72 54t88 21q45 0 78 -21t50 -59h9q32 36 75 58t91 22q65 0 104 -42t39 -116v-363h-75v345q0 53 -25.5 82t-72.5 29q-37 0 -71.5 -18t-60.5 -47q2 -18 2 -28v-363h-75v345q0 53 -26 82t-72 29q-36 0 -69.5 -17.5t-60.5 -45.5v-393h-75v396
l-19 113h72z" />
    <glyph glyph-name="n" unicode="n" horiz-adv-x="574" 
d="M147 509l12 -63h10q32 33 75 54t91 21q68 0 109 -42t41 -116v-363h-75v345q0 53 -28 82t-77 29q-38 0 -73 -17.5t-63 -46.5v-392h-75v396l-19 113h72z" />
    <glyph glyph-name="o" unicode="o" horiz-adv-x="549" 
d="M111.5 60.5q-57.5 72.5 -57.5 193.5q0 122 57.5 194.5t162.5 72.5q106 0 163.5 -72.5t57.5 -194.5q0 -121 -57.5 -193.5t-163.5 -72.5q-105 0 -162.5 72.5zM165.5 103q35.5 -55 108.5 -55t108.5 55t35.5 151q0 97 -35.5 152t-108.5 55t-108.5 -55t-35.5 -152
q0 -96 35.5 -151z" />
    <glyph glyph-name="p" unicode="p" 
d="M147 509l14 -72h10q23 36 62.5 60t90.5 24q89 0 140.5 -72t51.5 -189q0 -84 -27.5 -145.5t-78.5 -94t-119 -32.5q-72 0 -122 34v-222h-75v596l-19 113h72zM287 48q74 0 113.5 56t39.5 154q0 93 -34 148t-102 55q-61 0 -98 -45.5t-37 -120.5v-210q56 -37 118 -37z" />
    <glyph glyph-name="q" unicode="q" horiz-adv-x="571" 
d="M477 -200h-75v267h-10q-21 -36 -58.5 -57.5t-85.5 -21.5q-59 0 -103 32t-67.5 91.5t-23.5 139.5q0 128 61.5 199t180.5 71q44 0 95.5 -9t85.5 -21v-691zM165 103q35 -55 101 -55q61 0 98.5 45.5t37.5 120.5v230q-60 17 -108 17q-83 0 -123.5 -55t-40.5 -153
q0 -95 35 -150z" />
    <glyph glyph-name="r" unicode="r" horiz-adv-x="372" 
d="M147 509l14 -72h8q26 39 64 61.5t80 22.5q18 0 27 -1v-75q-20 5 -38 5q-38 0 -74 -22.5t-59 -58.5v-369h-75v396l-19 113h72z" />
    <glyph glyph-name="s" unicode="s" horiz-adv-x="428" 
d="M101 484.5q49 36.5 130 36.5q30 0 64 -4.5t56 -11.5v-63q-25 10 -60 16.5t-62 6.5q-47 0 -76 -20.5t-29 -60.5q0 -32 19.5 -50t64.5 -37l39 -15q65 -24 100 -55.5t35 -90.5q0 -69 -48 -108.5t-131 -39.5q-40 0 -83 10.5t-73 28.5v63q33 -20 75 -32.5t81 -12.5q50 0 78 23
t28 62q0 35 -21.5 53t-72.5 39l-44 18q-58 23 -88.5 54t-30.5 86q0 68 49 104.5z" />
    <glyph glyph-name="t" unicode="t" horiz-adv-x="354" 
d="M95 451h-63v42l64 12l23 141h51v-137h159v-58h-159v-325q0 -35 16 -55.5t48 -20.5q47 0 95 24v-63q-47 -23 -112 -23q-57 0 -89.5 34t-32.5 88v341z" />
    <glyph glyph-name="u" unicode="u" horiz-adv-x="561" 
d="M415 0l-12 63h-10q-31 -33 -72.5 -54t-87.5 -21q-66 0 -105 42t-39 116v363h75v-345q0 -53 26 -81.5t72 -28.5q37 0 71 17t60 46v392h75v-396l18 -113h-71z" />
    <glyph glyph-name="v" unicode="v" horiz-adv-x="473" 
d="M93 509l140 -441h10l140 441h73l-167 -509h-104l-168 509h76z" />
    <glyph glyph-name="w" unicode="w" horiz-adv-x="786" 
d="M93 509l124 -441h9l118 441h106l117 -441h8l124 441h71l-152 -509h-101l-119 445h-10l-119 -445h-101l-151 509h76z" />
    <glyph glyph-name="x" unicode="x" horiz-adv-x="441" 
d="M97 509l124 -207l128 207h74l-151 -249l160 -260h-80l-131 220h-2l-136 -220h-74l159 263l-150 246h79z" />
    <glyph glyph-name="y" unicode="y" horiz-adv-x="472" 
d="M93 509l140 -441h10l140 441h72l-181 -543q-28 -85 -71 -131.5t-115 -46.5q-51 0 -96 15v63q23 -8 48.5 -12.5t44.5 -4.5q33 0 55 15.5t40 48t39 91.5h-35l-167 505h76z" />
    <glyph glyph-name="z" unicode="z" horiz-adv-x="405" 
d="M370 509v-43l-274 -410l280 2v-58h-363v43l275 411l-270 -3v58h352z" />
    <glyph glyph-name="braceleft" unicode="{" horiz-adv-x="346" 
d="M224 24q-2 -13 -5.5 -44.5t-3.5 -47.5q0 -34 16 -53t44 -19h8v-60h-17q-51 0 -87.5 30.5t-36.5 93.5q0 25 10 101q10 78 10 107q0 104 -94 104h-4v58h4q94 0 94 104q0 29 -10 107q-10 76 -10 101q0 63 36.5 93.5t87.5 30.5h17v-60h-8q-28 0 -44 -19t-16 -53
q0 -16 3.5 -47.5t5.5 -44.5q11 -73 11 -108q0 -48 -22.5 -81.5t-60.5 -48.5v-6q38 -15 60.5 -48.5t22.5 -81.5q0 -35 -11 -108z" />
    <glyph glyph-name="bar" unicode="|" horiz-adv-x="225" 
d="M149 730v-930h-73v930h73z" />
    <glyph glyph-name="braceright" unicode="}" horiz-adv-x="346" 
d="M133.5 214.5q22.5 33.5 60.5 47.5v6q-38 14 -60.5 47.5t-22.5 82.5q0 35 11 108q2 13 5.5 44.5t3.5 47.5q0 34 -16.5 53t-44.5 19h-7v60h16q52 0 88.5 -30.5t36.5 -93.5q0 -25 -10 -101q-10 -78 -10 -107q0 -104 93 -104h4v-58h-4q-93 0 -93 -104q0 -29 10 -107
q10 -76 10 -101q0 -63 -36.5 -93.5t-88.5 -30.5h-16v60h7q28 0 44.5 19t16.5 53q0 16 -3.5 47.5t-5.5 44.5q-11 73 -11 108q0 49 22.5 82.5z" />
    <glyph glyph-name="asciitilde" unicode="~" horiz-adv-x="657" 
d="M518.5 295q-36.5 -12 -72.5 -12q-31 0 -57.5 8t-63.5 24q-34 15 -60.5 23t-56.5 8q-36 0 -72 -12.5t-62 -33.5v60q28 22 64.5 34t72.5 12q31 0 57.5 -8t63.5 -24q34 -15 60.5 -23t56.5 -8q36 0 72 12.5t62 33.5v-60q-28 -22 -64.5 -34z" />
    <glyph glyph-name="exclamdown" unicode="&#xa1;" horiz-adv-x="251" 
d="M94 349h61l10 -530h-80zM84 506q14 15 41 15t41.5 -15t14.5 -40t-14.5 -39.5t-41.5 -14.5t-41 14.5t-14 39.5t14 40z" />
    <glyph glyph-name="cent" unicode="&#xa2;" horiz-adv-x="461" 
d="M342 564.5q-29 6.5 -53 6.5q-73 0 -110 -54t-37 -151t38 -151.5t113 -54.5q24 0 50 6.5t48 18.5v-64q-47 -22 -104 -22h-7v-99h-54v106q-78 20 -120 88.5t-42 171.5t41.5 171t120.5 88v105h54v-98h9q50 0 102 -18v-65q-20 9 -49 15.5z" />
    <glyph glyph-name="sterling" unicode="&#xa3;" horiz-adv-x="527" 
d="M467 0h-403v46q48 48 71 102t23 107q0 32 -8 62h-86v46h70l-14 31q-19 45 -28 73t-9 64q0 81 55 126t149 45q40 0 82 -9t80 -24v-64q-34 17 -73.5 27t-75.5 10q-68 0 -104 -31.5t-36 -89.5q0 -29 8 -54t24 -64q3 -8 7.5 -18t8.5 -22h192v-46h-177q8 -30 8 -61
q0 -99 -94 -195h330v-61z" />
    <glyph glyph-name="currency" unicode="&#xa4;" horiz-adv-x="631" 
d="M199 170l-96 -96l-39 40l96 96q-39 54 -39 117q0 62 39 116l-96 96l39 39l96 -96q54 39 117 39q66 0 116 -39l96 96l40 -39l-96 -96q39 -54 39 -116q0 -63 -39 -117l96 -96l-40 -40l-96 96q-50 -39 -116 -39q-63 0 -117 39zM192.5 255.5q19.5 -32.5 52.5 -52t71 -19.5
t71 19t52 52t19 72q0 38 -19 70.5t-52 52t-71 19.5t-71 -19.5t-52.5 -52t-19.5 -70.5q0 -39 19.5 -71.5z" />
    <glyph glyph-name="yen" unicode="&#xa5;" horiz-adv-x="582" 
d="M118 690l171 -367h8l170 367h84l-199 -404h118v-47h-140v-87h140v-47h-140v-105h-77v105h-138v47h138v87h-138v47h116l-200 404h87z" />
    <glyph glyph-name="brokenbar" unicode="&#xa6;" horiz-adv-x="225" 
d="M76 730h73v-337h-73v337zM76 137h73v-337h-73v337z" />
    <glyph glyph-name="section" unicode="&#xa7;" horiz-adv-x="512" 
d="M120 324.5q17 -45.5 42.5 -82t64.5 -84.5q50 -62 74.5 -104t24.5 -90q0 -56 -39 -96h8q56 38 85 91t29 116q0 50 -17 94.5t-41 79.5t-65 85q-51 61 -75.5 103t-24.5 90q0 55 36 95h-9q-110 -75 -110 -201q0 -51 17 -96.5zM87 554.5q37 67.5 102.5 107.5t147.5 40
q41 0 98 -10v-68q-45 12 -83 12q-55 0 -84 -30.5t-29 -72.5q0 -37 21.5 -72t68.5 -93q42 -51 68.5 -89t45.5 -87t19 -104q0 -76 -35.5 -145t-101.5 -112t-153 -43q-59 0 -109 9v68q52 -11 94 -11q57 0 86.5 30.5t29.5 72.5q0 37 -22 73.5t-69 95.5q-43 55 -68.5 92.5
t-44.5 86.5t-19 105q0 77 37 144.5z" />
    <glyph glyph-name="dieresis" unicode="&#xa8;" horiz-adv-x="395" 
d="M76 622.5q-13 13.5 -13 35.5t13 36t36 14q24 0 36 -13.5t12 -36.5t-12 -36t-36 -13q-23 0 -36 13.5zM250.5 694.5q12.5 13.5 35.5 13.5q24 0 36.5 -13.5t12.5 -36.5t-12.5 -36t-36.5 -13q-23 0 -35.5 13.5t-12.5 35.5q0 23 12.5 36.5z" />
    <glyph glyph-name="copyright" unicode="&#xa9;" horiz-adv-x="820" 
d="M467 491.5q-22 4.5 -40 4.5q-57 0 -85.5 -40t-28.5 -110q0 -71 29 -111t85 -40q18 0 40.5 3.5t37.5 8.5v-47q-35 -11 -78 -11q-82 0 -125.5 53t-43.5 143t44 143.5t124 53.5q47 0 79 -13v-48q-16 6 -38 10.5zM103.5 524q47.5 82 129 130t177.5 48t177.5 -48t129 -130
t47.5 -179t-47.5 -179t-129 -130t-177.5 -48t-177.5 48t-129 130t-47.5 179t47.5 179zM144.5 185q39.5 -71 109.5 -111t156 -40t156 40t109.5 111t39.5 160t-39.5 160t-109.5 111t-156 40t-156 -40t-109.5 -111t-39.5 -160t39.5 -160z" />
    <glyph glyph-name="ordfeminine" unicode="&#xaa;" horiz-adv-x="334" 
d="M227 395h-6q-41 -46 -96 -46q-43 0 -69 26.5t-26 71.5q0 50 33.5 76t95.5 26q31 0 58 -4v37q0 33 -18.5 51.5t-53.5 18.5q-23 0 -49 -6.5t-44 -17.5v46q20 10 47.5 16.5t54.5 6.5q57 0 88.5 -29t31.5 -83v-151l12 -77h-48zM96.5 404.5q14.5 -15.5 41.5 -15.5q22 0 43 11
t36 29v81l-52 2q-83 0 -83 -65q0 -27 14.5 -42.5z" />
    <glyph glyph-name="guillemotleft" unicode="&#xab;" horiz-adv-x="459" 
d="M115 258v-7l162 -195h-73l-151 180v37l151 180h73zM264 258v-7l162 -195h-73l-151 180v37l151 180h73z" />
    <glyph glyph-name="logicalnot" unicode="&#xac;" horiz-adv-x="657" 
d="M516 157v156h-442v63h509v-219h-67z" />
    <glyph glyph-name="registered" unicode="&#xae;" horiz-adv-x="821" 
d="M306 535h126q50 0 78.5 -27t28.5 -77q0 -38 -17 -65t-47 -38v-1l78 -171h-56l-68 153h-70v-153h-53v379zM103.5 524q47.5 82 129 130t177.5 48q97 0 178.5 -48t129 -130t47.5 -179t-47.5 -179t-129 -130t-178.5 -48q-96 0 -177.5 48t-129 130t-47.5 179t47.5 179z
M145 185q40 -71 109.5 -111t155.5 -40t156 40t109.5 111t39.5 160t-39.5 160t-109.5 111t-156 40t-155.5 -40t-109.5 -111t-40 -160t40 -160zM417 348q35 0 53 19.5t18 55.5q0 72 -71 72h-58v-147h58z" />
    <glyph glyph-name="macron" unicode="&#xaf;" horiz-adv-x="337" 
d="M281 684v-51h-225v51h225z" />
    <glyph glyph-name="degree" unicode="&#xb0;" horiz-adv-x="390" 
d="M122.5 431.5q-33.5 19.5 -53 53t-19.5 72.5t19.5 72.5t53 53t72.5 19.5t72.5 -19.5t53 -53t19.5 -72.5t-19.5 -72.5t-53 -53t-72.5 -19.5t-72.5 19.5zM126.5 487q28.5 -29 68.5 -29t68.5 29t28.5 70t-28.5 70t-68.5 29t-68.5 -29t-28.5 -70t28.5 -70z" />
    <glyph glyph-name="plusminus" unicode="&#xb1;" horiz-adv-x="658" 
d="M296 375h-222v62h222v164h65v-164h222v-62h-222v-163h-65v163zM75 143h509v-60h-509v60z" />
    <glyph glyph-name="acute" unicode="&#xb4;" horiz-adv-x="204" 
d="M188 735l-81 -161h-46l49 168h78v-7z" />
    <glyph glyph-name="paragraph" unicode="&#xb6;" horiz-adv-x="583" 
d="M289 -41v298h-45q-96 0 -151 57.5t-55 159.5q0 101 55 158.5t151 57.5h101v-731h-56zM433 690h56v-731h-56v731z" />
    <glyph glyph-name="periodcentered" unicode="&#xb7;" horiz-adv-x="302" 
d="M108.5 304.5q-14.5 15.5 -14.5 40.5q0 26 14.5 41t42.5 15t42.5 -15t14.5 -41q0 -25 -14.5 -40.5t-42.5 -15.5t-42.5 15.5z" />
    <glyph glyph-name="cedilla" unicode="&#xb8;" horiz-adv-x="201" 
d="M69 -142q21 0 33.5 7.5t12.5 21.5q0 27 -43 27q-16 0 -33 -3v39q20 4 45 4q37 0 59.5 -17.5t22.5 -47.5q0 -32 -24 -51.5t-67 -19.5l-46 2v41q23 -3 40 -3z" />
    <glyph glyph-name="ordmasculine" unicode="&#xba;" horiz-adv-x="362" 
d="M72.5 396q-38.5 47 -38.5 127t38.5 127t108.5 47t108 -47t38 -127t-38 -127t-108 -47t-108.5 47zM114.5 429.5q21.5 -33.5 66.5 -33.5t67 33.5t22 93.5t-22 94.5t-67 34.5t-66.5 -34.5t-21.5 -94.5t21.5 -93.5z" />
    <glyph glyph-name="guillemotright" unicode="&#xbb;" horiz-adv-x="459" 
d="M195 251v7l-162 195h73l151 -180v-37l-151 -180h-73zM344 251v7l-162 195h73l151 -180v-37l-151 -180h-73z" />
    <glyph glyph-name="onequarter" unicode="&#xbc;" horiz-adv-x="588" 
d="M87 643l-81 -40v42l94 45h39v-345h-52v298zM510 690h56l-562 -690h-56zM481 80h-160v37l119 228h55l-123 -224h107l18 99h31v-99h49l-4 -41h-45v-80h-52z" />
    <glyph glyph-name="onehalf" unicode="&#xbd;" horiz-adv-x="583" 
d="M87 643l-81 -40v42l94 45h39v-345h-52v298zM510 690h56l-562 -690h-56zM338 0v43l97 108q28 30 41.5 52t13.5 48q0 28 -17 43.5t-50 15.5q-40 0 -78 -19v44q43 16 89 16q50 0 80 -24t30 -68q0 -33 -18 -62.5t-57 -69.5l-75 -79v-6h159v-42h-215z" />
    <glyph glyph-name="threequarters" unicode="&#xbe;" horiz-adv-x="644" 
d="M116 696q49 0 78.5 -21t29.5 -56q0 -28 -19 -48t-52 -32v-2q38 -6 60 -28t22 -58q0 -58 -55.5 -85t-151.5 -27v41q153 0 153 76q0 54 -76 54q-22 0 -48 -3v36q56 8 85 23.5t29 42.5q0 22 -16.5 34.5t-45.5 12.5q-18 0 -40.5 -5t-40.5 -13v40q39 18 88 18zM566 690h56
l-562 -690h-56zM537 80h-160v37l119 228h55l-123 -224h107l18 99h31v-99h49l-4 -41h-45v-80h-52z" />
    <glyph glyph-name="questiondown" unicode="&#xbf;" horiz-adv-x="459" 
d="M314 506q14 -15 14 -40t-14 -40t-42 -15q-27 0 -41.5 15t-14.5 40t14.5 40t41.5 15q28 0 42 -15zM76 74q24 37 72 84q46 45 68.5 78.5t22.5 80.5v32h67v-38q0 -41 -13.5 -73.5t-32.5 -55.5t-51 -55q-40 -39 -59.5 -68t-19.5 -67q0 -58 39 -88.5t102 -30.5q35 0 73.5 8.5
t69.5 22.5v-69q-30 -13 -71 -20.5t-78 -7.5q-95 0 -154 46.5t-59 131.5q0 52 24 89z" />
    <glyph glyph-name="Agrave" unicode="&#xc0;" horiz-adv-x="585" 
d="M485 0l-65 207h-257l-66 -207h-74l217 690h105l217 -690h-77zM405 268l-110 339h-8l-109 -339h227zM276 923l49 -168h-46l-81 161v7h78z" />
    <glyph glyph-name="Aacute" unicode="&#xc1;" horiz-adv-x="585" 
d="M485 0l-65 207h-257l-66 -207h-74l217 690h105l217 -690h-77zM405 268l-110 339h-8l-109 -339h227zM387 916l-81 -161h-46l49 168h78v-7z" />
    <glyph glyph-name="Acircumflex" unicode="&#xc2;" horiz-adv-x="585" 
d="M485 0l-65 207h-257l-66 -207h-74l217 690h105l217 -690h-77zM405 268l-110 339h-8l-109 -339h227zM376 755l-83 109l-83 -109h-38v7l87 161h68l87 -161v-7h-38z" />
    <glyph glyph-name="Atilde" unicode="&#xc3;" horiz-adv-x="585" 
d="M485 0l-65 207h-257l-66 -207h-74l217 690h105l217 -690h-77zM405 268l-110 339h-8l-109 -339h227zM237 881q21 0 51 -15q30 -14 49 -14q32 0 57 29h4v-52q-27 -31 -63 -31q-22 0 -52 15q-30 14 -49 14q-33 0 -56 -29h-5v52q27 31 64 31z" />
    <glyph glyph-name="Adieresis" unicode="&#xc4;" horiz-adv-x="585" 
d="M485 0l-65 207h-257l-66 -207h-74l217 690h105l217 -690h-77zM405 268l-110 339h-8l-109 -339h227zM171 803.5q-13 13.5 -13 35.5t13 36t36 14q24 0 36 -13.5t12 -36.5t-12 -36t-36 -13q-23 0 -36 13.5zM345.5 875.5q12.5 13.5 35.5 13.5q24 0 36.5 -13.5t12.5 -36.5
t-12.5 -36t-36.5 -13q-23 0 -35.5 13.5t-12.5 35.5q0 23 12.5 36.5z" />
    <glyph glyph-name="Aring" unicode="&#xc5;" horiz-adv-x="585" 
d="M485 0l-65 207h-257l-66 -207h-74l217 690h105l217 -690h-77zM405 268l-110 339h-8l-109 -339h227zM242.5 786.5q-21.5 20.5 -21.5 52.5t21.5 52.5t55.5 20.5t55.5 -20.5t21.5 -52.5t-21.5 -52.5t-55.5 -20.5t-55.5 20.5zM274 814.5q9 -9.5 24 -9.5t24 9.5t9 24.5
t-9 24.5t-24 9.5t-24 -9.5t-9 -24.5t9 -24.5z" />
    <glyph glyph-name="AE" unicode="&#xc6;" horiz-adv-x="832" 
d="M796 627h-317v-244h239v-63h-239v-257h317v-63h-392v207h-217l-108 -207h-74l359 690h432v-63zM404 268v339h-9l-179 -339h188z" />
    <glyph glyph-name="Ccedilla" unicode="&#xc7;" horiz-adv-x="541" 
d="M421.5 627.5q-40.5 7.5 -75.5 7.5q-108 0 -163 -77.5t-55 -212.5t55 -212.5t163 -77.5q34 0 75.5 6.5t67.5 17.5v-71q-29 -9 -68.5 -14.5t-72.5 -5.5q-144 0 -221 96.5t-77 260.5t76.5 260.5t220.5 96.5q35 0 74 -5.5t68 -16.5v-71q-27 11 -67.5 18.5zM279 -142
q21 0 33.5 7.5t12.5 21.5q0 27 -43 27q-16 0 -33 -3v39q20 4 45 4q37 0 59.5 -17.5t22.5 -47.5q0 -32 -24 -51.5t-67 -19.5l-46 2v41q23 -3 40 -3z" />
    <glyph glyph-name="Egrave" unicode="&#xc8;" horiz-adv-x="524" 
d="M488 690v-63h-318v-244h240v-63h-240v-257h318v-63h-394v690h394zM276 923l49 -168h-46l-81 161v7h78z" />
    <glyph glyph-name="Eacute" unicode="&#xc9;" horiz-adv-x="524" 
d="M488 690v-63h-318v-244h240v-63h-240v-257h318v-63h-394v690h394zM386 916l-81 -161h-46l49 168h78v-7z" />
    <glyph glyph-name="Ecircumflex" unicode="&#xca;" horiz-adv-x="524" 
d="M488 690v-63h-318v-244h240v-63h-240v-257h318v-63h-394v690h394zM375 755l-83 109l-83 -109h-38v7l87 161h68l87 -161v-7h-38z" />
    <glyph glyph-name="Edieresis" unicode="&#xcb;" horiz-adv-x="524" 
d="M488 690v-63h-318v-244h240v-63h-240v-257h318v-63h-394v690h394zM170 803.5q-13 13.5 -13 35.5t13 36t36 14q24 0 36 -13.5t12 -36.5t-12 -36t-36 -13q-23 0 -36 13.5zM344.5 875.5q12.5 13.5 35.5 13.5q24 0 36.5 -13.5t12.5 -36.5t-12.5 -36t-36.5 -13
q-23 0 -35.5 13.5t-12.5 35.5q0 23 12.5 36.5z" />
    <glyph glyph-name="Igrave" unicode="&#xcc;" horiz-adv-x="265" 
d="M171 690v-690h-77v690h77zM116 923l49 -168h-46l-81 161v7h78z" />
    <glyph glyph-name="Iacute" unicode="&#xcd;" horiz-adv-x="265" 
d="M171 690v-690h-77v690h77zM227 916l-81 -161h-46l49 168h78v-7z" />
    <glyph glyph-name="Icircumflex" unicode="&#xce;" horiz-adv-x="265" 
d="M171 690v-690h-77v690h77zM216 755l-83 109l-83 -109h-38v7l87 161h68l87 -161v-7h-38z" />
    <glyph glyph-name="Idieresis" unicode="&#xcf;" horiz-adv-x="265" 
d="M171 690v-690h-77v690h77zM11 803.5q-13 13.5 -13 35.5t13 36t36 14q24 0 36 -13.5t12 -36.5t-12 -36t-36 -13q-23 0 -36 13.5zM185.5 875.5q12.5 13.5 35.5 13.5q24 0 36.5 -13.5t12.5 -36.5t-12.5 -36t-36.5 -13q-23 0 -35.5 13.5t-12.5 35.5q0 23 12.5 36.5z" />
    <glyph glyph-name="Eth" unicode="&#xd0;" horiz-adv-x="664" 
d="M326 690q139 0 213.5 -92t74.5 -253t-75 -253t-213 -92h-232v320h-65v50h65v320h232zM325 65q107 0 159 74t52 206t-52 206t-159 74h-154v-255h175v-50h-175v-255h154z" />
    <glyph glyph-name="Ntilde" unicode="&#xd1;" horiz-adv-x="664" 
d="M94 690h71l339 -577h6q-11 117 -11 254v323h71v-690h-71l-339 576h-6q11 -115 11 -253v-323h-71v690zM277 881q21 0 51 -15q30 -14 49 -14q32 0 57 29h4v-52q-27 -31 -63 -31q-22 0 -52 15q-30 14 -49 14q-33 0 -56 -29h-5v52q27 31 64 31z" />
    <glyph glyph-name="Ograve" unicode="&#xd2;" horiz-adv-x="665" 
d="M122 82.5q-72 94.5 -72 262.5t72 262.5t211 94.5q138 0 210 -94.5t72 -262.5t-72 -262.5t-210 -94.5q-139 0 -211 94.5zM178 130q50 -76 155 -76q104 0 154 76t50 215t-50 215t-154 76q-105 0 -155 -76t-50 -215t50 -215zM317 923l49 -168h-46l-81 161v7h78z" />
    <glyph glyph-name="Oacute" unicode="&#xd3;" horiz-adv-x="665" 
d="M122 82.5q-72 94.5 -72 262.5t72 262.5t211 94.5q138 0 210 -94.5t72 -262.5t-72 -262.5t-210 -94.5q-139 0 -211 94.5zM178 130q50 -76 155 -76q104 0 154 76t50 215t-50 215t-154 76q-105 0 -155 -76t-50 -215t50 -215zM427 916l-81 -161h-46l49 168h78v-7z" />
    <glyph glyph-name="Ocircumflex" unicode="&#xd4;" horiz-adv-x="665" 
d="M122 82.5q-72 94.5 -72 262.5t72 262.5t211 94.5q138 0 210 -94.5t72 -262.5t-72 -262.5t-210 -94.5q-139 0 -211 94.5zM178 130q50 -76 155 -76q104 0 154 76t50 215t-50 215t-154 76q-105 0 -155 -76t-50 -215t50 -215zM416 755l-83 109l-83 -109h-38v7l87 161h68
l87 -161v-7h-38z" />
    <glyph glyph-name="Otilde" unicode="&#xd5;" horiz-adv-x="665" 
d="M122 82.5q-72 94.5 -72 262.5t72 262.5t211 94.5q138 0 210 -94.5t72 -262.5t-72 -262.5t-210 -94.5q-139 0 -211 94.5zM178 130q50 -76 155 -76q104 0 154 76t50 215t-50 215t-154 76q-105 0 -155 -76t-50 -215t50 -215zM277 881q21 0 51 -15q30 -14 49 -14q32 0 57 29
h4v-52q-27 -31 -63 -31q-22 0 -52 15q-30 14 -49 14q-33 0 -56 -29h-5v52q27 31 64 31z" />
    <glyph glyph-name="Odieresis" unicode="&#xd6;" horiz-adv-x="665" 
d="M122 82.5q-72 94.5 -72 262.5t72 262.5t211 94.5q138 0 210 -94.5t72 -262.5t-72 -262.5t-210 -94.5q-139 0 -211 94.5zM178 130q50 -76 155 -76q104 0 154 76t50 215t-50 215t-154 76q-105 0 -155 -76t-50 -215t50 -215zM211 803.5q-13 13.5 -13 35.5t13 36t36 14
q24 0 36 -13.5t12 -36.5t-12 -36t-36 -13q-23 0 -36 13.5zM385.5 875.5q12.5 13.5 35.5 13.5q24 0 36.5 -13.5t12.5 -36.5t-12.5 -36t-36.5 -13q-23 0 -35.5 13.5t-12.5 35.5q0 23 12.5 36.5z" />
    <glyph glyph-name="multiply" unicode="&#xd7;" horiz-adv-x="538" 
d="M224 346l-157 156l44 45l157 -157l158 158l46 -47l-157 -157l156 -157l-44 -45l-157 157l-158 -158l-46 47z" />
    <glyph glyph-name="Oslash" unicode="&#xd8;" horiz-adv-x="665" 
d="M186 25l-36 -67h-57l53 98q-48 45 -72 118.5t-24 170.5q0 168 72 262.5t211 94.5q82 0 145 -36l36 66h57l-53 -97q97 -91 97 -290q0 -168 -72 -262.5t-210 -94.5q-84 0 -147 37zM183 123l261 481q-44 32 -111 32q-105 0 -155 -76t-50 -215q0 -148 55 -222zM333 54
q104 0 154 76t50 215q0 150 -56 222l-261 -480q45 -33 113 -33z" />
    <glyph glyph-name="Ugrave" unicode="&#xd9;" horiz-adv-x="635" 
d="M488 51q-60 -63 -171 -63q-110 0 -170 63t-60 174v465h77v-463q0 -81 38.5 -127t114.5 -46q77 0 115.5 46t38.5 127v463h77v-465q0 -111 -60 -174zM302 923l49 -168h-46l-81 161v7h78z" />
    <glyph glyph-name="Uacute" unicode="&#xda;" horiz-adv-x="635" 
d="M488 51q-60 -63 -171 -63q-110 0 -170 63t-60 174v465h77v-463q0 -81 38.5 -127t114.5 -46q77 0 115.5 46t38.5 127v463h77v-465q0 -111 -60 -174zM412 916l-81 -161h-46l49 168h78v-7z" />
    <glyph glyph-name="Ucircumflex" unicode="&#xdb;" horiz-adv-x="635" 
d="M488 51q-60 -63 -171 -63q-110 0 -170 63t-60 174v465h77v-463q0 -81 38.5 -127t114.5 -46q77 0 115.5 46t38.5 127v463h77v-465q0 -111 -60 -174zM401 755l-83 109l-83 -109h-38v7l87 161h68l87 -161v-7h-38z" />
    <glyph glyph-name="Udieresis" unicode="&#xdc;" horiz-adv-x="635" 
d="M488 51q-60 -63 -171 -63q-110 0 -170 63t-60 174v465h77v-463q0 -81 38.5 -127t114.5 -46q77 0 115.5 46t38.5 127v463h77v-465q0 -111 -60 -174zM196 803.5q-13 13.5 -13 35.5t13 36t36 14q24 0 36 -13.5t12 -36.5t-12 -36t-36 -13q-23 0 -36 13.5zM370.5 875.5
q12.5 13.5 35.5 13.5q24 0 36.5 -13.5t12.5 -36.5t-12.5 -36t-36.5 -13q-23 0 -35.5 13.5t-12.5 35.5q0 23 12.5 36.5z" />
    <glyph glyph-name="Yacute" unicode="&#xdd;" horiz-adv-x="572" 
d="M113 690l171 -367h8l170 367h84l-221 -449v-241h-77v241l-222 449h87zM381 916l-81 -161h-46l49 168h78v-7z" />
    <glyph glyph-name="Thorn" unicode="&#xde;" horiz-adv-x="550" 
d="M94 690h77v-129h123q96 0 151 -57.5t55 -158.5t-55 -158.5t-151 -57.5h-123v-129h-77v690zM282 191q72 0 108 39t36 115t-36 115t-108 39h-111v-308h111z" />
    <glyph glyph-name="germandbls" unicode="&#xdf;" horiz-adv-x="579" 
d="M402.5 703q49.5 -39 49.5 -100q0 -37 -17.5 -63t-51.5 -59q-29 -28 -42.5 -47t-13.5 -43q0 -30 21 -49.5t67 -45.5q40 -23 64.5 -41.5t42.5 -48.5t18 -72q0 -66 -43 -106t-114 -40q-33 0 -70 10.5t-64 28.5v63q28 -19 65 -32t67 -13q39 0 62.5 23t23.5 59q0 39 -25 64
t-75 54q-53 32 -81 60.5t-28 74.5q0 35 16 60t48 58q29 29 43 49.5t14 47.5q0 37 -28 61.5t-72 24.5q-54 0 -84.5 -37t-30.5 -101v-543h-75v544q0 91 49.5 144.5t138.5 53.5q76 0 125.5 -39z" />
    <glyph glyph-name="agrave" unicode="&#xe0;" horiz-adv-x="497" 
d="M345 60h-8q-29 -33 -67 -52.5t-82 -19.5q-66 0 -105.5 40t-39.5 107q0 76 52.5 116.5t147.5 40.5q44 0 89 -6v62q0 54 -29.5 83.5t-84.5 29.5q-35 0 -74.5 -10.5t-67.5 -26.5v62q31 15 72.5 25t81.5 10q85 0 131 -43.5t46 -124.5v-240l19 -113h-64zM136 66q24 -25 68 -25
q37 0 70 17.5t58 45.5v1v132q-39 4 -84 4q-136 0 -136 -106q0 -44 24 -69zM218 742l49 -168h-46l-81 161v7h78z" />
    <glyph glyph-name="aacute" unicode="&#xe1;" horiz-adv-x="497" 
d="M345 60h-8q-29 -33 -67 -52.5t-82 -19.5q-66 0 -105.5 40t-39.5 107q0 76 52.5 116.5t147.5 40.5q44 0 89 -6v62q0 54 -29.5 83.5t-84.5 29.5q-35 0 -74.5 -10.5t-67.5 -26.5v62q31 15 72.5 25t81.5 10q85 0 131 -43.5t46 -124.5v-240l19 -113h-64zM136 66q24 -25 68 -25
q37 0 70 17.5t58 45.5v1v132q-39 4 -84 4q-136 0 -136 -106q0 -44 24 -69zM329 735l-81 -161h-46l49 168h78v-7z" />
    <glyph glyph-name="acircumflex" unicode="&#xe2;" horiz-adv-x="497" 
d="M345 60h-8q-29 -33 -67 -52.5t-82 -19.5q-66 0 -105.5 40t-39.5 107q0 76 52.5 116.5t147.5 40.5q44 0 89 -6v62q0 54 -29.5 83.5t-84.5 29.5q-35 0 -74.5 -10.5t-67.5 -26.5v62q31 15 72.5 25t81.5 10q85 0 131 -43.5t46 -124.5v-240l19 -113h-64zM136 66q24 -25 68 -25
q37 0 70 17.5t58 45.5v1v132q-39 4 -84 4q-136 0 -136 -106q0 -44 24 -69zM318 574l-83 109l-83 -109h-38v7l87 161h68l87 -161v-7h-38z" />
    <glyph glyph-name="atilde" unicode="&#xe3;" horiz-adv-x="497" 
d="M345 60h-8q-29 -33 -67 -52.5t-82 -19.5q-66 0 -105.5 40t-39.5 107q0 76 52.5 116.5t147.5 40.5q44 0 89 -6v62q0 54 -29.5 83.5t-84.5 29.5q-35 0 -74.5 -10.5t-67.5 -26.5v62q31 15 72.5 25t81.5 10q85 0 131 -43.5t46 -124.5v-240l19 -113h-64zM136 66q24 -25 68 -25
q37 0 70 17.5t58 45.5v1v132q-39 4 -84 4q-136 0 -136 -106q0 -44 24 -69zM179 700q21 0 51 -15q30 -14 49 -14q32 0 57 29h4v-52q-27 -31 -63 -31q-22 0 -52 15q-30 14 -49 14q-33 0 -56 -29h-5v52q27 31 64 31z" />
    <glyph glyph-name="adieresis" unicode="&#xe4;" horiz-adv-x="497" 
d="M345 60h-8q-29 -33 -67 -52.5t-82 -19.5q-66 0 -105.5 40t-39.5 107q0 76 52.5 116.5t147.5 40.5q44 0 89 -6v62q0 54 -29.5 83.5t-84.5 29.5q-35 0 -74.5 -10.5t-67.5 -26.5v62q31 15 72.5 25t81.5 10q85 0 131 -43.5t46 -124.5v-240l19 -113h-64zM136 66q24 -25 68 -25
q37 0 70 17.5t58 45.5v1v132q-39 4 -84 4q-136 0 -136 -106q0 -44 24 -69zM113 622.5q-13 13.5 -13 35.5t13 36t36 14q24 0 36 -13.5t12 -36.5t-12 -36t-36 -13q-23 0 -36 13.5zM287.5 694.5q12.5 13.5 35.5 13.5q24 0 36.5 -13.5t12.5 -36.5t-12.5 -36t-36.5 -13
q-23 0 -35.5 13.5t-12.5 35.5q0 23 12.5 36.5z" />
    <glyph glyph-name="aring" unicode="&#xe5;" horiz-adv-x="497" 
d="M345 60h-8q-29 -33 -67 -52.5t-82 -19.5q-66 0 -105.5 40t-39.5 107q0 76 52.5 116.5t147.5 40.5q44 0 89 -6v62q0 54 -29.5 83.5t-84.5 29.5q-35 0 -74.5 -10.5t-67.5 -26.5v62q31 15 72.5 25t81.5 10q85 0 131 -43.5t46 -124.5v-240l19 -113h-64zM136 66q24 -25 68 -25
q37 0 70 17.5t58 45.5v1v132q-39 4 -84 4q-136 0 -136 -106q0 -44 24 -69zM184.5 605.5q-21.5 20.5 -21.5 52.5t21.5 52.5t55.5 20.5t55.5 -20.5t21.5 -52.5t-21.5 -52.5t-55.5 -20.5t-55.5 20.5zM216 633.5q9 -9.5 24 -9.5t24 9.5t9 24.5t-9 24.5t-24 9.5t-24 -9.5
t-9 -24.5t9 -24.5z" />
    <glyph glyph-name="ae" unicode="&#xe6;" horiz-adv-x="792" 
d="M302.5 431.5q-29.5 29.5 -84.5 29.5q-35 0 -74.5 -10.5t-67.5 -26.5v62q31 15 72.5 25t80.5 10q57 0 96 -21t59 -61q26 40 65.5 61t91.5 21q93 0 145 -67t52 -190q0 -20 -2 -32h-331q2 -86 41.5 -135.5t118.5 -49.5q34 0 71.5 9t70.5 26v-61q-33 -16 -73.5 -24.5
t-76.5 -8.5q-60 0 -104 23.5t-72 67.5q-35 -41 -82 -66t-102 -25q-69 0 -111.5 40.5t-42.5 108.5q0 75 52.5 115t147.5 40q44 0 89 -6v62q0 54 -29.5 83.5zM138 66.5q26 -25.5 73 -25.5q45 0 82.5 23t65.5 61q-18 50 -21 111q-48 5 -90 5q-66 0 -101 -26t-35 -78
q0 -45 26 -70.5zM669 284v4q0 79 -32.5 128t-97.5 49q-72 0 -101.5 -55.5t-32.5 -125.5h264z" />
    <glyph glyph-name="ccedilla" unicode="&#xe7;" horiz-adv-x="441" 
d="M332 453.5q-29 6.5 -53 6.5q-73 0 -110 -54t-37 -151t38 -151.5t113 -54.5q24 0 50 6.5t48 18.5v-64q-47 -22 -104 -22q-106 0 -164.5 72.5t-58.5 194.5t58 194t167 72q50 0 102 -18v-65q-20 9 -49 15.5zM228 -142q21 0 33.5 7.5t12.5 21.5q0 27 -43 27q-16 0 -33 -3v39
q20 4 45 4q37 0 59.5 -17.5t22.5 -47.5q0 -32 -24 -51.5t-67 -19.5l-46 2v41q23 -3 40 -3z" />
    <glyph glyph-name="egrave" unicode="&#xe8;" horiz-adv-x="514" 
d="M355 -3.5q-40 -8.5 -76 -8.5q-109 0 -167 72.5t-58 196.5q0 122 54.5 193t152.5 71q94 0 146.5 -66.5t52.5 -188.5q0 -22 -2 -34h-331q2 -86 41 -135.5t118 -49.5q35 0 72.5 9t70.5 26v-61q-34 -16 -74 -24.5zM390 284v4q0 79 -32 128t-97 49q-72 0 -101.5 -55.5
t-32.5 -125.5h263zM240 742l49 -168h-46l-81 161v7h78z" />
    <glyph glyph-name="eacute" unicode="&#xe9;" horiz-adv-x="514" 
d="M355 -3.5q-40 -8.5 -76 -8.5q-109 0 -167 72.5t-58 196.5q0 122 54.5 193t152.5 71q94 0 146.5 -66.5t52.5 -188.5q0 -22 -2 -34h-331q2 -86 41 -135.5t118 -49.5q35 0 72.5 9t70.5 26v-61q-34 -16 -74 -24.5zM390 284v4q0 79 -32 128t-97 49q-72 0 -101.5 -55.5
t-32.5 -125.5h263zM350 735l-81 -161h-46l49 168h78v-7z" />
    <glyph glyph-name="ecircumflex" unicode="&#xea;" horiz-adv-x="514" 
d="M355 -3.5q-40 -8.5 -76 -8.5q-109 0 -167 72.5t-58 196.5q0 122 54.5 193t152.5 71q94 0 146.5 -66.5t52.5 -188.5q0 -22 -2 -34h-331q2 -86 41 -135.5t118 -49.5q35 0 72.5 9t70.5 26v-61q-34 -16 -74 -24.5zM390 284v4q0 79 -32 128t-97 49q-72 0 -101.5 -55.5
t-32.5 -125.5h263zM339 574l-83 109l-83 -109h-38v7l87 161h68l87 -161v-7h-38z" />
    <glyph glyph-name="edieresis" unicode="&#xeb;" horiz-adv-x="514" 
d="M355 -3.5q-40 -8.5 -76 -8.5q-109 0 -167 72.5t-58 196.5q0 122 54.5 193t152.5 71q94 0 146.5 -66.5t52.5 -188.5q0 -22 -2 -34h-331q2 -86 41 -135.5t118 -49.5q35 0 72.5 9t70.5 26v-61q-34 -16 -74 -24.5zM390 284v4q0 79 -32 128t-97 49q-72 0 -101.5 -55.5
t-32.5 -125.5h263zM134 622.5q-13 13.5 -13 35.5t13 36t36 14q24 0 36 -13.5t12 -36.5t-12 -36t-36 -13q-23 0 -36 13.5zM308.5 694.5q12.5 13.5 35.5 13.5q24 0 36.5 -13.5t12.5 -36.5t-12.5 -36t-36.5 -13q-23 0 -35.5 13.5t-12.5 35.5q0 23 12.5 36.5z" />
    <glyph glyph-name="igrave" unicode="&#xec;" horiz-adv-x="263" 
d="M169 509v-509h-75v509h75zM115 742l49 -168h-46l-81 161v7h78z" />
    <glyph glyph-name="iacute" unicode="&#xed;" horiz-adv-x="263" 
d="M169 509v-509h-75v509h75zM225 735l-81 -161h-46l49 168h78v-7z" />
    <glyph glyph-name="icircumflex" unicode="&#xee;" horiz-adv-x="263" 
d="M169 509v-509h-75v509h75zM215 574l-83 109l-83 -109h-38v7l87 161h68l87 -161v-7h-38z" />
    <glyph glyph-name="idieresis" unicode="&#xef;" horiz-adv-x="263" 
d="M169 509v-509h-75v509h75zM29 657.5q-12 13.5 -12 35.5t12 36t34 14t34 -14t12 -36t-12 -35.5t-34 -13.5t-34 13.5zM165 729q12 14 34 14t34 -14t12 -36t-12 -35.5t-34 -13.5t-34 13.5t-12 35.5t12 36z" />
    <glyph glyph-name="eth" unicode="&#xf0;" horiz-adv-x="576" 
d="M342 602q-67 73 -177 121v7h97q76 -38 135 -97l109 61l18 -36l-100 -56q102 -126 102 -302q0 -146 -65.5 -229t-182.5 -83q-65 0 -116 27t-79.5 76.5t-28.5 114.5t27.5 112.5t75.5 73t107 25.5q58 0 105 -23.5t76 -62.5h4q-6 140 -81 240l-131 -73l-17 36zM169.5 88.5
q41.5 -41.5 108.5 -41.5q81 0 124 57.5t48 154.5q-30 47 -73 72.5t-96 25.5q-69 0 -111 -42t-42 -113q0 -72 41.5 -113.5z" />
    <glyph glyph-name="ntilde" unicode="&#xf1;" horiz-adv-x="574" 
d="M147 509l12 -63h10q32 33 75 54t91 21q68 0 109 -42t41 -116v-363h-75v345q0 53 -28 82t-77 29q-38 0 -73 -17.5t-63 -46.5v-392h-75v396l-19 113h72zM231 700q21 0 51 -15q30 -14 49 -14q32 0 57 29h4v-52q-27 -31 -63 -31q-22 0 -52 15q-30 14 -49 14q-33 0 -56 -29h-5
v52q27 31 64 31z" />
    <glyph glyph-name="ograve" unicode="&#xf2;" horiz-adv-x="549" 
d="M111.5 60.5q-57.5 72.5 -57.5 193.5q0 122 57.5 194.5t162.5 72.5q106 0 163.5 -72.5t57.5 -194.5q0 -121 -57.5 -193.5t-163.5 -72.5q-105 0 -162.5 72.5zM165.5 103q35.5 -55 108.5 -55t108.5 55t35.5 151q0 97 -35.5 152t-108.5 55t-108.5 -55t-35.5 -152
q0 -96 35.5 -151zM258 742l49 -168h-46l-81 161v7h78z" />
    <glyph glyph-name="oacute" unicode="&#xf3;" horiz-adv-x="549" 
d="M111.5 60.5q-57.5 72.5 -57.5 193.5q0 122 57.5 194.5t162.5 72.5q106 0 163.5 -72.5t57.5 -194.5q0 -121 -57.5 -193.5t-163.5 -72.5q-105 0 -162.5 72.5zM165.5 103q35.5 -55 108.5 -55t108.5 55t35.5 151q0 97 -35.5 152t-108.5 55t-108.5 -55t-35.5 -152
q0 -96 35.5 -151zM369 735l-81 -161h-46l49 168h78v-7z" />
    <glyph glyph-name="ocircumflex" unicode="&#xf4;" horiz-adv-x="549" 
d="M111.5 60.5q-57.5 72.5 -57.5 193.5q0 122 57.5 194.5t162.5 72.5q106 0 163.5 -72.5t57.5 -194.5q0 -121 -57.5 -193.5t-163.5 -72.5q-105 0 -162.5 72.5zM165.5 103q35.5 -55 108.5 -55t108.5 55t35.5 151q0 97 -35.5 152t-108.5 55t-108.5 -55t-35.5 -152
q0 -96 35.5 -151zM358 574l-83 109l-83 -109h-38v7l87 161h68l87 -161v-7h-38z" />
    <glyph glyph-name="otilde" unicode="&#xf5;" horiz-adv-x="549" 
d="M111.5 60.5q-57.5 72.5 -57.5 193.5q0 122 57.5 194.5t162.5 72.5q106 0 163.5 -72.5t57.5 -194.5q0 -121 -57.5 -193.5t-163.5 -72.5q-105 0 -162.5 72.5zM165.5 103q35.5 -55 108.5 -55t108.5 55t35.5 151q0 97 -35.5 152t-108.5 55t-108.5 -55t-35.5 -152
q0 -96 35.5 -151zM219 700q21 0 51 -15q30 -14 49 -14q32 0 57 29h4v-52q-27 -31 -63 -31q-22 0 -52 15q-30 14 -49 14q-33 0 -56 -29h-5v52q27 31 64 31z" />
    <glyph glyph-name="odieresis" unicode="&#xf6;" horiz-adv-x="549" 
d="M111.5 60.5q-57.5 72.5 -57.5 193.5q0 122 57.5 194.5t162.5 72.5q106 0 163.5 -72.5t57.5 -194.5q0 -121 -57.5 -193.5t-163.5 -72.5q-105 0 -162.5 72.5zM165.5 103q35.5 -55 108.5 -55t108.5 55t35.5 151q0 97 -35.5 152t-108.5 55t-108.5 -55t-35.5 -152
q0 -96 35.5 -151zM153 622.5q-13 13.5 -13 35.5t13 36t36 14q24 0 36 -13.5t12 -36.5t-12 -36t-36 -13q-23 0 -36 13.5zM327.5 694.5q12.5 13.5 35.5 13.5q24 0 36.5 -13.5t12.5 -36.5t-12.5 -36t-36.5 -13q-23 0 -35.5 13.5t-12.5 35.5q0 23 12.5 36.5z" />
    <glyph glyph-name="divide" unicode="&#xf7;" horiz-adv-x="657" 
d="M290 518.5q-13 13.5 -13 35.5t13 35.5t38 13.5t38 -13.5t13 -35.5t-13 -35.5t-38 -13.5t-38 13.5zM74 376h509v-63h-509v63zM290 170.5q13 13.5 38 13.5t38 -13.5t13 -35.5t-13 -35.5t-38 -13.5t-38 13.5t-13 35.5t13 35.5z" />
    <glyph glyph-name="oslash" unicode="&#xf8;" horiz-adv-x="549" 
d="M150 24l-43 -66h-54l64 96q-31 35 -47 86t-16 114q0 122 57.5 194.5t162.5 72.5q72 0 124 -36l43 66h54l-63 -96q63 -72 63 -201q0 -121 -57.5 -193.5t-163.5 -72.5q-71 0 -124 36zM158 115l205 314q-34 32 -89 32q-73 0 -108.5 -55t-35.5 -152q0 -86 28 -139zM274 48
q73 0 108.5 55t35.5 151q0 87 -28 139l-204 -314q34 -31 88 -31z" />
    <glyph glyph-name="ugrave" unicode="&#xf9;" horiz-adv-x="561" 
d="M415 0l-12 63h-10q-31 -33 -72.5 -54t-87.5 -21q-66 0 -105 42t-39 116v363h75v-345q0 -53 26 -81.5t72 -28.5q37 0 71 17t60 46v392h75v-396l18 -113h-71zM263 742l49 -168h-46l-81 161v7h78z" />
    <glyph glyph-name="uacute" unicode="&#xfa;" horiz-adv-x="561" 
d="M415 0l-12 63h-10q-31 -33 -72.5 -54t-87.5 -21q-66 0 -105 42t-39 116v363h75v-345q0 -53 26 -81.5t72 -28.5q37 0 71 17t60 46v392h75v-396l18 -113h-71zM373 735l-81 -161h-46l49 168h78v-7z" />
    <glyph glyph-name="ucircumflex" unicode="&#xfb;" horiz-adv-x="561" 
d="M415 0l-12 63h-10q-31 -33 -72.5 -54t-87.5 -21q-66 0 -105 42t-39 116v363h75v-345q0 -53 26 -81.5t72 -28.5q37 0 71 17t60 46v392h75v-396l18 -113h-71zM362 574l-83 109l-83 -109h-38v7l87 161h68l87 -161v-7h-38z" />
    <glyph glyph-name="udieresis" unicode="&#xfc;" horiz-adv-x="561" 
d="M415 0l-12 63h-10q-31 -33 -72.5 -54t-87.5 -21q-66 0 -105 42t-39 116v363h75v-345q0 -53 26 -81.5t72 -28.5q37 0 71 17t60 46v392h75v-396l18 -113h-71zM157 622.5q-13 13.5 -13 35.5t13 36t36 14q24 0 36 -13.5t12 -36.5t-12 -36t-36 -13q-23 0 -36 13.5z
M331.5 694.5q12.5 13.5 35.5 13.5q24 0 36.5 -13.5t12.5 -36.5t-12.5 -36t-36.5 -13q-23 0 -35.5 13.5t-12.5 35.5q0 23 12.5 36.5z" />
    <glyph glyph-name="yacute" unicode="&#xfd;" horiz-adv-x="472" 
d="M93 509l140 -441h10l140 441h72l-181 -543q-28 -85 -71 -131.5t-115 -46.5q-51 0 -96 15v63q23 -8 48.5 -12.5t44.5 -4.5q33 0 55 15.5t40 48t39 91.5h-35l-167 505h76zM330 735l-81 -161h-46l49 168h78v-7z" />
    <glyph glyph-name="thorn" unicode="&#xfe;" 
d="M94 730h75v-291h5q20 36 59.5 59t90.5 23q89 0 140.5 -72t51.5 -189q0 -84 -27.5 -145.5t-78.5 -94t-119 -32.5q-72 0 -122 34v-222h-75v930zM287 48q74 0 113.5 56t39.5 154q0 93 -34 148t-102 55q-61 0 -98 -45.5t-37 -120.5v-210q56 -37 118 -37z" />
    <glyph glyph-name="ydieresis" unicode="&#xff;" horiz-adv-x="472" 
d="M93 509l140 -441h10l140 441h72l-181 -543q-28 -85 -71 -131.5t-115 -46.5q-51 0 -96 15v63q23 -8 48.5 -12.5t44.5 -4.5q33 0 55 15.5t40 48t39 91.5h-35l-167 505h76zM114 622.5q-13 13.5 -13 35.5t13 36t36 14q24 0 36 -13.5t12 -36.5t-12 -36t-36 -13q-23 0 -36 13.5
zM288.5 694.5q12.5 13.5 35.5 13.5q24 0 36.5 -13.5t12.5 -36.5t-12.5 -36t-36.5 -13q-23 0 -35.5 13.5t-12.5 35.5q0 23 12.5 36.5z" />
    <glyph glyph-name="Amacron" unicode="&#x100;" horiz-adv-x="585" 
d="M485 0l-65 207h-257l-66 -207h-74l217 690h105l217 -690h-77zM405 268l-110 339h-8l-109 -339h227zM405 865v-51h-225v51h225z" />
    <glyph glyph-name="amacron" unicode="&#x101;" horiz-adv-x="497" 
d="M345 60h-8q-29 -33 -67 -52.5t-82 -19.5q-66 0 -105.5 40t-39.5 107q0 76 52.5 116.5t147.5 40.5q44 0 89 -6v62q0 54 -29.5 83.5t-84.5 29.5q-35 0 -74.5 -10.5t-67.5 -26.5v62q31 15 72.5 25t81.5 10q85 0 131 -43.5t46 -124.5v-240l19 -113h-64zM136 66q24 -25 68 -25
q37 0 70 17.5t58 45.5v1v132q-39 4 -84 4q-136 0 -136 -106q0 -44 24 -69zM347 684v-51h-225v51h225z" />
    <glyph glyph-name="Abreve" unicode="&#x102;" horiz-adv-x="585" 
d="M485 0l-65 207h-257l-66 -207h-74l217 690h105l217 -690h-77zM405 268l-110 339h-8l-109 -339h227zM383 806q-29 -45 -90 -45t-90 45t-29 117h40q0 -46 20 -78.5t59 -32.5t58.5 32.5t19.5 78.5h41q0 -72 -29 -117z" />
    <glyph glyph-name="abreve" unicode="&#x103;" horiz-adv-x="497" 
d="M345 60h-8q-29 -33 -67 -52.5t-82 -19.5q-66 0 -105.5 40t-39.5 107q0 76 52.5 116.5t147.5 40.5q44 0 89 -6v62q0 54 -29.5 83.5t-84.5 29.5q-35 0 -74.5 -10.5t-67.5 -26.5v62q31 15 72.5 25t81.5 10q85 0 131 -43.5t46 -124.5v-240l19 -113h-64zM136 66q24 -25 68 -25
q37 0 70 17.5t58 45.5v1v132q-39 4 -84 4q-136 0 -136 -106q0 -44 24 -69zM325 625q-29 -45 -90 -45t-90 45t-29 117h40q0 -46 20 -78.5t59 -32.5t58.5 32.5t19.5 78.5h41q0 -72 -29 -117z" />
    <glyph glyph-name="Cacute" unicode="&#x106;" horiz-adv-x="541" 
d="M421.5 627.5q-40.5 7.5 -75.5 7.5q-108 0 -163 -77.5t-55 -212.5t55 -212.5t163 -77.5q34 0 75.5 6.5t67.5 17.5v-71q-29 -9 -68.5 -14.5t-72.5 -5.5q-144 0 -221 96.5t-77 260.5t76.5 260.5t220.5 96.5q35 0 74 -5.5t68 -16.5v-71q-27 11 -67.5 18.5zM411 916l-81 -161
h-46l49 168h78v-7z" />
    <glyph glyph-name="cacute" unicode="&#x107;" horiz-adv-x="441" 
d="M332 453.5q-29 6.5 -53 6.5q-73 0 -110 -54t-37 -151t38 -151.5t113 -54.5q24 0 50 6.5t48 18.5v-64q-47 -22 -104 -22q-106 0 -164.5 72.5t-58.5 194.5t58 194t167 72q50 0 102 -18v-65q-20 9 -49 15.5zM328 735l-81 -161h-46l49 168h78v-7z" />
    <glyph glyph-name="Ccaron" unicode="&#x10c;" horiz-adv-x="541" 
d="M421.5 627.5q-40.5 7.5 -75.5 7.5q-108 0 -163 -77.5t-55 -212.5t55 -212.5t163 -77.5q34 0 75.5 6.5t67.5 17.5v-71q-29 -9 -68.5 -14.5t-72.5 -5.5q-144 0 -221 96.5t-77 260.5t76.5 260.5t220.5 96.5q35 0 74 -5.5t68 -16.5v-71q-27 11 -67.5 18.5zM438 916l-87 -161
h-68l-87 161v7h38l83 -109l83 109h38v-7z" />
    <glyph glyph-name="ccaron" unicode="&#x10d;" horiz-adv-x="441" 
d="M332 453.5q-29 6.5 -53 6.5q-73 0 -110 -54t-37 -151t38 -151.5t113 -54.5q24 0 50 6.5t48 18.5v-64q-47 -22 -104 -22q-106 0 -164.5 72.5t-58.5 194.5t58 194t167 72q50 0 102 -18v-65q-20 9 -49 15.5zM355 735l-87 -161h-68l-87 161v7h38l83 -109l83 109h38v-7z" />
    <glyph glyph-name="Dcaron" unicode="&#x10e;" horiz-adv-x="664" 
d="M326 690q139 0 213.5 -92t74.5 -253t-75 -253t-213 -92h-232v690h232zM325 65q107 0 159 74t52 206t-52 206t-159 74h-154v-560h154zM453 916l-87 -161h-68l-87 161v7h38l83 -109l83 109h38v-7z" />
    <glyph glyph-name="Dcroat" unicode="&#x110;" horiz-adv-x="664" 
d="M326 690q139 0 213.5 -92t74.5 -253t-75 -253t-213 -92h-232v320h-65v50h65v320h232zM325 65q107 0 159 74t52 206t-52 206t-159 74h-154v-255h175v-50h-175v-255h154z" />
    <glyph glyph-name="dcroat" unicode="&#x111;" 
d="M424 0l-14 72h-11q-23 -37 -62 -60.5t-90 -23.5q-59 0 -103 33t-67 92t-23 136q0 84 28 145.5t79 94t119 32.5q70 0 122 -35v107h-152v50h152v87h75v-87h90v-50h-90v-480l18 -113h-71zM164.5 103q34.5 -55 102.5 -55q61 0 98 45.5t37 120.5v210q-55 37 -118 37
q-75 0 -114.5 -56t-39.5 -154q0 -93 34.5 -148z" />
    <glyph glyph-name="Emacron" unicode="&#x112;" horiz-adv-x="524" 
d="M488 690v-63h-318v-244h240v-63h-240v-257h318v-63h-394v690h394zM404 865v-51h-225v51h225z" />
    <glyph glyph-name="emacron" unicode="&#x113;" horiz-adv-x="514" 
d="M355 -3.5q-40 -8.5 -76 -8.5q-109 0 -167 72.5t-58 196.5q0 122 54.5 193t152.5 71q94 0 146.5 -66.5t52.5 -188.5q0 -22 -2 -34h-331q2 -86 41 -135.5t118 -49.5q35 0 72.5 9t70.5 26v-61q-34 -16 -74 -24.5zM390 284v4q0 79 -32 128t-97 49q-72 0 -101.5 -55.5
t-32.5 -125.5h263zM368 684v-51h-225v51h225z" />
    <glyph glyph-name="Ebreve" unicode="&#x114;" horiz-adv-x="524" 
d="M488 690v-63h-318v-244h240v-63h-240v-257h318v-63h-394v690h394zM382 806q-29 -45 -90 -45t-90 45t-29 117h40q0 -46 20 -78.5t59 -32.5t58.5 32.5t19.5 78.5h41q0 -72 -29 -117z" />
    <glyph glyph-name="ebreve" unicode="&#x115;" horiz-adv-x="514" 
d="M355 -3.5q-40 -8.5 -76 -8.5q-109 0 -167 72.5t-58 196.5q0 122 54.5 193t152.5 71q94 0 146.5 -66.5t52.5 -188.5q0 -22 -2 -34h-331q2 -86 41 -135.5t118 -49.5q35 0 72.5 9t70.5 26v-61q-34 -16 -74 -24.5zM390 284v4q0 79 -32 128t-97 49q-72 0 -101.5 -55.5
t-32.5 -125.5h263zM346 625q-29 -45 -90 -45t-90 45t-29 117h40q0 -46 20 -78.5t59 -32.5t58.5 32.5t19.5 78.5h41q0 -72 -29 -117z" />
    <glyph glyph-name="Edotaccent" unicode="&#x116;" horiz-adv-x="524" 
d="M488 690v-63h-318v-244h240v-63h-240v-257h318v-63h-394v690h394zM255 803.5q-13 13.5 -13 35.5t13 36t37 14q25 0 37.5 -13.5t12.5 -36.5t-12.5 -36t-37.5 -13q-24 0 -37 13.5z" />
    <glyph glyph-name="edotaccent" unicode="&#x117;" horiz-adv-x="514" 
d="M355 -3.5q-40 -8.5 -76 -8.5q-109 0 -167 72.5t-58 196.5q0 122 54.5 193t152.5 71q94 0 146.5 -66.5t52.5 -188.5q0 -22 -2 -34h-331q2 -86 41 -135.5t118 -49.5q35 0 72.5 9t70.5 26v-61q-34 -16 -74 -24.5zM390 284v4q0 79 -32 128t-97 49q-72 0 -101.5 -55.5
t-32.5 -125.5h263zM219 622.5q-13 13.5 -13 35.5t13 36t37 14q25 0 37.5 -13.5t12.5 -36.5t-12.5 -36t-37.5 -13q-24 0 -37 13.5z" />
    <glyph glyph-name="Ecaron" unicode="&#x11a;" horiz-adv-x="524" 
d="M488 690v-63h-318v-244h240v-63h-240v-257h318v-63h-394v690h394zM413 916l-87 -161h-68l-87 161v7h38l83 -109l83 109h38v-7z" />
    <glyph glyph-name="ecaron" unicode="&#x11b;" horiz-adv-x="514" 
d="M355 -3.5q-40 -8.5 -76 -8.5q-109 0 -167 72.5t-58 196.5q0 122 54.5 193t152.5 71q94 0 146.5 -66.5t52.5 -188.5q0 -22 -2 -34h-331q2 -86 41 -135.5t118 -49.5q35 0 72.5 9t70.5 26v-61q-34 -16 -74 -24.5zM390 284v4q0 79 -32 128t-97 49q-72 0 -101.5 -55.5
t-32.5 -125.5h263zM377 735l-87 -161h-68l-87 161v7h38l83 -109l83 109h38v-7z" />
    <glyph glyph-name="Gbreve" unicode="&#x11e;" horiz-adv-x="635" 
d="M461 629.5q-40 6.5 -78 6.5q-128 0 -191.5 -77.5t-63.5 -213.5q0 -138 58 -214.5t180 -76.5q51 0 111 9v264h73v-316q-37 -11 -90.5 -17t-93.5 -6q-158 0 -237 96t-79 261t85.5 261t249.5 96q79 0 145 -20v-69q-29 10 -69 16.5zM416 806q-29 -45 -90 -45t-90 45t-29 117
h40q0 -46 20 -78.5t59 -32.5t58.5 32.5t19.5 78.5h41q0 -72 -29 -117z" />
    <glyph glyph-name="gbreve" unicode="&#x11f;" horiz-adv-x="500" 
d="M173 149q-22 -22 -22 -51q0 -26 17 -40.5t51 -14.5h121q64 0 98.5 -28.5t34.5 -80.5q0 -69 -62 -107.5t-170 -38.5q-99 0 -194 36v58q42 -18 94.5 -29t103.5 -11q74 0 117 22.5t43 61.5q0 26 -19 41t-52 15h-128q-58 0 -88.5 26.5t-30.5 67.5q0 53 47 87v5
q-43 20 -67.5 63.5t-24.5 100.5q0 85 51.5 137t135.5 52q54 0 127 -10t117 -22v-62q-47 24 -124 42v-8q32 -20 49 -55.5t17 -81.5q0 -82 -50 -132t-135 -50q-27 0 -57 7zM143.5 233.5q30.5 -36.5 85.5 -36.5q54 0 86 36.5t32 97.5t-32 98.5t-86 37.5t-85 -37t-31 -99
q0 -61 30.5 -97.5zM305 479h-1h-1h2zM341 625q-29 -45 -90 -45t-90 45t-29 117h40q0 -46 20 -78.5t59 -32.5t58.5 32.5t19.5 78.5h41q0 -72 -29 -117z" />
    <glyph glyph-name="Imacron" unicode="&#x12a;" horiz-adv-x="265" 
d="M171 690v-690h-77v690h77zM245 865v-51h-225v51h225z" />
    <glyph glyph-name="imacron" unicode="&#x12b;" horiz-adv-x="263" 
d="M169 509v-509h-75v509h75zM244 684v-51h-225v51h225z" />
    <glyph glyph-name="Ibreve" unicode="&#x12c;" horiz-adv-x="265" 
d="M171 690v-690h-77v690h77zM222 806q-29 -45 -90 -45t-90 45t-29 117h40q0 -46 20 -78.5t59 -32.5t58.5 32.5t19.5 78.5h41q0 -72 -29 -117z" />
    <glyph glyph-name="ibreve" unicode="&#x12d;" horiz-adv-x="263" 
d="M169 509v-509h-75v509h75zM221 625q-29 -45 -90 -45t-90 45t-29 117h40q0 -46 20 -78.5t59 -32.5t58.5 32.5t19.5 78.5h41q0 -72 -29 -117z" />
    <glyph glyph-name="Idotaccent" unicode="&#x130;" horiz-adv-x="265" 
d="M171 690v-690h-77v690h77zM95 803.5q-13 13.5 -13 35.5t13 36t37 14q25 0 37.5 -13.5t12.5 -36.5t-12.5 -36t-37.5 -13q-24 0 -37 13.5z" />
    <glyph glyph-name="dotlessi" unicode="&#x131;" horiz-adv-x="263" 
d="M169 509v-509h-75v509h75z" />
    <glyph glyph-name="IJ" unicode="&#x132;" horiz-adv-x="628" 
d="M171 690v-690h-77v690h77zM310 58q26 -4 45 -4q56 0 82.5 33t26.5 91v512h77v-513q0 -88 -45.5 -138.5t-135.5 -50.5q-51 0 -92 10v69q16 -5 42 -9z" />
    <glyph glyph-name="ij" unicode="&#x133;" horiz-adv-x="525" 
d="M169 509v-509h-75v509h75zM94 694q13 14 37 14q25 0 37.5 -13.5t12.5 -36.5t-12.5 -36t-37.5 -13q-24 0 -37 13.5t-13 35.5t13 36zM340 -126.5q17 23.5 17 64.5v571h75v-576q0 -66 -30.5 -104.5t-91.5 -40.5q-14 0 -21 1v61q34 0 51 23.5zM357 694q13 14 37 14
q25 0 37.5 -13.5t12.5 -36.5t-12.5 -36t-37.5 -13q-24 0 -37 13.5t-13 35.5t13 36z" />
    <glyph glyph-name="Ncaron" unicode="&#x147;" horiz-adv-x="664" 
d="M94 690h71l339 -577h6q-11 117 -11 254v323h71v-690h-71l-339 576h-6q11 -115 11 -253v-323h-71v690zM454 916l-87 -161h-68l-87 161v7h38l83 -109l83 109h38v-7z" />
    <glyph glyph-name="ncaron" unicode="&#x148;" horiz-adv-x="574" 
d="M147 509l12 -63h10q32 33 75 54t91 21q68 0 109 -42t41 -116v-363h-75v345q0 53 -28 82t-77 29q-38 0 -73 -17.5t-63 -46.5v-392h-75v396l-19 113h72zM408 735l-87 -161h-68l-87 161v7h38l83 -109l83 109h38v-7z" />
    <glyph glyph-name="Omacron" unicode="&#x14c;" horiz-adv-x="665" 
d="M122 82.5q-72 94.5 -72 262.5t72 262.5t211 94.5q138 0 210 -94.5t72 -262.5t-72 -262.5t-210 -94.5q-139 0 -211 94.5zM178 130q50 -76 155 -76q104 0 154 76t50 215t-50 215t-154 76q-105 0 -155 -76t-50 -215t50 -215zM445 865v-51h-225v51h225z" />
    <glyph glyph-name="omacron" unicode="&#x14d;" horiz-adv-x="549" 
d="M111.5 60.5q-57.5 72.5 -57.5 193.5q0 122 57.5 194.5t162.5 72.5q106 0 163.5 -72.5t57.5 -194.5q0 -121 -57.5 -193.5t-163.5 -72.5q-105 0 -162.5 72.5zM165.5 103q35.5 -55 108.5 -55t108.5 55t35.5 151q0 97 -35.5 152t-108.5 55t-108.5 -55t-35.5 -152
q0 -96 35.5 -151zM387 684v-51h-225v51h225z" />
    <glyph glyph-name="Obreve" unicode="&#x14e;" horiz-adv-x="665" 
d="M122 82.5q-72 94.5 -72 262.5t72 262.5t211 94.5q138 0 210 -94.5t72 -262.5t-72 -262.5t-210 -94.5q-139 0 -211 94.5zM178 130q50 -76 155 -76q104 0 154 76t50 215t-50 215t-154 76q-105 0 -155 -76t-50 -215t50 -215zM423 806q-29 -45 -90 -45t-90 45t-29 117h40
q0 -46 20 -78.5t59 -32.5t58.5 32.5t19.5 78.5h41q0 -72 -29 -117z" />
    <glyph glyph-name="obreve" unicode="&#x14f;" horiz-adv-x="549" 
d="M111.5 60.5q-57.5 72.5 -57.5 193.5q0 122 57.5 194.5t162.5 72.5q106 0 163.5 -72.5t57.5 -194.5q0 -121 -57.5 -193.5t-163.5 -72.5q-105 0 -162.5 72.5zM165.5 103q35.5 -55 108.5 -55t108.5 55t35.5 151q0 97 -35.5 152t-108.5 55t-108.5 -55t-35.5 -152
q0 -96 35.5 -151zM365 625q-29 -45 -90 -45t-90 45t-29 117h40q0 -46 20 -78.5t59 -32.5t58.5 32.5t19.5 78.5h41q0 -72 -29 -117z" />
    <glyph glyph-name="OE" unicode="&#x152;" horiz-adv-x="842" 
d="M806 627h-317v-244h239v-63h-239v-257h317v-63h-387q-40 -12 -86 -12q-138 0 -210.5 96.5t-72.5 260.5t72.5 260.5t210.5 96.5q46 0 86 -12h387v-63zM178.5 131.5q50.5 -77.5 155.5 -77.5q43 0 79 14v554q-36 14 -79 14q-105 0 -155.5 -77.5t-50.5 -213.5t50.5 -213.5z
" />
    <glyph glyph-name="oe" unicode="&#x153;" horiz-adv-x="878" 
d="M111.5 60.5q-57.5 72.5 -57.5 193.5q0 122 57.5 194.5t161.5 72.5q63 0 109 -28.5t72 -81.5q24 53 68 81.5t104 28.5q93 0 145.5 -66.5t52.5 -188.5q0 -22 -2 -34h-331q2 -86 41.5 -135.5t118.5 -49.5q34 0 71.5 9t70.5 26v-61q-33 -16 -73.5 -24.5t-76.5 -8.5
q-67 0 -114 29t-74 84q-25 -54 -71 -83.5t-111 -29.5q-104 0 -161.5 72.5zM165.5 103q35.5 -55 108.5 -55t108.5 55t35.5 151q0 97 -35.5 152t-108.5 55t-108.5 -55t-35.5 -152q0 -96 35.5 -151zM754 284v4q0 79 -32 128t-97 49q-72 0 -101.5 -55.5t-32.5 -125.5h263z" />
    <glyph glyph-name="Scedilla" unicode="&#x15e;" horiz-adv-x="520" 
d="M123 653.5q61 48.5 161 48.5q39 0 80 -7.5t73 -20.5v-69q-36 14 -78 22.5t-79 8.5q-64 0 -101.5 -29.5t-37.5 -87.5q0 -49 27 -75t86 -49l63 -24q73 -28 113 -73.5t40 -116.5q0 -89 -60.5 -141t-159.5 -52q-52 0 -106.5 14t-93.5 39v71q43 -26 97.5 -42t104.5 -16
q65 0 102.5 31.5t37.5 89.5q0 51 -29.5 80.5t-94.5 54.5l-53 20q-77 29 -115 73t-38 112q0 90 61 138.5zM269 -142q21 0 33.5 7.5t12.5 21.5q0 27 -43 27q-16 0 -33 -3v39q20 4 45 4q37 0 59.5 -17.5t22.5 -47.5q0 -32 -24 -51.5t-67 -19.5l-46 2v41q23 -3 40 -3z" />
    <glyph glyph-name="scedilla" unicode="&#x15f;" horiz-adv-x="428" 
d="M101 484.5q49 36.5 130 36.5q30 0 64 -4.5t56 -11.5v-63q-25 10 -60 16.5t-62 6.5q-47 0 -76 -20.5t-29 -60.5q0 -32 19.5 -50t64.5 -37l39 -15q65 -24 100 -55.5t35 -90.5q0 -69 -48 -108.5t-131 -39.5q-40 0 -83 10.5t-73 28.5v63q33 -20 75 -32.5t81 -12.5q50 0 78 23
t28 62q0 35 -21.5 53t-72.5 39l-44 18q-58 23 -88.5 54t-30.5 86q0 68 49 104.5zM203 -142q21 0 33.5 7.5t12.5 21.5q0 27 -43 27q-16 0 -33 -3v39q20 4 45 4q37 0 59.5 -17.5t22.5 -47.5q0 -32 -24 -51.5t-67 -19.5l-46 2v41q23 -3 40 -3z" />
    <glyph glyph-name="Scaron" unicode="&#x160;" horiz-adv-x="520" 
d="M123 653.5q61 48.5 161 48.5q39 0 80 -7.5t73 -20.5v-69q-36 14 -78 22.5t-79 8.5q-64 0 -101.5 -29.5t-37.5 -87.5q0 -49 27 -75t86 -49l63 -24q73 -28 113 -73.5t40 -116.5q0 -89 -60.5 -141t-159.5 -52q-52 0 -106.5 14t-93.5 39v71q43 -26 97.5 -42t104.5 -16
q65 0 102.5 31.5t37.5 89.5q0 51 -29.5 80.5t-94.5 54.5l-53 20q-77 29 -115 73t-38 112q0 90 61 138.5zM382 916l-87 -161h-68l-87 161v7h38l83 -109l83 109h38v-7z" />
    <glyph glyph-name="scaron" unicode="&#x161;" horiz-adv-x="428" 
d="M101 484.5q49 36.5 130 36.5q30 0 64 -4.5t56 -11.5v-63q-25 10 -60 16.5t-62 6.5q-47 0 -76 -20.5t-29 -60.5q0 -32 19.5 -50t64.5 -37l39 -15q65 -24 100 -55.5t35 -90.5q0 -69 -48 -108.5t-131 -39.5q-40 0 -83 10.5t-73 28.5v63q33 -20 75 -32.5t81 -12.5q50 0 78 23
t28 62q0 35 -21.5 53t-72.5 39l-44 18q-58 23 -88.5 54t-30.5 86q0 68 49 104.5zM324 735l-87 -161h-68l-87 161v7h38l83 -109l83 109h38v-7z" />
    <glyph glyph-name="Tcaron" unicode="&#x164;" horiz-adv-x="523" 
d="M484 626h-185v-626h-77v626h-183v64h445v-64zM383 916l-87 -161h-68l-87 161v7h38l83 -109l83 109h38v-7z" />
    <glyph glyph-name="tcaron" unicode="&#x165;" horiz-adv-x="354" 
d="M95 451h-63v42l64 12l23 141h51v-137h159v-58h-159v-325q0 -35 16 -55.5t48 -20.5q47 0 95 24v-63q-47 -23 -112 -23q-57 0 -89.5 34t-32.5 88v341zM228 768h57v-78l-19 -127h-38v205z" />
    <glyph glyph-name="Umacron" unicode="&#x16a;" horiz-adv-x="635" 
d="M488 51q-60 -63 -171 -63q-110 0 -170 63t-60 174v465h77v-463q0 -81 38.5 -127t114.5 -46q77 0 115.5 46t38.5 127v463h77v-465q0 -111 -60 -174zM430 865v-51h-225v51h225z" />
    <glyph glyph-name="umacron" unicode="&#x16b;" horiz-adv-x="561" 
d="M415 0l-12 63h-10q-31 -33 -72.5 -54t-87.5 -21q-66 0 -105 42t-39 116v363h75v-345q0 -53 26 -81.5t72 -28.5q37 0 71 17t60 46v392h75v-396l18 -113h-71zM391 684v-51h-225v51h225z" />
    <glyph glyph-name="Ubreve" unicode="&#x16c;" horiz-adv-x="635" 
d="M488 51q-60 -63 -171 -63q-110 0 -170 63t-60 174v465h77v-463q0 -81 38.5 -127t114.5 -46q77 0 115.5 46t38.5 127v463h77v-465q0 -111 -60 -174zM408 806q-29 -45 -90 -45t-90 45t-29 117h40q0 -46 20 -78.5t59 -32.5t58.5 32.5t19.5 78.5h41q0 -72 -29 -117z" />
    <glyph glyph-name="ubreve" unicode="&#x16d;" horiz-adv-x="561" 
d="M415 0l-12 63h-10q-31 -33 -72.5 -54t-87.5 -21q-66 0 -105 42t-39 116v363h75v-345q0 -53 26 -81.5t72 -28.5q37 0 71 17t60 46v392h75v-396l18 -113h-71zM369 625q-29 -45 -90 -45t-90 45t-29 117h40q0 -46 20 -78.5t59 -32.5t58.5 32.5t19.5 78.5h41q0 -72 -29 -117z
" />
    <glyph glyph-name="Uring" unicode="&#x16e;" horiz-adv-x="635" 
d="M488 51q-60 -63 -171 -63q-110 0 -170 63t-60 174v465h77v-463q0 -81 38.5 -127t114.5 -46q77 0 115.5 46t38.5 127v463h77v-465q0 -111 -60 -174zM268.5 786.5q-21.5 20.5 -21.5 52.5t21.5 52.5t55.5 20.5t55.5 -20.5t21.5 -52.5t-21.5 -52.5t-55.5 -20.5t-55.5 20.5z
M300 814.5q9 -9.5 24 -9.5t24 9.5t9 24.5t-9 24.5t-24 9.5t-24 -9.5t-9 -24.5t9 -24.5z" />
    <glyph glyph-name="uring" unicode="&#x16f;" horiz-adv-x="561" 
d="M415 0l-12 63h-10q-31 -33 -72.5 -54t-87.5 -21q-66 0 -105 42t-39 116v363h75v-345q0 -53 26 -81.5t72 -28.5q37 0 71 17t60 46v392h75v-396l18 -113h-71zM229.5 605.5q-21.5 20.5 -21.5 52.5t21.5 52.5t55.5 20.5t55.5 -20.5t21.5 -52.5t-21.5 -52.5t-55.5 -20.5
t-55.5 20.5zM261 633.5q9 -9.5 24 -9.5t24 9.5t9 24.5t-9 24.5t-24 9.5t-24 -9.5t-9 -24.5t9 -24.5z" />
    <glyph glyph-name="Wcircumflex" unicode="&#x174;" horiz-adv-x="969" 
d="M112 690l152 -613h9l162 613h108l162 -613h9l152 613h68l-174 -690h-104l-164 615h-12l-163 -615h-108l-174 690h77zM568 755l-83 109l-83 -109h-38v7l87 161h68l87 -161v-7h-38z" />
    <glyph glyph-name="wcircumflex" unicode="&#x175;" horiz-adv-x="786" 
d="M93 509l124 -441h9l118 441h106l117 -441h8l124 441h71l-152 -509h-101l-119 445h-10l-119 -445h-101l-151 509h76zM477 574l-83 109l-83 -109h-38v7l87 161h68l87 -161v-7h-38z" />
    <glyph glyph-name="Ycircumflex" unicode="&#x176;" horiz-adv-x="572" 
d="M113 690l171 -367h8l170 367h84l-221 -449v-241h-77v241l-222 449h87zM370 755l-83 109l-83 -109h-38v7l87 161h68l87 -161v-7h-38z" />
    <glyph glyph-name="ycircumflex" unicode="&#x177;" horiz-adv-x="472" 
d="M93 509l140 -441h10l140 441h72l-181 -543q-28 -85 -71 -131.5t-115 -46.5q-51 0 -96 15v63q23 -8 48.5 -12.5t44.5 -4.5q33 0 55 15.5t40 48t39 91.5h-35l-167 505h76zM319 574l-83 109l-83 -109h-38v7l87 161h68l87 -161v-7h-38z" />
    <glyph glyph-name="Ydieresis" unicode="&#x178;" horiz-adv-x="572" 
d="M113 690l171 -367h8l170 367h84l-221 -449v-241h-77v241l-222 449h87zM165 803.5q-13 13.5 -13 35.5t13 36t36 14q24 0 36 -13.5t12 -36.5t-12 -36t-36 -13q-23 0 -36 13.5zM339.5 875.5q12.5 13.5 35.5 13.5q24 0 36.5 -13.5t12.5 -36.5t-12.5 -36t-36.5 -13
q-23 0 -35.5 13.5t-12.5 35.5q0 23 12.5 36.5z" />
    <glyph glyph-name="Zacute" unicode="&#x179;" horiz-adv-x="565" 
d="M512 690v-48l-371 -581l374 3v-64h-465v48l371 581l-369 -3v64h460zM377 916l-81 -161h-46l49 168h78v-7z" />
    <glyph glyph-name="zacute" unicode="&#x17a;" horiz-adv-x="405" 
d="M370 509v-43l-274 -410l280 2v-58h-363v43l275 411l-270 -3v58h352zM297 735l-81 -161h-46l49 168h78v-7z" />
    <glyph glyph-name="Zdotaccent" unicode="&#x17b;" horiz-adv-x="565" 
d="M512 690v-48l-371 -581l374 3v-64h-465v48l371 581l-369 -3v64h460zM246 803.5q-13 13.5 -13 35.5t13 36t37 14q25 0 37.5 -13.5t12.5 -36.5t-12.5 -36t-37.5 -13q-24 0 -37 13.5z" />
    <glyph glyph-name="zdotaccent" unicode="&#x17c;" horiz-adv-x="405" 
d="M370 509v-43l-274 -410l280 2v-58h-363v43l275 411l-270 -3v58h352zM166 622.5q-13 13.5 -13 35.5t13 36t37 14q25 0 37.5 -13.5t12.5 -36.5t-12.5 -36t-37.5 -13q-24 0 -37 13.5z" />
    <glyph glyph-name="Zcaron" unicode="&#x17d;" horiz-adv-x="565" 
d="M512 690v-48l-371 -581l374 3v-64h-465v48l371 581l-369 -3v64h460zM404 916l-87 -161h-68l-87 161v7h38l83 -109l83 109h38v-7z" />
    <glyph glyph-name="zcaron" unicode="&#x17e;" horiz-adv-x="405" 
d="M370 509v-43l-274 -410l280 2v-58h-363v43l275 411l-270 -3v58h352zM324 735l-87 -161h-68l-87 161v7h38l83 -109l83 109h38v-7z" />
    <glyph glyph-name="uni0237" unicode="&#x237;" horiz-adv-x="263" 
d="M77 -126.5q17 23.5 17 64.5v571h75v-576q0 -66 -30.5 -104.5t-91.5 -40.5q-14 0 -21 1v61q34 0 51 23.5z" />
    <glyph glyph-name="circumflex" unicode="&#x2c6;" horiz-adv-x="353" 
d="M260 574l-83 109l-83 -109h-38v7l87 161h68l87 -161v-7h-38z" />
    <glyph glyph-name="caron" unicode="&#x2c7;" horiz-adv-x="353" 
d="M298 735l-87 -161h-68l-87 161v7h38l83 -109l83 109h38v-7z" />
    <glyph glyph-name="breve" unicode="&#x2d8;" horiz-adv-x="342" 
d="M261 625q-29 -45 -90 -45t-90 45t-29 117h40q0 -46 20 -78.5t59 -32.5t58.5 32.5t19.5 78.5h41q0 -72 -29 -117z" />
    <glyph glyph-name="dotaccent" unicode="&#x2d9;" horiz-adv-x="212" 
d="M69 622.5q-13 13.5 -13 35.5t13 36t37 14q25 0 37.5 -13.5t12.5 -36.5t-12.5 -36t-37.5 -13q-24 0 -37 13.5z" />
    <glyph glyph-name="ring" unicode="&#x2da;" horiz-adv-x="266" 
d="M77.5 605.5q-21.5 20.5 -21.5 52.5t21.5 52.5t55.5 20.5t55.5 -20.5t21.5 -52.5t-21.5 -52.5t-55.5 -20.5t-55.5 20.5zM109 633.5q9 -9.5 24 -9.5t24 9.5t9 24.5t-9 24.5t-24 9.5t-24 -9.5t-9 -24.5t9 -24.5z" />
    <glyph glyph-name="tilde" unicode="&#x2dc;" horiz-adv-x="337" 
d="M120 700q21 0 51 -15q30 -14 49 -14q32 0 57 29h4v-52q-27 -31 -63 -31q-22 0 -52 15q-30 14 -49 14q-33 0 -56 -29h-5v52q27 31 64 31z" />
    <glyph glyph-name="gravecomb" unicode="&#x300;" horiz-adv-x="0" 
d="M94 742l49 -168h-46l-81 161v7h78z" />
    <glyph glyph-name="acutecomb" unicode="&#x301;" horiz-adv-x="0" 
d="M188 735l-81 -161h-46l49 168h78v-7z" />
    <glyph glyph-name="uni0302" unicode="&#x302;" horiz-adv-x="0" 
d="M260 574l-83 109l-83 -109h-38v7l87 161h68l87 -161v-7h-38z" />
    <glyph glyph-name="tildecomb" unicode="&#x303;" horiz-adv-x="0" 
d="M120 700q21 0 51 -15q30 -14 49 -14q32 0 57 29h4v-52q-27 -31 -63 -31q-22 0 -52 15q-30 14 -49 14q-33 0 -56 -29h-5v52q27 31 64 31z" />
    <glyph glyph-name="uni0304" unicode="&#x304;" horiz-adv-x="0" 
d="M281 684v-51h-225v51h225z" />
    <glyph glyph-name="uni0306" unicode="&#x306;" horiz-adv-x="0" 
d="M261 625q-29 -45 -90 -45t-90 45t-29 117h40q0 -46 20 -78.5t59 -32.5t58.5 32.5t19.5 78.5h41q0 -72 -29 -117z" />
    <glyph glyph-name="uni0307" unicode="&#x307;" horiz-adv-x="0" 
d="M69 622.5q-13 13.5 -13 35.5t13 36t37 14q25 0 37.5 -13.5t12.5 -36.5t-12.5 -36t-37.5 -13q-24 0 -37 13.5z" />
    <glyph glyph-name="uni0308" unicode="&#x308;" horiz-adv-x="0" 
d="M76 622.5q-13 13.5 -13 35.5t13 36t36 14q24 0 36 -13.5t12 -36.5t-12 -36t-36 -13q-23 0 -36 13.5zM250.5 694.5q12.5 13.5 35.5 13.5q24 0 36.5 -13.5t12.5 -36.5t-12.5 -36t-36.5 -13q-23 0 -35.5 13.5t-12.5 35.5q0 23 12.5 36.5z" />
    <glyph glyph-name="uni030A" unicode="&#x30a;" horiz-adv-x="0" 
d="M77.5 605.5q-21.5 20.5 -21.5 52.5t21.5 52.5t55.5 20.5t55.5 -20.5t21.5 -52.5t-21.5 -52.5t-55.5 -20.5t-55.5 20.5zM109 633.5q9 -9.5 24 -9.5t24 9.5t9 24.5t-9 24.5t-24 9.5t-24 -9.5t-9 -24.5t9 -24.5z" />
    <glyph glyph-name="uni030C" unicode="&#x30c;" horiz-adv-x="0" 
d="M298 735l-87 -161h-68l-87 161v7h38l83 -109l83 109h38v-7z" />
    <glyph glyph-name="uni0327" unicode="&#x327;" horiz-adv-x="0" 
d="M69 -142q21 0 33.5 7.5t12.5 21.5q0 27 -43 27q-16 0 -33 -3v39q20 4 45 4q37 0 59.5 -17.5t22.5 -47.5q0 -32 -24 -51.5t-67 -19.5l-46 2v41q23 -3 40 -3z" />
    <glyph glyph-name="uni0335" unicode="&#x335;" horiz-adv-x="0" 
d="M367 314v-50h-317v50h317z" />
    <glyph glyph-name="uni0337" unicode="&#x337;" horiz-adv-x="0" 
d="M120 67l9 11l242 370l7 14l58 89h54l-69 -106l-9 -10l-242 -373l-6 -10l-62 -94h-54z" />
    <glyph glyph-name="uni0338" unicode="&#x338;" horiz-adv-x="0" 
d="M485 732h57l-421 -774h-57z" />
    <glyph glyph-name="Wgrave" unicode="&#x1e80;" horiz-adv-x="969" 
d="M112 690l152 -613h9l162 613h108l162 -613h9l152 613h68l-174 -690h-104l-164 615h-12l-163 -615h-108l-174 690h77zM469 923l49 -168h-46l-81 161v7h78z" />
    <glyph glyph-name="wgrave" unicode="&#x1e81;" horiz-adv-x="786" 
d="M93 509l124 -441h9l118 441h106l117 -441h8l124 441h71l-152 -509h-101l-119 445h-10l-119 -445h-101l-151 509h76zM377 742l49 -168h-46l-81 161v7h78z" />
    <glyph glyph-name="Wacute" unicode="&#x1e82;" horiz-adv-x="969" 
d="M112 690l152 -613h9l162 613h108l162 -613h9l152 613h68l-174 -690h-104l-164 615h-12l-163 -615h-108l-174 690h77zM579 916l-81 -161h-46l49 168h78v-7z" />
    <glyph glyph-name="wacute" unicode="&#x1e83;" horiz-adv-x="786" 
d="M93 509l124 -441h9l118 441h106l117 -441h8l124 441h71l-152 -509h-101l-119 445h-10l-119 -445h-101l-151 509h76zM488 735l-81 -161h-46l49 168h78v-7z" />
    <glyph glyph-name="Wdieresis" unicode="&#x1e84;" horiz-adv-x="969" 
d="M112 690l152 -613h9l162 613h108l162 -613h9l152 613h68l-174 -690h-104l-164 615h-12l-163 -615h-108l-174 690h77zM363 803.5q-13 13.5 -13 35.5t13 36t36 14q24 0 36 -13.5t12 -36.5t-12 -36t-36 -13q-23 0 -36 13.5zM537.5 875.5q12.5 13.5 35.5 13.5
q24 0 36.5 -13.5t12.5 -36.5t-12.5 -36t-36.5 -13q-23 0 -35.5 13.5t-12.5 35.5q0 23 12.5 36.5z" />
    <glyph glyph-name="wdieresis" unicode="&#x1e85;" horiz-adv-x="786" 
d="M93 509l124 -441h9l118 441h106l117 -441h8l124 441h71l-152 -509h-101l-119 445h-10l-119 -445h-101l-151 509h76zM272 622.5q-13 13.5 -13 35.5t13 36t36 14q24 0 36 -13.5t12 -36.5t-12 -36t-36 -13q-23 0 -36 13.5zM446.5 694.5q12.5 13.5 35.5 13.5q24 0 36.5 -13.5
t12.5 -36.5t-12.5 -36t-36.5 -13q-23 0 -35.5 13.5t-12.5 35.5q0 23 12.5 36.5z" />
    <glyph glyph-name="Ygrave" unicode="&#x1ef2;" horiz-adv-x="572" 
d="M113 690l171 -367h8l170 367h84l-221 -449v-241h-77v241l-222 449h87zM270 923l49 -168h-46l-81 161v7h78z" />
    <glyph glyph-name="ygrave" unicode="&#x1ef3;" horiz-adv-x="472" 
d="M93 509l140 -441h10l140 441h72l-181 -543q-28 -85 -71 -131.5t-115 -46.5q-51 0 -96 15v63q23 -8 48.5 -12.5t44.5 -4.5q33 0 55 15.5t40 48t39 91.5h-35l-167 505h76zM220 742l49 -168h-46l-81 161v7h78z" />
    <glyph glyph-name="endash" unicode="&#x2013;" horiz-adv-x="391" 
d="M391 287v-56h-391v56h391z" />
    <glyph glyph-name="emdash" unicode="&#x2014;" horiz-adv-x="681" 
d="M681 287v-56h-681v56h681z" />
    <glyph glyph-name="quoteleft" unicode="&#x2018;" horiz-adv-x="259" 
d="M137 578q23 -2 35.5 -16.5t12.5 -37.5q0 -25 -14 -40t-42 -15t-41.5 15.5t-13.5 49.5q0 42 19 102.5t45 103.5h41q-34 -91 -42 -162z" />
    <glyph glyph-name="quoteright" unicode="&#x2019;" horiz-adv-x="259" 
d="M122 632q-23 2 -35.5 17t-12.5 38q0 25 14.5 40t42.5 15t41 -16t13 -49q0 -42 -19 -103t-45 -103h-40q33 85 41 161z" />
    <glyph glyph-name="quotesinglbase" unicode="&#x201a;" horiz-adv-x="259" 
d="M122 -11q-23 2 -35.5 17t-12.5 38q0 25 14.5 40t42.5 15t41 -16t13 -49q0 -42 -19 -103t-45 -103h-40q33 85 41 161z" />
    <glyph glyph-name="quotedblleft" unicode="&#x201c;" horiz-adv-x="429" 
d="M306 568q23 -2 35.5 -16.5t12.5 -37.5q0 -25 -14 -40t-42 -15t-41.5 15.5t-13.5 49.5q0 42 19 102.5t45 103.5h41q-34 -91 -42 -162zM137 568q23 -2 35.5 -16.5t12.5 -37.5q0 -25 -14 -40t-42 -15t-41.5 15.5t-13.5 49.5q0 42 19 102.5t45 103.5h41q-34 -91 -42 -162z
" />
    <glyph glyph-name="quotedblright" unicode="&#x201d;" horiz-adv-x="429" 
d="M291 632q-23 2 -35.5 17t-12.5 38q0 25 14.5 40t42.5 15t41 -16t13 -49q0 -42 -19 -103t-45 -103h-40q33 85 41 161zM122 632q-23 2 -35.5 17t-12.5 38q0 25 14.5 40t42.5 15t41 -16t13 -49q0 -42 -19 -103t-45 -103h-40q33 85 41 161z" />
    <glyph glyph-name="quotedblbase" unicode="&#x201e;" horiz-adv-x="429" 
d="M291 -11q-23 2 -35.5 17t-12.5 38q0 25 14.5 40t42.5 15t41 -16t13 -49q0 -42 -19 -103t-45 -103h-40q33 85 41 161zM122 -11q-23 2 -35.5 17t-12.5 38q0 25 14.5 40t42.5 15t41 -16t13 -49q0 -42 -19 -103t-45 -103h-40q33 85 41 161z" />
    <glyph glyph-name="dagger" unicode="&#x2020;" horiz-adv-x="517" 
d="M221 476h-167v59h167v195h75v-195h167v-59h-167v-476h-75v476z" />
    <glyph glyph-name="daggerdbl" unicode="&#x2021;" horiz-adv-x="517" 
d="M221 195h-167v59h167v222h-167v59h167v195h75v-195h167v-59h-167v-222h167v-59h-167v-195h-75v195z" />
    <glyph glyph-name="bullet" unicode="&#x2022;" horiz-adv-x="350" 
d="M115.5 287.5q-21.5 22.5 -21.5 57.5q0 36 21.5 58.5t60.5 22.5t59.5 -22.5t20.5 -58.5q0 -35 -21 -57.5t-59 -22.5q-39 0 -60.5 22.5z" />
    <glyph glyph-name="ellipsis" unicode="&#x2026;" horiz-adv-x="725" 
d="M551.5 3q-14.5 15 -14.5 41t14.5 41t42.5 15t42.5 -15t14.5 -41t-14.5 -41t-42.5 -15t-42.5 15zM320.5 3q-14.5 15 -14.5 41t14.5 41t42.5 15t42.5 -15t14.5 -41t-14.5 -41t-42.5 -15t-42.5 15zM88.5 3q-14.5 15 -14.5 41t14.5 41t42.5 15t42.5 -15t14.5 -41t-14.5 -41
t-42.5 -15t-42.5 15z" />
    <glyph glyph-name="perthousand" unicode="&#x2030;" horiz-adv-x="1150" 
d="M61 389.5q-41 50.5 -41 128.5t41 128t113 50t113 -50t41 -128t-41 -128.5t-113 -50.5t-113 50.5zM98.5 419q25.5 -38 75.5 -38t75.5 38t25.5 99t-25.5 99t-75.5 38t-75.5 -38t-25.5 -99t25.5 -99zM639 690h56l-562 -690h-56zM486 301q41 50 113 50t113 -50t41 -128
t-41 -128.5t-113 -50.5t-113 50.5t-41 128.5t41 128zM524 74q25 -38 75 -38t75.5 38t25.5 99t-25.5 99t-75.5 38t-75 -38t-25 -99t25 -99zM862 301q41 50 113 50t113.5 -50t41.5 -128t-41.5 -128.5t-113.5 -50.5t-113 50.5t-41 128.5t41 128zM900.5 74q25.5 -38 74.5 -38
q50 0 75.5 38t25.5 99t-25.5 99t-75.5 38q-49 0 -74.5 -38t-25.5 -99t25.5 -99z" />
    <glyph glyph-name="guilsinglleft" unicode="&#x2039;" horiz-adv-x="310" 
d="M115 258v-7l162 -195h-73l-151 180v37l151 180h73z" />
    <glyph glyph-name="guilsinglright" unicode="&#x203a;" horiz-adv-x="310" 
d="M195 251v7l-162 195h73l151 -180v-37l-151 -180h-73z" />
    <glyph glyph-name="fraction" unicode="&#x2044;" horiz-adv-x="630" 
d="M568 690h56l-562 -690h-56z" />
    <glyph glyph-name="colonmonetary" unicode="&#x20a1;" horiz-adv-x="561" 
d="M431.5 627.5q-40.5 7.5 -75.5 7.5q-108 0 -163 -77.5t-55 -212.5t55 -212.5t163 -77.5q34 0 75.5 6.5t67.5 17.5v-71q-29 -9 -68.5 -14.5t-72.5 -5.5q-23 0 -34 1l-21 -106h-44l22 113q-31 7 -63 23l-27 -136h-45l33 160q-59 45 -89 122.5t-30 179.5q0 144 59 237
t172 114l22 109h44l-21 -104q7 1 21 1q13 0 47 -2l21 105h45l-23 -111q36 -8 52 -14v-71q-27 11 -67.5 18.5z" />
    <glyph glyph-name="Euro" unicode="&#x20ac;" horiz-adv-x="561" 
d="M431.5 627.5q-40.5 7.5 -75.5 7.5q-88 0 -141.5 -53t-69.5 -147h210v-46h-215q-2 -28 -2 -44t2 -44h215v-46h-210q16 -95 69 -147.5t142 -52.5q34 0 75.5 6.5t67.5 17.5v-71q-29 -9 -68.5 -14.5t-72.5 -5.5q-144 0 -221 96.5t-77 260.5t76.5 260.5t220.5 96.5
q35 0 74 -5.5t68 -16.5v-71q-27 11 -67.5 18.5z" />
    <glyph glyph-name="uni20B2" unicode="&#x20b2;" horiz-adv-x="635" 
d="M461 629.5q-40 6.5 -78 6.5q-128 0 -191.5 -77.5t-63.5 -213.5q0 -138 58 -214.5t180 -76.5q51 0 111 9v264h73v-316q-36 -11 -87.5 -17t-92.5 -6v-105h-54v108q-133 15 -199.5 109t-66.5 245q0 149 70.5 243t206.5 111v106h53v-103h5q79 0 145 -20v-69q-29 10 -69 16.5z
" />
    <glyph glyph-name="trademark" unicode="&#x2122;" horiz-adv-x="813" 
d="M276 647h-100v-336h-54v336h-99v43h253v-43zM362 690h74l103 -323h7l103 323h74l44 -379h-54l-22 212q-6 49 -9 111h-4l-106 -323h-64l-107 323h-4q-2 -22 -2 -31q-4 -51 -7 -79l-22 -213h-47z" />
    <glyph glyph-name="uni2153" unicode="&#x2153;" horiz-adv-x="577" 
d="M87 643l-81 -40v42l94 45h39v-345h-52v298zM510 690h56l-562 -690h-56zM428 351q49 0 78.5 -21t29.5 -56q0 -28 -19 -48t-52 -32v-2q38 -6 60 -28t22 -58q0 -58 -55.5 -85t-151.5 -27v41q153 0 153 76q0 54 -76 54q-22 0 -48 -3v36q56 8 85 23.5t29 42.5q0 22 -16.5 34.5
t-45.5 12.5q-18 0 -40.5 -5t-40.5 -13v40q39 18 88 18z" />
    <glyph glyph-name="uni2154" unicode="&#x2154;" horiz-adv-x="645" 
d="M26 345v43l97 108q28 30 41.5 52t13.5 48q0 28 -17 43.5t-50 15.5q-40 0 -78 -19v44q43 16 89 16q50 0 80 -24t30 -68q0 -33 -18 -62.5t-57 -69.5l-75 -79v-6h159v-42h-215zM578 690h56l-562 -690h-56zM496 351q49 0 78.5 -21t29.5 -56q0 -28 -19 -48t-52 -32v-2
q38 -6 60 -28t22 -58q0 -58 -55.5 -85t-151.5 -27v41q153 0 153 76q0 54 -76 54q-22 0 -48 -3v36q56 8 85 23.5t29 42.5q0 22 -16.5 34.5t-45.5 12.5q-18 0 -40.5 -5t-40.5 -13v40q39 18 88 18z" />
    <glyph glyph-name="oneeighth" unicode="&#x215b;" horiz-adv-x="615" 
d="M87 643l-81 -40v42l94 45h39v-345h-52v298zM510 690h56l-562 -690h-56zM355.5 133q20.5 23 55.5 36v3q-31 15 -48 35t-17 50q0 41 31.5 67.5t83.5 26.5q49 0 80.5 -23.5t31.5 -60.5q0 -27 -18 -49.5t-48 -35.5v-4q37 -16 57 -36t20 -54q0 -44 -35 -69t-91 -25
q-55 0 -89 23.5t-34 63.5q0 29 20.5 52zM404.5 45.5q20.5 -16.5 55.5 -16.5q33 0 54 16t21 40q0 25 -21 39.5t-67 32.5q-29 -10 -46 -29t-17 -41q0 -25 20.5 -41.5zM413 222.5q20 -14.5 61 -30.5q23 11 37.5 28t14.5 40q0 25 -18.5 40.5t-48.5 15.5q-29 0 -47.5 -15
t-18.5 -38q0 -26 20 -40.5z" />
    <glyph glyph-name="threeeighths" unicode="&#x215c;" horiz-adv-x="671" 
d="M116 696q49 0 78.5 -21t29.5 -56q0 -28 -19 -48t-52 -32v-2q38 -6 60 -28t22 -58q0 -58 -55.5 -85t-151.5 -27v41q153 0 153 76q0 54 -76 54q-22 0 -48 -3v36q56 8 85 23.5t29 42.5q0 22 -16.5 34.5t-45.5 12.5q-18 0 -40.5 -5t-40.5 -13v40q39 18 88 18zM566 690h56
l-562 -690h-56zM411.5 133q20.5 23 55.5 36v3q-31 15 -48 35t-17 50q0 41 31.5 67.5t83.5 26.5q49 0 80.5 -23.5t31.5 -60.5q0 -27 -18 -49.5t-48 -35.5v-4q37 -16 57 -36t20 -54q0 -44 -35 -69t-91 -25q-55 0 -89 23.5t-34 63.5q0 29 20.5 52zM460.5 45.5
q20.5 -16.5 55.5 -16.5q33 0 54 16t21 40q0 25 -21 39.5t-67 32.5q-29 -10 -46 -29t-17 -41q0 -25 20.5 -41.5zM469 222.5q20 -14.5 61 -30.5q23 11 37.5 28t14.5 40q0 25 -18.5 40.5t-48.5 15.5q-29 0 -47.5 -15t-18.5 -38q0 -26 20 -40.5z" />
    <glyph glyph-name="fiveeighths" unicode="&#x215d;" horiz-adv-x="675" 
d="M212.5 525.5q30.5 -23.5 30.5 -69.5q0 -60 -55 -88.5t-150 -28.5v41q151 0 151 75q0 55 -76 55q-43 0 -75 -8v188h191v-42h-148v-103q32 4 49 4q52 0 82.5 -23.5zM570 690h56l-562 -690h-56zM415.5 133q20.5 23 55.5 36v3q-31 15 -48 35t-17 50q0 41 31.5 67.5t83.5 26.5
q49 0 80.5 -23.5t31.5 -60.5q0 -27 -18 -49.5t-48 -35.5v-4q37 -16 57 -36t20 -54q0 -44 -35 -69t-91 -25q-55 0 -89 23.5t-34 63.5q0 29 20.5 52zM464.5 45.5q20.5 -16.5 55.5 -16.5q33 0 54 16t21 40q0 25 -21 39.5t-67 32.5q-29 -10 -46 -29t-17 -41q0 -25 20.5 -41.5z
M473 222.5q20 -14.5 61 -30.5q23 11 37.5 28t14.5 40q0 25 -18.5 40.5t-48.5 15.5q-29 0 -47.5 -15t-18.5 -38q0 -26 20 -40.5z" />
    <glyph glyph-name="seveneighths" unicode="&#x215e;" horiz-adv-x="665" 
d="M242 690v-28q-35 -47 -56.5 -87.5t-34.5 -96.5t-13 -133h-52q0 96 23.5 164.5t67.5 128.5v6h-155v46h220zM560 690h56l-562 -690h-56zM405.5 133q20.5 23 55.5 36v3q-31 15 -48 35t-17 50q0 41 31.5 67.5t83.5 26.5q49 0 80.5 -23.5t31.5 -60.5q0 -27 -18 -49.5
t-48 -35.5v-4q37 -16 57 -36t20 -54q0 -44 -35 -69t-91 -25q-55 0 -89 23.5t-34 63.5q0 29 20.5 52zM454.5 45.5q20.5 -16.5 55.5 -16.5q33 0 54 16t21 40q0 25 -21 39.5t-67 32.5q-29 -10 -46 -29t-17 -41q0 -25 20.5 -41.5zM463 222.5q20 -14.5 61 -30.5q23 11 37.5 28
t14.5 40q0 25 -18.5 40.5t-48.5 15.5q-29 0 -47.5 -15t-18.5 -38q0 -26 20 -40.5z" />
    <glyph glyph-name="partialdiff" unicode="&#x2202;" horiz-adv-x="583" 
d="M204 726q43 11 82 11q117 0 175 -97.5t58 -257.5q0 -106 -26.5 -195t-85.5 -144t-152 -55q-66 0 -115 28.5t-75 78.5t-26 113q0 67 28 117.5t76.5 78.5t108.5 28q59 0 110 -25t77 -61h5v28q0 148 -44.5 226t-136.5 78q-32 0 -68 -10.5t-70 -32.5v60q36 20 79 31z
M150.5 90.5q39.5 -43.5 105.5 -43.5q77 0 124 60t60 174q-27 42 -73 66.5t-100 24.5q-71 0 -113.5 -44t-42.5 -121q0 -73 39.5 -116.5z" />
    <glyph glyph-name="product" unicode="&#x220f;" horiz-adv-x="658" 
d="M603 626h-78v-726h-77v726h-238v-726h-76v726h-78v64h547v-64z" />
    <glyph glyph-name="summation" unicode="&#x2211;" horiz-adv-x="562" 
d="M512 626h-373l200 -331l-200 -331h373v-64h-462v49l210 346l-210 346v49h462v-64z" />
    <glyph glyph-name="minus" unicode="&#x2212;" horiz-adv-x="657" 
d="M74 313v63h509v-63h-509z" />
    <glyph glyph-name="radical" unicode="&#x221a;" horiz-adv-x="509" 
d="M94 359l105 -392h7l207 763h72l-232 -830h-103l-133 459h77z" />
    <glyph glyph-name="infinity" unicode="&#x221e;" horiz-adv-x="996" 
d="M796 137q36 22 57.5 62t21.5 92t-21.5 91.5t-59.5 61.5t-86 22q-68 0 -113.5 -44.5t-68.5 -123.5q30 -61 53.5 -97.5t57.5 -61t79 -24.5q44 0 80 22zM94.5 411q29.5 52 79.5 80.5t109 28.5q77 0 125 -44.5t92 -126.5q26 75 84 123t134 48q60 0 109 -29.5t76.5 -82
t27.5 -118.5q0 -68 -29.5 -120t-79 -80.5t-109.5 -28.5q-77 0 -126 45t-91 126q-26 -75 -83 -123t-134 -48q-60 0 -109 29.5t-77 81.5t-28 118q0 69 29.5 121zM142.5 199q21.5 -40 59 -62t85.5 -22q67 0 113.5 44.5t69.5 123.5q-30 61 -53.5 97.5t-57.5 61t-79 24.5
q-43 0 -79.5 -22t-58 -62t-21.5 -92q0 -51 21.5 -91z" />
    <glyph glyph-name="integral" unicode="&#x222b;" horiz-adv-x="471" 
d="M54.5 -42.5q23.5 -5.5 42.5 -5.5q37 0 55.5 24.5t23.5 77.5l42 490q6 76 42 117t108 41q44 0 90 -16l-3 -64q-19 8 -42.5 13.5t-41.5 5.5q-37 0 -55.5 -23.5t-22.5 -78.5l-43 -490q-13 -159 -150 -159q-44 0 -90 17l3 64q18 -8 41.5 -13.5z" />
    <glyph glyph-name="approxequal" unicode="&#x2248;" horiz-adv-x="657" 
d="M518.5 408q-36.5 -12 -72.5 -12q-31 0 -57.5 8t-63.5 24q-34 15 -60.5 23t-56.5 8q-36 0 -72 -12.5t-62 -33.5v60q28 22 64.5 34t72.5 12q31 0 57.5 -8t63.5 -24q34 -15 60.5 -23t56.5 -8q36 0 72 12.5t62 33.5v-60q-28 -22 -64.5 -34zM518.5 182q-36.5 -12 -72.5 -12
q-31 0 -57.5 8t-63.5 24q-34 15 -60.5 23t-56.5 8q-36 0 -72 -12.5t-62 -33.5v60q28 22 64.5 34t72.5 12q31 0 57.5 -8t63.5 -24q34 -15 60.5 -23t56.5 -8q36 0 72 12.5t62 33.5v-60q-28 -22 -64.5 -34z" />
    <glyph glyph-name="notequal" unicode="&#x2260;" horiz-adv-x="657" 
d="M288 195l-86 -195h-53l86 195h-161v63h189l77 174h-266v63h294l86 195h53l-86 -195h162v-63h-190l-77 -174h267v-63h-295z" />
    <glyph glyph-name="lessequal" unicode="&#x2264;" horiz-adv-x="619" 
d="M50 361v93l505 130v-64l-451 -111v-3l451 -112v-63zM51 159h509v-60h-509v60z" />
    <glyph glyph-name="greaterequal" unicode="&#x2265;" horiz-adv-x="619" 
d="M64 294l451 111v5l-451 110v64l505 -130v-93l-505 -130v63zM59 159h509v-60h-509v60z" />
    <glyph glyph-name="lozenge" unicode="&#x25ca;" horiz-adv-x="625" 
d="M272 690h80l208 -345l-208 -345h-80l-207 345zM307 47h10l178 298l-178 298h-10l-176 -298z" />
    <glyph glyph-name="space.frac" horiz-adv-x="100" 
 />
    <glyph glyph-name="space.tf" 
 />
    <glyph glyph-name="space.sinf" horiz-adv-x="176" 
 />
    <glyph glyph-name="space.sups" horiz-adv-x="176" 
 />
    <glyph glyph-name="uni004A0301" horiz-adv-x="363" 
d="M45 58q26 -4 45 -4q56 0 82.5 33t26.5 91v512h77v-513q0 -88 -45.5 -138.5t-135.5 -50.5q-51 0 -92 10v69q16 -5 42 -9zM331 916l-81 -161h-46l49 168h78v-7z" />
    <glyph glyph-name="uni006A0301" horiz-adv-x="263" 
d="M77 -126.5q17 23.5 17 64.5v571h75v-576q0 -66 -30.5 -104.5t-91.5 -40.5q-14 0 -21 1v61q34 0 51 23.5zM225 735l-81 -161h-46l49 168h78v-7z" />
    <glyph glyph-name="A.sups" horiz-adv-x="408" 
d="M325 357l-40 130h-163l-40 -130h-57l139 449h81l138 -449h-58zM274 533l-68 212h-6l-67 -212h141z" />
    <glyph glyph-name="B.sups" horiz-adv-x="415" 
d="M75 806h156q55 0 87 -29.5t32 -79.5q0 -35 -17 -61t-47 -40v-3q40 -11 61 -40.5t21 -72.5q0 -57 -35.5 -90t-96.5 -33h-161v449zM222 401q44 0 66.5 21.5t22.5 62.5q0 40 -22.5 61.5t-66.5 21.5h-89v-167h89zM217 609q39 0 58.5 20t19.5 57q0 76 -79 76h-83v-153h84z" />
    <glyph glyph-name="C.sups" horiz-adv-x="380" 
d="M287.5 758q-26.5 5 -48.5 5q-69 0 -103 -48t-34 -134q0 -85 34 -133t102 -48q22 0 49 4t44 11v-52q-19 -7 -44.5 -10.5t-47.5 -3.5q-95 0 -146 63t-51 169q0 107 51 169.5t145 62.5q55 0 93 -14v-53q-17 7 -43.5 12z" />
    <glyph glyph-name="D.sups" horiz-adv-x="461" 
d="M229 806q92 0 141 -60t49 -165q0 -104 -49.5 -164t-140.5 -60h-154v449h154zM229 406q67 0 98.5 46t31.5 129q0 84 -31.5 130t-98.5 46h-96v-351h96z" />
    <glyph glyph-name="E.sups" horiz-adv-x="379" 
d="M334 806v-47h-201v-150h150v-47h-150v-157h201v-48h-259v449h259z" />
    <glyph glyph-name="F.sups" horiz-adv-x="361" 
d="M322 806v-48h-189v-164h150v-48h-150v-189h-58v449h247z" />
    <glyph glyph-name="G.sups" horiz-adv-x="438" 
d="M260 764q-80 0 -119 -48.5t-39 -134.5t36 -133.5t113 -47.5q24 0 64 5v166h56v-207q-25 -7 -60 -11t-61 -4q-103 0 -155.5 62.5t-52.5 169.5q0 108 56 170t163 62q55 0 97 -13v-51q-51 15 -98 15z" />
    <glyph glyph-name="H.sups" horiz-adv-x="466" 
d="M133 806v-195h200v195h58v-449h-58v205h-200v-205h-58v449h58z" />
    <glyph glyph-name="I.sups" horiz-adv-x="208" 
d="M133 806v-449h-58v449h58z" />
    <glyph glyph-name="J.sups" horiz-adv-x="266" 
d="M64 400q69 0 69 78v328h59v-329q0 -60 -31 -94t-92 -34q-25 0 -60 7v51q25 -7 55 -7z" />
    <glyph glyph-name="K.sups" horiz-adv-x="409" 
d="M133 806v-226h5l176 226h61l-135 -179l143 -270h-64l-121 228h-4l-61 -81v-147h-58v449h58z" />
    <glyph glyph-name="L.sups" horiz-adv-x="349" 
d="M133 806v-400h178v-49h-236v449h58z" />
    <glyph glyph-name="M.sups" horiz-adv-x="660" 
d="M326 420h8l125 386h81l52 -449h-59l-27 254q-7 69 -11 133h-5l-128 -387h-70l-129 387h-5q-5 -81 -11 -131l-27 -256h-52l51 449h82z" />
    <glyph glyph-name="N.sups" horiz-adv-x="466" 
d="M75 806h55l212 -365h4q-9 81 -9 164v201h54v-449h-55l-212 365h-4q8 -72 8 -163v-202h-53v449z" />
    <glyph glyph-name="O.sups" horiz-adv-x="457" 
d="M90 410.5q-48 61.5 -48 170.5t48 170.5t139 61.5t138.5 -61.5t47.5 -170.5t-47.5 -170.5t-138.5 -61.5t-139 61.5zM133 447q31 -47 96 -47t95.5 47t30.5 134t-30.5 135t-95.5 48t-96 -48t-31 -135t31 -134z" />
    <glyph glyph-name="P.sups" horiz-adv-x="381" 
d="M75 806h135q64 0 100.5 -38.5t36.5 -104.5q0 -67 -36.5 -105.5t-100.5 -38.5h-77v-162h-58v449zM201 567q89 0 89 96t-89 96h-68v-192h68z" />
    <glyph glyph-name="Q.sups" horiz-adv-x="457" 
d="M324.5 447q30.5 47 30.5 134t-30.5 135t-95.5 48t-96 -48t-31 -135t31 -134t96 -47t95.5 47zM90 751.5q48 61.5 139 61.5t138.5 -61.5t47.5 -170.5q0 -105 -44.5 -166.5t-128.5 -65.5q31 -83 108 -83q32 0 65 11v-48q-35 -10 -66 -10q-111 0 -160 133q-72 13 -109.5 73
t-37.5 156q0 109 48 170.5z" />
    <glyph glyph-name="R.sups" horiz-adv-x="402" 
d="M75 806h146q58 0 91.5 -32t33.5 -91q0 -45 -20 -77t-55 -45v-4l92 -200h-61l-83 185h-86v-185h-58v449zM204 584q43 0 65 24t22 68q0 86 -87 86h-71v-178h71z" />
    <glyph glyph-name="S.sups" horiz-adv-x="355" 
d="M85.5 781q40.5 32 107.5 32q59 0 102 -17v-52q-56 20 -104 20q-39 0 -62.5 -17.5t-23.5 -52.5q0 -54 73 -78l32 -12q51 -17 79 -47t28 -79q0 -59 -40.5 -94t-106.5 -35q-34 0 -70 9t-62 25v54q28 -17 64.5 -27.5t67.5 -10.5q41 0 64 20t23 56q0 30 -18.5 48t-55.5 31
l-36 13q-102 36 -102 123q0 59 40.5 91z" />
    <glyph glyph-name="T.sups" horiz-adv-x="372" 
d="M334 758h-119v-401h-59v401h-118v48h296v-48z" />
    <glyph glyph-name="U.sups" horiz-adv-x="454" 
d="M339.5 391q-40.5 -42 -113.5 -42t-113 42t-40 114v301h60v-300q0 -50 23 -78t70 -28t71.5 28.5t24.5 77.5v300h58v-301q0 -72 -40.5 -114z" />
    <glyph glyph-name="V.sups" horiz-adv-x="395" 
d="M84 806l112 -387h6l111 387h57l-132 -449h-81l-132 449h59z" />
    <glyph glyph-name="W.sups" horiz-adv-x="649" 
d="M84 806l97 -391h5l100 391h83l100 -391h6l96 391h53l-113 -449h-80l-101 393h-8l-101 -393h-82l-114 449h59z" />
    <glyph glyph-name="X.sups" horiz-adv-x="402" 
d="M93 806l108 -186h4l107 186h61l-125 -220l131 -229h-64l-115 198h-1l-114 -198h-62l131 228l-125 221h64z" />
    <glyph glyph-name="Y.sups" horiz-adv-x="387" 
d="M86 806l106 -233h5l106 233h63l-143 -293v-156h-59v156l-144 293h66z" />
    <glyph glyph-name="Z.sups" horiz-adv-x="358" 
d="M330 806v-37l-236 -366l239 3v-49h-308v37l235 366l-233 -3v49h303z" />
    <glyph glyph-name="a.sups" horiz-adv-x="334" 
d="M227 395h-6q-41 -46 -96 -46q-43 0 -69 26.5t-26 71.5q0 50 33.5 76t95.5 26q31 0 58 -4v37q0 33 -18.5 51.5t-53.5 18.5q-23 0 -49 -6.5t-44 -17.5v46q20 10 47.5 16.5t54.5 6.5q57 0 88.5 -29t31.5 -83v-151l12 -77h-48zM96.5 404.5q14.5 -15.5 41.5 -15.5q22 0 43 11
t36 29v81l-52 2q-83 0 -83 -65q0 -27 14.5 -42.5z" />
    <glyph glyph-name="b.sups" horiz-adv-x="377" 
d="M60 832h57v-185h6q33 50 94 50q57 0 91 -46t34 -125q0 -84 -41 -130.5t-120 -46.5q-30 0 -64 6.5t-57 15.5v461zM184 396q51 0 75.5 33.5t24.5 94.5q0 60 -21 94t-62 34q-38 0 -61 -28t-23 -74v-144q40 -10 67 -10z" />
    <glyph glyph-name="c.sups" horiz-adv-x="299" 
d="M220 647q-19 4 -35 4q-45 0 -68 -33.5t-23 -93.5q0 -61 23.5 -94.5t70.5 -33.5q32 0 64 15v-47q-33 -15 -69 -15q-70 0 -109.5 47.5t-39.5 127.5q0 79 39.5 126t112.5 47q36 0 66 -11v-48q-13 5 -32 9z" />
    <glyph glyph-name="d.sups" horiz-adv-x="376" 
d="M273 357l-9 47h-6q-15 -24 -40.5 -39.5t-57.5 -15.5q-57 0 -91.5 46.5t-34.5 123.5q0 83 41 130.5t108 47.5q44 0 76 -21v156h57v-398l12 -77h-55zM114 430q21 -34 62 -34q38 0 60.5 27t22.5 74v133q-34 22 -72 22q-46 0 -70 -34.5t-24 -95.5q0 -58 21 -92z" />
    <glyph glyph-name="e.sups" horiz-adv-x="339" 
d="M235.5 355q-26.5 -6 -50.5 -6q-73 0 -112 47.5t-39 128.5q0 80 36.5 126t101.5 46q62 0 97 -43t35 -122q0 -17 -1 -26h-213q2 -53 26.5 -83t74.5 -30q22 0 47 6t46 17v-45q-22 -10 -48.5 -16zM252 545v2q0 49 -20 78.5t-60 29.5q-43 0 -61.5 -33.5t-20.5 -76.5h162z" />
    <glyph glyph-name="f.sups" horiz-adv-x="236" 
d="M89 813.5q24 25.5 72 25.5q30 0 64 -9v-50q-13 6 -31 9.5t-31 3.5q-43 0 -43 -54v-53h100v-44h-98v-285h-57v285h-39v31l39 9v60q0 46 24 71.5z" />
    <glyph glyph-name="g.sups" horiz-adv-x="337" 
d="M119 454q-10 -15 -10 -30q0 -33 42 -33h76q44 0 67 -19t23 -55q0 -46 -41.5 -72t-115.5 -26q-71 0 -138 24v42q31 -11 68.5 -18t73.5 -7q48 0 74 13.5t26 37.5q0 16 -11 25t-31 9h-84q-38 0 -58 17t-20 45q0 18 9 32.5t23 24.5v3q-29 13 -45 41.5t-16 65.5
q0 56 34.5 89.5t89.5 33.5h1h3q36 0 82.5 -6t74.5 -14v-46q-26 12 -71 24v-6q16 -13 25 -33.5t9 -46.5q0 -54 -33.5 -86.5t-90.5 -32.5q-21 0 -36 4zM103.5 513.5q18.5 -22.5 51.5 -22.5t52.5 22.5t19.5 60.5t-19.5 60.5t-52.5 22.5t-51.5 -22.5t-18.5 -60.5t18.5 -60.5z
" />
    <glyph glyph-name="h.sups" horiz-adv-x="381" 
d="M117 832v-181h1q20 21 47.5 33.5t58.5 12.5q44 0 70.5 -27t26.5 -74v-239h-58v223q0 31 -17 49t-46 18q-44 0 -83 -37v-253h-57v475h57z" />
    <glyph glyph-name="i.sups" horiz-adv-x="185" 
d="M121 689v-332h-57v332h57zM65.5 810.5q9.5 9.5 27.5 9.5t27.5 -9.5t9.5 -25.5t-9.5 -25t-27.5 -9t-27.5 9.5t-9.5 24.5q0 16 9.5 25.5z" />
    <glyph glyph-name="j.sups" horiz-adv-x="185" 
d="M53.5 280.5q10.5 14.5 10.5 40.5v368h57v-371q0 -46 -21 -72.5t-62 -26.5q-5 0 -17 2v45q22 0 32.5 14.5zM66 810.5q9 9.5 27 9.5t27.5 -9.5t9.5 -25.5t-9.5 -25t-27.5 -9q-17 0 -26.5 9.5t-9.5 24.5q0 16 9 25.5z" />
    <glyph glyph-name="k.sups" horiz-adv-x="349" 
d="M60 832h57v-291h5l138 148h58l-97 -107l105 -225h-59l-87 186h-4l-59 -64v-122h-57v475z" />
    <glyph glyph-name="l.sups" horiz-adv-x="177" 
d="M60 832h57v-475h-57v475z" />
    <glyph glyph-name="m.sups" horiz-adv-x="569" 
d="M103 689l8 -41h6q19 22 46 35.5t57 13.5q29 0 51 -13.5t33 -37.5h5q21 22 48.5 36.5t58.5 14.5q43 0 68 -27.5t25 -74.5v-238h-57v223q0 31 -16 49t-44 18q-22 0 -42.5 -10t-36.5 -27q1 -5 1 -15v-238h-59v223q0 32 -15.5 49.5t-43.5 17.5q-22 0 -42.5 -9.5t-36.5 -26.5
v-254h-57v256l-12 76h55z" />
    <glyph glyph-name="n.sups" horiz-adv-x="381" 
d="M103 689l8 -41h6q20 22 48 35.5t59 13.5q44 0 70.5 -27t26.5 -74v-239h-58v223q0 31 -17 49t-46 18q-44 0 -83 -37v-253h-57v256l-12 76h55z" />
    <glyph glyph-name="o.sups" horiz-adv-x="362" 
d="M72.5 396q-38.5 47 -38.5 127t38.5 127t108.5 47t108 -47t38 -127t-38 -127t-108 -47t-108.5 47zM114.5 429.5q21.5 -33.5 66.5 -33.5t67 33.5t22 93.5t-22 94.5t-67 34.5t-66.5 -34.5t-21.5 -94.5t21.5 -93.5z" />
    <glyph glyph-name="p.sups" horiz-adv-x="376" 
d="M103 689l8 -46h7q15 24 40 39t58 15q58 0 92 -46.5t34 -123.5q0 -83 -41 -130.5t-108 -47.5q-44 0 -76 21v-143h-57v386l-12 76h55zM189 396q46 0 70 34t24 95q0 59 -21 93t-62 34q-37 0 -60 -28t-23 -74v-134q33 -20 72 -20z" />
    <glyph glyph-name="q.sups" horiz-adv-x="377" 
d="M317 227h-58v173h-7q-13 -23 -37 -37t-55 -14q-57 0 -91.5 46t-34.5 126q0 84 41 130t119 46q31 0 65.5 -6.5t57.5 -14.5v-449zM114 429q21 -33 62 -33q38 0 60.5 27t22.5 74v145q-40 10 -66 10q-51 0 -75.5 -34t-24.5 -96q0 -60 21 -93z" />
    <glyph glyph-name="r.sups" horiz-adv-x="248" 
d="M103 689l8 -46h6q17 25 41 39.5t51 14.5q12 0 19 -1v-56q-13 3 -27 3q-24 0 -46.5 -13t-37.5 -35v-238h-57v256l-12 76h55z" />
    <glyph glyph-name="s.sups" horiz-adv-x="302" 
d="M75 673.5q32 23.5 88 23.5q20 0 43 -3t37 -8v-46q-18 6 -41.5 10.5t-41.5 4.5q-28 0 -45.5 -12t-17.5 -36q0 -19 11 -30t33 -20l34 -13q42 -16 65 -36.5t23 -60.5q0 -45 -31.5 -71.5t-87.5 -26.5q-27 0 -56 6.5t-49 18.5v47q24 -13 52.5 -21t52.5 -8q30 0 47 14t17 37
q0 21 -12 31.5t-38 21.5l-36 14q-36 14 -57.5 34.5t-21.5 59.5q0 46 32 69.5z" />
    <glyph glyph-name="t.sups" horiz-adv-x="249" 
d="M65 646h-40v33l41 7l18 91h38v-88h101v-43h-101v-202q0 -22 10.5 -35t30.5 -13q30 0 60 15v-47q-31 -15 -74 -15q-39 0 -61.5 23.5t-22.5 61.5v212z" />
    <glyph glyph-name="u.sups" horiz-adv-x="371" 
d="M268 357l-8 41h-6q-20 -22 -46.5 -35.5t-57.5 -13.5q-42 0 -67 26.5t-25 74.5v239h57v-221q0 -33 15.5 -50.5t43.5 -17.5q22 0 42.5 10t36.5 27v252h57v-255l13 -77h-55z" />
    <glyph glyph-name="v.sups" horiz-adv-x="321" 
d="M73 689l85 -281h8l85 281h56l-107 -332h-79l-107 332h59z" />
    <glyph glyph-name="w.sups" horiz-adv-x="529" 
d="M72 689l76 -281h6l73 281h81l71 -281h7l75 281h54l-97 -332h-77l-74 284h-6l-74 -284h-76l-97 332h58z" />
    <glyph glyph-name="x.sups" horiz-adv-x="307" 
d="M77 689l77 -130l79 130h56l-96 -163l102 -169h-61l-81 139h-1l-84 -139h-56l101 172l-95 160h59z" />
    <glyph glyph-name="y.sups" horiz-adv-x="320" 
d="M72 689l86 -281h8l85 281h55l-114 -349q-17 -57 -47.5 -89t-81.5 -32q-29 0 -64 10v48q33 -11 62 -11q30 0 48.5 21.5t38.5 73.5h-28l-106 328h58z" />
    <glyph glyph-name="z.sups" horiz-adv-x="273" 
d="M250 689v-34l-171 -256l177 2v-44h-239v34l171 257l-166 -2v43h228z" />
    <glyph glyph-name="A.sinf" horiz-adv-x="408" 
d="M325 0l-40 130h-163l-40 -130h-57l139 449h81l138 -449h-58zM274 176l-68 212h-6l-67 -212h141z" />
    <glyph glyph-name="B.sinf" horiz-adv-x="415" 
d="M75 449h156q55 0 87 -29.5t32 -79.5q0 -35 -17 -61t-47 -40v-3q40 -11 61 -40.5t21 -72.5q0 -57 -35.5 -90t-96.5 -33h-161v449zM222 44q44 0 66.5 21.5t22.5 62.5q0 40 -22.5 61.5t-66.5 21.5h-89v-167h89zM217 252q39 0 58.5 20t19.5 57q0 76 -79 76h-83v-153h84z" />
    <glyph glyph-name="C.sinf" horiz-adv-x="380" 
d="M287.5 401q-26.5 5 -48.5 5q-69 0 -103 -48t-34 -134q0 -85 34 -133t102 -48q22 0 49 4t44 11v-52q-19 -7 -44.5 -10.5t-47.5 -3.5q-95 0 -146 63t-51 169q0 107 51 169.5t145 62.5q55 0 93 -14v-53q-17 7 -43.5 12z" />
    <glyph glyph-name="D.sinf" horiz-adv-x="461" 
d="M229 449q92 0 141 -60t49 -165q0 -104 -49.5 -164t-140.5 -60h-154v449h154zM229 49q67 0 98.5 46t31.5 129q0 84 -31.5 130t-98.5 46h-96v-351h96z" />
    <glyph glyph-name="E.sinf" horiz-adv-x="379" 
d="M334 449v-47h-201v-150h150v-47h-150v-157h201v-48h-259v449h259z" />
    <glyph glyph-name="F.sinf" horiz-adv-x="361" 
d="M322 449v-48h-189v-164h150v-48h-150v-189h-58v449h247z" />
    <glyph glyph-name="G.sinf" horiz-adv-x="438" 
d="M260 407q-80 0 -119 -48.5t-39 -134.5t36 -133.5t113 -47.5q24 0 64 5v166h56v-207q-25 -7 -60 -11t-61 -4q-103 0 -155.5 62.5t-52.5 169.5q0 108 56 170t163 62q55 0 97 -13v-51q-51 15 -98 15z" />
    <glyph glyph-name="H.sinf" horiz-adv-x="466" 
d="M133 449v-195h200v195h58v-449h-58v205h-200v-205h-58v449h58z" />
    <glyph glyph-name="I.sinf" horiz-adv-x="208" 
d="M133 449v-449h-58v449h58z" />
    <glyph glyph-name="J.sinf" horiz-adv-x="266" 
d="M64 43q69 0 69 78v328h59v-329q0 -60 -31 -94t-92 -34q-25 0 -60 7v51q25 -7 55 -7z" />
    <glyph glyph-name="K.sinf" horiz-adv-x="409" 
d="M133 449v-226h5l176 226h61l-135 -179l143 -270h-64l-121 228h-4l-61 -81v-147h-58v449h58z" />
    <glyph glyph-name="L.sinf" horiz-adv-x="349" 
d="M133 449v-400h178v-49h-236v449h58z" />
    <glyph glyph-name="M.sinf" horiz-adv-x="660" 
d="M326 63h8l125 386h81l52 -449h-59l-27 254q-7 69 -11 133h-5l-128 -387h-70l-129 387h-5q-5 -81 -11 -131l-27 -256h-52l51 449h82z" />
    <glyph glyph-name="N.sinf" horiz-adv-x="466" 
d="M75 449h55l212 -365h4q-9 81 -9 164v201h54v-449h-55l-212 365h-4q8 -72 8 -163v-202h-53v449z" />
    <glyph glyph-name="O.sinf" horiz-adv-x="457" 
d="M90 53.5q-48 61.5 -48 170.5t48 170.5t139 61.5t138.5 -61.5t47.5 -170.5t-47.5 -170.5t-138.5 -61.5t-139 61.5zM133 90q31 -47 96 -47t95.5 47t30.5 134t-30.5 135t-95.5 48t-96 -48t-31 -135t31 -134z" />
    <glyph glyph-name="P.sinf" horiz-adv-x="381" 
d="M75 449h135q64 0 100.5 -38.5t36.5 -104.5q0 -67 -36.5 -105.5t-100.5 -38.5h-77v-162h-58v449zM201 210q89 0 89 96t-89 96h-68v-192h68z" />
    <glyph glyph-name="Q.sinf" horiz-adv-x="457" 
d="M324.5 90q30.5 47 30.5 134t-30.5 135t-95.5 48t-96 -48t-31 -135t31 -134t96 -47t95.5 47zM90 394.5q48 61.5 139 61.5t138.5 -61.5t47.5 -170.5q0 -105 -44.5 -166.5t-128.5 -65.5q31 -83 108 -83q32 0 65 11v-48q-35 -10 -66 -10q-111 0 -160 133q-72 13 -109.5 73
t-37.5 156q0 109 48 170.5z" />
    <glyph glyph-name="R.sinf" horiz-adv-x="402" 
d="M75 449h146q58 0 91.5 -32t33.5 -91q0 -45 -20 -77t-55 -45v-4l92 -200h-61l-83 185h-86v-185h-58v449zM204 227q43 0 65 24t22 68q0 86 -87 86h-71v-178h71z" />
    <glyph glyph-name="S.sinf" horiz-adv-x="355" 
d="M85.5 424q40.5 32 107.5 32q59 0 102 -17v-52q-56 20 -104 20q-39 0 -62.5 -17.5t-23.5 -52.5q0 -54 73 -78l32 -12q51 -17 79 -47t28 -79q0 -59 -40.5 -94t-106.5 -35q-34 0 -70 9t-62 25v54q28 -17 64.5 -27.5t67.5 -10.5q41 0 64 20t23 56q0 30 -18.5 48t-55.5 31
l-36 13q-102 36 -102 123q0 59 40.5 91z" />
    <glyph glyph-name="T.sinf" horiz-adv-x="372" 
d="M334 401h-119v-401h-59v401h-118v48h296v-48z" />
    <glyph glyph-name="U.sinf" horiz-adv-x="454" 
d="M339.5 34q-40.5 -42 -113.5 -42t-113 42t-40 114v301h60v-300q0 -50 23 -78t70 -28t71.5 28.5t24.5 77.5v300h58v-301q0 -72 -40.5 -114z" />
    <glyph glyph-name="V.sinf" horiz-adv-x="395" 
d="M84 449l112 -387h6l111 387h57l-132 -449h-81l-132 449h59z" />
    <glyph glyph-name="W.sinf" horiz-adv-x="649" 
d="M84 449l97 -391h5l100 391h83l100 -391h6l96 391h53l-113 -449h-80l-101 393h-8l-101 -393h-82l-114 449h59z" />
    <glyph glyph-name="X.sinf" horiz-adv-x="402" 
d="M93 449l108 -186h4l107 186h61l-125 -220l131 -229h-64l-115 198h-1l-114 -198h-62l131 228l-125 221h64z" />
    <glyph glyph-name="Y.sinf" horiz-adv-x="387" 
d="M86 449l106 -233h5l106 233h63l-143 -293v-156h-59v156l-144 293h66z" />
    <glyph glyph-name="Z.sinf" horiz-adv-x="358" 
d="M330 449v-37l-236 -366l239 3v-49h-308v37l235 366l-233 -3v49h303z" />
    <glyph glyph-name="a.sinf" horiz-adv-x="334" 
d="M227 38h-6q-41 -46 -96 -46q-43 0 -69 26.5t-26 71.5q0 50 33.5 76t95.5 26q31 0 58 -4v37q0 33 -18.5 51.5t-53.5 18.5q-23 0 -49 -6.5t-44 -17.5v46q20 10 47.5 16.5t54.5 6.5q57 0 88.5 -29t31.5 -83v-151l12 -77h-48zM96.5 47.5q14.5 -15.5 41.5 -15.5q22 0 43 11
t36 29v81l-52 2q-83 0 -83 -65q0 -27 14.5 -42.5z" />
    <glyph glyph-name="b.sinf" horiz-adv-x="377" 
d="M60 475h57v-185h6q33 50 94 50q57 0 91 -46t34 -125q0 -84 -41 -130.5t-120 -46.5q-30 0 -64 6.5t-57 15.5v461zM184 39q51 0 75.5 33.5t24.5 94.5q0 60 -21 94t-62 34q-38 0 -61 -28t-23 -74v-144q40 -10 67 -10z" />
    <glyph glyph-name="c.sinf" horiz-adv-x="299" 
d="M220 290q-19 4 -35 4q-45 0 -68 -33.5t-23 -93.5q0 -61 23.5 -94.5t70.5 -33.5q32 0 64 15v-47q-33 -15 -69 -15q-70 0 -109.5 47.5t-39.5 127.5q0 79 39.5 126t112.5 47q36 0 66 -11v-48q-13 5 -32 9z" />
    <glyph glyph-name="d.sinf" horiz-adv-x="376" 
d="M273 0l-9 47h-6q-15 -24 -40.5 -39.5t-57.5 -15.5q-57 0 -91.5 46.5t-34.5 123.5q0 83 41 130.5t108 47.5q44 0 76 -21v156h57v-398l12 -77h-55zM114 73q21 -34 62 -34q38 0 60.5 27t22.5 74v133q-34 22 -72 22q-46 0 -70 -34.5t-24 -95.5q0 -58 21 -92z" />
    <glyph glyph-name="e.sinf" horiz-adv-x="339" 
d="M235.5 -2q-26.5 -6 -50.5 -6q-73 0 -112 47.5t-39 128.5q0 80 36.5 126t101.5 46q62 0 97 -43t35 -122q0 -17 -1 -26h-213q2 -53 26.5 -83t74.5 -30q22 0 47 6t46 17v-45q-22 -10 -48.5 -16zM252 188v2q0 49 -20 78.5t-60 29.5q-43 0 -61.5 -33.5t-20.5 -76.5h162z" />
    <glyph glyph-name="f.sinf" horiz-adv-x="236" 
d="M89 456.5q24 25.5 72 25.5q30 0 64 -9v-50q-13 6 -31 9.5t-31 3.5q-43 0 -43 -54v-53h100v-44h-98v-285h-57v285h-39v31l39 9v60q0 46 24 71.5z" />
    <glyph glyph-name="g.sinf" horiz-adv-x="337" 
d="M119 97q-10 -15 -10 -30q0 -33 42 -33h76q44 0 67 -19t23 -55q0 -46 -41.5 -72t-115.5 -26q-71 0 -138 24v42q31 -11 68.5 -18t73.5 -7q48 0 74 13.5t26 37.5q0 16 -11 25t-31 9h-84q-38 0 -58 17t-20 45q0 18 9 32.5t23 24.5v3q-29 13 -45 41.5t-16 65.5q0 56 34.5 89.5
t89.5 33.5h1h3q36 0 82.5 -6t74.5 -14v-46q-26 12 -71 24v-6q16 -13 25 -33.5t9 -46.5q0 -54 -33.5 -86.5t-90.5 -32.5q-21 0 -36 4zM103.5 156.5q18.5 -22.5 51.5 -22.5t52.5 22.5t19.5 60.5t-19.5 60.5t-52.5 22.5t-51.5 -22.5t-18.5 -60.5t18.5 -60.5z" />
    <glyph glyph-name="h.sinf" horiz-adv-x="381" 
d="M117 475v-181h1q20 21 47.5 33.5t58.5 12.5q44 0 70.5 -27t26.5 -74v-239h-58v223q0 31 -17 49t-46 18q-44 0 -83 -37v-253h-57v475h57z" />
    <glyph glyph-name="i.sinf" horiz-adv-x="185" 
d="M121 332v-332h-57v332h57zM65.5 453.5q9.5 9.5 27.5 9.5t27.5 -9.5t9.5 -25.5t-9.5 -25t-27.5 -9t-27.5 9.5t-9.5 24.5q0 16 9.5 25.5z" />
    <glyph glyph-name="j.sinf" horiz-adv-x="185" 
d="M53.5 -76.5q10.5 14.5 10.5 40.5v368h57v-371q0 -46 -21 -72.5t-62 -26.5q-5 0 -17 2v45q22 0 32.5 14.5zM66 453.5q9 9.5 27 9.5t27.5 -9.5t9.5 -25.5t-9.5 -25t-27.5 -9q-17 0 -26.5 9.5t-9.5 24.5q0 16 9 25.5z" />
    <glyph glyph-name="k.sinf" horiz-adv-x="349" 
d="M60 475h57v-291h5l138 148h58l-97 -107l105 -225h-59l-87 186h-4l-59 -64v-122h-57v475z" />
    <glyph glyph-name="l.sinf" horiz-adv-x="177" 
d="M60 475h57v-475h-57v475z" />
    <glyph glyph-name="m.sinf" horiz-adv-x="569" 
d="M103 332l8 -41h6q19 22 46 35.5t57 13.5q29 0 51 -13.5t33 -37.5h5q21 22 48.5 36.5t58.5 14.5q43 0 68 -27.5t25 -74.5v-238h-57v223q0 31 -16 49t-44 18q-22 0 -42.5 -10t-36.5 -27q1 -5 1 -15v-238h-59v223q0 32 -15.5 49.5t-43.5 17.5q-22 0 -42.5 -9.5t-36.5 -26.5
v-254h-57v256l-12 76h55z" />
    <glyph glyph-name="n.sinf" horiz-adv-x="381" 
d="M103 332l8 -41h6q20 22 48 35.5t59 13.5q44 0 70.5 -27t26.5 -74v-239h-58v223q0 31 -17 49t-46 18q-44 0 -83 -37v-253h-57v256l-12 76h55z" />
    <glyph glyph-name="o.sinf" horiz-adv-x="362" 
d="M72.5 39q-38.5 47 -38.5 127t38.5 127t108.5 47t108 -47t38 -127t-38 -127t-108 -47t-108.5 47zM114.5 72.5q21.5 -33.5 66.5 -33.5t67 33.5t22 93.5t-22 94.5t-67 34.5t-66.5 -34.5t-21.5 -94.5t21.5 -93.5z" />
    <glyph glyph-name="p.sinf" horiz-adv-x="376" 
d="M103 332l8 -46h7q15 24 40 39t58 15q58 0 92 -46.5t34 -123.5q0 -83 -41 -130.5t-108 -47.5q-44 0 -76 21v-143h-57v386l-12 76h55zM189 39q46 0 70 34t24 95q0 59 -21 93t-62 34q-37 0 -60 -28t-23 -74v-134q33 -20 72 -20z" />
    <glyph glyph-name="q.sinf" horiz-adv-x="377" 
d="M317 -130h-58v173h-7q-13 -23 -37 -37t-55 -14q-57 0 -91.5 46t-34.5 126q0 84 41 130t119 46q31 0 65.5 -6.5t57.5 -14.5v-449zM114 72q21 -33 62 -33q38 0 60.5 27t22.5 74v145q-40 10 -66 10q-51 0 -75.5 -34t-24.5 -96q0 -60 21 -93z" />
    <glyph glyph-name="r.sinf" horiz-adv-x="248" 
d="M103 332l8 -46h6q17 25 41 39.5t51 14.5q12 0 19 -1v-56q-13 3 -27 3q-24 0 -46.5 -13t-37.5 -35v-238h-57v256l-12 76h55z" />
    <glyph glyph-name="s.sinf" horiz-adv-x="302" 
d="M75 316.5q32 23.5 88 23.5q20 0 43 -3t37 -8v-46q-18 6 -41.5 10.5t-41.5 4.5q-28 0 -45.5 -12t-17.5 -36q0 -19 11 -30t33 -20l34 -13q42 -16 65 -36.5t23 -60.5q0 -45 -31.5 -71.5t-87.5 -26.5q-27 0 -56 6.5t-49 18.5v47q24 -13 52.5 -21t52.5 -8q30 0 47 14t17 37
q0 21 -12 31.5t-38 21.5l-36 14q-36 14 -57.5 34.5t-21.5 59.5q0 46 32 69.5z" />
    <glyph glyph-name="t.sinf" horiz-adv-x="249" 
d="M65 289h-40v33l41 7l18 91h38v-88h101v-43h-101v-202q0 -22 10.5 -35t30.5 -13q30 0 60 15v-47q-31 -15 -74 -15q-39 0 -61.5 23.5t-22.5 61.5v212z" />
    <glyph glyph-name="u.sinf" horiz-adv-x="371" 
d="M268 0l-8 41h-6q-20 -22 -46.5 -35.5t-57.5 -13.5q-42 0 -67 26.5t-25 74.5v239h57v-221q0 -33 15.5 -50.5t43.5 -17.5q22 0 42.5 10t36.5 27v252h57v-255l13 -77h-55z" />
    <glyph glyph-name="v.sinf" horiz-adv-x="321" 
d="M73 332l85 -281h8l85 281h56l-107 -332h-79l-107 332h59z" />
    <glyph glyph-name="w.sinf" horiz-adv-x="529" 
d="M72 332l76 -281h6l73 281h81l71 -281h7l75 281h54l-97 -332h-77l-74 284h-6l-74 -284h-76l-97 332h58z" />
    <glyph glyph-name="x.sinf" horiz-adv-x="307" 
d="M77 332l77 -130l79 130h56l-96 -163l102 -169h-61l-81 139h-1l-84 -139h-56l101 172l-95 160h59z" />
    <glyph glyph-name="y.sinf" horiz-adv-x="320" 
d="M72 332l86 -281h8l85 281h55l-114 -349q-17 -57 -47.5 -89t-81.5 -32q-29 0 -64 10v48q33 -11 62 -11q30 0 48.5 21.5t38.5 73.5h-28l-106 328h58z" />
    <glyph glyph-name="z.sinf" horiz-adv-x="273" 
d="M250 332v-34l-171 -256l177 2v-44h-239v34l171 257l-166 -2v43h228z" />
    <glyph glyph-name="zero.osf" horiz-adv-x="625" 
d="M178 22q-56 34 -85 94.5t-29 137.5q0 78 29 138.5t85 94.5t135 34q78 0 134 -34t85 -94.5t29 -138.5q0 -77 -29 -137.5t-85 -94.5t-134 -34q-79 0 -135 34zM184 105q44 -57 128 -57q85 0 129.5 57.5t44.5 148.5q0 92 -44.5 149.5t-129.5 57.5q-84 0 -128 -57.5
t-44 -149.5t44 -149z" />
    <glyph glyph-name="one.osf" horiz-adv-x="373" 
d="M168 438l-158 -81v62l180 90h53v-509h-75v438z" />
    <glyph glyph-name="two.osf" horiz-adv-x="510" 
d="M50 0v67l188 131q60 41 88 75t28 78q0 49 -36 79.5t-100 30.5q-35 0 -77 -10t-79 -27v64q38 15 82 24t84 9q91 0 147 -44t56 -117q0 -60 -38.5 -107.5t-104.5 -91.5l-140 -96v-10l304 6v-61h-402z" />
    <glyph glyph-name="three.osf" horiz-adv-x="499" 
d="M132.5 511.5q43.5 9.5 84.5 9.5q89 0 144 -42t55 -112q0 -55 -36 -96t-101 -63v-3q75 -10 117.5 -54t42.5 -118q0 -118 -104.5 -172t-280.5 -54v60q308 0 308 170q0 125 -166 125q-33 0 -85 -5v54q229 33 229 146q0 48 -35.5 76t-96.5 28q-36 0 -78.5 -10t-75.5 -26v61
q35 16 78.5 25.5z" />
    <glyph glyph-name="four.osf" horiz-adv-x="533" 
d="M347 0h-313v54l241 473h73l-237 -466h232l23 207h48v-207h96l-5 -61h-91v-163h-74z" />
    <glyph glyph-name="five.osf" horiz-adv-x="512" 
d="M396 166.5q60 -45.5 60 -136.5q0 -121 -102 -176.5t-280 -55.5v60q141 0 223.5 39t82.5 129q0 65 -44.5 96t-122.5 31q-29 0 -67.5 -4t-71.5 -10v361h354v-61h-291v-235q51 8 95 8q104 0 164 -45.5z" />
    <glyph glyph-name="six.osf" horiz-adv-x="574" 
d="M129 71q-65 83 -65 230q0 134 53.5 224.5t143.5 134.5t201 44v-61q-138 0 -227.5 -78t-94.5 -242h4q30 42 82 68t112 26q56 0 101 -24.5t70.5 -71.5t25.5 -111q0 -67 -28.5 -117.5t-79.5 -77.5t-117 -27q-116 0 -181 83zM188 104.5q43 -57.5 124 -57.5q67 0 108.5 42
t41.5 116q0 71 -39 111.5t-106 40.5q-54 0 -100.5 -26t-76.5 -72q5 -97 48 -154.5z" />
    <glyph glyph-name="seven.osf" horiz-adv-x="497" 
d="M451 509v-41q-66 -92 -110 -181.5t-69 -204.5t-25 -263h-76q0 203 47 344t135 269v12h-307v65h405z" />
    <glyph glyph-name="eight.osf" horiz-adv-x="586" 
d="M104.5 271q40.5 47 111.5 74v4q-130 65 -130 174q0 50 25.5 91t73 64.5t109.5 23.5q61 0 108 -22.5t72.5 -61t25.5 -84.5q0 -57 -37 -103.5t-95 -71.5v-4q154 -66 154 -183q0 -55 -29.5 -96.5t-82 -64.5t-119.5 -23t-118.5 22.5t-80 62t-28.5 90.5q0 61 40.5 108z
M179 80.5q43 -36.5 113 -36.5t114 35.5t44 88.5q0 90 -141 143l-36 13q-63 -21 -100 -60.5t-37 -90.5q0 -56 43 -92.5zM305 379l9 -3q51 22 84 59.5t33 89.5q0 55 -39 88t-99 33t-99.5 -32.5t-39.5 -83.5q0 -96 151 -151z" />
    <glyph glyph-name="nine.osf" horiz-adv-x="574" 
d="M444.5 437q65.5 -84 65.5 -230q0 -134 -53.5 -224t-143.5 -134t-201 -44v61q138 0 227 76.5t95 241.5h-4q-30 -39 -81.5 -63t-109.5 -24q-89 0 -144.5 54.5t-55.5 149.5q0 66 28.5 116t79 77t116.5 27q116 0 181.5 -84zM151 196q39 -40 106 -40q53 0 100 25t77 68
q-4 97 -47.5 155t-124.5 58q-67 0 -108.5 -41.5t-41.5 -114.5q0 -70 39 -110z" />
    <glyph glyph-name="zero.tf" 
d="M109 82q-61 94 -61 263t61 263t176 94t176.5 -94t61.5 -263t-61.5 -263t-176.5 -94t-176 94zM164 125q40 -77 121 -77q82 0 122.5 77t40.5 220t-40.5 220t-122.5 77q-81 0 -121 -77t-40 -220t40 -220z" />
    <glyph glyph-name="one.tf" 
d="M86 61h163v558l-163 -81v62l185 90h53v-629h160v-61h-398v61z" />
    <glyph glyph-name="two.tf" 
d="M75 0v65l192 229q58 71 85 118t27 101q0 62 -36.5 95.5t-103.5 33.5q-36 0 -76.5 -10t-75.5 -27v64q84 33 165 33q94 0 149 -47.5t55 -133.5q0 -64 -32 -121.5t-105 -142.5l-157 -188v-8h315v-61h-402z" />
    <glyph glyph-name="three.tf" 
d="M168 692.5q43 9.5 84 9.5q90 0 145 -42t55 -112q0 -55 -36.5 -96t-101.5 -64v-2q75 -10 118 -54t43 -118q0 -118 -104.5 -172t-281.5 -54v60q309 0 309 170q0 125 -166 125q-34 0 -86 -5v54q229 32 229 146q0 47 -35.5 75.5t-95.5 28.5q-36 0 -78.5 -10t-76.5 -26v61
q36 16 79 25.5z" />
    <glyph glyph-name="four.tf" 
d="M364 163h-313v54l241 473h72l-236 -466h231l24 207h48v-207h96l-6 -61h-90v-163h-75z" />
    <glyph glyph-name="five.tf" 
d="M433.5 356.5q60.5 -45.5 60.5 -136.5q0 -121 -102.5 -176.5t-280.5 -55.5v60q141 0 224 39t83 129q0 65 -44.5 96t-122.5 31q-29 0 -68 -4t-72 -10v361h355v-61h-291v-235q51 8 95 8q103 0 163.5 -45.5z" />
    <glyph glyph-name="six.tf" 
d="M116.5 71q-63.5 83 -63.5 230q0 134 53 224.5t142 134.5t198 44v-61q-136 0 -224 -77.5t-93 -242.5h4q29 42 80 68t109 26q57 0 102 -24.5t70.5 -71.5t25.5 -111q0 -67 -28.5 -117.5t-80 -77.5t-117.5 -27q-114 0 -177.5 83zM175.5 104.5q41.5 -57.5 120.5 -57.5
q67 0 108.5 42t41.5 116q0 70 -38.5 111t-105.5 41q-53 0 -98.5 -26t-74.5 -72q5 -97 46.5 -154.5z" />
    <glyph glyph-name="seven.tf" 
d="M486 690v-41q-66 -92 -110 -181.5t-69 -204.5t-25 -263h-76q0 204 47 345t136 270v10h-308v65h405z" />
    <glyph glyph-name="eight.tf" 
d="M96.5 271q40.5 47 111.5 74v4q-130 65 -130 174q0 50 25.5 91t73 64.5t109.5 23.5q61 0 108 -22.5t72.5 -61t25.5 -84.5q0 -57 -37 -103.5t-95 -71.5v-4q71 -30 112.5 -74t41.5 -109q0 -55 -29.5 -96.5t-82 -64.5t-119.5 -23t-118.5 22.5t-80 62t-28.5 90.5
q0 61 40.5 108zM171 80.5q43 -36.5 113 -36.5t114 35.5t44 88.5q0 90 -141 143l-36 13q-63 -21 -100 -60.5t-37 -90.5q0 -56 43 -92.5zM297 379l9 -3q51 22 84 59.5t33 89.5q0 55 -39 88t-99 33t-99.5 -32.5t-39.5 -83.5q0 -96 151 -151z" />
    <glyph glyph-name="nine.tf" 
d="M453 618.5q64 -83.5 64 -230.5q0 -134 -53 -224.5t-141.5 -134t-198.5 -43.5v61q136 0 223.5 76.5t93.5 241.5h-4q-29 -39 -79.5 -63t-109.5 -24q-56 0 -101 24t-70.5 70.5t-25.5 109.5q0 66 28.5 116t79 77t114.5 27q116 0 180 -83.5zM163 377q39 -40 106 -40
q52 0 97 25t75 68q-4 97 -46 155t-122 58q-67 0 -108 -41.5t-41 -114.5q0 -70 39 -110z" />
    <glyph glyph-name="zero.sups" horiz-adv-x="434" 
d="M95 410.5q-43 61.5 -43 170.5q0 110 43 171t122 61t122 -61t43 -171q0 -109 -43 -170.5t-122 -61.5t-122 61.5zM137 443.5q26 -47.5 80 -47.5t80.5 48t26.5 137q0 91 -26.5 139t-80.5 48q-106 0 -106 -187q0 -90 26 -137.5z" />
    <glyph glyph-name="one.sups" horiz-adv-x="265" 
d="M114 752l-102 -51v46l117 59h42v-449h-57v395z" />
    <glyph glyph-name="two.sups" horiz-adv-x="350" 
d="M37 357v48l123 144q37 44 54 74t17 64q0 39 -22.5 60t-64.5 21q-23 0 -49 -6t-49 -17v48q51 20 109 20q62 0 98.5 -31t36.5 -87q0 -42 -21.5 -80t-68.5 -92l-98 -113v-6h201v-47h-266z" />
    <glyph glyph-name="three.sups" horiz-adv-x="343" 
d="M147 813q60 0 97 -27t37 -72q0 -37 -24 -63.5t-66 -41.5q49 -8 76.5 -36.5t27.5 -76.5q0 -77 -68.5 -112t-186.5 -35v47q92 0 144 24t52 80q0 39 -27 58t-76 19q-15 0 -57 -4v41q146 21 146 91q0 29 -21.5 46t-60.5 17q-24 0 -51.5 -6t-48.5 -17v46q47 22 107 22z" />
    <glyph glyph-name="four.sups" horiz-adv-x="366" 
d="M228 463h-201v41l152 302h56l-151 -298h142l18 132h36v-132h61l-3 -45h-58v-106h-57z" />
    <glyph glyph-name="five.sups" horiz-adv-x="359" 
d="M268 591q39 -30 39 -90q0 -78 -67.5 -115t-185.5 -37v47q194 0 194 103q0 40 -27 58.5t-75 18.5q-42 0 -92 -9v239h235v-47h-187v-144q30 6 59 6q68 0 107 -30z" />
    <glyph glyph-name="six.sups" horiz-adv-x="400" 
d="M95.5 403.5q-43.5 54.5 -43.5 149.5q0 87 35.5 146t95 88t133.5 29v-47q-88 0 -145 -48.5t-61 -149.5h4q20 27 52.5 43.5t69.5 16.5q57 0 93.5 -36.5t36.5 -98.5q0 -66 -42 -106.5t-109 -40.5q-76 0 -119.5 54.5zM139.5 429.5q26.5 -35.5 76.5 -35.5q42 0 67.5 26
t25.5 72q0 44 -23.5 69t-65.5 25q-34 0 -63 -16t-47 -45q3 -60 29.5 -95.5z" />
    <glyph glyph-name="seven.sups" horiz-adv-x="345" 
d="M307 806v-29q-63 -91 -97 -189.5t-34 -230.5h-58q0 120 31 215.5t85 176.5v7h-196v50h269z" />
    <glyph glyph-name="eight.sups" horiz-adv-x="417" 
d="M82 533q26 30 71 47v2q-83 43 -83 113q0 52 38.5 85t101.5 33q61 0 99 -31t38 -77q0 -36 -23 -66t-60 -46v-3q46 -20 71.5 -48t25.5 -71q0 -55 -43 -88.5t-111 -33.5q-67 0 -109 32.5t-42 82.5q0 39 26 69zM137.5 414q26.5 -23 70.5 -23t71.5 22t27.5 55q0 55 -88 87
l-26 10q-38 -14 -60 -38.5t-22 -54.5q0 -35 26.5 -58zM216 608l9 -3q31 14 50.5 37.5t19.5 54.5q0 34 -24 55t-63 21q-37 0 -61.5 -21t-24.5 -52q0 -58 94 -92z" />
    <glyph glyph-name="nine.sups" horiz-adv-x="399" 
d="M303.5 758q43.5 -55 43.5 -150q0 -86 -35 -144.5t-95 -87t-134 -28.5v46q88 0 145 47.5t61 148.5h-3q-19 -25 -52 -40t-70 -15q-58 0 -94 36t-36 98q0 65 41 104.5t108 39.5q77 0 120.5 -55zM113.5 605q23.5 -25 65.5 -25q33 0 62 15t48 42q-2 61 -28.5 96.5t-77.5 35.5
q-42 0 -67.5 -25.5t-25.5 -70.5q0 -43 23.5 -68z" />
    <glyph glyph-name="zero.sinf" horiz-adv-x="434" 
d="M95 53.5q-43 61.5 -43 170.5q0 110 43 171t122 61t122 -61t43 -171q0 -109 -43 -170.5t-122 -61.5t-122 61.5zM137 86.5q26 -47.5 80 -47.5t80.5 48t26.5 137q0 91 -26.5 139t-80.5 48q-106 0 -106 -187q0 -90 26 -137.5z" />
    <glyph glyph-name="one.sinf" horiz-adv-x="265" 
d="M114 395l-102 -51v46l117 59h42v-449h-57v395z" />
    <glyph glyph-name="two.sinf" horiz-adv-x="351" 
d="M37 0v48l123 144q37 44 54 74t17 64q0 39 -22.5 60t-64.5 21q-23 0 -49 -6t-49 -17v48q51 20 109 20q62 0 98.5 -31t36.5 -87q0 -42 -21.5 -80t-68.5 -92l-98 -113v-6h201v-47h-266z" />
    <glyph glyph-name="three.sinf" horiz-adv-x="343" 
d="M147 456q60 0 97 -27t37 -72q0 -37 -24 -63.5t-66 -41.5q49 -8 76.5 -36.5t27.5 -76.5q0 -77 -68.5 -112t-186.5 -35v47q92 0 144 24t52 80q0 39 -27 58t-76 19q-15 0 -57 -4v41q146 21 146 91q0 29 -21.5 46t-60.5 17q-24 0 -51.5 -6t-48.5 -17v46q47 22 107 22z" />
    <glyph glyph-name="four.sinf" horiz-adv-x="366" 
d="M228 106h-201v41l152 302h56l-151 -298h142l18 132h36v-132h61l-3 -45h-58v-106h-57z" />
    <glyph glyph-name="five.sinf" horiz-adv-x="359" 
d="M268 234q39 -30 39 -90q0 -78 -67.5 -115t-185.5 -37v47q194 0 194 103q0 40 -27 58.5t-75 18.5q-42 0 -92 -9v239h235v-47h-187v-144q30 6 59 6q68 0 107 -30z" />
    <glyph glyph-name="six.sinf" horiz-adv-x="400" 
d="M95.5 46.5q-43.5 54.5 -43.5 149.5q0 87 35.5 146t95 88t133.5 29v-47q-88 0 -145 -48.5t-61 -149.5h4q20 27 52.5 43.5t69.5 16.5q57 0 93.5 -36.5t36.5 -98.5q0 -66 -42 -106.5t-109 -40.5q-76 0 -119.5 54.5zM139.5 72.5q26.5 -35.5 76.5 -35.5q42 0 67.5 26t25.5 72
q0 44 -23.5 69t-65.5 25q-34 0 -63 -16t-47 -45q3 -60 29.5 -95.5z" />
    <glyph glyph-name="seven.sinf" horiz-adv-x="345" 
d="M307 449v-29q-63 -91 -97 -189.5t-34 -230.5h-58q0 120 31 215.5t85 176.5v7h-196v50h269z" />
    <glyph glyph-name="eight.sinf" horiz-adv-x="417" 
d="M82 176q26 30 71 47v2q-83 43 -83 113q0 52 38.5 85t101.5 33q61 0 99 -31t38 -77q0 -36 -23 -66t-60 -46v-3q46 -20 71.5 -48t25.5 -71q0 -55 -43 -88.5t-111 -33.5q-67 0 -109 32.5t-42 82.5q0 39 26 69zM137.5 57q26.5 -23 70.5 -23t71.5 22t27.5 55q0 55 -88 87
l-26 10q-38 -14 -60 -38.5t-22 -54.5q0 -35 26.5 -58zM216 251l9 -3q31 14 50.5 37.5t19.5 54.5q0 34 -24 55t-63 21q-37 0 -61.5 -21t-24.5 -52q0 -58 94 -92z" />
    <glyph glyph-name="nine.sinf" horiz-adv-x="399" 
d="M303.5 401q43.5 -55 43.5 -150q0 -86 -35 -144.5t-95 -87t-134 -28.5v46q88 0 145 47.5t61 148.5h-3q-19 -25 -52 -40t-70 -15q-58 0 -94 36t-36 98q0 65 41 104.5t108 39.5q77 0 120.5 -55zM113.5 248q23.5 -25 65.5 -25q33 0 62 15t48 42q-2 61 -28.5 96.5t-77.5 35.5
q-42 0 -67.5 -25.5t-25.5 -70.5q0 -43 23.5 -68z" />
    <glyph glyph-name="zero.numr" horiz-adv-x="329" 
d="M66 386q-35 47 -35 132q0 84 35 131t99 47t99 -47t35 -131q0 -85 -35 -132t-99 -47t-99 47zM165 381q81 0 81 137t-81 137t-81 -137t81 -137z" />
    <glyph glyph-name="one.numr" horiz-adv-x="202" 
d="M87 643l-81 -40v42l94 45h39v-345h-52v298z" />
    <glyph glyph-name="two.numr" horiz-adv-x="270" 
d="M26 345v43l97 108q28 30 41.5 52t13.5 48q0 28 -17 43.5t-50 15.5q-40 0 -78 -19v44q43 16 89 16q50 0 80 -24t30 -68q0 -33 -18 -62.5t-57 -69.5l-75 -79v-6h159v-42h-215z" />
    <glyph glyph-name="three.numr" horiz-adv-x="264" 
d="M116 696q49 0 78.5 -21t29.5 -56q0 -28 -19 -48t-52 -32v-2q38 -6 60 -28t22 -58q0 -58 -55.5 -85t-151.5 -27v41q153 0 153 76q0 54 -76 54q-22 0 -48 -3v36q56 8 85 23.5t29 42.5q0 22 -16.5 34.5t-45.5 12.5q-18 0 -40.5 -5t-40.5 -13v40q39 18 88 18z" />
    <glyph glyph-name="four.numr" horiz-adv-x="280" 
d="M173 425h-160v37l119 228h55l-123 -224h107l18 99h31v-99h49l-4 -41h-45v-80h-52z" />
    <glyph glyph-name="five.numr" horiz-adv-x="270" 
d="M212.5 525.5q30.5 -23.5 30.5 -69.5q0 -60 -55 -88.5t-150 -28.5v41q151 0 151 75q0 55 -76 55q-43 0 -75 -8v188h191v-42h-148v-103q32 4 49 4q52 0 82.5 -23.5z" />
    <glyph glyph-name="six.numr" horiz-adv-x="305" 
d="M66 380.5q-35 41.5 -35 114.5q0 99 60.5 151t154.5 52v-42q-69 0 -114.5 -35.5t-48.5 -109.5h7q14 20 39.5 32.5t54.5 12.5q45 0 73.5 -27.5t28.5 -75.5q0 -52 -33.5 -83t-89.5 -31q-62 0 -97 41.5zM105.5 404.5q20.5 -25.5 58.5 -25.5q33 0 52.5 19t19.5 52q0 32 -18 50
t-51 18q-25 0 -47.5 -11.5t-36.5 -31.5q2 -45 22.5 -70.5z" />
    <glyph glyph-name="seven.numr" horiz-adv-x="265" 
d="M242 690v-28q-35 -47 -56.5 -87.5t-34.5 -96.5t-13 -133h-52q0 96 23.5 164.5t67.5 128.5v6h-155v46h220z" />
    <glyph glyph-name="eight.numr" horiz-adv-x="311" 
d="M51.5 478q20.5 23 55.5 36v3q-31 15 -48 35t-17 50q0 41 31.5 67.5t83.5 26.5q49 0 80.5 -23.5t31.5 -60.5q0 -27 -18 -49.5t-48 -35.5v-4q37 -16 57 -36t20 -54q0 -44 -35 -69t-91 -25q-55 0 -89 23.5t-34 63.5q0 29 20.5 52zM100.5 390.5q20.5 -16.5 55.5 -16.5
q33 0 54 16t21 40q0 25 -21 39.5t-67 32.5q-29 -10 -46 -29t-17 -41q0 -25 20.5 -41.5zM109 567.5q20 -14.5 61 -30.5q23 11 37.5 28t14.5 40q0 25 -18.5 40.5t-48.5 15.5q-29 0 -47.5 -15t-18.5 -38q0 -26 20 -40.5z" />
    <glyph glyph-name="nine.numr" horiz-adv-x="304" 
d="M238.5 654q35.5 -42 35.5 -116q0 -98 -60.5 -149.5t-154.5 -51.5v42q69 0 114.5 35.5t48.5 109.5h-7q-14 -20 -39.5 -32.5t-55.5 -12.5q-45 0 -73 27.5t-28 75.5q0 52 33.5 83t88.5 31q62 0 97.5 -42zM86.5 535q18.5 -18 51.5 -18q25 0 47.5 12t36.5 32q-2 44 -22.5 69.5
t-59.5 25.5q-32 0 -52 -19t-20 -52q0 -32 18.5 -50z" />
    <glyph glyph-name="zero.dnom" horiz-adv-x="329" 
d="M66 41q-35 47 -35 132q0 84 35 131t99 47t99 -47t35 -131q0 -85 -35 -132t-99 -47t-99 47zM165 36q81 0 81 137t-81 137t-81 -137t81 -137z" />
    <glyph glyph-name="one.dnom" horiz-adv-x="202" 
d="M87 298l-81 -40v42l94 45h39v-345h-52v298z" />
    <glyph glyph-name="two.dnom" horiz-adv-x="270" 
d="M26 0v43l97 108q28 30 41.5 52t13.5 48q0 28 -17 43.5t-50 15.5q-40 0 -78 -19v44q43 16 89 16q50 0 80 -24t30 -68q0 -33 -18 -62.5t-57 -69.5l-75 -79v-6h159v-42h-215z" />
    <glyph glyph-name="three.dnom" horiz-adv-x="264" 
d="M116 351q49 0 78.5 -21t29.5 -56q0 -28 -19 -48t-52 -32v-2q38 -6 60 -28t22 -58q0 -58 -55.5 -85t-151.5 -27v41q153 0 153 76q0 54 -76 54q-22 0 -48 -3v36q56 8 85 23.5t29 42.5q0 22 -16.5 34.5t-45.5 12.5q-18 0 -40.5 -5t-40.5 -13v40q39 18 88 18z" />
    <glyph glyph-name="four.dnom" horiz-adv-x="280" 
d="M173 80h-160v37l119 228h55l-123 -224h107l18 99h31v-99h49l-4 -41h-45v-80h-52z" />
    <glyph glyph-name="five.dnom" horiz-adv-x="270" 
d="M212.5 180.5q30.5 -23.5 30.5 -69.5q0 -60 -55 -88.5t-150 -28.5v41q151 0 151 75q0 55 -76 55q-43 0 -75 -8v188h191v-42h-148v-103q32 4 49 4q52 0 82.5 -23.5z" />
    <glyph glyph-name="six.dnom" horiz-adv-x="305" 
d="M66 35.5q-35 41.5 -35 114.5q0 99 60.5 151t154.5 52v-42q-69 0 -114.5 -35.5t-48.5 -109.5h7q14 20 39.5 32.5t54.5 12.5q45 0 73.5 -27.5t28.5 -75.5q0 -52 -33.5 -83t-89.5 -31q-62 0 -97 41.5zM105.5 59.5q20.5 -25.5 58.5 -25.5q33 0 52.5 19t19.5 52q0 32 -18 50
t-51 18q-25 0 -47.5 -11.5t-36.5 -31.5q2 -45 22.5 -70.5z" />
    <glyph glyph-name="seven.dnom" horiz-adv-x="265" 
d="M242 345v-28q-35 -47 -56.5 -87.5t-34.5 -96.5t-13 -133h-52q0 96 23.5 164.5t67.5 128.5v6h-155v46h220z" />
    <glyph glyph-name="eight.dnom" horiz-adv-x="311" 
d="M51.5 133q20.5 23 55.5 36v3q-31 15 -48 35t-17 50q0 41 31.5 67.5t83.5 26.5q49 0 80.5 -23.5t31.5 -60.5q0 -27 -18 -49.5t-48 -35.5v-4q37 -16 57 -36t20 -54q0 -44 -35 -69t-91 -25q-55 0 -89 23.5t-34 63.5q0 29 20.5 52zM100.5 45.5q20.5 -16.5 55.5 -16.5
q33 0 54 16t21 40q0 25 -21 39.5t-67 32.5q-29 -10 -46 -29t-17 -41q0 -25 20.5 -41.5zM109 222.5q20 -14.5 61 -30.5q23 11 37.5 28t14.5 40q0 25 -18.5 40.5t-48.5 15.5q-29 0 -47.5 -15t-18.5 -38q0 -26 20 -40.5z" />
    <glyph glyph-name="nine.dnom" horiz-adv-x="304" 
d="M238.5 309q35.5 -42 35.5 -116q0 -98 -60.5 -149.5t-154.5 -51.5v42q69 0 114.5 35.5t48.5 109.5h-7q-14 -20 -39.5 -32.5t-55.5 -12.5q-45 0 -73 27.5t-28 75.5q0 52 33.5 83t88.5 31q62 0 97.5 -42zM86.5 190q18.5 -18 51.5 -18q25 0 47.5 12t36.5 32q-2 44 -22.5 69.5
t-59.5 25.5q-32 0 -52 -19t-20 -52q0 -32 18.5 -50z" />
    <glyph glyph-name="exclamdown.case" horiz-adv-x="251" 
d="M94 530h61l10 -530h-80zM84 687q14 15 41 15t41.5 -15t14.5 -40t-14.5 -39.5t-41.5 -14.5t-41 14.5t-14 39.5t14 40z" />
    <glyph glyph-name="questiondown.case" horiz-adv-x="459" 
d="M314 687q14 -15 14 -40t-14 -40t-42 -15q-27 0 -41.5 15t-14.5 40t14.5 40t41.5 15q28 0 42 -15zM76 255q24 37 72 84q46 45 68.5 78.5t22.5 80.5v32h67v-38q0 -41 -13.5 -73.5t-32.5 -55.5t-51 -55q-40 -39 -59.5 -68t-19.5 -67q0 -58 39 -88.5t102 -30.5q35 0 73.5 8.5
t69.5 22.5v-69q-30 -13 -71 -20.5t-78 -7.5q-95 0 -154 46.5t-59 131.5q0 52 24 89z" />
    <glyph glyph-name="parenleft.case" horiz-adv-x="316" 
d="M182.5 584q-30.5 -129 -30.5 -239t30.5 -239t85.5 -226h-59q-66 101 -97.5 222t-31.5 243t31.5 243t97.5 222h59q-55 -97 -85.5 -226z" />
    <glyph glyph-name="parenright.case" horiz-adv-x="316" 
d="M204.5 588q31.5 -121 31.5 -243t-31.5 -243t-97.5 -222h-59q55 97 85.5 226t30.5 239t-30.5 239t-85.5 226h59q66 -101 97.5 -222z" />
    <glyph glyph-name="braceleft.case" horiz-adv-x="346" 
d="M224 104q-2 -13 -5.5 -44.5t-3.5 -47.5q0 -34 16 -53t44 -19h8v-60h-17q-51 0 -87.5 30.5t-36.5 93.5q0 25 10 101q10 78 10 107q0 104 -94 104h-4v58h4q94 0 94 104q0 29 -10 107q-10 76 -10 101q0 63 36.5 93.5t87.5 30.5h17v-60h-8q-28 0 -44 -19t-16 -53
q0 -16 3.5 -47.5t5.5 -44.5q11 -73 11 -108q0 -48 -22.5 -81.5t-60.5 -48.5v-6q38 -15 60.5 -48.5t22.5 -81.5q0 -35 -11 -108z" />
    <glyph glyph-name="braceright.case" horiz-adv-x="346" 
d="M133.5 294.5q22.5 33.5 60.5 47.5v6q-38 14 -60.5 47.5t-22.5 82.5q0 35 11 108q2 13 5.5 44.5t3.5 47.5q0 34 -16.5 53t-44.5 19h-7v60h16q52 0 88.5 -30.5t36.5 -93.5q0 -25 -10 -101q-10 -78 -10 -107q0 -104 93 -104h4v-58h-4q-93 0 -93 -104q0 -29 10 -107
q10 -76 10 -101q0 -63 -36.5 -93.5t-88.5 -30.5h-16v60h7q28 0 44.5 19t16.5 53q0 16 -3.5 47.5t-5.5 44.5q-11 73 -11 108q0 49 22.5 82.5z" />
    <glyph glyph-name="bracketleft.case" horiz-adv-x="336" 
d="M276 810v-61h-104v-808h104v-61h-176v930h176z" />
    <glyph glyph-name="bracketright.case" horiz-adv-x="336" 
d="M236 -120h-176v61h104v808h-104v61h176v-930z" />
    <glyph glyph-name="period.tf" 
d="M242.5 3q-14.5 15 -14.5 41t14.5 41t42.5 15t42.5 -15t14.5 -41t-14.5 -41t-42.5 -15t-42.5 15z" />
    <glyph glyph-name="comma.tf" 
d="M277 -11q-23 2 -35.5 17t-12.5 38q0 25 14.5 40t42.5 15t41 -16t13 -49q0 -42 -19 -103t-45 -103h-40q33 85 41 161z" />
    <glyph glyph-name="colon.tf" 
d="M242.5 3q-14.5 15 -14.5 41t14.5 41t42.5 15t42.5 -15t14.5 -41t-14.5 -41t-42.5 -15t-42.5 15zM242.5 424q-14.5 15 -14.5 41t14.5 41t42.5 15t42.5 -15t14.5 -41t-14.5 -41t-42.5 -15t-42.5 15z" />
    <glyph glyph-name="semicolon.tf" 
d="M278 -11q-23 2 -35.5 17t-12.5 38q0 25 14.5 40t42.5 15t41 -16t13 -49q0 -42 -19 -103t-45 -103h-40q33 85 41 161zM242.5 424q-14.5 15 -14.5 41t14.5 41t42.5 15t42.5 -15t14.5 -41t-14.5 -41t-42.5 -15t-42.5 15z" />
    <glyph glyph-name="numbersign.tf" 
d="M483 730l-35 -214h109l-8 -50h-109l-34 -202h110l-9 -50h-109l-35 -214h-55l35 214h-166l-35 -214h-56l35 214h-109l8 50h109l34 202h-110l9 50h109l35 214h56l-35 -214h166l35 214h55zM351 264l34 202h-166l-34 -202h166z" />
    <glyph glyph-name="parenleft.tf" 
d="M275.5 504q-30.5 -129 -30.5 -239t30.5 -239t85.5 -226h-59q-66 101 -97.5 222t-31.5 243t31.5 243t97.5 222h59q-55 -97 -85.5 -226z" />
    <glyph glyph-name="parenright.tf" 
d="M366.5 508q31.5 -121 31.5 -243t-31.5 -243t-97.5 -222h-59q55 97 85.5 226t30.5 239t-30.5 239t-85.5 226h59q66 -101 97.5 -222z" />
    <glyph glyph-name="braceleft.tf" 
d="M331 24q-2 -13 -5.5 -44.5t-3.5 -47.5q0 -34 16 -53t44 -19h8v-60h-17q-51 0 -87.5 30.5t-36.5 93.5q0 25 10 101q10 78 10 107q0 104 -94 104h-4v58h4q94 0 94 104q0 29 -10 107q-10 76 -10 101q0 63 36.5 93.5t87.5 30.5h17v-60h-8q-28 0 -44 -19t-16 -53
q0 -16 3.5 -47.5t5.5 -44.5q11 -73 11 -108q0 -48 -22.5 -81.5t-60.5 -48.5v-6q38 -15 60.5 -48.5t22.5 -81.5q0 -35 -11 -108z" />
    <glyph glyph-name="braceright.tf" 
d="M251.5 214.5q22.5 33.5 60.5 47.5v6q-38 14 -60.5 47.5t-22.5 82.5q0 35 11 108q2 13 5.5 44.5t3.5 47.5q0 34 -16.5 53t-44.5 19h-7v60h16q52 0 88.5 -30.5t36.5 -93.5q0 -25 -10 -101q-10 -78 -10 -107q0 -104 93 -104h4v-58h-4q-93 0 -93 -104q0 -29 10 -107
q10 -76 10 -101q0 -63 -36.5 -93.5t-88.5 -30.5h-16v60h7q28 0 44.5 19t16.5 53q0 16 -3.5 47.5t-5.5 44.5q-11 73 -11 108q0 49 22.5 82.5z" />
    <glyph glyph-name="bracketleft.tf" 
d="M383 730v-61h-104v-808h104v-61h-176v930h176z" />
    <glyph glyph-name="bracketright.tf" 
d="M364 -200h-176v61h104v808h-104v61h176v-930z" />
    <glyph glyph-name="period.sups" horiz-adv-x="198" 
d="M66.5 360q-10.5 11 -10.5 29q0 39 41 39t41 -39q0 -18 -10.5 -29t-30.5 -11t-30.5 11z" />
    <glyph glyph-name="comma.sups" horiz-adv-x="195" 
d="M90 351q-17 1 -25.5 11.5t-8.5 26.5q0 18 10.5 28.5t30.5 10.5q39 0 39 -45q0 -28 -13 -68t-31 -70h-30q23 61 28 106z" />
    <glyph glyph-name="colon.sups" horiz-adv-x="198" 
d="M66.5 360q-10.5 11 -10.5 29q0 39 41 39t41 -39q0 -18 -10.5 -29t-30.5 -11t-30.5 11zM66.5 686.5q10.5 10.5 30.5 10.5t30.5 -10.5t10.5 -29.5q0 -18 -10.5 -28.5t-30.5 -10.5t-30.5 10.5t-10.5 28.5q0 19 10.5 29.5z" />
    <glyph glyph-name="semicolon.sups" horiz-adv-x="198" 
d="M92 351q-17 1 -25.5 11.5t-8.5 26.5q0 18 10.5 28.5t30.5 10.5q39 0 39 -45q0 -28 -13 -68t-31 -70h-30q23 61 28 106zM66.5 686.5q10.5 10.5 30.5 10.5t30.5 -10.5t10.5 -29.5q0 -18 -10.5 -28.5t-30.5 -10.5t-30.5 10.5t-10.5 28.5q0 19 10.5 29.5z" />
    <glyph glyph-name="exclam.sups" horiz-adv-x="182" 
d="M121 806l-7 -340h-46l-7 340h60zM61 417q10 10 30 10t30 -10t10 -28q0 -17 -10.5 -28t-29.5 -11t-29.5 11t-10.5 28q0 18 10 28z" />
    <glyph glyph-name="exclamdown.sups" horiz-adv-x="182" 
d="M68 698h46l7 -341h-60zM61.5 803q10.5 11 29.5 11t29.5 -11t10.5 -28q0 -18 -10 -28t-30 -10t-30 10t-10 28q0 17 10.5 28z" />
    <glyph glyph-name="question.sups" horiz-adv-x="314" 
d="M254 640.5q-16 -24.5 -46 -52.5q-29 -29 -43 -50.5t-14 -50.5v-21h-50v25q0 39 16 64.5t46 55.5q24 23 36 41t12 41q0 35 -23.5 53t-62.5 18q-22 0 -47 -5.5t-46 -14.5v52q19 8 46 12.5t53 4.5q62 0 100.5 -30t38.5 -84q0 -34 -16 -58.5zM96 417.5q10 10.5 30 10.5
t30.5 -10.5t10.5 -28.5q0 -17 -10.5 -28t-30.5 -11q-19 0 -29.5 11t-10.5 28q0 18 10 28.5z" />
    <glyph glyph-name="questiondown.sups" horiz-adv-x="314" 
d="M60 523.5q16 24.5 46 52.5q29 29 43 50.5t14 50.5v20h50v-24q0 -38 -16 -64t-46 -56q-24 -24 -36 -41.5t-12 -40.5q0 -35 23.5 -53.5t61.5 -18.5q23 0 48.5 6t45.5 15v-52q-19 -8 -46.5 -13t-52.5 -5q-62 0 -100.5 30.5t-38.5 84.5q0 34 16 58.5zM157.5 802.5
q10.5 10.5 30.5 10.5t30 -10.5t10 -28.5q0 -17 -10 -27.5t-30 -10.5t-30.5 10.5t-10.5 27.5q0 18 10.5 28.5z" />
    <glyph glyph-name="bullet.sups" horiz-adv-x="261" 
d="M87.5 540.5q-15.5 15.5 -15.5 40.5q0 26 15.5 42t43.5 16t43 -16t15 -42q0 -25 -15 -40.5t-43 -15.5t-43.5 15.5z" />
    <glyph glyph-name="numbersign.sups" horiz-adv-x="471" 
d="M368 832l-22 -137h71l-6 -37h-72l-20 -127h71l-6 -38h-72l-22 -136h-41l22 136h-105l-22 -136h-42l22 136h-70l6 38h71l20 127h-70l6 37h71l22 137h42l-22 -137h105l22 137h41zM278 531l20 127h-105l-20 -127h105z" />
    <glyph glyph-name="slash.sups" horiz-adv-x="247" 
d="M184 832h51l-173 -587h-50z" />
    <glyph glyph-name="parenleft.sups" horiz-adv-x="226" 
d="M130 685.5q-19 -84.5 -19 -156.5q0 -71 19 -155t55 -147h-45q-44 67 -64.5 145.5t-20.5 156.5q0 79 20.5 158t64.5 145h45q-36 -62 -55 -146.5z" />
    <glyph glyph-name="parenright.sups" horiz-adv-x="226" 
d="M150.5 687q20.5 -79 20.5 -158q0 -78 -20.5 -156.5t-64.5 -145.5h-45q36 63 55 146.5t19 155.5q0 73 -19 157t-55 146h45q44 -66 64.5 -145z" />
    <glyph glyph-name="braceleft.sups" horiz-adv-x="248" 
d="M162 406.5q-3 -22.5 -4 -31.5q-6 -44 -6 -57q0 -22 10.5 -34t28.5 -12h6v-45h-14q-36 0 -61 21t-25 62q0 16 6 66q7 42 7 67q0 65 -59 65h-3v43h3q59 0 59 65q0 25 -7 69q-6 48 -6 63q0 43 25 63.5t61 20.5h14v-44h-6q-18 0 -28.5 -12t-10.5 -34q0 -13 6 -57
q1 -9 4 -31.5t3 -35.5q0 -32 -15 -54t-40 -32v-5q25 -9 40 -31t15 -54q0 -13 -3 -35.5z" />
    <glyph glyph-name="braceright.sups" horiz-adv-x="248" 
d="M98 496q15 22 40 32v4q-25 9 -40 31.5t-15 54.5q0 13 3 35.5t4 31.5q6 44 6 57q0 22 -11 34t-29 12h-5v44h13q36 0 61.5 -20.5t25.5 -63.5q0 -15 -6 -63q-7 -44 -7 -69q0 -65 59 -65h3v-43h-3q-59 0 -59 -65q0 -25 7 -67q6 -50 6 -66q0 -41 -25.5 -62t-61.5 -21h-13v45h5
q18 0 29 12t11 34q0 13 -6 57q-1 9 -4 31.5t-3 35.5q0 32 15 54z" />
    <glyph glyph-name="bracketleft.sups" horiz-adv-x="239" 
d="M190 832v-46h-65v-513h65v-46h-120v605h120z" />
    <glyph glyph-name="bracketright.sups" horiz-adv-x="239" 
d="M168 227h-119v46h65v513h-65v46h119v-605z" />
    <glyph glyph-name="period.sinf" horiz-adv-x="198" 
d="M66.5 3q-10.5 11 -10.5 29q0 39 41 39t41 -39q0 -18 -10.5 -29t-30.5 -11t-30.5 11z" />
    <glyph glyph-name="comma.sinf" horiz-adv-x="195" 
d="M90 -6q-17 1 -25.5 11.5t-8.5 26.5q0 18 10.5 28.5t30.5 10.5q39 0 39 -45q0 -28 -13 -68t-31 -70h-30q23 61 28 106z" />
    <glyph glyph-name="colon.sinf" horiz-adv-x="198" 
d="M66.5 3q-10.5 11 -10.5 29q0 39 41 39t41 -39q0 -18 -10.5 -29t-30.5 -11t-30.5 11zM66.5 329.5q10.5 10.5 30.5 10.5t30.5 -10.5t10.5 -29.5q0 -18 -10.5 -28.5t-30.5 -10.5t-30.5 10.5t-10.5 28.5q0 19 10.5 29.5z" />
    <glyph glyph-name="semicolon.sinf" horiz-adv-x="198" 
d="M92 -6q-17 1 -25.5 11.5t-8.5 26.5q0 18 10.5 28.5t30.5 10.5q39 0 39 -45q0 -28 -13 -68t-31 -70h-30q23 61 28 106zM66.5 329.5q10.5 10.5 30.5 10.5t30.5 -10.5t10.5 -29.5q0 -18 -10.5 -28.5t-30.5 -10.5t-30.5 10.5t-10.5 28.5q0 19 10.5 29.5z" />
    <glyph glyph-name="exclam.sinf" horiz-adv-x="182" 
d="M121 449l-7 -340h-46l-7 340h60zM61 60q10 10 30 10t30 -10t10 -28q0 -17 -10.5 -28t-29.5 -11t-29.5 11t-10.5 28q0 18 10 28z" />
    <glyph glyph-name="exclamdown.sinf" horiz-adv-x="182" 
d="M68 341h46l7 -341h-60zM61.5 446q10.5 11 29.5 11t29.5 -11t10.5 -28q0 -18 -10 -28t-30 -10t-30 10t-10 28q0 17 10.5 28z" />
    <glyph glyph-name="question.sinf" horiz-adv-x="314" 
d="M254 283.5q-16 -24.5 -46 -52.5q-29 -29 -43 -50.5t-14 -50.5v-21h-50v25q0 39 16 64.5t46 55.5q24 23 36 41t12 41q0 35 -23.5 53t-62.5 18q-22 0 -47 -5.5t-46 -14.5v52q19 8 46 12.5t53 4.5q62 0 100.5 -30t38.5 -84q0 -34 -16 -58.5zM96 60.5q10 10.5 30 10.5
t30.5 -10.5t10.5 -28.5q0 -17 -10.5 -28t-30.5 -11q-19 0 -29.5 11t-10.5 28q0 18 10 28.5z" />
    <glyph glyph-name="questiondown.sinf" horiz-adv-x="314" 
d="M60 166.5q16 24.5 46 52.5q29 29 43 50.5t14 50.5v20h50v-24q0 -38 -16 -64t-46 -56q-24 -24 -36 -41.5t-12 -40.5q0 -35 23.5 -53.5t61.5 -18.5q23 0 48.5 6t45.5 15v-52q-19 -8 -46.5 -13t-52.5 -5q-62 0 -100.5 30.5t-38.5 84.5q0 34 16 58.5zM157.5 445.5
q10.5 10.5 30.5 10.5t30 -10.5t10 -28.5q0 -17 -10 -27.5t-30 -10.5t-30.5 10.5t-10.5 27.5q0 18 10.5 28.5z" />
    <glyph glyph-name="bullet.sinf" horiz-adv-x="261" 
d="M87.5 183.5q-15.5 15.5 -15.5 40.5q0 26 15.5 42t43.5 16t43 -16t15 -42q0 -25 -15 -40.5t-43 -15.5t-43.5 15.5z" />
    <glyph glyph-name="numbersign.sinf" horiz-adv-x="471" 
d="M368 475l-22 -137h71l-6 -37h-72l-20 -127h71l-6 -38h-72l-22 -136h-41l22 136h-105l-22 -136h-42l22 136h-70l6 38h71l20 127h-70l6 37h71l22 137h42l-22 -137h105l22 137h41zM278 174l20 127h-105l-20 -127h105z" />
    <glyph glyph-name="slash.sinf" horiz-adv-x="247" 
d="M184 475h51l-173 -587h-50z" />
    <glyph glyph-name="parenleft.sinf" horiz-adv-x="226" 
d="M130 328.5q-19 -84.5 -19 -156.5q0 -71 19 -155t55 -147h-45q-44 67 -64.5 145.5t-20.5 156.5q0 79 20.5 158t64.5 145h45q-36 -62 -55 -146.5z" />
    <glyph glyph-name="parenright.sinf" horiz-adv-x="226" 
d="M150.5 330q20.5 -79 20.5 -158q0 -78 -20.5 -156.5t-64.5 -145.5h-45q36 63 55 146.5t19 155.5q0 73 -19 157t-55 146h45q44 -66 64.5 -145z" />
    <glyph glyph-name="braceleft.sinf" horiz-adv-x="248" 
d="M162 49.5q-3 -22.5 -4 -31.5q-6 -44 -6 -57q0 -22 10.5 -34t28.5 -12h6v-45h-14q-36 0 -61 21t-25 62q0 16 6 66q7 42 7 67q0 65 -59 65h-3v43h3q59 0 59 65q0 25 -7 69q-6 48 -6 63q0 43 25 63.5t61 20.5h14v-44h-6q-18 0 -28.5 -12t-10.5 -34q0 -13 6 -57q1 -9 4 -31.5
t3 -35.5q0 -32 -15 -54t-40 -32v-5q25 -9 40 -31t15 -54q0 -13 -3 -35.5z" />
    <glyph glyph-name="braceright.sinf" horiz-adv-x="248" 
d="M98 139q15 22 40 32v4q-25 9 -40 31.5t-15 54.5q0 13 3 35.5t4 31.5q6 44 6 57q0 22 -11 34t-29 12h-5v44h13q36 0 61.5 -20.5t25.5 -63.5q0 -15 -6 -63q-7 -44 -7 -69q0 -65 59 -65h3v-43h-3q-59 0 -59 -65q0 -25 7 -67q6 -50 6 -66q0 -41 -25.5 -62t-61.5 -21h-13v45h5
q18 0 29 12t11 34q0 13 -6 57q-1 9 -4 31.5t-3 35.5q0 32 15 54z" />
    <glyph glyph-name="bracketleft.sinf" horiz-adv-x="239" 
d="M190 475v-46h-65v-513h65v-46h-120v605h120z" />
    <glyph glyph-name="bracketright.sinf" horiz-adv-x="239" 
d="M168 -130h-119v46h65v513h-65v46h119v-605z" />
    <glyph glyph-name="at.case" horiz-adv-x="1007" 
d="M670 -79.5q-69 -22.5 -149 -22.5q-128 0 -233 55.5t-166.5 157.5t-61.5 234q0 131 60 232.5t167 158t243 56.5q126 0 220.5 -49t145.5 -137t51 -203q0 -89 -30 -151.5t-80 -93.5t-111 -31t-96 30t-48 78h-8q-25 -46 -65 -77t-86 -31q-55 0 -88 43.5t-33 118.5
q0 66 26 130.5t77.5 106t122.5 41.5q35 0 76 -10t73 -24l-33 -198q-4 -30 -4 -45q0 -52 23.5 -84t74.5 -32q43 0 78.5 25t56.5 75t21 122q0 103 -44.5 182.5t-127.5 123.5t-194 44q-120 0 -214.5 -50.5t-147.5 -142t-53 -208.5q0 -119 53.5 -210t148 -141t213.5 -50
q151 0 263 88v-50q-52 -39 -121 -61.5zM388.5 211.5q20.5 -30.5 54.5 -30.5q43 0 83 47.5t54 115.5l25 152q-48 16 -87 16q-50 0 -84 -35t-50 -86t-16 -98q0 -51 20.5 -81.5z" />
    <glyph glyph-name="currency.tf" 
d="M168 170l-96 -96l-39 40l96 96q-39 54 -39 117q0 62 39 116l-96 96l39 39l96 -96q54 39 117 39q66 0 116 -39l96 96l40 -39l-96 -96q39 -54 39 -116q0 -63 -39 -117l96 -96l-40 -40l-96 96q-50 -39 -116 -39q-63 0 -117 39zM161.5 255.5q19.5 -32.5 52.5 -52t71 -19.5
t71 19t52 52t19 72q0 38 -19 70.5t-52 52t-71 19.5t-71 -19.5t-52.5 -52t-19.5 -70.5q0 -39 19.5 -71.5z" />
    <glyph glyph-name="cent.tf" 
d="M385 564.5q-29 6.5 -53 6.5q-73 0 -110 -54t-37 -151t38 -151.5t113 -54.5q24 0 50 6.5t48 18.5v-64q-47 -22 -104 -22h-7v-99h-54v106q-78 20 -120 88.5t-42 171.5t41.5 171t120.5 88v105h54v-98h9q50 0 102 -18v-65q-20 9 -49 15.5z" />
    <glyph glyph-name="colonmonetary.tf" 
d="M431.5 627.5q-40.5 7.5 -75.5 7.5q-108 0 -163 -77.5t-55 -212.5t55 -212.5t163 -77.5q34 0 75.5 6.5t67.5 17.5v-71q-29 -9 -68.5 -14.5t-72.5 -5.5q-23 0 -34 1l-21 -106h-44l22 113q-31 7 -63 23l-27 -136h-45l33 160q-59 45 -89 122.5t-30 179.5q0 144 59 237
t172 114l22 109h44l-21 -104q7 1 21 1q13 0 47 -2l21 105h45l-23 -111q36 -8 52 -14v-71q-27 11 -67.5 18.5z" />
    <glyph glyph-name="dollar.tf" 
d="M151.5 638.5q43.5 46.5 114.5 59.5v107h54v-103q35 0 67.5 -7.5t54.5 -20.5v-69q-26 13 -60.5 22t-66.5 9q-57 0 -93.5 -29.5t-36.5 -81.5q0 -32 15 -55t39.5 -39.5t69.5 -38.5q80 -39 122.5 -85.5t42.5 -124.5q0 -79 -44.5 -129.5t-120.5 -61.5v-108h-53v105
q-44 2 -86.5 16t-74.5 37v71q36 -26 83.5 -42t90.5 -16q60 0 94 33t34 89q0 53 -31.5 84.5t-97.5 65.5q-49 25 -82 48t-55.5 59.5t-22.5 88.5q0 70 43.5 116.5z" />
    <glyph glyph-name="Euro.tf" 
d="M434.5 627.5q-40.5 7.5 -75.5 7.5q-88 0 -141.5 -53t-69.5 -147h210v-46h-215q-2 -28 -2 -44t2 -44h215v-46h-210q16 -95 69 -147.5t142 -52.5q34 0 75.5 6.5t67.5 17.5v-71q-29 -9 -68.5 -14.5t-72.5 -5.5q-144 0 -221 96.5t-77 260.5t76.5 260.5t220.5 96.5
q35 0 74 -5.5t68 -16.5v-71q-27 11 -67.5 18.5z" />
    <glyph glyph-name="uni20B2.tf" 
d="M431 629.5q-40 6.5 -78 6.5q-128 0 -191.5 -77.5t-63.5 -213.5q0 -138 58 -214.5t180 -76.5q51 0 111 9v264h73v-316q-36 -11 -87.5 -17t-92.5 -6v-105h-54v108q-133 15 -199.5 109t-66.5 245q0 149 70.5 243t206.5 111v106h53v-103h5q79 0 145 -20v-69q-29 10 -69 16.5z
" />
    <glyph glyph-name="sterling.tf" 
d="M488 0h-403v46q48 48 71 102t23 107q0 32 -8 62h-86v46h70l-14 31q-19 45 -28 73t-9 64q0 81 55 126t149 45q40 0 82 -9t80 -24v-64q-34 17 -73.5 27t-75.5 10q-68 0 -104 -31.5t-36 -89.5q0 -29 8 -54t24 -64q3 -8 7.5 -18t8.5 -22h192v-46h-177q8 -30 8 -61
q0 -99 -94 -195h330v-61z" />
    <glyph glyph-name="yen.tf" 
d="M112 690l171 -367h8l170 367h84l-199 -404h118v-47h-140v-87h140v-47h-140v-105h-77v105h-138v47h138v87h-138v47h116l-200 404h87z" />
    <glyph glyph-name="cent.sups" horiz-adv-x="319" 
d="M189 839v-67h7q34 0 66 -10v-49q-13 5 -32 9t-35 4q-45 0 -68 -33.5t-23 -93.5q0 -61 23.5 -94.5t70.5 -33.5q32 0 64 15v-47q-31 -14 -69 -14h-4v-68h-40v74q-50 13 -77.5 57.5t-27.5 110.5q0 65 27 109t78 58v73h40z" />
    <glyph glyph-name="dollar.sups" horiz-adv-x="363" 
d="M98.5 769.5q28.5 30.5 74.5 39.5v72h41v-68q44 0 80 -17v-52q-46 20 -87 20q-34 0 -56 -17.5t-22 -47.5q0 -29 18.5 -46t59.5 -38q53 -26 80.5 -56t27.5 -80q0 -51 -30 -85t-79 -42v-70h-39v67q-28 1 -55.5 10.5t-49.5 23.5v54q25 -17 56 -27.5t59 -10.5q37 0 58 20
t21 52q0 33 -20.5 53.5t-65.5 43.5q-49 25 -74.5 51.5t-25.5 72.5q0 47 28.5 77.5z" />
    <glyph glyph-name="colonmonetary.sups" horiz-adv-x="410" 
d="M307.5 758q-26.5 5 -48.5 5q-69 0 -103 -48t-34 -134q0 -85 34 -133t102 -48q22 0 49 4t44 11v-52q-19 -7 -44.5 -10.5t-47.5 -3.5q-11 0 -29 2l-14 -69h-33l15 75q-23 6 -39 16l-19 -91h-32l23 111q-34 30 -51.5 78t-17.5 110q0 88 35.5 147t102.5 78l16 75h32l-14 -69
q8 1 24 1h19l14 68h32l-14 -72q24 -3 42 -10v-53q-17 7 -43.5 12z" />
    <glyph glyph-name="Euro.sups" horiz-adv-x="410" 
d="M251 608h-128q-1 -9 -1 -27t1 -27h128v-33h-124q11 -58 43.5 -89.5t87.5 -31.5q22 0 49 4t44 11v-52q-19 -7 -44.5 -10.5t-47.5 -3.5q-95 0 -146 63t-51 169q0 107 51 169.5t145 62.5q55 0 93 -14v-53q-17 7 -43.5 12t-48.5 5q-55 0 -88 -31.5t-44 -88.5h124v-35z" />
    <glyph glyph-name="uni20B2.sups" horiz-adv-x="450" 
d="M276 881v-68h5q55 0 97 -13v-51q-51 15 -98 15q-80 0 -119 -48.5t-39 -134.5t36 -133.5t113 -47.5q24 0 64 5v166h56v-207q-25 -7 -60 -11t-61 -4v-67h-41v70q-83 12 -125 72.5t-42 156.5t44.5 156t129.5 73v71h40z" />
    <glyph glyph-name="sterling.sups" horiz-adv-x="363" 
d="M313 357h-266v36q30 30 45 64t15 68q0 14 -4 36h-56v35h44q-4 9 -13 29t-14 38.5t-5 38.5q0 53 36.5 82t98.5 29q58 0 107 -20v-48q-48 23 -96 23q-42 0 -65 -19t-23 -55q0 -18 5.5 -36t15.5 -41l9 -21h122v-35h-111q4 -22 4 -35q0 -62 -62 -122h213v-47z" />
    <glyph glyph-name="yen.sups" horiz-adv-x="427" 
d="M243 511v-54h90v-34h-90v-66h-59v66h-91v34h91v54h-91v34h75l-128 261h66l106 -233h5l106 233h63l-127 -261h74v-34h-90z" />
    <glyph glyph-name="cent.sinf" horiz-adv-x="319" 
d="M189 482v-67h7q34 0 66 -10v-49q-13 5 -32 9t-35 4q-45 0 -68 -33.5t-23 -93.5q0 -61 23.5 -94.5t70.5 -33.5q32 0 64 15v-47q-31 -14 -69 -14h-4v-68h-40v74q-50 13 -77.5 57.5t-27.5 110.5q0 65 27 109t78 58v73h40z" />
    <glyph glyph-name="dollar.sinf" horiz-adv-x="363" 
d="M98.5 412.5q28.5 30.5 74.5 39.5v72h41v-68q44 0 80 -17v-52q-46 20 -87 20q-34 0 -56 -17.5t-22 -47.5q0 -29 18.5 -46t59.5 -38q53 -26 80.5 -56t27.5 -80q0 -51 -30 -85t-79 -42v-70h-39v67q-28 1 -55.5 10.5t-49.5 23.5v54q25 -17 56 -27.5t59 -10.5q37 0 58 20
t21 52q0 33 -20.5 53.5t-65.5 43.5q-49 25 -74.5 51.5t-25.5 72.5q0 47 28.5 77.5z" />
    <glyph glyph-name="colonmonetary.sinf" horiz-adv-x="410" 
d="M307.5 401q-26.5 5 -48.5 5q-69 0 -103 -48t-34 -134q0 -85 34 -133t102 -48q22 0 49 4t44 11v-52q-19 -7 -44.5 -10.5t-47.5 -3.5q-11 0 -29 2l-14 -69h-33l15 75q-23 6 -39 16l-19 -91h-32l23 111q-34 30 -51.5 78t-17.5 110q0 88 35.5 147t102.5 78l16 75h32l-14 -69
q8 1 24 1h19l14 68h32l-14 -72q24 -3 42 -10v-53q-17 7 -43.5 12z" />
    <glyph glyph-name="Euro.sinf" horiz-adv-x="410" 
d="M251 251h-128q-1 -9 -1 -27t1 -27h128v-33h-124q11 -58 43.5 -89.5t87.5 -31.5q22 0 49 4t44 11v-52q-19 -7 -44.5 -10.5t-47.5 -3.5q-95 0 -146 63t-51 169q0 107 51 169.5t145 62.5q55 0 93 -14v-53q-17 7 -43.5 12t-48.5 5q-55 0 -88 -31.5t-44 -88.5h124v-35z" />
    <glyph glyph-name="uni20B2.sinf" horiz-adv-x="450" 
d="M276 524v-68h5q55 0 97 -13v-51q-51 15 -98 15q-80 0 -119 -48.5t-39 -134.5t36 -133.5t113 -47.5q24 0 64 5v166h56v-207q-25 -7 -60 -11t-61 -4v-67h-41v70q-83 12 -125 72.5t-42 156.5t44.5 156t129.5 73v71h40z" />
    <glyph glyph-name="sterling.sinf" horiz-adv-x="363" 
d="M313 0h-266v36q30 30 45 64t15 68q0 14 -4 36h-56v35h44q-4 9 -13 29t-14 38.5t-5 38.5q0 53 36.5 82t98.5 29q58 0 107 -20v-48q-48 23 -96 23q-42 0 -65 -19t-23 -55q0 -18 5.5 -36t15.5 -41l9 -21h122v-35h-111q4 -22 4 -35q0 -62 -62 -122h213v-47z" />
    <glyph glyph-name="yen.sinf" horiz-adv-x="427" 
d="M243 154v-54h90v-34h-90v-66h-59v66h-91v34h91v54h-91v34h75l-128 261h66l106 -233h5l106 233h63l-127 -261h74v-34h-90z" />
    <glyph glyph-name="plus.tf" 
d="M251 313h-221v63h221v223h67v-223h221v-63h-221v-223h-67v223z" />
    <glyph glyph-name="minus.tf" 
d="M30 313v63h509v-63h-509z" />
    <glyph glyph-name="multiply.tf" 
d="M240 346l-157 156l44 45l157 -157l158 158l46 -47l-157 -157l156 -157l-44 -45l-157 157l-158 -158l-46 47z" />
    <glyph glyph-name="divide.tf" 
d="M246 518.5q-13 13.5 -13 35.5t13 35.5t38 13.5t38 -13.5t13 -35.5t-13 -35.5t-38 -13.5t-38 13.5zM30 376h509v-63h-509v63zM246 170.5q13 13.5 38 13.5t38 -13.5t13 -35.5t-13 -35.5t-38 -13.5t-38 13.5t-13 35.5t13 35.5z" />
    <glyph glyph-name="equal.tf" 
d="M30 195v63h509v-63h-509zM30 432v63h509v-63h-509z" />
    <glyph glyph-name="notequal.tf" 
d="M244 195l-86 -195h-53l86 195h-161v63h189l77 174h-266v63h294l86 195h53l-86 -195h162v-63h-190l-77 -174h267v-63h-295z" />
    <glyph glyph-name="greater.tf" 
d="M539 385v-80l-505 -196v66l441 167v6l-441 167v66z" />
    <glyph glyph-name="less.tf" 
d="M31 305v80l505 196v-66l-441 -167v-6l441 -167v-66z" />
    <glyph glyph-name="greaterequal.tf" 
d="M38 294l451 111v5l-451 110v64l505 -130v-93l-505 -130v63zM33 159h509v-60h-509v60z" />
    <glyph glyph-name="lessequal.tf" 
d="M27 361v93l505 130v-64l-451 -111v-3l451 -112v-63zM28 159h509v-60h-509v60z" />
    <glyph glyph-name="plusminus.tf" 
d="M252 375h-222v62h222v164h65v-164h222v-62h-222v-163h-65v163zM31 143h509v-60h-509v60z" />
    <glyph glyph-name="percent.tf" 
d="M499 690h52l-479 -690h-52zM44.5 650q34.5 46 98.5 46t98.5 -46t34.5 -130t-34.5 -130.5t-98.5 -46.5t-98.5 46.5t-34.5 130.5t34.5 130zM143 385q80 0 80 135q0 65 -20 100t-60 35q-80 0 -80 -135t80 -135zM329.5 301q34.5 46 98.5 46t99 -46t35 -130t-35 -130.5
t-99 -46.5t-98.5 46.5t-34.5 130.5t34.5 130zM428 36q80 0 80 135t-80 135q-79 0 -79 -135t79 -135z" />
    <glyph glyph-name="perthousand.tf" 
d="M505 690h53l-229 -328h-53zM39.5 284q34.5 44 97.5 44t97 -44t34 -123q0 -80 -34 -123.5t-97 -43.5t-97.5 43.5t-34.5 123.5q0 79 34.5 123zM39.5 652.5q34.5 43.5 97.5 43.5t97 -43.5t34 -122.5q0 -80 -34 -124t-97 -44t-97.5 44t-34.5 124q0 79 34.5 122.5zM137 36
q78 0 78 125q0 61 -19.5 93.5t-58.5 32.5q-78 0 -78 -126q0 -125 78 -125zM137 404q78 0 78 126q0 60 -19.5 92.5t-58.5 32.5q-78 0 -78 -125q0 -126 78 -126zM336.5 284q34.5 44 97.5 44q62 0 96.5 -44t34.5 -123t-34.5 -123t-96.5 -44q-63 0 -97.5 43.5t-34.5 123.5
q0 79 34.5 123zM434 36q78 0 78 125q0 61 -19.5 93.5t-58.5 32.5q-79 0 -79 -126q0 -125 79 -125z" />
    <glyph glyph-name="plus.sups" horiz-adv-x="444" 
d="M196 557h-140v49h140v142h51v-142h141v-49h-141v-142h-51v142z" />
    <glyph glyph-name="minus.sups" horiz-adv-x="444" 
d="M56 557v49h332v-49h-332z" />
    <glyph glyph-name="equal.sups" horiz-adv-x="444" 
d="M56 479v48h332v-48h-332zM56 684h332v-48h-332v48z" />
    <glyph glyph-name="plus.sinf" horiz-adv-x="444" 
d="M196 200h-140v49h140v142h51v-142h141v-49h-141v-142h-51v142z" />
    <glyph glyph-name="minus.sinf" horiz-adv-x="444" 
d="M56 200v49h332v-49h-332z" />
    <glyph glyph-name="equal.sinf" horiz-adv-x="444" 
d="M56 122v48h332v-48h-332zM56 327h332v-48h-332v48z" />
    <glyph glyph-name="percent.sups" horiz-adv-x="575" 
d="M75 610q-27 33 -27 84t27 83.5t74 32.5t74.5 -32.5t27.5 -83.5t-27.5 -84t-74.5 -33t-74 33zM450 806h40l-365 -449h-41zM102 632.5q16 -24.5 47 -24.5t47 24t16 62t-16 62t-47 24t-47 -24t-16 -62q0 -37 16 -61.5zM351.5 553q27.5 32 74.5 32t74 -32t27 -83t-27 -84
t-74 -33t-74.5 33t-27.5 84t27.5 83zM379 408q16 -24 47 -24t47 24.5t16 61.5q0 38 -16 62t-47 24t-47 -24t-16 -62t16 -62z" />
    <glyph glyph-name="perthousand.sups" horiz-adv-x="828" 
d="M604.5 386q-27.5 33 -27.5 84t27.5 83t74.5 32t74 -32t27 -83t-27 -84t-74 -33t-74.5 33zM75 777.5q27 32.5 74 32.5t74.5 -32.5t27.5 -83.5t-27.5 -84t-74.5 -33t-74 33t-27 84t27 83.5zM450 806h40l-365 -449h-41zM102 632.5q16 -24.5 47 -24.5t47 24t16 62t-16 62
t-47 24t-47 -24t-16 -62q0 -37 16 -61.5zM351.5 553q27.5 32 74.5 32t74 -32t27 -83t-27 -84t-74 -33t-74.5 33t-27.5 84t27.5 83zM379 408q16 -24 47 -24t47 24.5t16 61.5q0 38 -16 62t-47 24t-47 -24t-16 -62t16 -62zM632 408q16 -24 47 -24t47 24.5t16 61.5q0 38 -16 62
t-47 24t-47 -24t-16 -62t16 -62z" />
    <glyph glyph-name="percent.sinf" horiz-adv-x="575" 
d="M75 253q-27 33 -27 84t27 83.5t74 32.5t74.5 -32.5t27.5 -83.5t-27.5 -84t-74.5 -33t-74 33zM450 449h40l-365 -449h-41zM102 275.5q16 -24.5 47 -24.5t47 24t16 62t-16 62t-47 24t-47 -24t-16 -62q0 -37 16 -61.5zM351.5 196q27.5 32 74.5 32t74 -32t27 -83t-27 -84
t-74 -33t-74.5 33t-27.5 84t27.5 83zM379 51q16 -24 47 -24t47 24.5t16 61.5q0 38 -16 62t-47 24t-47 -24t-16 -62t16 -62z" />
    <glyph glyph-name="perthousand.sinf" horiz-adv-x="828" 
d="M604.5 29q-27.5 33 -27.5 84t27.5 83t74.5 32t74 -32t27 -83t-27 -84t-74 -33t-74.5 33zM75 420.5q27 32.5 74 32.5t74.5 -32.5t27.5 -83.5t-27.5 -84t-74.5 -33t-74 33t-27 84t27 83.5zM450 449h40l-365 -449h-41zM102 275.5q16 -24.5 47 -24.5t47 24t16 62t-16 62
t-47 24t-47 -24t-16 -62q0 -37 16 -61.5zM351.5 196q27.5 32 74.5 32t74 -32t27 -83t-27 -84t-74 -33t-74.5 33t-27.5 84t27.5 83zM379 51q16 -24 47 -24t47 24.5t16 61.5q0 38 -16 62t-47 24t-47 -24t-16 -62t16 -62zM632 51q16 -24 47 -24t47 24.5t16 61.5q0 38 -16 62
t-47 24t-47 -24t-16 -62t16 -62z" />
    <glyph glyph-name="uni030C.alt" horiz-adv-x="0" 
d="M88 768h57v-78l-19 -127h-38v205z" />
    <glyph glyph-name="uni0308.ss01" horiz-adv-x="0" 
d="M76 657.5q-12 13.5 -12 35.5t12 36t34 14t34 -14t12 -36t-12 -35.5t-34 -13.5t-34 13.5zM212 729q12 14 34 14t34 -14t12 -36t-12 -35.5t-34 -13.5t-34 13.5t-12 35.5t12 36z" />
    <glyph glyph-name="dieresis.ss01" horiz-adv-x="356" 
d="M76 657.5q-12 13.5 -12 35.5t12 36t34 14t34 -14t12 -36t-12 -35.5t-34 -13.5t-34 13.5zM212 729q12 14 34 14t34 -14t12 -36t-12 -35.5t-34 -13.5t-34 13.5t-12 35.5t12 36z" />
    </font>
</defs>
</svg>
