<?xml version="1.0" standalone="no"?>
<!DOCTYPE svg PUBLIC "-//W3C//DTD SVG 1.1//EN" "http://www.w3.org/Graphics/SVG/1.1/DTD/svg11.dtd" >
<svg xmlns="http://www.w3.org/2000/svg" xmlns:xlink="http://www.w3.org/1999/xlink" version="1.1">
<metadata>
Created by FontForge 20170731 at Thu Oct  6 02:30:39 2022
 By Aleksey,,,
America Movil S.A. de C.V.
</metadata>
<defs>
<font id="AMX-BoldItalic" horiz-adv-x="618" >
  <font-face 
    font-family="AMX"
    font-weight="700"
    font-style="italic"
    font-stretch="normal"
    units-per-em="1000"
    panose-1="0 0 0 0 0 0 0 0 0 0"
    ascent="742"
    descent="-258"
    x-height="519"
    cap-height="690"
    bbox="-83 -212 2878 1285"
    underline-thickness="50"
    underline-position="-175"
    slope="-10"
    unicode-range="U+0020-25CA"
  />
<missing-glyph horiz-adv-x="559" 
d="M550 690l-117 -690h-394l117 690h394zM277 344l-99 283l-96 -566zM386 35l-97 277l-192 -277h289zM299 376l193 279h-290zM409 61l96 565l-195 -282z" />
    <glyph glyph-name="arrowleft" unicode="&#x3c;&#x2d;" horiz-adv-x="901" 
d="M77 308l193 193h171l-169 -170l143 9h352v-156h-352l-144 9l170 -170h-171l-193 193v92z" />
    <glyph glyph-name="arrowup" unicode="&#x3c;&#x7c;" horiz-adv-x="696" 
d="M587 497v-172l-170 171l9 -145v-351h-156v351l9 144l-170 -170v172l193 193h92z" />
    <glyph glyph-name="arrowright" unicode="&#x2d;&#x3e;" horiz-adv-x="901" 
d="M579 23h-172l171 170l-144 -9h-352v156h352l143 -9l-170 170h172l193 -193v-92z" />
    <glyph glyph-name="arrowdown" unicode="&#x7c;&#x3e;" horiz-adv-x="696" 
d="M279 0l-193 193v172l170 -170l-9 144v351h156v-351l-9 -144l170 170v-172l-193 -193h-92z" />
    <glyph glyph-name="arrowboth" unicode="&#x3c;&#x2d;&#x3e;" horiz-adv-x="1084" 
d="M270 501h159l-170 -171l156 10h201l157 -10l-171 171h160l193 -193v-92l-193 -193h-160l171 171l-157 -10h-201l-157 10l171 -171h-159l-193 193v92z" />
    <glyph glyph-name="arrowupdn" unicode="&#x3c;&#x7c;&#x3e;" horiz-adv-x="753" 
d="M587 497v-160l-171 171l10 -157v-201l-10 -157l171 171v-159l-193 -193h-92l-193 193v159l171 -170l-10 157v200l10 157l-171 -171v160l193 193h92z" />
    <glyph glyph-name="uni2196" unicode="&#x3c;\" horiz-adv-x="781" 
d="M441 523l121 -121h-241l109 -96l249 -248l-111 -111l-248 249l-95 107v-240l-122 122v273l65 65h273z" />
    <glyph glyph-name="uni2197" unicode="&#x2f;&#x3e;" horiz-adv-x="742" 
d="M608 458v-273l-122 -122v240l-95 -107l-248 -249l-111 111l249 249l108 95h-240l121 121h273z" />
    <glyph glyph-name="uni2198" unicode="\&#x3e;" horiz-adv-x="835" 
d="M346 24l-121 121h241l-109 96l-249 248l111 111l248 -249l95 -107v239l122 -121v-273l-65 -65h-273z" />
    <glyph glyph-name="uni2199" unicode="&#x3c;&#x2f;" horiz-adv-x="688" 
d="M86 89v273l122 121v-239l95 107l248 249l111 -111l-249 -248l-109 -96h241l-121 -121h-273z" />
    <glyph glyph-name="logo" unicode="&#x3a;l&#x3a;" horiz-adv-x="3056" 
d="M2713 901l79 -81l-307 -307l-79 81zM243 500q45 76 121 121t167 45q73 0 137.5 -31t109 -87t62.5 -128h-136q-22 56 -69 88t-107 32q-56 0 -102.5 -27.5t-74 -75t-27.5 -104.5t27.5 -104.5t74 -75t102.5 -27.5q60 0 107 32t69 88h137q-18 -72 -63 -128t-109 -87t-138 -31
q-91 0 -167 45t-121 121t-45 167t45 167zM905 666h126v-666h-126v666zM1264 312l73 13q45 8 61 19.5t16 29.5q0 27 -23 39.5t-58 12.5q-42 0 -65.5 -18.5t-23.5 -50.5h-126q0 82 57.5 128t169.5 46q199 0 199 -162v-369h-126v55q-56 -55 -148 -55q-76 0 -120 38.5t-44 111.5
q0 135 158 162zM1302 90q55 0 85.5 39t30.5 104v33q-27 -22 -104 -36q-42 -8 -62 -25.5t-20 -50.5q0 -64 70 -64zM1628 509h121v-63q29 39 75 62t98 23v-130q-18 3 -35 3q-63 0 -98 -40.5t-35 -116.5v-247h-126v509zM1971.5 400q35.5 61 96.5 96t133 35q73 0 134 -35
t96.5 -96t35.5 -134t-35.5 -134t-97 -96.5t-133.5 -35.5t-133 35.5t-96.5 96.5t-35.5 134t35.5 134zM2081.5 194q18.5 -33 50.5 -52t69 -19q38 0 70 19t50.5 52t18.5 72t-18.5 71.5t-50.5 51.5t-70 19t-69.5 -19t-50 -51.5t-18.5 -71.5t18.5 -72zM2157 966h114v-330h-114
v330zM2542 386h336v-113h-336v113z" />
    <glyph glyph-name="logo1" unicode="&#x3a;l&#x31;&#x3a;" horiz-adv-x="1305" 
d="M963 901l79 -81l-307 -307l-79 81zM221.5 400q35.5 61 96.5 96t133 35q73 0 134 -35t96.5 -96t35.5 -134t-35.5 -134t-97 -96.5t-133.5 -35.5t-133 35.5t-96.5 96.5t-35.5 134t35.5 134zM331.5 194q18.5 -33 50.5 -52t69 -19q38 0 70 19t50.5 52t18.5 72t-18.5 71.5
t-50.5 51.5t-70 19t-69.5 -19t-50 -51.5t-18.5 -71.5t18.5 -72zM407 966h114v-330h-114v330zM792 386h336v-113h-336v113z" />
    <glyph glyph-name="logo2" unicode="&#x3a;l&#x32;&#x3a;" horiz-adv-x="865" 
d="M752 1218l81 -83l-315 -315l-81 83zM181 1285h117v-339h-117v339zM576 690h345v-116h-345v116z" />
    <glyph glyph-name="movil" unicode="&#x3a;m&#x3a;" horiz-adv-x="701" 
d="M208 614q27 27 75 27h154q48 0 75 -27t27 -75v-449q0 -48 -27 -75t-75 -27h-154q-48 0 -75 27t-27 75v449q0 48 27 75zM241 46q15 -15 47 -15h144q32 0 47 15t15 49v6h-268v-6q0 -34 15 -49zM494 121v413q0 34 -15 49t-47 15h-144q-32 0 -47 -15t-15 -49v-413h268z
M335 551h51q10 0 10 -10t-10 -10h-51q-10 0 -10 10t10 10z" />
    <glyph glyph-name="phone" unicode="&#x3a;t&#x3a;" horiz-adv-x="626" 
d="M329 250.5q9 -7.5 28 -7.5h53q45 0 45 -45v-165q0 -45 -45 -45h-29q-64 0 -114 46.5t-77.5 128t-27.5 182.5v40q0 101 27.5 182.5t77.5 128t114 46.5h29q45 0 45 -45v-165q0 -45 -45 -45h-53q-19 0 -28 -7.5t-9 -23.5v-182q0 -16 9 -23.5zM224.5 193
q17.5 -65 46.5 -104.5t64 -48.5v158q-26 0 -43 20t-17 57v180q0 37 17 57t43 20v158q-35 -9 -64 -48.5t-46.5 -104.5t-17.5 -147v-50q0 -82 17.5 -147zM410 33v165h-55v-165h55zM410 532v165h-55v-165h55z" />
    <glyph glyph-name="tv" unicode="&#x3a;tv&#x3a;" horiz-adv-x="1210" 
d="M203 586q27 27 76 27h679q49 0 76 -27t27 -75v-349q0 -48 -27 -75t-76 -27h-325v-32h100q6 0 10 -4t4 -10t-4 -10t-10 -4h-222q-6 0 -10 4t-4 10t4 10t10 4h94v32h-326q-49 0 -76 27t-27 75v349q0 48 27 75zM237 119q15 -15 47 -15h669q32 0 47 15t15 48v339q0 33 -15 48
t-47 15h-669q-32 0 -47 -15t-15 -48v-339q0 -33 15 -48z" />
    <glyph glyph-name="internet" unicode="&#x3a;i&#x3a;" horiz-adv-x="898" 
d="M290.5 33q-77.5 45 -122.5 122.5t-45 169.5t45 170t122.5 123.5t169.5 45.5t170 -45.5t123.5 -123.5t45.5 -170t-45.5 -169.5t-123.5 -122.5t-170 -45t-169.5 45zM179 246q68 -17 136 -17q-44 114 -44 242q0 48 5 83q-50 -41 -79 -101t-29 -128q0 -40 11 -79zM282.5 92.5
q65.5 -50.5 148.5 -58.5q-67 80 -107 172h-5q-65 0 -132 14q30 -77 95.5 -127.5zM343 229q145 6 273 80q-16 86 -55.5 165t-97.5 145h-3q-87 0 -158 -47q-8 -53 -8 -104q0 -120 49 -239zM465 33q84 1 155 47q8 53 8 104q0 48 -8 101q-126 -71 -267 -78q44 -97 112 -174z
M583.5 479q36.5 -75 53.5 -158q60 39 105 86q-24 84 -92 142t-156 68q53 -63 89.5 -138zM651 184q0 -38 -5 -86q51 41 79.5 100t28.5 127q0 26 -5 56q-49 -47 -107 -84q9 -55 9 -113z" />
    <glyph glyph-name=".notdef" horiz-adv-x="559" 
d="M550 690l-117 -690h-394l117 690h394zM277 344l-99 283l-96 -566zM386 35l-97 277l-192 -277h289zM299 376l193 279h-290zM409 61l96 565l-195 -282z" />
    <glyph glyph-name=".null" horiz-adv-x="0" 
 />
    <glyph glyph-name="nonmarkingreturn" horiz-adv-x="333" 
 />
    <glyph glyph-name="space" unicode=" " horiz-adv-x="189" 
 />
    <glyph glyph-name="space" unicode="&#xa0;" horiz-adv-x="189" 
 />
    <glyph glyph-name="exclam" unicode="!" horiz-adv-x="304" 
d="M301 690l-97 -485h-123l66 485h154zM52.5 123.5q25.5 29.5 79.5 29.5q75 0 75 -65q0 -42 -26.5 -71t-78.5 -29q-38 0 -56.5 17.5t-18.5 49.5q0 39 25.5 68.5z" />
    <glyph glyph-name="quotedbl" unicode="&#x22;" horiz-adv-x="464" 
d="M262 647l-59 -232h-89l21 232l15 83h127zM465 647l-59 -232h-89l21 232l15 83h127z" />
    <glyph glyph-name="numbersign" unicode="#" horiz-adv-x="701" 
d="M658 730l-62 -189h103l-32 -95h-102l-53 -162h103l-32 -95h-102l-62 -189h-104l62 189h-131l-62 -189h-104l62 189h-103l31 95h103l53 162h-103l31 95h103l62 189h104l-62 -189h131l62 189h104zM408 284l53 162h-131l-53 -162h131z" />
    <glyph glyph-name="dollar" unicode="$" horiz-adv-x="501" 
d="M393 799l-16 -98q63 -4 114 -28l-21 -130q-81 35 -138 35q-41 0 -67 -18t-26 -51q0 -30 21 -53.5t65 -57.5q40 -31 65.5 -55.5t44 -60.5t18.5 -83q0 -85 -58 -142t-155 -67l-17 -100h-94l18 102q-40 5 -77 16.5t-62 26.5l24 137q41 -26 93.5 -43t90.5 -17q37 0 61 18
t24 52q0 32 -21 56t-66 58q-40 30 -65 54t-43 59.5t-18 81.5q0 80 53.5 134.5t140.5 70.5l17 103h94z" />
    <glyph glyph-name="percent" unicode="%" horiz-adv-x="762" 
d="M92 377.5q-36 38.5 -36 101.5q0 55 25 105t69.5 81t100.5 31q63 0 99 -38.5t36 -102.5q0 -54 -25 -104t-69.5 -81t-100.5 -31q-63 0 -99 38.5zM676 690h96l-657 -690h-95zM203 412q43 0 68.5 41.5t25.5 93.5q0 35 -14 55.5t-44 20.5q-44 0 -68 -42t-24 -93q0 -76 56 -76z
M430.5 239q24.5 50 69 81t101.5 31q63 0 99 -38t36 -101q0 -54 -24.5 -104.5t-69.5 -82t-102 -31.5q-63 0 -98.5 39t-35.5 102q0 54 24.5 104zM509.5 87.5q14.5 -20.5 43.5 -20.5q31 0 52 21.5t31 53.5t10 61q0 34 -14 54.5t-44 20.5q-32 0 -53 -22.5t-30.5 -54t-9.5 -59.5
q0 -34 14.5 -54.5z" />
    <glyph glyph-name="ampersand" unicode="&#x26;" horiz-adv-x="674" 
d="M411 72q-43 -39 -95.5 -61.5t-109.5 -22.5q-80 0 -129.5 43t-49.5 122q0 77 47.5 143t122.5 104q-20 48 -20 91q0 58 33 106.5t92 76.5t132 28q58 0 123 -17l-21 -124q-21 8 -53 13t-56 5q-46 0 -73 -21.5t-27 -58.5q0 -35 23.5 -74t73.5 -102q7 -10 23 -30t27 -36
q26 67 31 148h133q-30 -144 -109 -236q38 -74 38 -144l-1 -25h-141q0 36 -14 72zM194.5 124.5q22.5 -24.5 65.5 -24.5q29 0 58.5 11.5t55.5 31.5q-25 40 -76 104q-30 38 -57 75q-31 -27 -50 -61.5t-19 -72.5q0 -39 22.5 -63.5z" />
    <glyph glyph-name="quotesingle" unicode="'" horiz-adv-x="261" 
d="M262 647l-59 -232h-89l21 232l15 83h127z" />
    <glyph glyph-name="parenleft" unicode="(" horiz-adv-x="346" 
d="M253.5 415.5q-51.5 -174.5 -51.5 -342.5q0 -71 10 -142.5t29 -130.5h-111q-69 137 -69 308q0 156 56 321t171 301h111q-94 -140 -145.5 -314.5z" />
    <glyph glyph-name="parenright" unicode=")" horiz-adv-x="345" 
d="M93.5 114.5q51.5 174.5 51.5 342.5q0 71 -10 142.5t-29 130.5h111q69 -134 69 -308q0 -156 -55.5 -321t-170.5 -301h-112q94 140 145.5 314.5z" />
    <glyph glyph-name="asterisk" unicode="*" horiz-adv-x="518" 
d="M262 469l-127 -79l-34 80l134 60l-115 60l59 80l102 -78l12 138h92l-32 -138l126 78l33 -80l-134 -60l115 -60l-58 -80l-102 78l-12 -138h-92z" />
    <glyph glyph-name="plus" unicode="+" 
d="M247 280h-183l22 129h183l33 195h132l-33 -195h183l-22 -129h-183l-33 -194h-132z" />
    <glyph glyph-name="comma" unicode="," horiz-adv-x="305" 
d="M86 -7q-26 7 -41.5 25.5t-15.5 45.5q0 36 26 63.5t70 27.5q38 0 61 -21.5t23 -57.5q0 -49 -39 -122.5t-91 -125.5h-73q53 84 80 165z" />
    <glyph glyph-name="hyphen" unicode="-" horiz-adv-x="365" 
d="M340 308l-18 -98h-296l17 98h297z" />
    <glyph glyph-name="period" unicode="." horiz-adv-x="305" 
d="M28 56q0 40 26 70.5t81 30.5q77 0 77 -67q0 -43 -27.5 -72.5t-79.5 -29.5q-77 0 -77 68z" />
    <glyph glyph-name="slash" unicode="/" horiz-adv-x="358" 
d="M308 730h133l-385 -902h-132z" />
    <glyph glyph-name="zero" unicode="0" horiz-adv-x="608" 
d="M98 53q-55 65 -55 191q0 106 37.5 211.5t114 176t187.5 70.5q104 0 159 -65t55 -191q0 -105 -37.5 -211t-114 -176.5t-187.5 -70.5q-104 0 -159 65zM214 138q21 -32 61 -32q56 0 94.5 63t57 147t18.5 144q0 59 -21.5 91.5t-60.5 32.5q-56 0 -94.5 -63t-57 -147.5
t-18.5 -144.5q0 -59 21 -91z" />
    <glyph glyph-name="one" unicode="1" horiz-adv-x="379" 
d="M207 555l-153 -74l20 119l189 90h117l-118 -690h-150z" />
    <glyph glyph-name="two" unicode="2" horiz-adv-x="515" 
d="M1 0l23 130l197 193q63 60 92.5 101.5t29.5 81.5q0 37 -24 57.5t-66 20.5q-29 0 -69 -10.5t-74 -26.5l20 123q44 15 92.5 23.5t89.5 8.5q90 0 139 -39.5t49 -115.5q0 -72 -42 -136.5t-123 -142.5l-145 -140v-7h256l-22 -121h-423z" />
    <glyph glyph-name="three" unicode="3" horiz-adv-x="500" 
d="M294 702q83 0 138 -32t55 -100q0 -58 -40.5 -106t-109.5 -78v-6q53 -13 82.5 -49t29.5 -98q0 -125 -120 -185t-332 -60l20 118q140 0 210.5 27.5t70.5 92.5q0 79 -105 79q-33 0 -91 -8l18 107q89 13 149.5 43.5t60.5 78.5q0 29 -21 43.5t-61 14.5q-35 0 -77 -9.5
t-79 -24.5l20 118q93 34 182 34z" />
    <glyph glyph-name="four" unicode="4" horiz-adv-x="540" 
d="M285 154h-282l19 106l268 430h147l-261 -418h130l83 184h88l-31 -184h82l-31 -118h-72l-26 -154h-149z" />
    <glyph glyph-name="five" unicode="5" horiz-adv-x="502" 
d="M405 377.5q50 -40.5 50 -127.5q0 -135 -120.5 -198.5t-324.5 -63.5l20 118q132 0 202.5 25t70.5 92q0 79 -107 79q-54 0 -135 -14l69 402h378l-21 -121h-257l-26 -154q35 3 64 3q87 0 137 -40.5z" />
    <glyph glyph-name="six" unicode="6" horiz-adv-x="577" 
d="M94 50.5q-57 62.5 -57 180.5q0 129 66 239t182.5 174.5t260.5 64.5l-20 -121q-128 0 -210 -61.5t-114 -164.5h11q33 36 79 57t96 21q73 0 116.5 -44t43.5 -125q0 -74 -36.5 -139t-103 -104.5t-152.5 -39.5q-105 0 -162 62.5zM207 137q22 -34 69 -34q55 0 90 39t35 97
q0 41 -21 64t-63 23q-37 0 -71.5 -17.5t-60.5 -48.5v-20q0 -69 22 -103z" />
    <glyph glyph-name="seven" unicode="7" horiz-adv-x="506" 
d="M549 690l-13 -78q-72 -83 -124 -164.5t-93.5 -191.5t-66.5 -256h-152q28 173 92.5 309.5t159.5 236.5l2 11h-269l23 133h441z" />
    <glyph glyph-name="eight" unicode="8" horiz-adv-x="592" 
d="M67 246.5q42 48.5 115 80.5v7q-79 56 -79 144q0 62 35.5 113t98.5 81t141 30q86 0 140.5 -37.5t54.5 -103.5q0 -57 -38.5 -105.5t-99.5 -81.5v-7q50 -28 77 -66t27 -90q0 -61 -37 -112t-103.5 -81t-152.5 -30q-99 0 -160 40.5t-61 110.5q0 59 42 107.5zM193.5 113
q25.5 -21 70.5 -21q54 0 93 27t39 68q0 29 -22.5 49.5t-62.5 37.5l-43 17q-45 -21 -72.5 -53t-27.5 -69q0 -35 25.5 -56zM263.5 453q23.5 -22 67.5 -40l24 -10q35 25 58 57t23 65q0 34 -21.5 53.5t-59.5 19.5q-46 0 -80.5 -27t-34.5 -65q0 -31 23.5 -53z" />
    <glyph glyph-name="nine" unicode="9" horiz-adv-x="576" 
d="M510 639.5q58 -62.5 58 -182.5q0 -130 -66 -239t-182 -173t-260 -64l21 122q135 0 213.5 61.5t108.5 159.5h-10q-32 -33 -78 -52t-94 -19q-74 0 -118 43.5t-44 123.5q0 71 35.5 136t101 105.5t152.5 40.5q104 0 162 -62.5zM228.5 389.5q22.5 -22.5 66.5 -22.5q37 0 69 16
t57 44q1 9 1 27q0 70 -22 102t-70 32q-38 0 -66.5 -19t-43 -50.5t-14.5 -65.5q0 -41 22.5 -63.5z" />
    <glyph glyph-name="colon" unicode=":" horiz-adv-x="306" 
d="M28 56q0 40 26 70.5t81 30.5q77 0 77 -67q0 -43 -27.5 -72.5t-79.5 -29.5q-77 0 -77 68zM94 430q0 40 26 70.5t81 30.5q77 0 77 -67q0 -43 -27.5 -72.5t-79.5 -29.5q-77 0 -77 68z" />
    <glyph glyph-name="semicolon" unicode=";" horiz-adv-x="307" 
d="M87 -7q-26 7 -41.5 25.5t-15.5 45.5q0 36 26 63.5t70 27.5q38 0 61 -21.5t23 -57.5q0 -49 -39 -122.5t-91 -125.5h-73q53 84 80 165zM94 430q0 40 26 70.5t81 30.5q77 0 77 -67q0 -43 -27.5 -72.5t-79.5 -29.5q-77 0 -77 68z" />
    <glyph glyph-name="less" unicode="&#x3c;" horiz-adv-x="636" 
d="M69 273l25 144l528 187l-22 -132l-383 -121l-3 -12l343 -121l-23 -132z" />
    <glyph glyph-name="equal" unicode="=" horiz-adv-x="619" 
d="M41 148l22 129h498l-22 -129h-498zM87 413l22 129h498l-22 -129h-498z" />
    <glyph glyph-name="greater" unicode="&#x3e;" horiz-adv-x="636" 
d="M597 417l-25 -145l-528 -186l23 132l383 121l2 12l-342 121l22 132z" />
    <glyph glyph-name="question" unicode="?" horiz-adv-x="421" 
d="M216 205h-125l6 35q11 60 39.5 99.5t75.5 83.5q35 32 50.5 52.5t15.5 45.5q0 28 -20 41.5t-54 13.5q-28 0 -62 -7.5t-65 -19.5l22 130q32 10 72.5 16.5t77.5 6.5q87 0 137 -38.5t50 -111.5q0 -41 -16 -74t-38.5 -57t-60.5 -57q-46 -39 -70.5 -68.5t-30.5 -67.5zM65 126
q26 30 81 30q76 0 76 -67q0 -43 -27 -72t-79 -29q-38 0 -57.5 17.5t-19.5 50.5q0 40 26 70z" />
    <glyph glyph-name="at" unicode="@" horiz-adv-x="1026" 
d="M566 273l30 89q-30 8 -50 8q-39 0 -70.5 -33.5t-49 -80t-17.5 -80.5q0 -24 10 -37.5t27 -13.5q32 0 66 44.5t54 104.5v-1zM143 425q70 123 192.5 198t273.5 75q109 0 189 -40.5t123 -114t43 -168.5q0 -88 -35.5 -168.5t-100.5 -130t-149 -49.5q-60 0 -92.5 25.5
t-41.5 70.5h-8q-27 -40 -70 -68t-88 -28q-46 0 -72.5 31t-26.5 89q0 71 37.5 146t105 125t151.5 50q42 0 86.5 -12.5t80.5 -31.5l-69 -206q-9 -28 -9 -52q0 -29 14.5 -45.5t43.5 -16.5q47 0 83 40.5t55 100.5t19 117q0 74 -34.5 133t-99.5 92.5t-153 33.5q-120 0 -220 -62.5
t-157 -164.5t-57 -217q0 -95 40 -164.5t111 -106.5t161 -37q72 0 147 24t143 72l-14 -81q-54 -40 -131 -66t-161 -26q-108 0 -194.5 45t-136 129.5t-49.5 198.5q0 137 70 260z" />
    <glyph glyph-name="A" unicode="A" horiz-adv-x="619" 
d="M408 0l-15 159h-206l-71 -159h-148l310 690h216l66 -690h-152zM389 280l-26 265h-11l-119 -265h156z" />
    <glyph glyph-name="B" unicode="B" horiz-adv-x="603" 
d="M148 690h277q76 0 120 -36.5t44 -101.5q0 -58 -33 -107.5t-89 -74.5v-6q45 -14 68.5 -49t23.5 -88q0 -61 -31 -113t-88 -83t-132 -31h-278zM298 109q53 0 83.5 34t30.5 81q0 37 -21 56.5t-62 19.5h-99l-32 -191h100zM332 402q53 0 82 30.5t29 74.5q0 74 -75 74h-90
l-30 -179h84z" />
    <glyph glyph-name="C" unicode="C" horiz-adv-x="527" 
d="M474 563.5q-36 8.5 -69 8.5q-72 0 -119 -45.5t-68.5 -112.5t-21.5 -133q0 -163 135 -163q30 0 71 6.5t66 16.5l-24 -134q-61 -19 -140 -19q-128 0 -196 70.5t-68 206.5q0 113 45.5 213t132 162t203.5 62q81 0 137 -25l-23 -134q-25 12 -61 20.5z" />
    <glyph glyph-name="D" unicode="D" horiz-adv-x="658" 
d="M407 690q116 0 178.5 -67.5t62.5 -197.5q0 -109 -43.5 -207t-126.5 -158t-196 -60h-252l118 690h259zM301 127q64 0 107.5 47t64.5 115.5t21 132.5q0 141 -109 141h-107l-74 -436h97z" />
    <glyph glyph-name="E" unicode="E" horiz-adv-x="529" 
d="M555 690l-22 -122h-254l-27 -157h185l-21 -122h-185l-28 -167h256l-22 -122h-407l118 690h407z" />
    <glyph glyph-name="F" unicode="F" horiz-adv-x="512" 
d="M546 690l-21 -125h-246l-32 -187h183l-21 -125h-184l-43 -253h-152l118 690h398z" />
    <glyph glyph-name="G" unicode="G" horiz-adv-x="607" 
d="M504 564q-47 8 -82 8q-80 0 -131 -45.5t-73.5 -112.5t-22.5 -133q0 -163 144 -163q9 0 45 2l38 218h146l-55 -322q-45 -13 -102 -20.5t-101 -7.5q-130 0 -200 70.5t-70 207.5q0 112 46 212t136.5 162t216.5 62q41 0 84 -6.5t78 -18.5l-22 -132q-28 11 -75 19z" />
    <glyph glyph-name="H" unicode="H" horiz-adv-x="666" 
d="M300 690l-47 -277h214l48 277h152l-119 -690h-152l50 288h-215l-49 -288h-152l118 690h152z" />
    <glyph glyph-name="I" unicode="I" horiz-adv-x="300" 
d="M300 690l-118 -690h-152l118 690h152z" />
    <glyph glyph-name="J" unicode="J" horiz-adv-x="399" 
d="M66 116q45 0 71.5 25t34.5 70l81 479h152l-81 -472q-18 -108 -85.5 -169t-178.5 -61q-44 0 -82 7l21 129q34 -8 67 -8z" />
    <glyph glyph-name="K" unicode="K" horiz-adv-x="607" 
d="M310 310h-9l-84 -107l-35 -203h-152l118 690h152l-53 -311h6l251 311h158l-219 -274l110 -416h-157z" />
    <glyph glyph-name="L" unicode="L" horiz-adv-x="504" 
d="M300 690l-97 -565h237l-22 -125h-388l118 690h152z" />
    <glyph glyph-name="M" unicode="M" horiz-adv-x="956" 
d="M452 150h11l234 540h205l-42 -690h-152l32 347q5 68 19 169h-10l-229 -516h-184l-57 516h-9l-8 -36q-4 -18 -13.5 -59.5t-17.5 -71.5l-89 -349h-138l191 690h209z" />
    <glyph glyph-name="N" unicode="N" horiz-adv-x="668" 
d="M147 690h154l164 -487h7q4 118 26 246l41 241h130l-118 -690h-152l-165 486h-8q-3 -115 -25 -245l-41 -241h-130z" />
    <glyph glyph-name="O" unicode="O" horiz-adv-x="658" 
d="M103 58q-63 70 -63 205q0 113 43.5 214t127 163t196.5 62q117 0 179.5 -70t62.5 -205q0 -113 -43.5 -214t-126.5 -163t-196 -62q-117 0 -180 70zM303 116q63 0 106.5 49t64.5 120.5t21 138.5q0 150 -111 150q-65 0 -108 -48.5t-63 -119t-20 -137.5q0 -153 110 -153z" />
    <glyph glyph-name="P" unicode="P" horiz-adv-x="562" 
d="M218 211l-36 -211h-152l118 690h232q94 0 145.5 -49.5t51.5 -139.5q0 -74 -33 -141t-94.5 -108t-143.5 -41h-88zM302 332q67 0 97.5 46.5t30.5 103.5q0 45 -22 65.5t-70 20.5h-59l-40 -236h63z" />
    <glyph glyph-name="Q" unicode="Q" horiz-adv-x="658" 
d="M419 -158q-91 27 -169 76.5t-127 113.5q-42 48 -62.5 105.5t-20.5 129.5q0 109 43.5 209t127 163t196.5 63q117 0 179.5 -69.5t62.5 -200.5q0 -101 -36.5 -197t-111.5 -160.5t-184 -72.5v-10q72 -18 152 -29t149 -11l-23 -137q-85 0 -176 27zM302 116q68 0 111.5 53
t62.5 126t19 134q0 69 -28.5 107t-83.5 38q-64 0 -106.5 -48.5t-62.5 -119.5t-20 -138q0 -152 108 -152z" />
    <glyph glyph-name="R" unicode="R" horiz-adv-x="593" 
d="M308 248h-84l-42 -248h-152l118 690h270q80 0 123.5 -39.5t43.5 -115.5q0 -65 -31.5 -128t-102.5 -99l-2 -6l81 -302h-155zM314 359q56 0 90 40.5t34 99.5q0 80 -78 80h-79l-38 -220h71z" />
    <glyph glyph-name="S" unicode="S" horiz-adv-x="522" 
d="M442 694q44 -8 79 -21l-21 -130q-100 37 -169 37q-48 0 -75 -20.5t-27 -56.5q0 -30 25 -51t93 -58q69 -37 102.5 -80.5t33.5 -106.5q0 -64 -34 -114t-95.5 -77.5t-141.5 -27.5q-57 0 -117 13.5t-97 33.5l24 137q45 -27 104.5 -44.5t105.5 -17.5q45 0 72 19t27 57
q0 29 -20.5 48t-82.5 52q-76 38 -113 83t-37 111q0 68 35.5 118t98.5 77t143 27q43 0 87 -8z" />
    <glyph glyph-name="T" unicode="T" horiz-adv-x="525" 
d="M555 565h-162l-97 -565h-152l97 565h-164l22 125h478z" />
    <glyph glyph-name="U" unicode="U" horiz-adv-x="640" 
d="M472.5 55.5q-77.5 -67.5 -195.5 -67.5q-104 0 -160.5 52t-56.5 143q0 23 5 55l78 452h152l-77 -448q-4 -28 -4 -38q0 -88 85 -88q99 0 121 128l77 446h150l-77 -451q-20 -116 -97.5 -183.5z" />
    <glyph glyph-name="V" unicode="V" horiz-adv-x="609" 
d="M245 690l37 -541h11l226 541h148l-298 -690h-217l-58 690h151z" />
    <glyph glyph-name="W" unicode="W" horiz-adv-x="1035" 
d="M246 690l29 -545h13l196 545h228l12 -545h10l215 545h143l-284 -690h-212l-17 549h-12l-201 -549h-222l-50 690h152z" />
    <glyph glyph-name="X" unicode="X" horiz-adv-x="598" 
d="M247 690l80 -253h8l160 253h156l-215 -336l106 -354h-158l-86 269h-5l-170 -269h-157l225 349l-101 341h157z" />
    <glyph glyph-name="Y" unicode="Y" horiz-adv-x="574" 
d="M240 690l65 -310h14l168 310h153l-279 -464l-39 -226h-152l39 223l-123 467h154z" />
    <glyph glyph-name="Z" unicode="Z" horiz-adv-x="581" 
d="M600 690l-16 -94l-381 -475l311 5l-21 -126h-492l15 94l380 475l-294 -5l22 126h476z" />
    <glyph glyph-name="bracketleft" unicode="[" horiz-adv-x="329" 
d="M377 730l-19 -115h-82l-119 -700h83l-20 -115h-219l157 930h219z" />
    <glyph glyph-name="backslash" unicode="\" horiz-adv-x="676" 
d="M468 -172l-385 902h133l384 -902h-132z" />
    <glyph glyph-name="bracketright" unicode="]" horiz-adv-x="329" 
d="M-47 -200l19 115h83l118 700h-82l20 115h219l-157 -930h-220z" />
    <glyph glyph-name="asciicircum" unicode="^" horiz-adv-x="495" 
d="M251 690h141l116 -345h-133l-72 224h-4l-147 -224h-133z" />
    <glyph glyph-name="underscore" unicode="_" horiz-adv-x="442" 
d="M381 -85l-17 -98h-442l17 98h442z" />
    <glyph glyph-name="grave" unicode="`" horiz-adv-x="288" 
d="M256 742l71 -168h-98l-112 153l-2 15h141z" />
    <glyph glyph-name="a" unicode="a" horiz-adv-x="573" 
d="M354 263l24 138q-39 12 -64 12q-46 0 -77 -35.5t-46 -85t-15 -91.5q0 -44 17 -69.5t44 -25.5q38 0 72 48.5t45 111.5v-3zM61 359q37 78 107.5 125t168.5 47q52 0 111 -13t94 -32l-58 -340l-1 -146h-150v69h-9q-21 -32 -62.5 -56.5t-87.5 -24.5q-68 0 -109 53.5t-41 149.5
q0 90 37 168z" />
    <glyph glyph-name="b" unicode="b" horiz-adv-x="567" 
d="M143 730h150l-51 -272h11q24 30 62 51.5t80 21.5q66 0 107 -53.5t41 -148.5q0 -88 -36.5 -166.5t-106.5 -126.5t-166 -48q-53 0 -113.5 13t-95.5 32zM257 106q45 0 75.5 36t44.5 86t14 91q0 43 -17 68.5t-44 25.5q-39 0 -73 -49t-44 -112v3l-23 -137q41 -12 67 -12z" />
    <glyph glyph-name="c" unicode="c" horiz-adv-x="428" 
d="M362 403q-26 6 -46 6q-49 0 -79.5 -35.5t-43.5 -83.5t-13 -87q0 -48 21 -71t64 -23q25 0 51.5 5.5t46.5 14.5l-20 -123q-56 -18 -116 -18q-98 0 -150.5 54.5t-52.5 153.5q0 84 37 161t106 125.5t162 48.5q51 0 99 -16l-21 -125q-19 7 -45 13z" />
    <glyph glyph-name="d" unicode="d" horiz-adv-x="573" 
d="M333 0v69h-9q-23 -33 -64 -57t-87 -24q-67 0 -108 53t-41 148q0 89 37 167.5t104.5 126.5t155.5 48q40 0 76 -9l36 208h151l-101 -584v-146h-150zM192 131.5q17 -25.5 45 -25.5q37 0 70 45t45 108l24 140q-36 14 -68 14q-44 0 -74 -36t-44.5 -86t-14.5 -91
q0 -43 17 -68.5z" />
    <glyph glyph-name="e" unicode="e" horiz-adv-x="494" 
d="M326.5 -5q-43.5 -7 -80.5 -7q-109 0 -165 55.5t-56 155.5q0 83 36 160t101.5 124.5t149.5 47.5q78 0 125 -40t47 -110q0 -54 -29 -94t-78.5 -61t-110.5 -21q-55 0 -102 12q0 -61 25.5 -89t88.5 -28q74 0 145 28l-20 -113q-33 -13 -76.5 -20zM245 291q52 0 80.5 22
t28.5 54q0 25 -17.5 41.5t-46.5 16.5q-42 0 -72.5 -35.5t-44.5 -92.5q46 -6 72 -6z" />
    <glyph glyph-name="f" unicode="f" horiz-adv-x="364" 
d="M196 695.5q55 46.5 144 46.5q48 0 99 -15l-22 -125q-17 7 -43.5 13t-43.5 6q-52 0 -65 -64l-9 -52h142l-20 -114h-131l-66 -391h-150l66 391h-53l15 82l54 15l14 82q14 79 69 125.5z" />
    <glyph glyph-name="g" unicode="g" horiz-adv-x="569" 
d="M162 -212q-44 0 -91 7.5t-78 19.5l20 109q31 -12 72 -19.5t75 -7.5q68 0 107.5 34t52.5 104l4 23h-10q-24 -29 -61.5 -49.5t-79.5 -20.5q-67 0 -108 53.5t-41 149.5q0 90 37 168t107.5 125t168.5 47q52 0 111 -13t94 -32l-77 -455q-41 -243 -303 -243zM192.5 131
q16.5 -25 44.5 -25q38 0 72 48.5t45 111.5v-2l23 137q-38 12 -63 12q-46 0 -77 -35.5t-46 -85t-15 -91.5q0 -45 16.5 -70z" />
    <glyph glyph-name="h" unicode="h" horiz-adv-x="565" 
d="M293 730l-50 -293h10q32 42 76 68t94 26q52 0 80.5 -27.5t28.5 -74.5q0 -20 -4 -37l-51 -250l-8 -142h-150l8 142l38 188q2 8 2 21q0 22 -11 33.5t-31 11.5q-30 0 -56.5 -25t-47.5 -65l-52 -306h-150l124 730h150z" />
    <glyph glyph-name="i" unicode="i" horiz-adv-x="277" 
d="M257 519l-88 -519h-150l88 519h150zM148.5 706q25.5 24 71.5 24q69 0 69 -58q0 -37 -25.5 -62t-71.5 -25q-34 0 -51.5 15.5t-17.5 44.5q0 37 25.5 61z" />
    <glyph glyph-name="j" unicode="j" horiz-adv-x="278" 
d="M12 -38l95 557h150l-96 -565q-14 -82 -62.5 -124t-125.5 -42q-27 0 -51 6l20 114q60 -6 70 54zM148.5 706q25.5 24 71.5 24q69 0 69 -58q0 -37 -25.5 -62t-71.5 -25q-34 0 -51.5 15.5t-17.5 44.5q0 37 25.5 61z" />
    <glyph glyph-name="k" unicode="k" horiz-adv-x="536" 
d="M143 730h150l-68 -399h10l185 188h150l-169 -175l84 -344h-150l-63 254h-8l-63 -65l-32 -189h-150z" />
    <glyph glyph-name="l" unicode="l" horiz-adv-x="278" 
d="M34 0l8 142l99 588h151l-100 -588l-8 -142h-150z" />
    <glyph glyph-name="m" unicode="m" horiz-adv-x="844" 
d="M238 519l-1 -82h9q36 42 81 68t95 26q48 0 75.5 -25t30.5 -69h6q31 42 75 68t94 26q51 0 79.5 -28t28.5 -75q0 -19 -4 -36l-52 -250l-8 -142h-150l8 142l40 195q2 12 2 17q0 20 -10.5 31t-28.5 11q-26 0 -52 -23.5t-46 -61.5l-57 -311h-150l61 337q1 6 1 16
q0 20 -10 31.5t-28 11.5q-26 0 -52.5 -22t-47.5 -58l-54 -316h-150l64 372l1 147h150z" />
    <glyph glyph-name="n" unicode="n" horiz-adv-x="569" 
d="M238 519l-1 -82h9q36 42 81.5 68t97.5 26q54 0 82.5 -27.5t28.5 -75.5q0 -19 -4 -36l-51 -250l-8 -142h-150l8 142l38 188q2 8 2 21q0 22 -11 33.5t-31 11.5q-29 0 -55.5 -24.5t-47.5 -63.5l-53 -308h-150l64 372l1 147h150z" />
    <glyph glyph-name="o" unicode="o" horiz-adv-x="547" 
d="M76 42.5q-52 54.5 -52 153.5q0 83 37 160.5t105.5 126t157.5 48.5q94 0 146 -54.5t52 -153.5q0 -84 -36.5 -161t-104.5 -125.5t-158 -48.5q-95 0 -147 54.5zM193 130.5q17 -24.5 50 -24.5q40 0 69 36t44 86.5t15 91.5q0 43 -18 68t-51 25q-40 0 -68.5 -36.5t-43 -87.5
t-14.5 -91q0 -43 17 -67.5z" />
    <glyph glyph-name="p" unicode="p" horiz-adv-x="571" 
d="M238 519v-70h9q21 33 62.5 57.5t87.5 24.5q68 0 109 -53.5t41 -148.5q0 -89 -37 -167t-105 -126t-156 -48q-40 0 -76 9l-34 -197h-150l98 572l1 147h150zM262 106q44 0 74 36t44.5 86t14.5 90q0 43 -17 69t-44 26q-39 0 -72.5 -48.5t-44.5 -112.5v3l-23 -135
q40 -14 68 -14z" />
    <glyph glyph-name="q" unicode="q" horiz-adv-x="568" 
d="M426 -200h-150l48 256h-11q-24 -28 -61.5 -48t-79.5 -20q-66 0 -107 53.5t-41 149.5q0 90 37 168t107.5 125t168.5 47q52 0 111 -13t94 -32zM192.5 131q16.5 -25 44.5 -25q38 0 72 48.5t45 111.5v-2l23 137q-38 12 -63 12q-46 0 -77 -35.5t-46 -85t-15 -91.5
q0 -45 16.5 -70z" />
    <glyph glyph-name="r" unicode="r" horiz-adv-x="396" 
d="M342 368q-38 0 -69.5 -27.5t-53.5 -75.5l-46 -265h-150l64 372l1 147h150l-1 -111h8q27 57 66 90t96 33h11l-29 -171q-19 8 -47 8z" />
    <glyph glyph-name="s" unicode="s" horiz-adv-x="428" 
d="M348.5 525.5q40.5 -5.5 62.5 -13.5l-20 -122q-29 15 -68 25.5t-65 10.5q-29 0 -46.5 -11t-17.5 -32t17 -35t56 -36q38 -20 63 -38t42.5 -47t17.5 -69q0 -49 -27.5 -88t-78 -60.5t-116.5 -21.5q-41 0 -95.5 8.5t-85.5 22.5l21 123q40 -22 89 -36.5t83 -14.5q29 0 46 12
t17 35t-18 39t-58 39q-37 22 -61 40t-41 46t-17 67q0 48 27.5 85t78.5 57t119 20q35 0 75.5 -5.5z" />
    <glyph glyph-name="t" unicode="t" horiz-adv-x="381" 
d="M96 405h-54l16 89l62 14l68 138h99l-22 -127h130l-19 -114h-130l-39 -231q-2 -14 -2 -20q0 -45 44 -45q32 0 81 20l-20 -123q-25 -8 -59.5 -13t-61.5 -5q-69 0 -104 33.5t-35 92.5q0 18 3 37z" />
    <glyph glyph-name="u" unicode="u" horiz-adv-x="565" 
d="M325 0v81h-8q-37 -42 -82 -67.5t-94 -25.5q-52 0 -79.5 28t-27.5 76q0 16 3 34l70 393h150l-59 -342q-1 -5 -1 -13q0 -19 9.5 -30t28.5 -11q26 0 52.5 21.5t46.5 56.5l55 318h150l-64 -373v-146h-150z" />
    <glyph glyph-name="v" unicode="v" horiz-adv-x="495" 
d="M204 519l22 -391h13l154 391h145l-229 -519h-206l-54 519h155z" />
    <glyph glyph-name="w" unicode="w" horiz-adv-x="836" 
d="M203 519l12 -391h12l143 391h204l8 -391h11l144 391h141l-221 -519h-196l-14 392h-11l-146 -392h-195l-46 519h154z" />
    <glyph glyph-name="x" unicode="x" horiz-adv-x="491" 
d="M205 519l57 -178h4l112 178h141l-173 -254l91 -265h-152l-56 186h-8l-117 -186h-143l182 267l-87 252h149z" />
    <glyph glyph-name="y" unicode="y" horiz-adv-x="495" 
d="M204 519l22 -391h13l154 391h145l-228 -513q-44 -101 -116 -159.5t-169 -58.5q-27 0 -58 4t-50 11l21 123q20 -8 49 -12.5t50 -4.5q45 0 78 23t61 73h-73l-54 514h155z" />
    <glyph glyph-name="z" unicode="z" horiz-adv-x="435" 
d="M444 519l-16 -97l-268 -312l226 4l-20 -114h-384l17 96l268 312l-214 -3l20 114h371z" />
    <glyph glyph-name="braceleft" unicode="{" horiz-adv-x="384" 
d="M224.5 -77q12.5 -11 35.5 -11h17l-20 -112h-66q-54 0 -88.5 30t-34.5 83q0 25 7 53.5t22 74.5q13 41 19.5 66.5t6.5 46.5q0 30 -15.5 43.5t-46.5 13.5h-5l18 108h6q41 0 63 26.5t25 75.5q2 17 2 61q0 27 2 63q3 92 48.5 138.5t128.5 46.5h66l-20 -112h-15
q-30 0 -48 -18.5t-20 -52.5q-2 -13 -2 -56q0 -29 -2 -59q-2 -59 -34.5 -102t-82.5 -61l-2 -8q33 -14 52 -42.5t19 -65.5q0 -23 -7 -49t-19 -60t-17 -52.5t-5 -34.5q0 -23 12.5 -34z" />
    <glyph glyph-name="bar" unicode="|" horiz-adv-x="309" 
d="M305 730l-157 -930h-143l158 930h142z" />
    <glyph glyph-name="braceright" unicode="}" horiz-adv-x="383" 
d="M160.5 607q-12.5 11 -35.5 11h-17l20 112h66q54 0 88.5 -30t34.5 -83q0 -25 -7 -53.5t-22 -74.5q-13 -41 -19.5 -66.5t-6.5 -46.5q0 -30 15.5 -43.5t45.5 -13.5h6l-18 -108h-6q-41 0 -63 -26.5t-25 -75.5q-2 -17 -2 -61q0 -27 -2 -63q-3 -91 -48.5 -138t-128.5 -47h-66
l19 112h16q30 0 48 18.5t20 52.5q2 13 2 56q0 29 2 59q2 59 34.5 102t82.5 61l2 8q-33 14 -52 42.5t-19 65.5q0 23 7 49t19 60t17 52.5t5 34.5q0 23 -12.5 34z" />
    <glyph glyph-name="asciitilde" unicode="~" 
d="M426 259q-31 0 -55.5 6.5t-58.5 19.5q-32 13 -57 19.5t-55 6.5q-36 0 -72 -11t-66 -31l21 120q62 42 139 42q31 0 55.5 -6.5t58.5 -19.5q32 -13 57 -19.5t55 -6.5q38 0 74 11t64 31l-20 -120q-64 -42 -140 -42z" />
    <glyph glyph-name="exclamdown" unicode="&#xa1;" horiz-adv-x="304" 
d="M0 -174l97 486h123l-66 -486h-154zM120.5 499.5q26.5 28.5 78.5 28.5q38 0 56.5 -17.5t18.5 -49.5q0 -38 -25.5 -68t-79.5 -30q-75 0 -75 66q0 42 26.5 70.5z" />
    <glyph glyph-name="cent" unicode="&#xa2;" horiz-adv-x="428" 
d="M376 730l-16 -93q47 -3 87 -16l-21 -125q-20 7 -46 13.5t-46 6.5q-49 0 -79.5 -35.5t-43.5 -84t-13 -87.5q0 -48 21 -70.5t65 -22.5q24 0 51 5.5t47 13.5l-21 -123q-42 -14 -93 -17l-16 -95h-94l17 103q-65 17 -98.5 68.5t-33.5 130.5q0 70 26.5 137t76.5 117t118 70
l18 104h94z" />
    <glyph glyph-name="sterling" unicode="&#xa3;" horiz-adv-x="528" 
d="M437 0h-434l16 94q50 40 83.5 94.5t36.5 110.5h-86l14 82h60q-1 5 -7.5 25.5t-9.5 40.5t-3 39q0 63 31.5 112t89 76.5t131.5 27.5q41 0 86 -8.5t82 -23.5l-21 -123q-30 17 -66 27t-68 10q-55 0 -86 -29t-31 -79q0 -22 10 -68l5 -27h160l-13 -82h-141q-11 -96 -116 -178
h299z" />
    <glyph glyph-name="currency" unicode="&#xa4;" horiz-adv-x="604" 
d="M179 142l-100 -89l-58 72l101 89q-14 34 -14 72t13 74.5t37 67.5l-70 90l82 72l70 -89q52 30 108 30q55 0 98 -30l100 89l58 -72l-101 -90q14 -33 14 -71t-13 -75t-37 -68l70 -89l-82 -72l-70 88q-53 -29 -107 -29q-56 0 -99 30zM228 233.5q26 -27.5 65 -27.5
q32 0 62.5 19t49.5 50t19 66q0 40 -26 67.5t-66 27.5q-33 0 -63 -18.5t-48.5 -49.5t-18.5 -66q0 -41 26 -68.5z" />
    <glyph glyph-name="yen" unicode="&#xa5;" horiz-adv-x="589" 
d="M240 690l66 -310h14l167 310h153l-231 -385h105l-14 -82h-139l-11 -60h140l-14 -84h-140l-14 -79h-152l14 79h-125l14 84h125l11 60h-126l15 82h90l-102 385h154z" />
    <glyph glyph-name="brokenbar" unicode="&#xa6;" horiz-adv-x="309" 
d="M163 730h142l-58 -342h-142zM64 142h141l-57 -342h-143z" />
    <glyph glyph-name="section" unicode="&#xa7;" horiz-adv-x="528" 
d="M168.5 294q22.5 -45 65.5 -106q38 -52 56 -87.5t18 -74.5q0 -69 -64 -128h12q129 75 129 196q0 55 -22.5 100.5t-65.5 105.5q-38 52 -56.5 88t-18.5 76q0 35 17 67.5t47 59.5h-13q-127 -71 -127 -195q0 -57 22.5 -102zM22 -77q45 -9 84 -9q53 0 86 22t33 63
q0 29 -16 58.5t-49 76.5q-48 68 -74 122t-26 123q0 92 53 166t142 115.5t190 41.5q41 0 84 -8l-23 -129q-51 11 -95 11t-75 -23.5t-31 -64.5q0 -30 16.5 -59.5t50.5 -76.5q48 -68 74 -121t26 -119q0 -84 -48.5 -158.5t-139 -120t-211.5 -45.5q-38 0 -74 6z" />
    <glyph glyph-name="dieresis" unicode="&#xa8;" horiz-adv-x="422" 
d="M121 600.5q-16 15.5 -16 44.5q0 37 23.5 61t64.5 24q62 0 62 -58q0 -37 -23 -62t-65 -25q-30 0 -46 15.5zM334 706q23 24 64 24q62 0 62 -58q0 -37 -22.5 -62t-64.5 -25q-30 0 -46 15.5t-16 44.5q0 37 23 61z" />
    <glyph glyph-name="copyright" unicode="&#xa9;" horiz-adv-x="761" 
d="M477.5 457q-19.5 5 -37.5 5q-58 0 -83.5 -48.5t-25.5 -101.5q0 -41 18 -62.5t53 -21.5q16 0 38 3t36 9l-15 -81q-36 -11 -75 -11q-72 0 -111 40.5t-39 114.5q0 61 25.5 115.5t74 88.5t114.5 34q45 0 74 -14l-14 -82q-13 7 -32.5 12zM106 486q57 97 151 156.5t199 59.5
q82 0 147 -38.5t101.5 -105.5t36.5 -150q0 -106 -56.5 -203.5t-150.5 -157t-199 -59.5q-83 0 -148 38.5t-101.5 105.5t-36.5 150q0 107 57 204zM185.5 125.5q59.5 -60.5 161.5 -60.5q90 0 162.5 46.5t113.5 123.5t41 164q0 105 -59 165.5t-161 60.5q-90 0 -163 -46.5
t-114 -123.5t-41 -164q0 -105 59.5 -165.5z" />
    <glyph glyph-name="ordfeminine" unicode="&#xaa;" horiz-adv-x="392" 
d="M281 524l15 84q-24 7 -38 7q-29 0 -48 -22.5t-28 -53.5t-9 -56q0 -27 10 -42t27 -15q24 0 44.5 30t26.5 70v-2zM91.5 585.5q24.5 50.5 71 81t110.5 30.5q35 0 74.5 -9t64.5 -21l-39 -217v-99h-105v44h-6q-14 -21 -40.5 -36.5t-56.5 -15.5q-44 0 -71 35t-27 98
q0 59 24.5 109.5z" />
    <glyph glyph-name="guillemotleft" unicode="&#xab;" horiz-adv-x="530" 
d="M136 262l-1 -7l124 -199h-125l-109 173l10 60l168 174h126zM340 262l-1 -7l124 -199h-125l-109 173l10 60l168 174h126z" />
    <glyph glyph-name="logicalnot" unicode="&#xac;" 
d="M430 281h-366l22 129h498l-22 -129l-29 -168h-132z" />
    <glyph glyph-name="registered" unicode="&#xae;" horiz-adv-x="761" 
d="M304 534h138q52 0 81 -24.5t29 -70.5q0 -33 -17.5 -63.5t-54.5 -48.5v-6l42 -166h-99l-26 132h-42l-23 -132h-92zM106 486q57 97 151 156.5t199 59.5q82 0 147 -38.5t101.5 -105.5t36.5 -150q0 -106 -56.5 -203.5t-150.5 -157t-199 -59.5q-83 0 -148 38.5t-101.5 105.5
t-36.5 150q0 107 57 204zM185.5 125.5q59.5 -60.5 161.5 -60.5q90 0 162.5 46.5t113.5 123.5t41 164q0 105 -59 165.5t-161 60.5q-90 0 -163 -46.5t-114 -123.5t-41 -164q0 -105 59.5 -165.5zM399 354q29 0 46 19t17 48q0 46 -47 46h-29l-20 -113h33z" />
    <glyph glyph-name="macron" unicode="&#xaf;" horiz-adv-x="315" 
d="M357 705l-17 -94h-241l17 94h241z" />
    <glyph glyph-name="degree" unicode="&#xb0;" horiz-adv-x="358" 
d="M114.5 448q-31.5 36 -31.5 87q0 43 23.5 81.5t62 62t80.5 23.5q52 0 84.5 -36t32.5 -87q0 -43 -23.5 -81.5t-62.5 -62t-81 -23.5q-53 0 -84.5 36zM171 501q16 -17 41 -17q32 0 56.5 26t24.5 60q0 26 -15.5 43t-40.5 17q-32 0 -57 -26t-25 -60q0 -26 16 -43z" />
    <glyph glyph-name="plusminus" unicode="&#xb1;" horiz-adv-x="628" 
d="M259 358h-180l20 123h181l23 138h138l-23 -138h179l-20 -123h-180l-23 -138h-138zM53 165h499l-22 -117h-498z" />
    <glyph glyph-name="acute" unicode="&#xb4;" horiz-adv-x="229" 
d="M282 727l-112 -153h-98l71 168h141z" />
    <glyph glyph-name="paragraph" unicode="&#xb6;" horiz-adv-x="632" 
d="M231 -133l58 344h-48q-90 0 -139 49.5t-49 139.5q0 75 33 141.5t94 107.5t142 41h142l-140 -823h-93zM537 690h94l-139 -823h-94z" />
    <glyph glyph-name="periodcentered" unicode="&#xb7;" horiz-adv-x="328" 
d="M108.5 278.5q-20.5 18.5 -20.5 52.5q0 42 28.5 70t77.5 28q37 0 57 -18t20 -51q0 -42 -28.5 -71t-77.5 -29q-36 0 -56.5 18.5z" />
    <glyph glyph-name="cedilla" unicode="&#xb8;" horiz-adv-x="244" 
d="M5 -137q18 0 32 6t14 18q0 17 -30 17q-18 0 -38 -5l10 63q37 5 61 5q44 0 68 -16.5t24 -50.5q0 -44 -37.5 -72t-98.5 -28q-26 0 -53 3l10 64q19 -4 38 -4z" />
    <glyph glyph-name="ordmasculine" unicode="&#xba;" horiz-adv-x="373" 
d="M102 379q-35 36 -35 101q0 55 24.5 105t70 81t104.5 31q63 0 97.5 -35.5t34.5 -100.5q0 -55 -24.5 -105t-69.5 -81.5t-104 -31.5q-63 0 -98 36zM183.5 440.5q9.5 -14.5 29.5 -14.5q25 0 42.5 22.5t26.5 54t9 56.5q0 26 -10.5 41t-29.5 15q-24 0 -41.5 -23t-26.5 -54.5
t-9 -56.5q0 -26 9.5 -40.5z" />
    <glyph glyph-name="guillemotright" unicode="&#xbb;" horiz-adv-x="530" 
d="M191 255l1 8l-125 200h126l109 -173l-11 -60l-167 -174h-126zM395 255l1 8l-125 200h126l109 -173l-11 -60l-167 -174h-126z" />
    <glyph glyph-name="onequarter" unicode="&#xbc;" horiz-adv-x="698" 
d="M197 609l-79 -36l13 72l98 45h70l-59 -345h-88zM636 690h96l-657 -690h-95zM517 75h-146l11 65l132 205h93l-137 -198h63l46 87h47l-15 -87h43l-19 -72h-36l-13 -75h-87z" />
    <glyph glyph-name="onehalf" unicode="&#xbd;" horiz-adv-x="695" 
d="M197 609l-79 -36l13 72l98 45h70l-59 -345h-88zM636 690h96l-657 -690h-95zM401 0l12 70l84 76q36 31 55 54t19 44q0 35 -42 35q-34 0 -75 -19l13 75q44 16 96 16q49 0 75.5 -20.5t26.5 -61.5q0 -35 -22 -68t-71 -71l-60 -50l-1 -6h127l-13 -74h-224z" />
    <glyph glyph-name="threequarters" unicode="&#xbe;" horiz-adv-x="687" 
d="M208 696q45 0 75.5 -16.5t30.5 -51.5q0 -30 -22.5 -53.5t-59.5 -37.5v-3q62 -13 62 -73q0 -65 -70.5 -93.5t-168.5 -28.5l12 71q63 0 101 13t38 40q0 16 -12 22t-35 6q-22 0 -52 -4l10 61q51 8 77.5 20.5t26.5 32.5q0 24 -33 24q-38 0 -88 -16l13 70q45 17 95 17z
M631 690h96l-657 -690h-95zM513 75h-146l11 65l132 205h93l-137 -198h63l46 87h47l-15 -87h43l-19 -72h-36l-13 -75h-87z" />
    <glyph glyph-name="questiondown" unicode="&#xbf;" horiz-adv-x="420" 
d="M204 312h125l-6 -36q-11 -60 -39.5 -99.5t-75.5 -83.5q-35 -32 -50.5 -52.5t-15.5 -45.5q0 -28 20 -41.5t55 -13.5q53 0 127 27l-23 -130q-31 -10 -72 -16.5t-78 -6.5q-86 0 -136.5 38.5t-50.5 111.5q0 41 16 74t38.5 57t60.5 57q46 39 70.5 68.5t30.5 67.5zM226 499
q27 29 79 29q76 0 76 -68q0 -40 -25.5 -69.5t-80.5 -29.5q-76 0 -76 66q0 43 27 72z" />
    <glyph glyph-name="Agrave" unicode="&#xc0;" horiz-adv-x="619" 
d="M408 0l-15 159h-206l-71 -159h-148l310 690h216l66 -690h-152zM389 280l-26 265h-11l-119 -265h156zM381 913l71 -168h-98l-112 153l-2 15h141z" />
    <glyph glyph-name="Aacute" unicode="&#xc1;" horiz-adv-x="619" 
d="M408 0l-15 159h-206l-71 -159h-148l310 690h216l66 -690h-152zM389 280l-26 265h-11l-119 -265h156zM544 898l-112 -153h-98l71 168h141z" />
    <glyph glyph-name="Acircumflex" unicode="&#xc2;" horiz-adv-x="619" 
d="M408 0l-15 159h-206l-71 -159h-148l310 690h216l66 -690h-152zM389 280l-26 265h-11l-119 -265h156zM468 745l-58 79l-84 -79h-76v12l117 156h117l65 -160l-5 -8h-76z" />
    <glyph glyph-name="Atilde" unicode="&#xc3;" horiz-adv-x="619" 
d="M408 0l-15 159h-206l-71 -159h-148l310 690h216l66 -690h-152zM389 280l-26 265h-11l-119 -265h156zM455 764q-15 0 -26 4t-29 12q-16 8 -27.5 12t-25.5 4q-38 0 -68 -32h-6l17 96q32 34 74 34q15 0 27.5 -4t28.5 -12q17 -8 27.5 -12t24.5 -4q38 0 68 32h6l-16 -96
q-34 -34 -75 -34z" />
    <glyph glyph-name="Adieresis" unicode="&#xc4;" horiz-adv-x="619" 
d="M408 0l-15 159h-206l-71 -159h-148l310 690h216l66 -690h-152zM389 280l-26 265h-11l-119 -265h156zM250 771.5q-16 15.5 -16 44.5q0 37 23.5 61t64.5 24q62 0 62 -58q0 -37 -23 -62t-65 -25q-30 0 -46 15.5zM463 877q23 24 64 24q62 0 62 -58q0 -37 -22.5 -62t-64.5 -25
q-30 0 -46 15.5t-16 44.5q0 37 23 61z" />
    <glyph glyph-name="Aring" unicode="&#xc5;" horiz-adv-x="619" 
d="M408 0l-15 159h-206l-71 -159h-148l310 690h216l66 -690h-152zM389 280l-26 265h-11l-119 -265h156zM331 759.5q-24 19.5 -24 56.5q0 44 33 73t87 29q42 0 65 -19.5t23 -55.5q0 -44 -33.5 -73.5t-85.5 -29.5q-41 0 -65 19.5zM404 799q17 0 29 10.5t12 25.5q0 11 -7 17.5
t-20 6.5q-17 0 -28.5 -10t-11.5 -26q0 -24 26 -24z" />
    <glyph glyph-name="AE" unicode="&#xc6;" horiz-adv-x="865" 
d="M870 568h-255l-26 -157h185l-21 -122h-184l-28 -167h254l-21 -122h-398l27 159h-184l-100 -159h-148l435 690h485zM423 280l45 265h-11l-168 -265h134z" />
    <glyph glyph-name="Ccedilla" unicode="&#xc7;" horiz-adv-x="527" 
d="M474 563.5q-36 8.5 -69 8.5q-72 0 -119 -45.5t-68.5 -112.5t-21.5 -133q0 -163 135 -163q30 0 71 6.5t66 16.5l-24 -134q-61 -19 -140 -19q-128 0 -196 70.5t-68 206.5q0 113 45.5 213t132 162t203.5 62q81 0 137 -25l-23 -134q-25 12 -61 20.5zM222 -137q18 0 32 6
t14 18q0 17 -30 17q-18 0 -38 -5l10 63q37 5 61 5q44 0 68 -16.5t24 -50.5q0 -44 -37.5 -72t-98.5 -28q-26 0 -53 3l10 64q19 -4 38 -4z" />
    <glyph glyph-name="Egrave" unicode="&#xc8;" horiz-adv-x="529" 
d="M555 690l-22 -122h-254l-27 -157h185l-21 -122h-185l-28 -167h256l-22 -122h-407l118 690h407zM347 913l71 -168h-98l-112 153l-2 15h141z" />
    <glyph glyph-name="Eacute" unicode="&#xc9;" horiz-adv-x="529" 
d="M555 690l-22 -122h-254l-27 -157h185l-21 -122h-185l-28 -167h256l-22 -122h-407l118 690h407zM509 898l-112 -153h-98l71 168h141z" />
    <glyph glyph-name="Ecircumflex" unicode="&#xca;" horiz-adv-x="529" 
d="M555 690l-22 -122h-254l-27 -157h185l-21 -122h-185l-28 -167h256l-22 -122h-407l118 690h407zM433 745l-58 79l-84 -79h-76v12l117 156h117l65 -160l-5 -8h-76z" />
    <glyph glyph-name="Edieresis" unicode="&#xcb;" horiz-adv-x="529" 
d="M555 690l-22 -122h-254l-27 -157h185l-21 -122h-185l-28 -167h256l-22 -122h-407l118 690h407zM215 771.5q-16 15.5 -16 44.5q0 37 23.5 61t64.5 24q62 0 62 -58q0 -37 -23 -62t-65 -25q-30 0 -46 15.5zM428 877q23 24 64 24q62 0 62 -58q0 -37 -22.5 -62t-64.5 -25
q-30 0 -46 15.5t-16 44.5q0 37 23 61z" />
    <glyph glyph-name="Igrave" unicode="&#xcc;" horiz-adv-x="300" 
d="M300 690l-118 -690h-152l118 690h152zM220 913l71 -168h-98l-112 153l-2 15h141z" />
    <glyph glyph-name="Iacute" unicode="&#xcd;" horiz-adv-x="300" 
d="M300 690l-118 -690h-152l118 690h152zM383 898l-112 -153h-98l71 168h141z" />
    <glyph glyph-name="Icircumflex" unicode="&#xce;" horiz-adv-x="300" 
d="M300 690l-118 -690h-152l118 690h152zM306 745l-58 79l-84 -79h-76v12l117 156h117l65 -160l-5 -8h-76z" />
    <glyph glyph-name="Idieresis" unicode="&#xcf;" horiz-adv-x="300" 
d="M300 690l-118 -690h-152l118 690h152zM95 815q0 35 21.5 60.5t61.5 25.5q30 0 44 -15t14 -42q0 -36 -22 -61.5t-61 -25.5q-58 0 -58 58zM283.5 875.5q21.5 25.5 61.5 25.5q30 0 44 -15t14 -42q0 -36 -22 -61.5t-62 -25.5q-28 0 -42.5 15t-14.5 43q0 35 21.5 60.5z" />
    <glyph glyph-name="Eth" unicode="&#xd0;" horiz-adv-x="658" 
d="M407 690q116 0 178.5 -67.5t62.5 -197.5q0 -109 -43.5 -207t-126.5 -158t-196 -60h-252l51 298h-70l16 92h70l51 300h259zM301 127q64 0 107.5 47t64.5 115.5t21 132.5q0 141 -109 141h-107l-29 -173h113l-16 -92h-113l-29 -171h97z" />
    <glyph glyph-name="Ntilde" unicode="&#xd1;" horiz-adv-x="668" 
d="M147 690h154l164 -487h7q4 118 26 246l41 241h130l-118 -690h-152l-165 486h-8q-3 -115 -25 -245l-41 -241h-130zM477 764q-15 0 -26 4t-29 12q-16 8 -27.5 12t-25.5 4q-38 0 -68 -32h-6l17 96q32 34 74 34q15 0 27.5 -4t28.5 -12q17 -8 27.5 -12t24.5 -4q38 0 68 32h6
l-16 -96q-34 -34 -75 -34z" />
    <glyph glyph-name="Ograve" unicode="&#xd2;" horiz-adv-x="659" 
d="M103 58q-63 70 -63 205q0 113 43.5 214t127 163t196.5 62q117 0 179.5 -70t62.5 -205q0 -113 -43.5 -214t-126.5 -163t-196 -62q-117 0 -180 70zM303 116q63 0 106.5 49t64.5 120.5t21 138.5q0 150 -111 150q-65 0 -108 -48.5t-63 -119t-20 -137.5q0 -153 110 -153z
M397 913l71 -168h-98l-112 153l-2 15h141z" />
    <glyph glyph-name="Oacute" unicode="&#xd3;" horiz-adv-x="659" 
d="M103 58q-63 70 -63 205q0 113 43.5 214t127 163t196.5 62q117 0 179.5 -70t62.5 -205q0 -113 -43.5 -214t-126.5 -163t-196 -62q-117 0 -180 70zM303 116q63 0 106.5 49t64.5 120.5t21 138.5q0 150 -111 150q-65 0 -108 -48.5t-63 -119t-20 -137.5q0 -153 110 -153z
M559 898l-112 -153h-98l71 168h141z" />
    <glyph glyph-name="Ocircumflex" unicode="&#xd4;" horiz-adv-x="659" 
d="M103 58q-63 70 -63 205q0 113 43.5 214t127 163t196.5 62q117 0 179.5 -70t62.5 -205q0 -113 -43.5 -214t-126.5 -163t-196 -62q-117 0 -180 70zM303 116q63 0 106.5 49t64.5 120.5t21 138.5q0 150 -111 150q-65 0 -108 -48.5t-63 -119t-20 -137.5q0 -153 110 -153z
M483 745l-58 79l-84 -79h-76v12l117 156h117l65 -160l-5 -8h-76z" />
    <glyph glyph-name="Otilde" unicode="&#xd5;" horiz-adv-x="659" 
d="M103 58q-63 70 -63 205q0 113 43.5 214t127 163t196.5 62q117 0 179.5 -70t62.5 -205q0 -113 -43.5 -214t-126.5 -163t-196 -62q-117 0 -180 70zM303 116q63 0 106.5 49t64.5 120.5t21 138.5q0 150 -111 150q-65 0 -108 -48.5t-63 -119t-20 -137.5q0 -153 110 -153z
M471 764q-15 0 -26 4t-29 12q-16 8 -27.5 12t-25.5 4q-38 0 -68 -32h-6l17 96q32 34 74 34q15 0 27.5 -4t28.5 -12q17 -8 27.5 -12t24.5 -4q38 0 68 32h6l-16 -96q-34 -34 -75 -34z" />
    <glyph glyph-name="Odieresis" unicode="&#xd6;" horiz-adv-x="659" 
d="M103 58q-63 70 -63 205q0 113 43.5 214t127 163t196.5 62q117 0 179.5 -70t62.5 -205q0 -113 -43.5 -214t-126.5 -163t-196 -62q-117 0 -180 70zM303 116q63 0 106.5 49t64.5 120.5t21 138.5q0 150 -111 150q-65 0 -108 -48.5t-63 -119t-20 -137.5q0 -153 110 -153z
M266 771.5q-16 15.5 -16 44.5q0 37 23.5 61t64.5 24q62 0 62 -58q0 -37 -23 -62t-65 -25q-30 0 -46 15.5zM479 877q23 24 64 24q62 0 62 -58q0 -37 -22.5 -62t-64.5 -25q-30 0 -46 15.5t-16 44.5q0 37 23 61z" />
    <glyph glyph-name="multiply" unicode="&#xd7;" horiz-adv-x="560" 
d="M212 344l-112 141l100 86l111 -140l157 140l68 -86l-157 -139l112 -142l-101 -86l-111 140l-158 -140l-67 86z" />
    <glyph glyph-name="Oslash" unicode="&#xd8;" horiz-adv-x="659" 
d="M156 16l-43 -58h-97l80 109q-56 70 -56 196q0 113 43.5 214t127 163t196.5 62q74 0 126 -28l43 58h98l-80 -109q55 -70 55 -196q0 -113 -43.5 -214t-126.5 -163t-196 -62q-73 0 -127 28zM200 201l253 351q-26 22 -69 22q-65 0 -108 -48.5t-63 -119t-20 -137.5
q0 -41 7 -68zM303 116q63 0 106.5 49t64.5 120.5t21 138.5q0 39 -7 64l-252 -351q27 -21 67 -21z" />
    <glyph glyph-name="Ugrave" unicode="&#xd9;" horiz-adv-x="640" 
d="M472.5 55.5q-77.5 -67.5 -195.5 -67.5q-104 0 -160.5 52t-56.5 143q0 23 5 55l78 452h152l-77 -448q-4 -28 -4 -38q0 -88 85 -88q99 0 121 128l77 446h150l-77 -451q-20 -116 -97.5 -183.5zM390 913l71 -168h-98l-112 153l-2 15h141z" />
    <glyph glyph-name="Uacute" unicode="&#xda;" horiz-adv-x="640" 
d="M472.5 55.5q-77.5 -67.5 -195.5 -67.5q-104 0 -160.5 52t-56.5 143q0 23 5 55l78 452h152l-77 -448q-4 -28 -4 -38q0 -88 85 -88q99 0 121 128l77 446h150l-77 -451q-20 -116 -97.5 -183.5zM553 898l-112 -153h-98l71 168h141z" />
    <glyph glyph-name="Ucircumflex" unicode="&#xdb;" horiz-adv-x="640" 
d="M472.5 55.5q-77.5 -67.5 -195.5 -67.5q-104 0 -160.5 52t-56.5 143q0 23 5 55l78 452h152l-77 -448q-4 -28 -4 -38q0 -88 85 -88q99 0 121 128l77 446h150l-77 -451q-20 -116 -97.5 -183.5zM477 745l-58 79l-84 -79h-76v12l117 156h117l65 -160l-5 -8h-76z" />
    <glyph glyph-name="Udieresis" unicode="&#xdc;" horiz-adv-x="640" 
d="M472.5 55.5q-77.5 -67.5 -195.5 -67.5q-104 0 -160.5 52t-56.5 143q0 23 5 55l78 452h152l-77 -448q-4 -28 -4 -38q0 -88 85 -88q99 0 121 128l77 446h150l-77 -451q-20 -116 -97.5 -183.5zM259 771.5q-16 15.5 -16 44.5q0 37 23.5 61t64.5 24q62 0 62 -58q0 -37 -23 -62
t-65 -25q-30 0 -46 15.5zM472 877q23 24 64 24q62 0 62 -58q0 -37 -22.5 -62t-64.5 -25q-30 0 -46 15.5t-16 44.5q0 37 23 61z" />
    <glyph glyph-name="Yacute" unicode="&#xdd;" horiz-adv-x="574" 
d="M240 690l65 -310h14l168 310h153l-279 -464l-39 -226h-152l39 223l-123 467h154zM521 898l-112 -153h-98l71 168h141z" />
    <glyph glyph-name="Thorn" unicode="&#xde;" horiz-adv-x="571" 
d="M300 690l-18 -105h80q94 0 145.5 -49.5t51.5 -140.5q0 -74 -32.5 -140.5t-94 -108t-143.5 -41.5h-89l-18 -105h-152l118 690h152zM285 227q68 0 97.5 46t29.5 104q0 45 -21.5 65.5t-70.5 20.5h-59l-40 -236h64z" />
    <glyph glyph-name="germandbls" unicode="&#xdf;" horiz-adv-x="595" 
d="M515 707q53 -35 53 -102q0 -42 -19 -74.5t-55 -73.5q-25 -29 -37 -47.5t-12 -37.5q0 -18 12 -34t37 -40q37 -34 57 -65.5t20 -77.5q0 -74 -56.5 -120.5t-153.5 -46.5q-39 0 -78.5 7.5t-61.5 20.5l21 123q21 -18 57 -32t64 -14q27 0 44 14t17 39q0 23 -14 40.5t-44 42.5
q-35 29 -53.5 53t-18.5 59q0 34 16.5 61.5t50.5 66.5q28 31 42 52.5t14 45.5q0 25 -17 39.5t-46 14.5q-39 0 -66 -24.5t-34 -64.5l-90 -532h-150l86 512q18 107 89 168.5t188 61.5q85 0 138 -35z" />
    <glyph glyph-name="agrave" unicode="&#xe0;" horiz-adv-x="573" 
d="M354 263l24 138q-39 12 -64 12q-46 0 -77 -35.5t-46 -85t-15 -91.5q0 -44 17 -69.5t44 -25.5q38 0 72 48.5t45 111.5v-3zM61 359q37 78 107.5 125t168.5 47q52 0 111 -13t94 -32l-58 -340l-1 -146h-150v69h-9q-21 -32 -62.5 -56.5t-87.5 -24.5q-68 0 -109 53.5t-41 149.5
q0 90 37 168zM321 742l71 -168h-98l-112 153l-2 15h141z" />
    <glyph glyph-name="aacute" unicode="&#xe1;" horiz-adv-x="573" 
d="M354 263l24 138q-39 12 -64 12q-46 0 -77 -35.5t-46 -85t-15 -91.5q0 -44 17 -69.5t44 -25.5q38 0 72 48.5t45 111.5v-3zM61 359q37 78 107.5 125t168.5 47q52 0 111 -13t94 -32l-58 -340l-1 -146h-150v69h-9q-21 -32 -62.5 -56.5t-87.5 -24.5q-68 0 -109 53.5t-41 149.5
q0 90 37 168zM483 727l-112 -153h-98l71 168h141z" />
    <glyph glyph-name="acircumflex" unicode="&#xe2;" horiz-adv-x="573" 
d="M354 263l24 138q-39 12 -64 12q-46 0 -77 -35.5t-46 -85t-15 -91.5q0 -44 17 -69.5t44 -25.5q38 0 72 48.5t45 111.5v-3zM61 359q37 78 107.5 125t168.5 47q52 0 111 -13t94 -32l-58 -340l-1 -146h-150v69h-9q-21 -32 -62.5 -56.5t-87.5 -24.5q-68 0 -109 53.5t-41 149.5
q0 90 37 168zM407 574l-58 79l-84 -79h-76v12l117 156h117l65 -160l-5 -8h-76z" />
    <glyph glyph-name="atilde" unicode="&#xe3;" horiz-adv-x="573" 
d="M354 263l24 138q-39 12 -64 12q-46 0 -77 -35.5t-46 -85t-15 -91.5q0 -44 17 -69.5t44 -25.5q38 0 72 48.5t45 111.5v-3zM61 359q37 78 107.5 125t168.5 47q52 0 111 -13t94 -32l-58 -340l-1 -146h-150v69h-9q-21 -32 -62.5 -56.5t-87.5 -24.5q-68 0 -109 53.5t-41 149.5
q0 90 37 168zM395 593q-15 0 -26 4t-29 12q-16 8 -27.5 12t-25.5 4q-38 0 -68 -32h-6l17 96q32 34 74 34q15 0 27.5 -4t28.5 -12q17 -8 27.5 -12t24.5 -4q38 0 68 32h6l-16 -96q-34 -34 -75 -34z" />
    <glyph glyph-name="adieresis" unicode="&#xe4;" horiz-adv-x="573" 
d="M354 263l24 138q-39 12 -64 12q-46 0 -77 -35.5t-46 -85t-15 -91.5q0 -44 17 -69.5t44 -25.5q38 0 72 48.5t45 111.5v-3zM61 359q37 78 107.5 125t168.5 47q52 0 111 -13t94 -32l-58 -340l-1 -146h-150v69h-9q-21 -32 -62.5 -56.5t-87.5 -24.5q-68 0 -109 53.5t-41 149.5
q0 90 37 168zM190 600.5q-16 15.5 -16 44.5q0 37 23.5 61t64.5 24q62 0 62 -58q0 -37 -23 -62t-65 -25q-30 0 -46 15.5zM403 706q23 24 64 24q62 0 62 -58q0 -37 -22.5 -62t-64.5 -25q-30 0 -46 15.5t-16 44.5q0 37 23 61z" />
    <glyph glyph-name="aring" unicode="&#xe5;" horiz-adv-x="573" 
d="M354 263l24 138q-39 12 -64 12q-46 0 -77 -35.5t-46 -85t-15 -91.5q0 -44 17 -69.5t44 -25.5q38 0 72 48.5t45 111.5v-3zM61 359q37 78 107.5 125t168.5 47q52 0 111 -13t94 -32l-58 -340l-1 -146h-150v69h-9q-21 -32 -62.5 -56.5t-87.5 -24.5q-68 0 -109 53.5t-41 149.5
q0 90 37 168zM270 588.5q-24 19.5 -24 56.5q0 44 33 73t87 29q42 0 65 -19.5t23 -55.5q0 -44 -33.5 -73.5t-85.5 -29.5q-41 0 -65 19.5zM343 628q17 0 29 10.5t12 25.5q0 11 -7 17.5t-20 6.5q-17 0 -28.5 -10t-11.5 -26q0 -24 26 -24z" />
    <glyph glyph-name="ae" unicode="&#xe6;" horiz-adv-x="802" 
d="M634.5 -5q-43.5 -7 -80.5 -7q-73 0 -121.5 26t-72.5 75q-31 -46 -75 -73.5t-94 -27.5q-47 0 -85 25t-60 72t-22 111q0 85 38 162.5t107.5 125t157.5 47.5q76 0 158 -39q61 39 136 39q77 0 124 -40.5t47 -109.5q0 -56 -30 -96t-80.5 -60t-110.5 -20q-48 0 -96 12
q0 -61 25 -89t86 -28q74 0 145 28l-20 -113q-33 -13 -76.5 -20zM192.5 131.5q16.5 -25.5 42.5 -25.5q35 0 65 43.5t41 103.5q11 78 50 141q-45 19 -78 19q-44 0 -75 -36t-46.5 -86.5t-15.5 -91.5q0 -42 16.5 -67.5zM551 291q50 0 80.5 21.5t30.5 54.5q0 25 -17.5 41.5
t-45.5 16.5q-42 0 -71.5 -36t-43.5 -92q35 -6 67 -6z" />
    <glyph glyph-name="ccedilla" unicode="&#xe7;" horiz-adv-x="428" 
d="M362 403q-26 6 -46 6q-49 0 -79.5 -35.5t-43.5 -83.5t-13 -87q0 -48 21 -71t64 -23q25 0 51.5 5.5t46.5 14.5l-20 -123q-56 -18 -116 -18q-98 0 -150.5 54.5t-52.5 153.5q0 84 37 161t106 125.5t162 48.5q51 0 99 -16l-21 -125q-19 7 -45 13zM142 -137q18 0 32 6t14 18
q0 17 -30 17q-18 0 -38 -5l10 63q37 5 61 5q44 0 68 -16.5t24 -50.5q0 -44 -37.5 -72t-98.5 -28q-26 0 -53 3l10 64q19 -4 38 -4z" />
    <glyph glyph-name="egrave" unicode="&#xe8;" horiz-adv-x="494" 
d="M326.5 -5q-43.5 -7 -80.5 -7q-109 0 -165 55.5t-56 155.5q0 83 36 160t101.5 124.5t149.5 47.5q78 0 125 -40t47 -110q0 -54 -29 -94t-78.5 -61t-110.5 -21q-55 0 -102 12q0 -61 25.5 -89t88.5 -28q74 0 145 28l-20 -113q-33 -13 -76.5 -20zM245 291q52 0 80.5 22
t28.5 54q0 25 -17.5 41.5t-46.5 16.5q-42 0 -72.5 -35.5t-44.5 -92.5q46 -6 72 -6zM295 742l71 -168h-98l-112 153l-2 15h141z" />
    <glyph glyph-name="eacute" unicode="&#xe9;" horiz-adv-x="494" 
d="M326.5 -5q-43.5 -7 -80.5 -7q-109 0 -165 55.5t-56 155.5q0 83 36 160t101.5 124.5t149.5 47.5q78 0 125 -40t47 -110q0 -54 -29 -94t-78.5 -61t-110.5 -21q-55 0 -102 12q0 -61 25.5 -89t88.5 -28q74 0 145 28l-20 -113q-33 -13 -76.5 -20zM245 291q52 0 80.5 22
t28.5 54q0 25 -17.5 41.5t-46.5 16.5q-42 0 -72.5 -35.5t-44.5 -92.5q46 -6 72 -6zM457 727l-112 -153h-98l71 168h141z" />
    <glyph glyph-name="ecircumflex" unicode="&#xea;" horiz-adv-x="494" 
d="M326.5 -5q-43.5 -7 -80.5 -7q-109 0 -165 55.5t-56 155.5q0 83 36 160t101.5 124.5t149.5 47.5q78 0 125 -40t47 -110q0 -54 -29 -94t-78.5 -61t-110.5 -21q-55 0 -102 12q0 -61 25.5 -89t88.5 -28q74 0 145 28l-20 -113q-33 -13 -76.5 -20zM245 291q52 0 80.5 22
t28.5 54q0 25 -17.5 41.5t-46.5 16.5q-42 0 -72.5 -35.5t-44.5 -92.5q46 -6 72 -6zM381 574l-58 79l-84 -79h-76v12l117 156h117l65 -160l-5 -8h-76z" />
    <glyph glyph-name="edieresis" unicode="&#xeb;" horiz-adv-x="494" 
d="M326.5 -5q-43.5 -7 -80.5 -7q-109 0 -165 55.5t-56 155.5q0 83 36 160t101.5 124.5t149.5 47.5q78 0 125 -40t47 -110q0 -54 -29 -94t-78.5 -61t-110.5 -21q-55 0 -102 12q0 -61 25.5 -89t88.5 -28q74 0 145 28l-20 -113q-33 -13 -76.5 -20zM245 291q52 0 80.5 22
t28.5 54q0 25 -17.5 41.5t-46.5 16.5q-42 0 -72.5 -35.5t-44.5 -92.5q46 -6 72 -6zM164 600.5q-16 15.5 -16 44.5q0 37 23.5 61t64.5 24q62 0 62 -58q0 -37 -23 -62t-65 -25q-30 0 -46 15.5zM377 706q23 24 64 24q62 0 62 -58q0 -37 -22.5 -62t-64.5 -25q-30 0 -46 15.5
t-16 44.5q0 37 23 61z" />
    <glyph glyph-name="igrave" unicode="&#xec;" horiz-adv-x="277" 
d="M257 519l-88 -519h-150l88 519h150zM177 742l71 -168h-98l-112 153l-2 15h141z" />
    <glyph glyph-name="iacute" unicode="&#xed;" horiz-adv-x="277" 
d="M257 519l-88 -519h-150l88 519h150zM340 727l-112 -153h-98l71 168h141z" />
    <glyph glyph-name="icircumflex" unicode="&#xee;" horiz-adv-x="277" 
d="M257 519l-88 -519h-150l88 519h150zM264 574l-58 79l-84 -79h-76v12l117 156h117l65 -160l-5 -8h-76z" />
    <glyph glyph-name="idieresis" unicode="&#xef;" horiz-adv-x="277" 
d="M257 519l-88 -519h-150l88 519h150zM52 644q0 35 21.5 60.5t61.5 25.5q30 0 44 -15t14 -42q0 -36 -22 -61.5t-61 -25.5q-58 0 -58 58zM240.5 704.5q21.5 25.5 61.5 25.5q30 0 44 -15t14 -42q0 -36 -22 -61.5t-62 -25.5q-28 0 -42.5 15t-14.5 43q0 35 21.5 60.5z" />
    <glyph glyph-name="eth" unicode="&#xf0;" horiz-adv-x="573" 
d="M345 606q-45 66 -114 113v11h164q42 -34 72 -73l116 48l13 -67l-91 -38q51 -96 51 -212q0 -101 -37.5 -193t-111.5 -149.5t-178 -57.5q-98 0 -154 50.5t-56 140.5q0 67 31.5 127.5t86.5 97t123 36.5q97 0 140 -78h8q1 12 1 33q0 80 -32 152l-121 -51l-13 67zM185 125.5
q23 -22.5 62 -22.5q55 0 90.5 45t54.5 114q-15 30 -42.5 47t-64.5 17q-39 0 -67 -20t-42 -51t-14 -65q0 -42 23 -64.5z" />
    <glyph glyph-name="ntilde" unicode="&#xf1;" horiz-adv-x="569" 
d="M238 519l-1 -82h9q36 42 81.5 68t97.5 26q54 0 82.5 -27.5t28.5 -75.5q0 -19 -4 -36l-51 -250l-8 -142h-150l8 142l38 188q2 8 2 21q0 22 -11 33.5t-31 11.5q-29 0 -55.5 -24.5t-47.5 -63.5l-53 -308h-150l64 372l1 147h150zM398 593q-15 0 -26 4t-29 12q-16 8 -27.5 12
t-25.5 4q-38 0 -68 -32h-6l17 96q32 34 74 34q15 0 27.5 -4t28.5 -12q17 -8 27.5 -12t24.5 -4q38 0 68 32h6l-16 -96q-34 -34 -75 -34z" />
    <glyph glyph-name="ograve" unicode="&#xf2;" horiz-adv-x="547" 
d="M76 42.5q-52 54.5 -52 153.5q0 83 37 160.5t105.5 126t157.5 48.5q94 0 146 -54.5t52 -153.5q0 -84 -36.5 -161t-104.5 -125.5t-158 -48.5q-95 0 -147 54.5zM193 130.5q17 -24.5 50 -24.5q40 0 69 36t44 86.5t15 91.5q0 43 -18 68t-51 25q-40 0 -68.5 -36.5t-43 -87.5
t-14.5 -91q0 -43 17 -67.5zM315 742l71 -168h-98l-112 153l-2 15h141z" />
    <glyph glyph-name="oacute" unicode="&#xf3;" horiz-adv-x="547" 
d="M76 42.5q-52 54.5 -52 153.5q0 83 37 160.5t105.5 126t157.5 48.5q94 0 146 -54.5t52 -153.5q0 -84 -36.5 -161t-104.5 -125.5t-158 -48.5q-95 0 -147 54.5zM193 130.5q17 -24.5 50 -24.5q40 0 69 36t44 86.5t15 91.5q0 43 -18 68t-51 25q-40 0 -68.5 -36.5t-43 -87.5
t-14.5 -91q0 -43 17 -67.5zM477 727l-112 -153h-98l71 168h141z" />
    <glyph glyph-name="ocircumflex" unicode="&#xf4;" horiz-adv-x="547" 
d="M76 42.5q-52 54.5 -52 153.5q0 83 37 160.5t105.5 126t157.5 48.5q94 0 146 -54.5t52 -153.5q0 -84 -36.5 -161t-104.5 -125.5t-158 -48.5q-95 0 -147 54.5zM193 130.5q17 -24.5 50 -24.5q40 0 69 36t44 86.5t15 91.5q0 43 -18 68t-51 25q-40 0 -68.5 -36.5t-43 -87.5
t-14.5 -91q0 -43 17 -67.5zM401 574l-58 79l-84 -79h-76v12l117 156h117l65 -160l-5 -8h-76z" />
    <glyph glyph-name="otilde" unicode="&#xf5;" horiz-adv-x="547" 
d="M76 42.5q-52 54.5 -52 153.5q0 83 37 160.5t105.5 126t157.5 48.5q94 0 146 -54.5t52 -153.5q0 -84 -36.5 -161t-104.5 -125.5t-158 -48.5q-95 0 -147 54.5zM193 130.5q17 -24.5 50 -24.5q40 0 69 36t44 86.5t15 91.5q0 43 -18 68t-51 25q-40 0 -68.5 -36.5t-43 -87.5
t-14.5 -91q0 -43 17 -67.5zM389 593q-15 0 -26 4t-29 12q-16 8 -27.5 12t-25.5 4q-38 0 -68 -32h-6l17 96q32 34 74 34q15 0 27.5 -4t28.5 -12q17 -8 27.5 -12t24.5 -4q38 0 68 32h6l-16 -96q-34 -34 -75 -34z" />
    <glyph glyph-name="odieresis" unicode="&#xf6;" horiz-adv-x="547" 
d="M76 42.5q-52 54.5 -52 153.5q0 83 37 160.5t105.5 126t157.5 48.5q94 0 146 -54.5t52 -153.5q0 -84 -36.5 -161t-104.5 -125.5t-158 -48.5q-95 0 -147 54.5zM193 130.5q17 -24.5 50 -24.5q40 0 69 36t44 86.5t15 91.5q0 43 -18 68t-51 25q-40 0 -68.5 -36.5t-43 -87.5
t-14.5 -91q0 -43 17 -67.5zM184 600.5q-16 15.5 -16 44.5q0 37 23.5 61t64.5 24q62 0 62 -58q0 -37 -23 -62t-65 -25q-30 0 -46 15.5zM397 706q23 24 64 24q62 0 62 -58q0 -37 -22.5 -62t-64.5 -25q-30 0 -46 15.5t-16 44.5q0 37 23 61z" />
    <glyph glyph-name="divide" unicode="&#xf7;" 
d="M64 280l22 129h498l-22 -129h-498zM227 175.5q24 27.5 75 27.5q70 0 70 -60q0 -38 -23.5 -66.5t-75.5 -28.5q-70 0 -70 63q0 37 24 64.5zM300 613q24 28 76 28q70 0 70 -62q0 -38 -24.5 -65.5t-74.5 -27.5q-71 0 -71 62q0 37 24 65z" />
    <glyph glyph-name="oslash" unicode="&#xf8;" horiz-adv-x="547" 
d="M108 17l-52 -59h-93l95 108q-34 51 -34 130q0 83 37 160.5t105.5 126t157.5 48.5q66 0 113 -28l51 58h93l-94 -106q35 -52 35 -132q0 -84 -36.5 -161t-104.5 -125.5t-158 -48.5q-68 0 -115 29zM176 188l175 203q-19 22 -49 22q-40 0 -68.5 -36.5t-43 -87.5t-14.5 -91v-10
zM243 106q40 0 69 36t44 86.5t15 91.5v12l-176 -204q17 -22 48 -22z" />
    <glyph glyph-name="ugrave" unicode="&#xf9;" horiz-adv-x="565" 
d="M325 0v81h-8q-37 -42 -82 -67.5t-94 -25.5q-52 0 -79.5 28t-27.5 76q0 16 3 34l70 393h150l-59 -342q-1 -5 -1 -13q0 -19 9.5 -30t28.5 -11q26 0 52.5 21.5t46.5 56.5l55 318h150l-64 -373v-146h-150zM318 742l71 -168h-98l-112 153l-2 15h141z" />
    <glyph glyph-name="uacute" unicode="&#xfa;" horiz-adv-x="565" 
d="M325 0v81h-8q-37 -42 -82 -67.5t-94 -25.5q-52 0 -79.5 28t-27.5 76q0 16 3 34l70 393h150l-59 -342q-1 -5 -1 -13q0 -19 9.5 -30t28.5 -11q26 0 52.5 21.5t46.5 56.5l55 318h150l-64 -373v-146h-150zM481 727l-112 -153h-98l71 168h141z" />
    <glyph glyph-name="ucircumflex" unicode="&#xfb;" horiz-adv-x="565" 
d="M325 0v81h-8q-37 -42 -82 -67.5t-94 -25.5q-52 0 -79.5 28t-27.5 76q0 16 3 34l70 393h150l-59 -342q-1 -5 -1 -13q0 -19 9.5 -30t28.5 -11q26 0 52.5 21.5t46.5 56.5l55 318h150l-64 -373v-146h-150zM405 574l-58 79l-84 -79h-76v12l117 156h117l65 -160l-5 -8h-76z" />
    <glyph glyph-name="udieresis" unicode="&#xfc;" horiz-adv-x="565" 
d="M325 0v81h-8q-37 -42 -82 -67.5t-94 -25.5q-52 0 -79.5 28t-27.5 76q0 16 3 34l70 393h150l-59 -342q-1 -5 -1 -13q0 -19 9.5 -30t28.5 -11q26 0 52.5 21.5t46.5 56.5l55 318h150l-64 -373v-146h-150zM187 600.5q-16 15.5 -16 44.5q0 37 23.5 61t64.5 24q62 0 62 -58
q0 -37 -23 -62t-65 -25q-30 0 -46 15.5zM400 706q23 24 64 24q62 0 62 -58q0 -37 -22.5 -62t-64.5 -25q-30 0 -46 15.5t-16 44.5q0 37 23 61z" />
    <glyph glyph-name="yacute" unicode="&#xfd;" horiz-adv-x="495" 
d="M204 519l22 -391h13l154 391h145l-228 -513q-44 -101 -116 -159.5t-169 -58.5q-27 0 -58 4t-50 11l21 123q20 -8 49 -12.5t50 -4.5q45 0 78 23t61 73h-73l-54 514h155zM452 727l-112 -153h-98l71 168h141z" />
    <glyph glyph-name="thorn" unicode="&#xfe;" horiz-adv-x="567" 
d="M143 730h150l-52 -281h9q25 34 63.5 58t82.5 24q66 0 106.5 -53.5t40.5 -148.5q0 -89 -37 -167t-105 -126t-156 -48q-40 0 -76 9l-34 -197h-150zM259 106q44 0 74 36t44.5 86t14.5 90q0 44 -17.5 69.5t-44.5 25.5q-39 0 -73 -48.5t-44 -110.5v2l-23 -136q42 -14 69 -14z
" />
    <glyph glyph-name="ydieresis" unicode="&#xff;" horiz-adv-x="495" 
d="M204 519l22 -391h13l154 391h145l-228 -513q-44 -101 -116 -159.5t-169 -58.5q-27 0 -58 4t-50 11l21 123q20 -8 49 -12.5t50 -4.5q45 0 78 23t61 73h-73l-54 514h155zM159 600.5q-16 15.5 -16 44.5q0 37 23.5 61t64.5 24q62 0 62 -58q0 -37 -23 -62t-65 -25
q-30 0 -46 15.5zM372 706q23 24 64 24q62 0 62 -58q0 -37 -22.5 -62t-64.5 -25q-30 0 -46 15.5t-16 44.5q0 37 23 61z" />
    <glyph glyph-name="Amacron" unicode="&#x100;" horiz-adv-x="619" 
d="M408 0l-15 159h-206l-71 -159h-148l310 690h216l66 -690h-152zM389 280l-26 265h-11l-119 -265h156zM539 876l-17 -94h-241l17 94h241z" />
    <glyph glyph-name="amacron" unicode="&#x101;" horiz-adv-x="573" 
d="M354 263l24 138q-39 12 -64 12q-46 0 -77 -35.5t-46 -85t-15 -91.5q0 -44 17 -69.5t44 -25.5q38 0 72 48.5t45 111.5v-3zM61 359q37 78 107.5 125t168.5 47q52 0 111 -13t94 -32l-58 -340l-1 -146h-150v69h-9q-21 -32 -62.5 -56.5t-87.5 -24.5q-68 0 -109 53.5t-41 149.5
q0 90 37 168zM479 705l-17 -94h-241l17 94h241z" />
    <glyph glyph-name="Abreve" unicode="&#x102;" horiz-adv-x="619" 
d="M408 0l-15 159h-206l-71 -159h-148l310 690h216l66 -690h-152zM389 280l-26 265h-11l-119 -265h156zM506 792.5q-44 -44.5 -110 -44.5q-55 0 -84 31.5t-29 87.5q0 25 4 46h79q-3 -16 -3 -31q0 -54 46 -54q30 0 49 23t27 62h77q-12 -76 -56 -120.5z" />
    <glyph glyph-name="abreve" unicode="&#x103;" horiz-adv-x="573" 
d="M354 263l24 138q-39 12 -64 12q-46 0 -77 -35.5t-46 -85t-15 -91.5q0 -44 17 -69.5t44 -25.5q38 0 72 48.5t45 111.5v-3zM61 359q37 78 107.5 125t168.5 47q52 0 111 -13t94 -32l-58 -340l-1 -146h-150v69h-9q-21 -32 -62.5 -56.5t-87.5 -24.5q-68 0 -109 53.5t-41 149.5
q0 90 37 168zM446 621.5q-44 -44.5 -110 -44.5q-55 0 -84 31.5t-29 87.5q0 25 4 46h79q-3 -16 -3 -31q0 -54 46 -54q30 0 49 23t27 62h77q-12 -76 -56 -120.5z" />
    <glyph glyph-name="Cacute" unicode="&#x106;" horiz-adv-x="527" 
d="M474 563.5q-36 8.5 -69 8.5q-72 0 -119 -45.5t-68.5 -112.5t-21.5 -133q0 -163 135 -163q30 0 71 6.5t66 16.5l-24 -134q-61 -19 -140 -19q-128 0 -196 70.5t-68 206.5q0 113 45.5 213t132 162t203.5 62q81 0 137 -25l-23 -134q-25 12 -61 20.5zM541 898l-112 -153h-98
l71 168h141z" />
    <glyph glyph-name="cacute" unicode="&#x107;" horiz-adv-x="428" 
d="M362 403q-26 6 -46 6q-49 0 -79.5 -35.5t-43.5 -83.5t-13 -87q0 -48 21 -71t64 -23q25 0 51.5 5.5t46.5 14.5l-20 -123q-56 -18 -116 -18q-98 0 -150.5 54.5t-52.5 153.5q0 84 37 161t106 125.5t162 48.5q51 0 99 -16l-21 -125q-19 7 -45 13zM436 727l-112 -153h-98
l71 168h141z" />
    <glyph glyph-name="Ccaron" unicode="&#x10c;" horiz-adv-x="527" 
d="M474 563.5q-36 8.5 -69 8.5q-72 0 -119 -45.5t-68.5 -112.5t-21.5 -133q0 -163 135 -163q30 0 71 6.5t66 16.5l-24 -134q-61 -19 -140 -19q-128 0 -196 70.5t-68 206.5q0 113 45.5 213t132 162t203.5 62q81 0 137 -25l-23 -134q-25 12 -61 20.5zM351 913l58 -79l84 79h76
v-12l-117 -156h-117l-65 160l5 8h76z" />
    <glyph glyph-name="ccaron" unicode="&#x10d;" horiz-adv-x="428" 
d="M362 403q-26 6 -46 6q-49 0 -79.5 -35.5t-43.5 -83.5t-13 -87q0 -48 21 -71t64 -23q25 0 51.5 5.5t46.5 14.5l-20 -123q-56 -18 -116 -18q-98 0 -150.5 54.5t-52.5 153.5q0 84 37 161t106 125.5t162 48.5q51 0 99 -16l-21 -125q-19 7 -45 13zM246 742l58 -79l84 79h76
v-12l-117 -156h-117l-65 160l5 8h76z" />
    <glyph glyph-name="Dcaron" unicode="&#x10e;" horiz-adv-x="658" 
d="M407 690q116 0 178.5 -67.5t62.5 -197.5q0 -109 -43.5 -207t-126.5 -158t-196 -60h-252l118 690h259zM301 127q64 0 107.5 47t64.5 115.5t21 132.5q0 141 -109 141h-107l-74 -436h97zM372 913l58 -79l84 79h76v-12l-117 -156h-117l-65 160l5 8h76z" />
    <glyph glyph-name="Dcroat" unicode="&#x110;" horiz-adv-x="658" 
d="M407 690q116 0 178.5 -67.5t62.5 -197.5q0 -109 -43.5 -207t-126.5 -158t-196 -60h-252l51 298h-70l16 92h70l51 300h259zM301 127q64 0 107.5 47t64.5 115.5t21 132.5q0 141 -109 141h-107l-29 -173h113l-16 -92h-113l-29 -171h97z" />
    <glyph glyph-name="dcroat" unicode="&#x111;" horiz-adv-x="573" 
d="M333 0v69h-9q-23 -33 -64 -57t-87 -24q-67 0 -108 53t-41 148q0 89 37 167.5t104.5 126.5t155.5 48q40 0 76 -9l9 53h-121l16 92h121l11 63h151l-11 -63h63l-16 -92h-63l-74 -429v-146h-150zM192 131.5q17 -25.5 45 -25.5q37 0 70 45t45 108l24 140q-36 14 -68 14
q-44 0 -74 -36t-44.5 -86t-14.5 -91q0 -43 17 -68.5z" />
    <glyph glyph-name="Emacron" unicode="&#x112;" horiz-adv-x="529" 
d="M555 690l-22 -122h-254l-27 -157h185l-21 -122h-185l-28 -167h256l-22 -122h-407l118 690h407zM505 876l-17 -94h-241l17 94h241z" />
    <glyph glyph-name="emacron" unicode="&#x113;" horiz-adv-x="494" 
d="M326.5 -5q-43.5 -7 -80.5 -7q-109 0 -165 55.5t-56 155.5q0 83 36 160t101.5 124.5t149.5 47.5q78 0 125 -40t47 -110q0 -54 -29 -94t-78.5 -61t-110.5 -21q-55 0 -102 12q0 -61 25.5 -89t88.5 -28q74 0 145 28l-20 -113q-33 -13 -76.5 -20zM245 291q52 0 80.5 22
t28.5 54q0 25 -17.5 41.5t-46.5 16.5q-42 0 -72.5 -35.5t-44.5 -92.5q46 -6 72 -6zM453 705l-17 -94h-241l17 94h241z" />
    <glyph glyph-name="Ebreve" unicode="&#x114;" horiz-adv-x="529" 
d="M555 690l-22 -122h-254l-27 -157h185l-21 -122h-185l-28 -167h256l-22 -122h-407l118 690h407zM472 792.5q-44 -44.5 -110 -44.5q-55 0 -84 31.5t-29 87.5q0 25 4 46h79q-3 -16 -3 -31q0 -54 46 -54q30 0 49 23t27 62h77q-12 -76 -56 -120.5z" />
    <glyph glyph-name="ebreve" unicode="&#x115;" horiz-adv-x="494" 
d="M326.5 -5q-43.5 -7 -80.5 -7q-109 0 -165 55.5t-56 155.5q0 83 36 160t101.5 124.5t149.5 47.5q78 0 125 -40t47 -110q0 -54 -29 -94t-78.5 -61t-110.5 -21q-55 0 -102 12q0 -61 25.5 -89t88.5 -28q74 0 145 28l-20 -113q-33 -13 -76.5 -20zM245 291q52 0 80.5 22
t28.5 54q0 25 -17.5 41.5t-46.5 16.5q-42 0 -72.5 -35.5t-44.5 -92.5q46 -6 72 -6zM420 621.5q-44 -44.5 -110 -44.5q-55 0 -84 31.5t-29 87.5q0 25 4 46h79q-3 -16 -3 -31q0 -54 46 -54q30 0 49 23t27 62h77q-12 -76 -56 -120.5z" />
    <glyph glyph-name="Edotaccent" unicode="&#x116;" horiz-adv-x="529" 
d="M555 690l-22 -122h-254l-27 -157h185l-21 -122h-185l-28 -167h256l-22 -122h-407l118 690h407zM309.5 771.5q-17.5 15.5 -17.5 44.5q0 37 25.5 61t71.5 24q69 0 69 -58q0 -37 -25.5 -62t-71.5 -25q-34 0 -51.5 15.5z" />
    <glyph glyph-name="edotaccent" unicode="&#x117;" horiz-adv-x="494" 
d="M326.5 -5q-43.5 -7 -80.5 -7q-109 0 -165 55.5t-56 155.5q0 83 36 160t101.5 124.5t149.5 47.5q78 0 125 -40t47 -110q0 -54 -29 -94t-78.5 -61t-110.5 -21q-55 0 -102 12q0 -61 25.5 -89t88.5 -28q74 0 145 28l-20 -113q-33 -13 -76.5 -20zM245 291q52 0 80.5 22
t28.5 54q0 25 -17.5 41.5t-46.5 16.5q-42 0 -72.5 -35.5t-44.5 -92.5q46 -6 72 -6zM258.5 600.5q-17.5 15.5 -17.5 44.5q0 37 25.5 61t71.5 24q69 0 69 -58q0 -37 -25.5 -62t-71.5 -25q-34 0 -51.5 15.5z" />
    <glyph glyph-name="Ecaron" unicode="&#x11a;" horiz-adv-x="529" 
d="M555 690l-22 -122h-254l-27 -157h185l-21 -122h-185l-28 -167h256l-22 -122h-407l118 690h407zM319 913l58 -79l84 79h76v-12l-117 -156h-117l-65 160l5 8h76z" />
    <glyph glyph-name="ecaron" unicode="&#x11b;" horiz-adv-x="494" 
d="M326.5 -5q-43.5 -7 -80.5 -7q-109 0 -165 55.5t-56 155.5q0 83 36 160t101.5 124.5t149.5 47.5q78 0 125 -40t47 -110q0 -54 -29 -94t-78.5 -61t-110.5 -21q-55 0 -102 12q0 -61 25.5 -89t88.5 -28q74 0 145 28l-20 -113q-33 -13 -76.5 -20zM245 291q52 0 80.5 22
t28.5 54q0 25 -17.5 41.5t-46.5 16.5q-42 0 -72.5 -35.5t-44.5 -92.5q46 -6 72 -6zM268 742l58 -79l84 79h76v-12l-117 -156h-117l-65 160l5 8h76z" />
    <glyph glyph-name="Gbreve" unicode="&#x11e;" horiz-adv-x="607" 
d="M504 564q-47 8 -82 8q-80 0 -131 -45.5t-73.5 -112.5t-22.5 -133q0 -163 144 -163q9 0 45 2l38 218h146l-55 -322q-45 -13 -102 -20.5t-101 -7.5q-130 0 -200 70.5t-70 207.5q0 112 46 212t136.5 162t216.5 62q41 0 84 -6.5t78 -18.5l-22 -132q-28 11 -75 19zM500 792.5
q-44 -44.5 -110 -44.5q-55 0 -84 31.5t-29 87.5q0 25 4 46h79q-3 -16 -3 -31q0 -54 46 -54q30 0 49 23t27 62h77q-12 -76 -56 -120.5z" />
    <glyph glyph-name="gbreve" unicode="&#x11f;" horiz-adv-x="569" 
d="M162 -212q-44 0 -91 7.5t-78 19.5l20 109q31 -12 72 -19.5t75 -7.5q68 0 107.5 34t52.5 104l4 23h-10q-24 -29 -61.5 -49.5t-79.5 -20.5q-67 0 -108 53.5t-41 149.5q0 90 37 168t107.5 125t168.5 47q52 0 111 -13t94 -32l-77 -455q-41 -243 -303 -243zM192.5 131
q16.5 -25 44.5 -25q38 0 72 48.5t45 111.5v-2l23 137q-38 12 -63 12q-46 0 -77 -35.5t-46 -85t-15 -91.5q0 -45 16.5 -70zM447 621.5q-44 -44.5 -110 -44.5q-55 0 -84 31.5t-29 87.5q0 25 4 46h79q-3 -16 -3 -31q0 -54 46 -54q30 0 49 23t27 62h77q-12 -76 -56 -120.5z" />
    <glyph glyph-name="Imacron" unicode="&#x12a;" horiz-adv-x="300" 
d="M300 690l-118 -690h-152l118 690h152zM378 876l-17 -94h-241l17 94h241z" />
    <glyph glyph-name="imacron" unicode="&#x12b;" horiz-adv-x="277" 
d="M257 519l-88 -519h-150l88 519h150zM335 705l-17 -94h-241l17 94h241z" />
    <glyph glyph-name="Ibreve" unicode="&#x12c;" horiz-adv-x="300" 
d="M300 690l-118 -690h-152l118 690h152zM345 792.5q-44 -44.5 -110 -44.5q-55 0 -84 31.5t-29 87.5q0 25 4 46h79q-3 -16 -3 -31q0 -54 46 -54q30 0 49 23t27 62h77q-12 -76 -56 -120.5z" />
    <glyph glyph-name="ibreve" unicode="&#x12d;" horiz-adv-x="277" 
d="M257 519l-88 -519h-150l88 519h150zM302 621.5q-44 -44.5 -110 -44.5q-55 0 -84 31.5t-29 87.5q0 25 4 46h79q-3 -16 -3 -31q0 -54 46 -54q30 0 49 23t27 62h77q-12 -76 -56 -120.5z" />
    <glyph glyph-name="Idotaccent" unicode="&#x130;" horiz-adv-x="300" 
d="M300 690l-118 -690h-152l118 690h152zM183.5 771.5q-17.5 15.5 -17.5 44.5q0 37 25.5 61t71.5 24q69 0 69 -58q0 -37 -25.5 -62t-71.5 -25q-34 0 -51.5 15.5z" />
    <glyph glyph-name="dotlessi" unicode="&#x131;" horiz-adv-x="277" 
d="M257 519l-88 -519h-150l88 519h150z" />
    <glyph glyph-name="IJ" unicode="&#x132;" horiz-adv-x="692" 
d="M272 690l-118 -690h-152l118 690h152zM355 116q45 0 71.5 25t34.5 70l81 479h152l-81 -472q-18 -108 -85.5 -169t-178.5 -61q-44 0 -82 7l21 129q34 -8 67 -8z" />
    <glyph glyph-name="ij" unicode="&#x133;" horiz-adv-x="553" 
d="M211 519l-88 -519h-150l88 519h150zM102.5 706q25.5 24 71.5 24q69 0 69 -58q0 -37 -25.5 -62t-71.5 -25q-34 0 -51.5 15.5t-17.5 44.5q0 37 25.5 61zM258 -38l95 557h150l-96 -565q-14 -82 -62.5 -124t-125.5 -42q-27 0 -51 6l20 114q60 -6 70 54zM394.5 706
q25.5 24 71.5 24q69 0 69 -58q0 -37 -25.5 -62t-71.5 -25q-34 0 -51.5 15.5t-17.5 44.5q0 37 25.5 61z" />
    <glyph glyph-name="Ncaron" unicode="&#x147;" horiz-adv-x="668" 
d="M147 690h154l164 -487h7q4 118 26 246l41 241h130l-118 -690h-152l-165 486h-8q-3 -115 -25 -245l-41 -241h-130zM376 913l58 -79l84 79h76v-12l-117 -156h-117l-65 160l5 8h76z" />
    <glyph glyph-name="ncaron" unicode="&#x148;" horiz-adv-x="569" 
d="M238 519l-1 -82h9q36 42 81.5 68t97.5 26q54 0 82.5 -27.5t28.5 -75.5q0 -19 -4 -36l-51 -250l-8 -142h-150l8 142l38 188q2 8 2 21q0 22 -11 33.5t-31 11.5q-29 0 -55.5 -24.5t-47.5 -63.5l-53 -308h-150l64 372l1 147h150zM297 742l58 -79l84 79h76v-12l-117 -156h-117
l-65 160l5 8h76z" />
    <glyph glyph-name="Omacron" unicode="&#x14c;" horiz-adv-x="659" 
d="M103 58q-63 70 -63 205q0 113 43.5 214t127 163t196.5 62q117 0 179.5 -70t62.5 -205q0 -113 -43.5 -214t-126.5 -163t-196 -62q-117 0 -180 70zM303 116q63 0 106.5 49t64.5 120.5t21 138.5q0 150 -111 150q-65 0 -108 -48.5t-63 -119t-20 -137.5q0 -153 110 -153z
M555 876l-17 -94h-241l17 94h241z" />
    <glyph glyph-name="omacron" unicode="&#x14d;" horiz-adv-x="547" 
d="M76 42.5q-52 54.5 -52 153.5q0 83 37 160.5t105.5 126t157.5 48.5q94 0 146 -54.5t52 -153.5q0 -84 -36.5 -161t-104.5 -125.5t-158 -48.5q-95 0 -147 54.5zM193 130.5q17 -24.5 50 -24.5q40 0 69 36t44 86.5t15 91.5q0 43 -18 68t-51 25q-40 0 -68.5 -36.5t-43 -87.5
t-14.5 -91q0 -43 17 -67.5zM473 705l-17 -94h-241l17 94h241z" />
    <glyph glyph-name="Obreve" unicode="&#x14e;" horiz-adv-x="659" 
d="M103 58q-63 70 -63 205q0 113 43.5 214t127 163t196.5 62q117 0 179.5 -70t62.5 -205q0 -113 -43.5 -214t-126.5 -163t-196 -62q-117 0 -180 70zM303 116q63 0 106.5 49t64.5 120.5t21 138.5q0 150 -111 150q-65 0 -108 -48.5t-63 -119t-20 -137.5q0 -153 110 -153z
M522 792.5q-44 -44.5 -110 -44.5q-55 0 -84 31.5t-29 87.5q0 25 4 46h79q-3 -16 -3 -31q0 -54 46 -54q30 0 49 23t27 62h77q-12 -76 -56 -120.5z" />
    <glyph glyph-name="obreve" unicode="&#x14f;" horiz-adv-x="547" 
d="M76 42.5q-52 54.5 -52 153.5q0 83 37 160.5t105.5 126t157.5 48.5q94 0 146 -54.5t52 -153.5q0 -84 -36.5 -161t-104.5 -125.5t-158 -48.5q-95 0 -147 54.5zM193 130.5q17 -24.5 50 -24.5q40 0 69 36t44 86.5t15 91.5q0 43 -18 68t-51 25q-40 0 -68.5 -36.5t-43 -87.5
t-14.5 -91q0 -43 17 -67.5zM440 621.5q-44 -44.5 -110 -44.5q-55 0 -84 31.5t-29 87.5q0 25 4 46h79q-3 -16 -3 -31q0 -54 46 -54q30 0 49 23t27 62h77q-12 -76 -56 -120.5z" />
    <glyph glyph-name="OE" unicode="&#x152;" horiz-adv-x="854" 
d="M859 568h-255l-27 -157h186l-21 -122h-186l-28 -167h256l-21 -122h-386q-43 -12 -94 -12q-117 0 -180 70t-63 205q0 113 43.5 214t127 163t196.5 62q49 0 86 -12h387zM221 154q28 -38 84 -38q35 0 73 17l73 428q-28 13 -63 13q-67 0 -111 -48t-64 -118t-20 -137
q0 -79 28 -117z" />
    <glyph glyph-name="oe" unicode="&#x153;" horiz-adv-x="818" 
d="M76 43q-52 55 -52 153q0 83 37 160.5t104 126t151 48.5q101 0 146 -72q75 72 175 72q77 0 124 -40.5t47 -109.5q0 -56 -30.5 -96t-81 -60t-111.5 -20q-48 0 -96 12q0 -61 25.5 -89t87.5 -28q74 0 145 28l-20 -113q-33 -13 -76.5 -20t-80.5 -7q-121 0 -174 75
q-75 -75 -178 -75q-90 0 -142 55zM193 130.5q17 -24.5 50 -24.5q38 0 66 36t42 86.5t14 91.5q0 43 -16.5 68t-47.5 25q-39 0 -67.5 -36.5t-43 -87.5t-14.5 -91q0 -43 17 -67.5zM565 291q51 0 82 21.5t31 54.5q0 25 -17.5 41.5t-45.5 16.5q-42 0 -72.5 -35.5t-44.5 -92.5
q35 -6 67 -6z" />
    <glyph glyph-name="Scedilla" unicode="&#x15e;" horiz-adv-x="522" 
d="M442 694q44 -8 79 -21l-21 -130q-100 37 -169 37q-48 0 -75 -20.5t-27 -56.5q0 -30 25 -51t93 -58q69 -37 102.5 -80.5t33.5 -106.5q0 -64 -34 -114t-95.5 -77.5t-141.5 -27.5q-57 0 -117 13.5t-97 33.5l24 137q45 -27 104.5 -44.5t105.5 -17.5q45 0 72 19t27 57
q0 29 -20.5 48t-82.5 52q-76 38 -113 83t-37 111q0 68 35.5 118t98.5 77t143 27q43 0 87 -8zM144 -137q18 0 32 6t14 18q0 17 -30 17q-18 0 -38 -5l10 63q37 5 61 5q44 0 68 -16.5t24 -50.5q0 -44 -37.5 -72t-98.5 -28q-26 0 -53 3l10 64q19 -4 38 -4z" />
    <glyph glyph-name="scedilla" unicode="&#x15f;" horiz-adv-x="428" 
d="M348.5 525.5q40.5 -5.5 62.5 -13.5l-20 -122q-29 15 -68 25.5t-65 10.5q-29 0 -46.5 -11t-17.5 -32t17 -35t56 -36q38 -20 63 -38t42.5 -47t17.5 -69q0 -49 -27.5 -88t-78 -60.5t-116.5 -21.5q-41 0 -95.5 8.5t-85.5 22.5l21 123q40 -22 89 -36.5t83 -14.5q29 0 46 12
t17 35t-18 39t-58 39q-37 22 -61 40t-41 46t-17 67q0 48 27.5 85t78.5 57t119 20q35 0 75.5 -5.5zM113 -137q18 0 32 6t14 18q0 17 -30 17q-18 0 -38 -5l10 63q37 5 61 5q44 0 68 -16.5t24 -50.5q0 -44 -37.5 -72t-98.5 -28q-26 0 -53 3l10 64q19 -4 38 -4z" />
    <glyph glyph-name="Scaron" unicode="&#x160;" horiz-adv-x="522" 
d="M442 694q44 -8 79 -21l-21 -130q-100 37 -169 37q-48 0 -75 -20.5t-27 -56.5q0 -30 25 -51t93 -58q69 -37 102.5 -80.5t33.5 -106.5q0 -64 -34 -114t-95.5 -77.5t-141.5 -27.5q-57 0 -117 13.5t-97 33.5l24 137q45 -27 104.5 -44.5t105.5 -17.5q45 0 72 19t27 57
q0 29 -20.5 48t-82.5 52q-76 38 -113 83t-37 111q0 68 35.5 118t98.5 77t143 27q43 0 87 -8zM292 913l58 -79l84 79h76v-12l-117 -156h-117l-65 160l5 8h76z" />
    <glyph glyph-name="scaron" unicode="&#x161;" horiz-adv-x="428" 
d="M348.5 525.5q40.5 -5.5 62.5 -13.5l-20 -122q-29 15 -68 25.5t-65 10.5q-29 0 -46.5 -11t-17.5 -32t17 -35t56 -36q38 -20 63 -38t42.5 -47t17.5 -69q0 -49 -27.5 -88t-78 -60.5t-116.5 -21.5q-41 0 -95.5 8.5t-85.5 22.5l21 123q40 -22 89 -36.5t83 -14.5q29 0 46 12
t17 35t-18 39t-58 39q-37 22 -61 40t-41 46t-17 67q0 48 27.5 85t78.5 57t119 20q35 0 75.5 -5.5zM229 742l58 -79l84 79h76v-12l-117 -156h-117l-65 160l5 8h76z" />
    <glyph glyph-name="Tcaron" unicode="&#x164;" horiz-adv-x="525" 
d="M555 565h-162l-97 -565h-152l97 565h-164l22 125h478zM307 913l58 -79l84 79h76v-12l-117 -156h-117l-65 160l5 8h76z" />
    <glyph glyph-name="tcaron" unicode="&#x165;" horiz-adv-x="381" 
d="M96 405h-54l16 89l62 14l68 138h99l-22 -127h130l-19 -114h-130l-39 -231q-2 -14 -2 -20q0 -45 44 -45q32 0 81 20l-20 -123q-25 -8 -59.5 -13t-61.5 -5q-69 0 -104 33.5t-35 92.5q0 18 3 37zM355 781h108l-18 -91l-61 -131h-70z" />
    <glyph glyph-name="Umacron" unicode="&#x16a;" horiz-adv-x="640" 
d="M472.5 55.5q-77.5 -67.5 -195.5 -67.5q-104 0 -160.5 52t-56.5 143q0 23 5 55l78 452h152l-77 -448q-4 -28 -4 -38q0 -88 85 -88q99 0 121 128l77 446h150l-77 -451q-20 -116 -97.5 -183.5zM548 876l-17 -94h-241l17 94h241z" />
    <glyph glyph-name="umacron" unicode="&#x16b;" horiz-adv-x="565" 
d="M325 0v81h-8q-37 -42 -82 -67.5t-94 -25.5q-52 0 -79.5 28t-27.5 76q0 16 3 34l70 393h150l-59 -342q-1 -5 -1 -13q0 -19 9.5 -30t28.5 -11q26 0 52.5 21.5t46.5 56.5l55 318h150l-64 -373v-146h-150zM477 705l-17 -94h-241l17 94h241z" />
    <glyph glyph-name="Ubreve" unicode="&#x16c;" horiz-adv-x="640" 
d="M472.5 55.5q-77.5 -67.5 -195.5 -67.5q-104 0 -160.5 52t-56.5 143q0 23 5 55l78 452h152l-77 -448q-4 -28 -4 -38q0 -88 85 -88q99 0 121 128l77 446h150l-77 -451q-20 -116 -97.5 -183.5zM516 792.5q-44 -44.5 -110 -44.5q-55 0 -84 31.5t-29 87.5q0 25 4 46h79
q-3 -16 -3 -31q0 -54 46 -54q30 0 49 23t27 62h77q-12 -76 -56 -120.5z" />
    <glyph glyph-name="ubreve" unicode="&#x16d;" horiz-adv-x="565" 
d="M325 0v81h-8q-37 -42 -82 -67.5t-94 -25.5q-52 0 -79.5 28t-27.5 76q0 16 3 34l70 393h150l-59 -342q-1 -5 -1 -13q0 -19 9.5 -30t28.5 -11q26 0 52.5 21.5t46.5 56.5l55 318h150l-64 -373v-146h-150zM444 621.5q-44 -44.5 -110 -44.5q-55 0 -84 31.5t-29 87.5q0 25 4 46
h79q-3 -16 -3 -31q0 -54 46 -54q30 0 49 23t27 62h77q-12 -76 -56 -120.5z" />
    <glyph glyph-name="Uring" unicode="&#x16e;" horiz-adv-x="640" 
d="M472.5 55.5q-77.5 -67.5 -195.5 -67.5q-104 0 -160.5 52t-56.5 143q0 23 5 55l78 452h152l-77 -448q-4 -28 -4 -38q0 -88 85 -88q99 0 121 128l77 446h150l-77 -451q-20 -116 -97.5 -183.5zM340 759.5q-24 19.5 -24 56.5q0 44 33 73t87 29q42 0 65 -19.5t23 -55.5
q0 -44 -33.5 -73.5t-85.5 -29.5q-41 0 -65 19.5zM413 799q17 0 29 10.5t12 25.5q0 11 -7 17.5t-20 6.5q-17 0 -28.5 -10t-11.5 -26q0 -24 26 -24z" />
    <glyph glyph-name="uring" unicode="&#x16f;" horiz-adv-x="565" 
d="M325 0v81h-8q-37 -42 -82 -67.5t-94 -25.5q-52 0 -79.5 28t-27.5 76q0 16 3 34l70 393h150l-59 -342q-1 -5 -1 -13q0 -19 9.5 -30t28.5 -11q26 0 52.5 21.5t46.5 56.5l55 318h150l-64 -373v-146h-150zM268 588.5q-24 19.5 -24 56.5q0 44 33 73t87 29q42 0 65 -19.5
t23 -55.5q0 -44 -33.5 -73.5t-85.5 -29.5q-41 0 -65 19.5zM341 628q17 0 29 10.5t12 25.5q0 11 -7 17.5t-20 6.5q-17 0 -28.5 -10t-11.5 -26q0 -24 26 -24z" />
    <glyph glyph-name="Wcircumflex" unicode="&#x174;" horiz-adv-x="1035" 
d="M246 690l29 -545h13l196 545h228l12 -545h10l215 545h143l-284 -690h-212l-17 549h-12l-201 -549h-222l-50 690h152zM673 745l-58 79l-84 -79h-76v12l117 156h117l65 -160l-5 -8h-76z" />
    <glyph glyph-name="wcircumflex" unicode="&#x175;" horiz-adv-x="836" 
d="M203 519l12 -391h12l143 391h204l8 -391h11l144 391h141l-221 -519h-196l-14 392h-11l-146 -392h-195l-46 519h154zM546 574l-58 79l-84 -79h-76v12l117 156h117l65 -160l-5 -8h-76z" />
    <glyph glyph-name="Ycircumflex" unicode="&#x176;" horiz-adv-x="574" 
d="M240 690l65 -310h14l168 310h153l-279 -464l-39 -226h-152l39 223l-123 467h154zM445 745l-58 79l-84 -79h-76v12l117 156h117l65 -160l-5 -8h-76z" />
    <glyph glyph-name="ycircumflex" unicode="&#x177;" horiz-adv-x="495" 
d="M204 519l22 -391h13l154 391h145l-228 -513q-44 -101 -116 -159.5t-169 -58.5q-27 0 -58 4t-50 11l21 123q20 -8 49 -12.5t50 -4.5q45 0 78 23t61 73h-73l-54 514h155zM376 574l-58 79l-84 -79h-76v12l117 156h117l65 -160l-5 -8h-76z" />
    <glyph glyph-name="Ydieresis" unicode="&#x178;" horiz-adv-x="574" 
d="M240 690l65 -310h14l168 310h153l-279 -464l-39 -226h-152l39 223l-123 467h154zM227 771.5q-16 15.5 -16 44.5q0 37 23.5 61t64.5 24q62 0 62 -58q0 -37 -23 -62t-65 -25q-30 0 -46 15.5zM440 877q23 24 64 24q62 0 62 -58q0 -37 -22.5 -62t-64.5 -25q-30 0 -46 15.5
t-16 44.5q0 37 23 61z" />
    <glyph glyph-name="Zacute" unicode="&#x179;" horiz-adv-x="581" 
d="M600 690l-16 -94l-381 -475l311 5l-21 -126h-492l15 94l380 475l-294 -5l22 126h476zM520 898l-112 -153h-98l71 168h141z" />
    <glyph glyph-name="zacute" unicode="&#x17a;" horiz-adv-x="435" 
d="M444 519l-16 -97l-268 -312l226 4l-20 -114h-384l17 96l268 312l-214 -3l20 114h371zM417 727l-112 -153h-98l71 168h141z" />
    <glyph glyph-name="Zdotaccent" unicode="&#x17b;" horiz-adv-x="581" 
d="M600 690l-16 -94l-381 -475l311 5l-21 -126h-492l15 94l380 475l-294 -5l22 126h476zM320.5 771.5q-17.5 15.5 -17.5 44.5q0 37 25.5 61t71.5 24q69 0 69 -58q0 -37 -25.5 -62t-71.5 -25q-34 0 -51.5 15.5z" />
    <glyph glyph-name="zdotaccent" unicode="&#x17c;" horiz-adv-x="435" 
d="M444 519l-16 -97l-268 -312l226 4l-20 -114h-384l17 96l268 312l-214 -3l20 114h371zM217.5 600.5q-17.5 15.5 -17.5 44.5q0 37 25.5 61t71.5 24q69 0 69 -58q0 -37 -25.5 -62t-71.5 -25q-34 0 -51.5 15.5z" />
    <glyph glyph-name="Zcaron" unicode="&#x17d;" horiz-adv-x="581" 
d="M600 690l-16 -94l-381 -475l311 5l-21 -126h-492l15 94l380 475l-294 -5l22 126h476zM330 913l58 -79l84 79h76v-12l-117 -156h-117l-65 160l5 8h76z" />
    <glyph glyph-name="zcaron" unicode="&#x17e;" horiz-adv-x="435" 
d="M444 519l-16 -97l-268 -312l226 4l-20 -114h-384l17 96l268 312l-214 -3l20 114h371zM227 742l58 -79l84 79h76v-12l-117 -156h-117l-65 160l5 8h76z" />
    <glyph glyph-name="uni0237" unicode="&#x237;" horiz-adv-x="278" 
d="M12 -38l95 557h150l-96 -565q-14 -82 -62.5 -124t-125.5 -42q-27 0 -51 6l20 114q60 -6 70 54z" />
    <glyph glyph-name="circumflex" unicode="&#x2c6;" horiz-adv-x="368" 
d="M311 574l-58 79l-84 -79h-76v12l117 156h117l65 -160l-5 -8h-76z" />
    <glyph glyph-name="caron" unicode="&#x2c7;" horiz-adv-x="368" 
d="M198 742l58 -79l84 79h76v-12l-117 -156h-117l-65 160l5 8h76z" />
    <glyph glyph-name="breve" unicode="&#x2d8;" horiz-adv-x="333" 
d="M333 621.5q-44 -44.5 -110 -44.5q-55 0 -84 31.5t-29 87.5q0 25 4 46h79q-3 -16 -3 -31q0 -54 46 -54q30 0 49 23t27 62h77q-12 -76 -56 -120.5z" />
    <glyph glyph-name="dotaccent" unicode="&#x2d9;" horiz-adv-x="245" 
d="M127.5 600.5q-17.5 15.5 -17.5 44.5q0 37 25.5 61t71.5 24q69 0 69 -58q0 -37 -25.5 -62t-71.5 -25q-34 0 -51.5 15.5z" />
    <glyph glyph-name="ring" unicode="&#x2da;" horiz-adv-x="276" 
d="M128 588.5q-24 19.5 -24 56.5q0 44 33 73t87 29q42 0 65 -19.5t23 -55.5q0 -44 -33.5 -73.5t-85.5 -29.5q-41 0 -65 19.5zM201 628q17 0 29 10.5t12 25.5q0 11 -7 17.5t-20 6.5q-17 0 -28.5 -10t-11.5 -26q0 -24 26 -24z" />
    <glyph glyph-name="tilde" unicode="&#x2dc;" horiz-adv-x="325" 
d="M278 593q-15 0 -26 4t-29 12q-16 8 -27.5 12t-25.5 4q-38 0 -68 -32h-6l17 96q32 34 74 34q15 0 27.5 -4t28.5 -12q17 -8 27.5 -12t24.5 -4q38 0 68 32h6l-16 -96q-34 -34 -75 -34z" />
    <glyph glyph-name="gravecomb" unicode="&#x300;" horiz-adv-x="0" 
d="M256 742l71 -168h-98l-112 153l-2 15h141z" />
    <glyph glyph-name="acutecomb" unicode="&#x301;" horiz-adv-x="0" 
d="M282 727l-112 -153h-98l71 168h141z" />
    <glyph glyph-name="uni0302" unicode="&#x302;" horiz-adv-x="0" 
d="M311 574l-58 79l-84 -79h-76v12l117 156h117l65 -160l-5 -8h-76z" />
    <glyph glyph-name="tildecomb" unicode="&#x303;" horiz-adv-x="0" 
d="M278 593q-15 0 -26 4t-29 12q-16 8 -27.5 12t-25.5 4q-38 0 -68 -32h-6l17 96q32 34 74 34q15 0 27.5 -4t28.5 -12q17 -8 27.5 -12t24.5 -4q38 0 68 32h6l-16 -96q-34 -34 -75 -34z" />
    <glyph glyph-name="uni0304" unicode="&#x304;" horiz-adv-x="0" 
d="M357 705l-17 -94h-241l17 94h241z" />
    <glyph glyph-name="uni0306" unicode="&#x306;" horiz-adv-x="0" 
d="M333 621.5q-44 -44.5 -110 -44.5q-55 0 -84 31.5t-29 87.5q0 25 4 46h79q-3 -16 -3 -31q0 -54 46 -54q30 0 49 23t27 62h77q-12 -76 -56 -120.5z" />
    <glyph glyph-name="uni0307" unicode="&#x307;" horiz-adv-x="0" 
d="M127.5 600.5q-17.5 15.5 -17.5 44.5q0 37 25.5 61t71.5 24q69 0 69 -58q0 -37 -25.5 -62t-71.5 -25q-34 0 -51.5 15.5z" />
    <glyph glyph-name="uni0308" unicode="&#x308;" horiz-adv-x="0" 
d="M121 600.5q-16 15.5 -16 44.5q0 37 23.5 61t64.5 24q62 0 62 -58q0 -37 -23 -62t-65 -25q-30 0 -46 15.5zM334 706q23 24 64 24q62 0 62 -58q0 -37 -22.5 -62t-64.5 -25q-30 0 -46 15.5t-16 44.5q0 37 23 61z" />
    <glyph glyph-name="uni030A" unicode="&#x30a;" horiz-adv-x="0" 
d="M128 588.5q-24 19.5 -24 56.5q0 44 33 73t87 29q42 0 65 -19.5t23 -55.5q0 -44 -33.5 -73.5t-85.5 -29.5q-41 0 -65 19.5zM201 628q17 0 29 10.5t12 25.5q0 11 -7 17.5t-20 6.5q-17 0 -28.5 -10t-11.5 -26q0 -24 26 -24z" />
    <glyph glyph-name="uni030C" unicode="&#x30c;" horiz-adv-x="0" 
d="M198 742l58 -79l84 79h76v-12l-117 -156h-117l-65 160l5 8h76z" />
    <glyph glyph-name="uni0327" unicode="&#x327;" horiz-adv-x="0" 
d="M5 -137q18 0 32 6t14 18q0 17 -30 17q-18 0 -38 -5l10 63q37 5 61 5q44 0 68 -16.5t24 -50.5q0 -44 -37.5 -72t-98.5 -28q-26 0 -53 3l10 64q19 -4 38 -4z" />
    <glyph glyph-name="uni0335" unicode="&#x335;" horiz-adv-x="0" 
d="M392 335l-16 -92h-335l16 92h335z" />
    <glyph glyph-name="uni0337" unicode="&#x337;" horiz-adv-x="0" 
d="M70 86l24 14l289 335v13l99 113h93l-118 -134l-21 -12l-287 -334l-2 -13l-97 -110h-93z" />
    <glyph glyph-name="uni0338" unicode="&#x338;" horiz-adv-x="0" 
d="M53 88l24 22l358 498l2 14l81 110h98l-82 -111l-19 -15l-362 -504l-5 -18l-93 -126h-97z" />
    <glyph glyph-name="Wgrave" unicode="&#x1e80;" horiz-adv-x="1035" 
d="M246 690l29 -545h13l196 545h228l12 -545h10l215 545h143l-284 -690h-212l-17 549h-12l-201 -549h-222l-50 690h152zM587 913l71 -168h-98l-112 153l-2 15h141z" />
    <glyph glyph-name="wgrave" unicode="&#x1e81;" horiz-adv-x="836" 
d="M203 519l12 -391h12l143 391h204l8 -391h11l144 391h141l-221 -519h-196l-14 392h-11l-146 -392h-195l-46 519h154zM459 742l71 -168h-98l-112 153l-2 15h141z" />
    <glyph glyph-name="Wacute" unicode="&#x1e82;" horiz-adv-x="1035" 
d="M246 690l29 -545h13l196 545h228l12 -545h10l215 545h143l-284 -690h-212l-17 549h-12l-201 -549h-222l-50 690h152zM749 898l-112 -153h-98l71 168h141z" />
    <glyph glyph-name="wacute" unicode="&#x1e83;" horiz-adv-x="836" 
d="M203 519l12 -391h12l143 391h204l8 -391h11l144 391h141l-221 -519h-196l-14 392h-11l-146 -392h-195l-46 519h154zM622 727l-112 -153h-98l71 168h141z" />
    <glyph glyph-name="Wdieresis" unicode="&#x1e84;" horiz-adv-x="1035" 
d="M246 690l29 -545h13l196 545h228l12 -545h10l215 545h143l-284 -690h-212l-17 549h-12l-201 -549h-222l-50 690h152zM456 771.5q-16 15.5 -16 44.5q0 37 23.5 61t64.5 24q62 0 62 -58q0 -37 -23 -62t-65 -25q-30 0 -46 15.5zM669 877q23 24 64 24q62 0 62 -58
q0 -37 -22.5 -62t-64.5 -25q-30 0 -46 15.5t-16 44.5q0 37 23 61z" />
    <glyph glyph-name="wdieresis" unicode="&#x1e85;" horiz-adv-x="836" 
d="M203 519l12 -391h12l143 391h204l8 -391h11l144 391h141l-221 -519h-196l-14 392h-11l-146 -392h-195l-46 519h154zM328 600.5q-16 15.5 -16 44.5q0 37 23.5 61t64.5 24q62 0 62 -58q0 -37 -23 -62t-65 -25q-30 0 -46 15.5zM541 706q23 24 64 24q62 0 62 -58
q0 -37 -22.5 -62t-64.5 -25q-30 0 -46 15.5t-16 44.5q0 37 23 61z" />
    <glyph glyph-name="Ygrave" unicode="&#x1ef2;" horiz-adv-x="574" 
d="M240 690l65 -310h14l168 310h153l-279 -464l-39 -226h-152l39 223l-123 467h154zM358 913l71 -168h-98l-112 153l-2 15h141z" />
    <glyph glyph-name="ygrave" unicode="&#x1ef3;" horiz-adv-x="495" 
d="M204 519l22 -391h13l154 391h145l-228 -513q-44 -101 -116 -159.5t-169 -58.5q-27 0 -58 4t-50 11l21 123q20 -8 49 -12.5t50 -4.5q45 0 78 23t61 73h-73l-54 514h155zM290 742l71 -168h-98l-112 153l-2 15h141z" />
    <glyph glyph-name="endash" unicode="&#x2013;" horiz-adv-x="442" 
d="M450 308l-17 -98h-442l18 98h441z" />
    <glyph glyph-name="emdash" unicode="&#x2014;" horiz-adv-x="716" 
d="M724 308l-17 -98h-715l17 98h715z" />
    <glyph glyph-name="quoteleft" unicode="&#x2018;" horiz-adv-x="305" 
d="M227 569q26 -7 41.5 -25.5t15.5 -45.5q0 -36 -26 -63.5t-70 -27.5q-37 0 -60.5 21.5t-23.5 57.5q0 49 39 122.5t91 125.5h73q-53 -84 -80 -165z" />
    <glyph glyph-name="quoteright" unicode="&#x2019;" horiz-adv-x="305" 
d="M189 580q-26 7 -41.5 25.5t-15.5 45.5q0 36 26 63.5t70 27.5q38 0 61 -21.5t23 -57.5q0 -49 -39 -122.5t-91 -125.5h-73q53 84 80 165z" />
    <glyph glyph-name="quotesinglbase" unicode="&#x201a;" horiz-adv-x="305" 
d="M86 -7q-26 7 -41.5 25.5t-15.5 45.5q0 36 26 63.5t70 27.5q38 0 61 -21.5t23 -57.5q0 -49 -39 -122.5t-91 -125.5h-73q53 84 80 165z" />
    <glyph glyph-name="quotedblleft" unicode="&#x201c;" horiz-adv-x="532" 
d="M226 565q26 -7 41.5 -25.5t15.5 -45.5q0 -36 -26 -63.5t-70 -27.5q-37 0 -60.5 21.5t-23.5 57.5q0 49 39 122.5t91 125.5h73q-53 -84 -80 -165zM453 565q26 -7 41.5 -25.5t15.5 -45.5q0 -36 -26 -63.5t-70 -27.5q-37 0 -60.5 21.5t-23.5 57.5q0 49 39 122.5t91 125.5h73
q-53 -84 -80 -165z" />
    <glyph glyph-name="quotedblright" unicode="&#x201d;" horiz-adv-x="531" 
d="M415 580q-26 7 -41.5 25.5t-15.5 45.5q0 36 26 63.5t70 27.5q38 0 61 -21.5t23 -57.5q0 -49 -39 -122.5t-91 -125.5h-73q53 84 80 165zM189 580q-26 7 -41.5 25.5t-15.5 45.5q0 36 26 63.5t70 27.5q38 0 61 -21.5t23 -57.5q0 -49 -39 -122.5t-91 -125.5h-73q53 84 80 165
z" />
    <glyph glyph-name="quotedblbase" unicode="&#x201e;" horiz-adv-x="532" 
d="M312 -7q-26 7 -41.5 25.5t-15.5 45.5q0 36 26 63.5t70 27.5q38 0 61 -21.5t23 -57.5q0 -49 -39 -122.5t-91 -125.5h-73q53 84 80 165zM86 -7q-26 7 -41.5 25.5t-15.5 45.5q0 36 26 63.5t70 27.5q38 0 61 -21.5t23 -57.5q0 -49 -39 -122.5t-91 -125.5h-73q53 84 80 165z
" />
    <glyph glyph-name="dagger" unicode="&#x2020;" horiz-adv-x="591" 
d="M255 452h-153l20 119h153l27 159h150l-27 -159h153l-20 -119h-153l-76 -452h-150z" />
    <glyph glyph-name="daggerdbl" unicode="&#x2021;" horiz-adv-x="592" 
d="M205 159h-152l19 119h153l29 174h-152l20 118h152l27 160h150l-27 -160h154l-20 -118h-154l-29 -174h153l-20 -119h-153l-27 -159h-150z" />
    <glyph glyph-name="bullet" unicode="&#x2022;" horiz-adv-x="404" 
d="M114.5 250q-28.5 26 -28.5 70q0 38 17.5 71t51.5 53.5t83 20.5q54 0 82 -25.5t28 -71.5q0 -37 -17.5 -70t-52 -53.5t-81.5 -20.5q-54 0 -82.5 26z" />
    <glyph glyph-name="ellipsis" unicode="&#x2026;" horiz-adv-x="825" 
d="M28 56q0 40 26 70.5t81 30.5q77 0 77 -67q0 -43 -27.5 -72.5t-79.5 -29.5q-77 0 -77 68zM288 56q0 40 26 70.5t81 30.5q77 0 77 -67q0 -43 -27.5 -72.5t-79.5 -29.5q-77 0 -77 68zM547 56q0 40 26 70.5t81 30.5q77 0 77 -67q0 -43 -27.5 -72.5t-79.5 -29.5q-77 0 -77 68z
" />
    <glyph glyph-name="perthousand" unicode="&#x2030;" horiz-adv-x="1136" 
d="M92 377.5q-36 38.5 -36 101.5q0 55 25 105t69.5 81t100.5 31q63 0 99 -38.5t36 -102.5q0 -54 -25 -104t-69.5 -81t-100.5 -31q-63 0 -99 38.5zM676 690h96l-657 -690h-95zM203 412q43 0 68.5 41.5t25.5 93.5q0 35 -14 55.5t-44 20.5q-44 0 -68 -42t-24 -93q0 -76 56 -76z
M430.5 239q24.5 50 69 81t101.5 31q63 0 99 -38t36 -101q0 -54 -24.5 -104.5t-69.5 -82t-102 -31.5q-63 0 -98.5 39t-35.5 102q0 54 24.5 104zM509.5 87.5q14.5 -20.5 43.5 -20.5q31 0 52 21.5t31 53.5t10 61q0 34 -14 54.5t-44 20.5q-32 0 -53 -22.5t-30.5 -54t-9.5 -59.5
q0 -34 14.5 -54.5zM804 239q25 50 69.5 81t101.5 31q63 0 98.5 -38t35.5 -101q0 -54 -24.5 -104.5t-69 -82t-101.5 -31.5q-63 0 -99 39t-36 102q0 54 25 104zM883.5 87.5q14.5 -20.5 43.5 -20.5q31 0 52 21.5t31 53.5t10 61q0 34 -14 54.5t-44 20.5q-32 0 -53 -22.5
t-30.5 -54t-9.5 -59.5q0 -34 14.5 -54.5z" />
    <glyph glyph-name="guilsinglleft" unicode="&#x2039;" horiz-adv-x="327" 
d="M136 262l-1 -7l124 -199h-125l-109 173l10 60l168 174h126z" />
    <glyph glyph-name="guilsinglright" unicode="&#x203a;" horiz-adv-x="326" 
d="M191 255l1 8l-125 200h126l109 -173l-11 -60l-167 -174h-126z" />
    <glyph glyph-name="fraction" unicode="&#x2044;" horiz-adv-x="638" 
d="M614 690h96l-657 -690h-95z" />
    <glyph glyph-name="colonmonetary" unicode="&#x20a1;" horiz-adv-x="547" 
d="M484 563.5q-36 8.5 -69 8.5q-72 0 -119 -45.5t-68.5 -112.5t-21.5 -133q0 -163 135 -163q30 0 71 6.5t66 16.5l-24 -134q-61 -19 -140 -19q-17 0 -25 1l-37 -99h-75l41 110q-30 10 -43 17l-47 -127h-75l63 171q-66 71 -66 204q0 93 31.5 179t92.5 150t144 91l42 114h75
l-37 -98q11 1 33 1h17l36 97h74l-39 -106q28 -6 49 -16l-23 -134q-25 12 -61 20.5z" />
    <glyph glyph-name="Euro" unicode="&#x20ac;" horiz-adv-x="547" 
d="M484 563.5q-36 8.5 -69 8.5q-59 0 -101 -31t-68 -83h147l-15 -83h-161q-6 -25 -10 -60h162l-15 -83h-144q18 -114 131 -114q30 0 71 6.5t66 16.5l-24 -134q-61 -19 -140 -19q-128 0 -196 70.5t-68 206.5q0 113 45.5 213t132 162t203.5 62q81 0 137 -25l-23 -134
q-25 12 -61 20.5z" />
    <glyph glyph-name="uni20B2" unicode="&#x20b2;" horiz-adv-x="619" 
d="M536 799l-18 -103q49 -7 83 -19l-22 -132q-28 11 -75 19t-82 8q-80 0 -131 -45.5t-73.5 -112.5t-22.5 -133q0 -163 144 -163q9 0 45 2l38 218h146l-55 -322q-57 -16 -126 -23l-18 -103h-98l17 99q-120 5 -184 75.5t-64 201.5q0 109 44 207t130 161t207 68l17 97h98z" />
    <glyph glyph-name="trademark" unicode="&#x2122;" horiz-adv-x="898" 
d="M379 614h-90l-51 -303h-94l52 303h-90l13 76h273zM456 690h128l22 -288h7l119 288h126l-24 -379h-94l18 184q2 27 10 89h-5l-117 -273h-115l-26 273h-5q-10 -46 -20 -88l-46 -185h-82z" />
    <glyph glyph-name="uni2153" unicode="&#x2153;" horiz-adv-x="691" 
d="M197 609l-79 -36l13 72l98 45h70l-59 -345h-88zM636 690h96l-657 -690h-95zM553 351q45 0 75.5 -16.5t30.5 -51.5q0 -30 -22.5 -53.5t-59.5 -37.5v-3q62 -13 62 -73q0 -65 -70.5 -93.5t-168.5 -28.5l12 71q63 0 101 13t38 40q0 16 -12 22t-35 6q-22 0 -52 -4l10 61
q51 8 77.5 20.5t26.5 32.5q0 24 -33 24q-38 0 -88 -16l13 70q45 17 95 17z" />
    <glyph glyph-name="uni2154" unicode="&#x2154;" horiz-adv-x="695" 
d="M40 345l12 70l84 76q36 31 55 54t19 44q0 35 -42 35q-34 0 -75 -19l13 75q44 16 96 16q49 0 75.5 -20.5t26.5 -61.5q0 -35 -22 -68t-71 -71l-60 -50l-1 -6h127l-13 -74h-224zM644 690h96l-657 -690h-95zM560 351q45 0 75.5 -16.5t30.5 -51.5q0 -30 -22.5 -53.5
t-59.5 -37.5v-3q62 -13 62 -73q0 -65 -70.5 -93.5t-168.5 -28.5l12 71q63 0 101 13t38 40q0 16 -12 22t-35 6q-22 0 -52 -4l10 61q51 8 77.5 20.5t26.5 32.5q0 24 -33 24q-38 0 -88 -16l13 70q45 17 95 17z" />
    <glyph glyph-name="oneeighth" unicode="&#x215b;" horiz-adv-x="704" 
d="M198 609l-79 -36l13 72l98 45h70l-59 -345h-88zM636 690h96l-657 -690h-95zM397.5 122.5q20.5 23.5 55.5 39.5l1 6q-39 27 -39 70q0 31 18.5 56.5t52.5 41t78 15.5q46 0 74.5 -17.5t28.5 -52.5q0 -28 -18.5 -52t-50.5 -41l-1 -6q25 -14 39.5 -32t14.5 -46q0 -48 -44 -79
t-115 -31q-48 0 -81.5 17.5t-33.5 57.5q0 30 20.5 53.5zM472.5 65q12.5 -9 36.5 -9q26 0 43 10t17 27q0 15 -15.5 25t-48.5 24q-19 -9 -32 -23t-13 -29q0 -16 12.5 -25zM509 225.5q14 -10.5 42 -22.5q38 25 38 52q0 15 -11 24.5t-32 9.5t-36 -9.5t-15 -27.5q0 -16 14 -26.5z
" />
    <glyph glyph-name="threeeighths" unicode="&#x215c;" horiz-adv-x="694" 
d="M208 696q45 0 75.5 -16.5t30.5 -51.5q0 -30 -22.5 -53.5t-59.5 -37.5v-3q62 -13 62 -73q0 -65 -70.5 -93.5t-168.5 -28.5l12 71q63 0 101 13t38 40q0 16 -12 22t-35 6q-22 0 -52 -4l10 61q51 8 77.5 20.5t26.5 32.5q0 24 -33 24q-38 0 -88 -16l13 70q45 17 95 17z
M631 690h96l-657 -690h-95zM392.5 122.5q20.5 23.5 55.5 39.5l1 6q-39 27 -39 70q0 31 18.5 56.5t52.5 41t78 15.5q46 0 74.5 -17.5t28.5 -52.5q0 -28 -18.5 -52t-50.5 -41l-1 -6q25 -14 39.5 -32t14.5 -46q0 -48 -44 -79t-115 -31q-48 0 -81.5 17.5t-33.5 57.5
q0 30 20.5 53.5zM467.5 65q12.5 -9 36.5 -9q26 0 43 10t17 27q0 15 -15.5 25t-48.5 24q-19 -9 -32 -23t-13 -29q0 -16 12.5 -25zM504 225.5q14 -10.5 42 -22.5q38 25 38 52q0 15 -11 24.5t-32 9.5t-36 -9.5t-15 -27.5q0 -16 14 -26.5z" />
    <glyph glyph-name="fiveeighths" unicode="&#x215d;" horiz-adv-x="702" 
d="M279 536q24 -20 24 -60q0 -68 -67.5 -102.5t-167.5 -34.5l12 71q56 0 94.5 12.5t38.5 40.5q0 15 -11 21.5t-34 6.5q-39 0 -76 -10l35 209h202l-13 -75h-130l-10 -63q15 4 36 4q43 0 67 -20zM635 690h96l-657 -690h-95zM396.5 122.5q20.5 23.5 55.5 39.5l1 6
q-39 27 -39 70q0 31 18.5 56.5t52.5 41t78 15.5q46 0 74.5 -17.5t28.5 -52.5q0 -28 -18.5 -52t-50.5 -41l-1 -6q25 -14 39.5 -32t14.5 -46q0 -48 -44 -79t-115 -31q-48 0 -81.5 17.5t-33.5 57.5q0 30 20.5 53.5zM471.5 65q12.5 -9 36.5 -9q26 0 43 10t17 27q0 15 -15.5 25
t-48.5 24q-19 -9 -32 -23t-13 -29q0 -16 12.5 -25zM508 225.5q14 -10.5 42 -22.5q38 25 38 52q0 15 -11 24.5t-32 9.5t-36 -9.5t-15 -27.5q0 -16 14 -26.5z" />
    <glyph glyph-name="seveneighths" unicode="&#x215e;" horiz-adv-x="681" 
d="M361 690l-8 -48q-54 -58 -90 -126.5t-53 -170.5h-90q13 79 44.5 145t77.5 112l2 10h-133l13 78h237zM624 690h96l-657 -690h-95zM385.5 122.5q20.5 23.5 55.5 39.5l1 6q-39 27 -39 70q0 31 18.5 56.5t52.5 41t78 15.5q46 0 74.5 -17.5t28.5 -52.5q0 -28 -18.5 -52
t-50.5 -41l-1 -6q25 -14 39.5 -32t14.5 -46q0 -48 -44 -79t-115 -31q-48 0 -81.5 17.5t-33.5 57.5q0 30 20.5 53.5zM460.5 65q12.5 -9 36.5 -9q26 0 43 10t17 27q0 15 -15.5 25t-48.5 24q-19 -9 -32 -23t-13 -29q0 -16 12.5 -25zM497 225.5q14 -10.5 42 -22.5q38 25 38 52
q0 15 -11 24.5t-32 9.5t-36 -9.5t-15 -27.5q0 -16 14 -26.5z" />
    <glyph glyph-name="partialdiff" unicode="&#x2202;" horiz-adv-x="588" 
d="M284.5 727q49.5 13 94.5 13q104 0 153 -69.5t49 -190.5q0 -119 -43.5 -233t-126.5 -186.5t-194 -72.5q-97 0 -148 55t-51 141q0 70 32.5 132.5t90 100.5t128.5 38q51 0 89.5 -20.5t58.5 -54.5h10q4 31 4 67q0 179 -117 179q-31 0 -67.5 -13t-71.5 -36l20 115
q40 22 89.5 35zM181.5 125q21.5 -22 59.5 -22q57 0 99 47t66 124q-16 31 -45 49t-66 18q-42 0 -72.5 -22.5t-46.5 -57.5t-16 -71q0 -43 21.5 -65z" />
    <glyph glyph-name="product" unicode="&#x220f;" horiz-adv-x="647" 
d="M682 565h-70l-113 -665h-147l113 665h-173l-113 -665h-148l114 665h-71l21 125h608z" />
    <glyph glyph-name="summation" unicode="&#x2211;" horiz-adv-x="568" 
d="M574 564h-309l115 -269l-205 -269h308l-21 -126h-477l15 94l230 302l-128 300l16 94h477z" />
    <glyph glyph-name="minus" unicode="&#x2212;" 
d="M64 280l22 129h498l-22 -129h-498z" />
    <glyph glyph-name="radical" unicode="&#x221a;" horiz-adv-x="593" 
d="M176 351l14 -326h10l271 705h145l-344 -830h-206l-45 451h155z" />
    <glyph glyph-name="infinity" unicode="&#x221e;" horiz-adv-x="911" 
d="M719 184.5q29 19.5 46.5 53t17.5 72.5q0 52 -31 83.5t-79 31.5q-47 0 -87.5 -32.5t-69.5 -88.5q34 -69 64.5 -104t75.5 -35q34 0 63 19.5zM68.5 394q34.5 61 91.5 97t122 36q67 0 111.5 -37.5t81.5 -103.5q41 66 99 103.5t127 37.5q86 0 137 -55t51 -143
q0 -72 -34.5 -133t-92 -97t-121.5 -36q-67 0 -111 37.5t-81 104.5q-40 -64 -98 -103t-129 -39q-57 0 -99.5 25.5t-65.5 70.5t-23 102q0 72 34.5 133zM171.5 197q31.5 -32 78.5 -32q46 0 86.5 32.5t71.5 87.5q-34 69 -65 104.5t-76 35.5q-34 0 -63 -19.5t-46.5 -52.5
t-17.5 -72q0 -52 31.5 -84z" />
    <glyph glyph-name="integral" unicode="&#x222b;" horiz-adv-x="494" 
d="M51 17q30 0 49 19.5t31 67.5l100 402q23 94 80 145t151 51q47 0 96 -15l-32 -125q-38 19 -68 19q-29 0 -48.5 -19t-31.5 -68l-101 -403q-23 -93 -80 -144t-150 -51q-49 0 -96 15l31 125q38 -19 69 -19z" />
    <glyph glyph-name="approxequal" unicode="&#x2248;" 
d="M448 384q-31 0 -55.5 6.5t-58.5 19.5q-32 13 -57 19.5t-55 6.5q-36 0 -72 -11t-66 -31l21 120q62 42 139 42q31 0 55.5 -6.5t58.5 -19.5q32 -13 57 -19.5t55 -6.5q38 0 74 11t64 31l-20 -120q-64 -42 -140 -42zM404 134q-31 0 -55.5 6.5t-58.5 19.5q-32 13 -57 19.5
t-55 6.5q-36 0 -72 -11t-66 -31l21 120q62 42 139 42q31 0 55.5 -6.5t58.5 -19.5q32 -13 57 -19.5t55 -6.5q38 0 74 11t64 31l-20 -120q-64 -42 -140 -42z" />
    <glyph glyph-name="notequal" unicode="&#x2260;" horiz-adv-x="619" 
d="M253 148l-88 -148h-91l88 148h-121l22 129h176l80 136h-231l22 129h286l88 148h90l-88 -148h122l-23 -129h-175l-81 -136h232l-22 -129h-286z" />
    <glyph glyph-name="lessequal" unicode="&#x2264;" horiz-adv-x="639" 
d="M79 323l31 185l516 106l-20 -122l-415 -73l-1 -8l390 -71l-22 -124zM53 171h498l-21 -117h-497z" />
    <glyph glyph-name="greaterequal" unicode="&#x2265;" horiz-adv-x="639" 
d="M556 171l-20 -117h-498l20 117h498zM87 340l414 71l2 8l-390 73l21 122l479 -106l-31 -185l-516 -107z" />
    <glyph glyph-name="lozenge" unicode="&#x25ca;" horiz-adv-x="620" 
d="M294 690h179l118 -345l-235 -345h-179l-118 345zM274 88h15l174 257l-87 257h-16l-173 -257z" />
    <glyph glyph-name="space.frac" horiz-adv-x="66" 
 />
    <glyph glyph-name="space.tf" 
 />
    <glyph glyph-name="space.sinf" horiz-adv-x="149" 
 />
    <glyph glyph-name="space.sups" horiz-adv-x="149" 
 />
    <glyph glyph-name="uni004A0301" horiz-adv-x="399" 
d="M66 116q45 0 71.5 25t34.5 70l81 479h152l-81 -472q-18 -108 -85.5 -169t-178.5 -61q-44 0 -82 7l21 129q34 -8 67 -8zM487 898l-112 -153h-98l71 168h141z" />
    <glyph glyph-name="uni006A0301" horiz-adv-x="278" 
d="M12 -38l95 557h150l-96 -565q-14 -82 -62.5 -124t-125.5 -42q-27 0 -51 6l20 114q60 -6 70 54zM338 727l-112 -153h-98l71 168h141z" />
    <glyph glyph-name="A.sups" horiz-adv-x="428" 
d="M320 351l-9 99h-131l-44 -99h-103l200 449h152l42 -449h-107zM308 534l-16 166h-6l-74 -166h96z" />
    <glyph glyph-name="B.sups" horiz-adv-x="416" 
d="M151 800h186q50 0 79 -23.5t29 -66.5q0 -38 -21.5 -69.5t-57.5 -48.5v-4q29 -9 44 -31.5t15 -56.5q0 -40 -20.5 -74t-58 -54.5t-86.5 -20.5h-187zM253 427q32 0 51 20.5t19 49.5q0 23 -13.5 35t-37.5 12h-61l-20 -117h62zM275 614q32 0 50 18.5t18 46.5q0 45 -47 45h-54
l-19 -110h52z" />
    <glyph glyph-name="C.sups" horiz-adv-x="364" 
d="M366.5 711.5q-23.5 5.5 -45.5 5.5q-46 0 -75.5 -29t-43 -71t-13.5 -82q0 -101 85 -101q20 0 46.5 4t43.5 11l-17 -93q-44 -13 -92 -13q-84 0 -129.5 46.5t-45.5 134.5q0 73 30.5 138t87.5 105t134 40q53 0 89 -16l-15 -94q-16 9 -39.5 14.5z" />
    <glyph glyph-name="D.sups" horiz-adv-x="450" 
d="M322 800q77 0 118.5 -44t41.5 -128q0 -72 -28.5 -135.5t-83.5 -102.5t-130 -39h-167l78 449h171zM254 440q40 0 67.5 30t40.5 73.5t13 82.5q0 85 -67 85h-66l-47 -271h59z" />
    <glyph glyph-name="E.sups" horiz-adv-x="364" 
d="M419 800l-15 -85h-162l-16 -94h117l-15 -85h-116l-17 -100h162l-15 -85h-269l78 449h268z" />
    <glyph glyph-name="F.sups" horiz-adv-x="356" 
d="M414 800l-15 -87h-157l-20 -115h116l-15 -87h-116l-27 -160h-107l78 449h263z" />
    <glyph glyph-name="G.sups" horiz-adv-x="416" 
d="M384 711.5q-31 5.5 -53 5.5q-51 0 -82.5 -29t-45.5 -70.5t-14 -82.5q0 -51 22.5 -76t67.5 -25q14 0 24 1l23 134l103 3l-36 -210q-32 -8 -69 -13.5t-65 -5.5q-87 0 -133 46.5t-46 134.5q0 72 30 137t90 105.5t143 40.5q60 0 107 -16l-16 -92q-19 7 -50 12.5z" />
    <glyph glyph-name="H.sups" horiz-adv-x="456" 
d="M257 800l-30 -177h131l31 177h106l-78 -449h-106l32 184h-131l-32 -184h-107l78 449h106z" />
    <glyph glyph-name="I.sups" horiz-adv-x="219" 
d="M258 800l-78 -449h-107l78 449h107z" />
    <glyph glyph-name="J.sups" horiz-adv-x="282" 
d="M98 432q29 0 46 15.5t22 44.5l53 308h106l-52 -303q-13 -73 -58.5 -113.5t-120.5 -40.5q-23 0 -53 5l16 89q22 -5 41 -5z" />
    <glyph glyph-name="K.sups" horiz-adv-x="420" 
d="M261 548h-6l-53 -68l-22 -129h-107l78 449h107l-34 -197h3l156 197h111l-140 -177l69 -272h-110z" />
    <glyph glyph-name="L.sups" horiz-adv-x="350" 
d="M257 800l-62 -361h151l-15 -88h-258l78 449h106z" />
    <glyph glyph-name="M.sups" horiz-adv-x="651" 
d="M357 455h6l147 345h145l-28 -449h-107l21 221q6 61 13 106h-6l-144 -327h-130l-34 327h-6q-8 -40 -24 -105l-56 -222h-96l124 449h148z" />
    <glyph glyph-name="N.sups" horiz-adv-x="457" 
d="M150 800h107l101 -308h6q2 82 16 159l25 149h91l-77 -449h-107l-102 307h-5q-1 -70 -16 -158l-25 -149h-91z" />
    <glyph glyph-name="O.sups" horiz-adv-x="450" 
d="M121.5 389q-41.5 46 -41.5 134q0 73 29 138.5t84 105.5t129 40q77 0 118.5 -45.5t41.5 -132.5q0 -74 -28.5 -139.5t-83 -106t-129.5 -40.5q-78 0 -119.5 46zM205 456.5q17 -24.5 50 -24.5q40 0 67 31.5t40 77t13 86.5q0 92 -69 92q-41 0 -67.5 -31t-38.5 -75.5t-12 -85.5
q0 -46 17 -70.5z" />
    <glyph glyph-name="P.sups" horiz-adv-x="390" 
d="M415.5 582q-21.5 -44 -62.5 -71t-95 -27h-55l-23 -133h-107l78 449h156q63 0 96.5 -32.5t33.5 -92.5q0 -49 -21.5 -93zM255 569q42 0 60.5 28.5t18.5 64.5q0 27 -13.5 40t-43.5 13h-35l-25 -146h38z" />
    <glyph glyph-name="Q.sups" horiz-adv-x="450" 
d="M269.5 267.5q-88.5 40.5 -136.5 106.5q-52 62 -52 152q0 70 28.5 135t83.5 105.5t130 40.5q77 0 118 -45t41 -131q0 -65 -24 -127t-72.5 -103.5t-119.5 -46.5v-8q46 -11 98.5 -17t97.5 -6l-16 -96q-88 0 -176.5 40.5zM255 432q42 0 68.5 33.5t38.5 79.5t12 84
q0 43 -17 66.5t-51 23.5q-40 0 -67 -31t-39 -76t-12 -86q0 -94 67 -94z" />
    <glyph glyph-name="R.sups" horiz-adv-x="410" 
d="M257 509h-50l-27 -158h-107l78 449h182q52 0 81 -26t29 -75q0 -41 -20 -82t-66 -66l-1 -3l52 -197h-109zM263 586q34 0 55 25t21 62q0 50 -47 50h-48l-24 -137h43z" />
    <glyph glyph-name="S.sups" horiz-adv-x="361" 
d="M157 768.5q52 38.5 133 38.5q62 0 109 -18l-15 -91q-29 10 -59 16.5t-52 6.5q-28 0 -45 -11t-17 -31q0 -19 15 -32.5t48 -32.5q48 -28 74 -55.5t26 -74.5q0 -62 -50 -101.5t-131 -39.5q-37 0 -76 8.5t-64 21.5l17 96q30 -18 69 -28.5t69 -10.5q27 0 43.5 10.5t16.5 30.5
q0 19 -15 32.5t-48 32.5q-48 28 -74 55.5t-26 74.5q0 64 52 102.5z" />
    <glyph glyph-name="T.sups" horiz-adv-x="364" 
d="M421 713h-105l-63 -362h-106l62 362h-106l16 87h317z" />
    <glyph glyph-name="U.sups" horiz-adv-x="440" 
d="M367.5 387.5q-51.5 -44.5 -129.5 -44.5q-68 0 -106 34t-38 93q0 18 3 37l50 293h107l-50 -290q-2 -9 -2 -24q0 -54 51 -54q62 0 74 78l50 290h105l-50 -292q-13 -76 -64.5 -120.5z" />
    <glyph glyph-name="V.sups" horiz-adv-x="424" 
d="M224 800l23 -346h6l143 346h103l-192 -449h-155l-36 449h108z" />
    <glyph glyph-name="W.sups" horiz-adv-x="707" 
d="M225 800l19 -348h8l122 348h160l4 -348h6l137 348h101l-185 -449h-149l-8 350h-8l-125 -350h-159l-32 449h109z" />
    <glyph glyph-name="X.sups" horiz-adv-x="412" 
d="M223 800l49 -161h5l100 161h109l-138 -219l66 -230h-111l-51 172h-4l-105 -172h-111l145 229l-64 220h110z" />
    <glyph glyph-name="Y.sups" horiz-adv-x="407" 
d="M224 800l39 -196h9l104 196h112l-187 -306l-25 -143h-106l25 143l-84 306h113z" />
    <glyph glyph-name="Z.sups" horiz-adv-x="402" 
d="M450 800l-11 -65l-242 -299l199 3l-15 -88h-325l11 66l241 297l-187 -3l15 89h314z" />
    <glyph glyph-name="a.sups" horiz-adv-x="392" 
d="M281 524l15 84q-24 7 -38 7q-29 0 -48 -22.5t-28 -53.5t-9 -56q0 -27 10 -42t27 -15q24 0 44.5 30t26.5 70v-2zM91.5 585.5q24.5 50.5 71 81t110.5 30.5q35 0 74.5 -9t64.5 -21l-39 -217v-99h-105v44h-6q-14 -21 -40.5 -36.5t-56.5 -15.5q-44 0 -71 35t-27 98
q0 59 24.5 109.5z" />
    <glyph glyph-name="b.sups" horiz-adv-x="388" 
d="M146 826h106l-34 -174h8q15 19 39.5 32t51.5 13q43 0 70 -34.5t27 -96.5q0 -59 -24.5 -110t-71 -82t-109.5 -31q-35 0 -75 9t-65 22zM225 426q28 0 46.5 22.5t27 53.5t8.5 56q0 27 -10 42t-26 15q-24 0 -44.5 -30t-27.5 -70v1l-14 -83q26 -7 40 -7z" />
    <glyph glyph-name="c.sups" horiz-adv-x="295" 
d="M261 613q-45 0 -64.5 -43t-19.5 -86q0 -29 12.5 -42.5t39.5 -13.5q34 0 64 13l-15 -86q-38 -12 -75 -12q-66 0 -101 36t-35 101q0 55 24.5 105t70.5 81t107 31q31 0 65 -10l-14 -87q-36 13 -59 13z" />
    <glyph glyph-name="d.sups" horiz-adv-x="392" 
d="M268 350v45h-6q-14 -21 -40.5 -36.5t-56.5 -15.5q-44 0 -71 34.5t-27 97.5q0 58 24.5 109t69.5 82t103 31q21 0 46 -5l23 134h106l-65 -376l-1 -100h-105zM184 441q10 -15 26 -15q24 0 44.5 30t26.5 70v-1l14 82q-22 8 -40 8q-28 0 -46 -22.5t-26.5 -54t-8.5 -56.5
q0 -26 10 -41z" />
    <glyph glyph-name="e.sups" horiz-adv-x="339" 
d="M269 348q-29 -5 -52 -5q-73 0 -111 36.5t-38 102.5q0 55 24 104.5t67.5 80t99.5 30.5q52 0 83 -26t31 -73q0 -54 -40.5 -84.5t-101.5 -30.5q-32 0 -66 8q1 -37 17.5 -53.5t56.5 -16.5q45 0 95 18l-14 -78q-22 -8 -51 -13zM217 543q31 0 48 13.5t17 32.5q0 15 -10.5 25
t-28.5 10q-25 0 -43.5 -21.5t-28.5 -55.5q30 -4 46 -4z" />
    <glyph glyph-name="f.sups" horiz-adv-x="259" 
d="M182 802.5q38 30.5 98 30.5q33 0 65 -9l-15 -87q-12 4 -29 8t-28 4q-34 0 -40 -40l-6 -30h91l-13 -79h-84l-43 -249h-105l43 249h-34l10 57l35 10l9 52q8 53 46 83.5z" />
    <glyph glyph-name="g.sups" horiz-adv-x="390" 
d="M158 213q-29 0 -60.5 4.5t-50.5 12.5l14 76q20 -7 47 -12t48 -5q45 0 70.5 21t32.5 66l2 11h-7q-14 -18 -38.5 -31t-51.5 -13q-44 0 -70.5 35t-26.5 98q0 59 24.5 109.5t71 81t110.5 30.5q35 0 74.5 -9t64.5 -21l-51 -294q-28 -160 -203 -160zM183 441q10 -15 27 -15
q24 0 44.5 30t26.5 70v-1l15 83q-24 7 -38 7q-29 0 -48 -22.5t-28 -53.5t-9 -56q0 -27 10 -42z" />
    <glyph glyph-name="h.sups" horiz-adv-x="389" 
d="M252 826l-32 -188h6q20 27 48 43t61 16q34 0 53 -18t19 -48q0 -12 -3 -24l-33 -160l-6 -96h-106l7 96l24 116q1 4 1 12q0 27 -24 27q-31 0 -64 -57l-33 -194h-105l81 475h106z" />
    <glyph glyph-name="i.sups" horiz-adv-x="202" 
d="M229 689l-59 -338h-105l58 338h106zM151.5 812q17.5 16 49.5 16q48 0 48 -39q0 -25 -17.5 -42t-49.5 -17q-48 0 -48 41q0 25 17.5 41z" />
    <glyph glyph-name="j.sups" horiz-adv-x="203" 
d="M46 305q14 10 18 36l59 348h106l-63 -363q-10 -56 -42.5 -84.5t-86.5 -28.5q-12 0 -46 4l15 80q26 -2 40 8zM151.5 812q17.5 16 49.5 16q48 0 48 -39q0 -25 -17 -42t-49 -17q-49 0 -49 41q0 25 17.5 41z" />
    <glyph glyph-name="k.sups" horiz-adv-x="373" 
d="M146 826h106l-44 -254h6l115 117h102l-108 -111l55 -227l-104 -4l-41 165h-6l-36 -37l-21 -124h-105z" />
    <glyph glyph-name="l.sups" horiz-adv-x="199" 
d="M74 351l6 96l65 379h106l-65 -379l-6 -96h-106z" />
    <glyph glyph-name="m.sups" horiz-adv-x="570" 
d="M214 689v-51h6q23 27 52.5 43t61.5 16t50 -15.5t20 -43.5h5q46 59 108 59q33 0 51.5 -18t18.5 -49q0 -15 -2 -23l-33 -160l-7 -96h-105l6 96l25 122q1 4 1 11q0 22 -22 22q-16 0 -31.5 -14t-26.5 -37l-37 -200h-105l39 218l1 8q0 11 -6 18t-16 7q-15 0 -31 -13.5
t-30 -36.5l-34 -201h-105l41 240v98h105z" />
    <glyph glyph-name="n.sups" horiz-adv-x="392" 
d="M214 689v-51h6q24 27 53.5 43t62.5 16q35 0 54 -17.5t19 -48.5q0 -10 -3 -24l-33 -160l-6 -96h-105l6 96l24 116q1 4 1 12q0 13 -6.5 20t-17.5 7q-16 0 -32.5 -16t-30.5 -41l-33 -194h-105l41 240v98h105z" />
    <glyph glyph-name="o.sups" horiz-adv-x="373" 
d="M102 379q-35 36 -35 101q0 55 24.5 105t70 81t104.5 31q63 0 97.5 -35.5t34.5 -100.5q0 -55 -24.5 -105t-69.5 -81.5t-104 -31.5q-63 0 -98 36zM183.5 440.5q9.5 -14.5 29.5 -14.5q25 0 42.5 22.5t26.5 54t9 56.5q0 26 -10.5 41t-29.5 15q-24 0 -41.5 -23t-26.5 -54.5
t-9 -56.5q0 -26 9.5 -40.5z" />
    <glyph glyph-name="p.sups" horiz-adv-x="390" 
d="M214 689v-43h6q14 21 41 36t57 15q44 0 70.5 -34.5t26.5 -96.5q0 -59 -24.5 -110t-69 -82t-102.5 -31q-22 0 -47 5l-22 -127h-105l64 370v98h105zM228 426q27 0 45.5 22.5t27.5 53.5t9 56q0 26 -10.5 41.5t-27.5 15.5q-23 0 -44 -30.5t-27 -70.5v2l-14 -82q22 -8 41 -8z
" />
    <glyph glyph-name="q.sups" horiz-adv-x="388" 
d="M335 221h-105l30 164h-6q-15 -17 -39.5 -29.5t-51.5 -12.5q-43 0 -69.5 35t-26.5 98q0 59 24.5 109.5t71 81t110.5 30.5q35 0 74.5 -9t64.5 -21zM183 441q10 -15 27 -15q24 0 44.5 30t26.5 70v-1l15 83q-24 7 -38 7q-29 0 -48 -22.5t-28 -53.5t-9 -56q0 -27 10 -42z" />
    <glyph glyph-name="r.sups" horiz-adv-x="279" 
d="M279 583q-24 0 -43.5 -16.5t-33.5 -46.5l-29 -169h-105l41 240v98h105v-72h5q18 38 43.5 59t62.5 21h7l-20 -120q-13 6 -33 6z" />
    <glyph glyph-name="s.sups" horiz-adv-x="300" 
d="M288.5 694q25.5 -3 40.5 -7l-15 -84q-19 9 -44.5 15t-41.5 6q-18 0 -29 -7.5t-11 -19.5t11 -21t34 -20q39 -20 60 -41t21 -61q0 -52 -43.5 -81.5t-114.5 -29.5q-28 0 -60 5t-51 13l15 86q25 -13 56.5 -21.5t53.5 -8.5q20 0 31 8t11 21t-10.5 22t-36.5 23
q-38 20 -58.5 40.5t-20.5 57.5q0 52 44.5 80t110.5 28q22 0 47.5 -3z" />
    <glyph glyph-name="t.sups" horiz-adv-x="265" 
d="M113 610h-35l12 63l40 8l47 90h69l-14 -82h82l-13 -79h-82l-24 -140q-1 -5 -1 -14q0 -28 26 -28q22 0 53 13l-15 -86q-16 -5 -39 -8.5t-40 -3.5q-46 0 -70 22t-24 62q0 18 2 27z" />
    <glyph glyph-name="u.sups" horiz-adv-x="390" 
d="M264 351l1 52h-5q-24 -27 -53.5 -43.5t-61.5 -16.5q-34 0 -52 18.5t-18 50.5q0 7 2 21l46 256h106l-38 -219q-1 -3 -1 -9q0 -11 5.5 -17t15.5 -6q15 0 32 14t30 37l34 200h105l-42 -239v-100z" />
    <glyph glyph-name="v.sups" horiz-adv-x="347" 
d="M196 689l11 -249h7l96 249h102l-148 -338h-144l-33 338h109z" />
    <glyph glyph-name="w.sups" horiz-adv-x="572" 
d="M195 689l4 -249h8l90 249h143l3 -249h6l90 249h99l-144 -338h-137l-7 250h-7l-91 -250h-137l-28 338h108z" />
    <glyph glyph-name="x.sups" horiz-adv-x="343" 
d="M196 689l33 -111h4l69 111h98l-111 -164l58 -174h-107l-34 118h-5l-71 -118h-101l118 175l-56 163h105z" />
    <glyph glyph-name="y.sups" horiz-adv-x="347" 
d="M196 689l11 -249h7l96 249h102l-145 -330q-29 -67 -78.5 -106.5t-115.5 -39.5q-17 0 -38 3t-33 7l14 86q13 -5 32.5 -8t32.5 -3q30 0 51.5 14t38.5 43h-51l-33 334h109z" />
    <glyph glyph-name="z.sups" horiz-adv-x="296" 
d="M345 689l-12 -67l-169 -194l143 3l-14 -80h-254l12 68l169 193l-135 -2l13 79h247z" />
    <glyph glyph-name="A.sinf" horiz-adv-x="428" 
d="M258 0l-9 99h-131l-44 -99h-103l200 449h152l42 -449h-107zM246 183l-16 166h-6l-74 -166h96z" />
    <glyph glyph-name="B.sinf" horiz-adv-x="416" 
d="M89 449h186q50 0 79 -23.5t29 -66.5q0 -38 -21.5 -69.5t-57.5 -48.5v-4q29 -9 44 -31.5t15 -56.5q0 -40 -20.5 -74t-58 -54.5t-86.5 -20.5h-187zM191 76q32 0 51 20.5t19 49.5q0 23 -13.5 35t-37.5 12h-61l-20 -117h62zM213 263q32 0 50 18.5t18 46.5q0 45 -47 45h-54
l-19 -110h52z" />
    <glyph glyph-name="C.sinf" horiz-adv-x="364" 
d="M304.5 360.5q-23.5 5.5 -45.5 5.5q-46 0 -75.5 -29t-43 -71t-13.5 -82q0 -101 85 -101q20 0 46.5 4t43.5 11l-17 -93q-44 -13 -92 -13q-84 0 -129.5 46.5t-45.5 134.5q0 73 30.5 138t87.5 105t134 40q53 0 89 -16l-15 -94q-16 9 -39.5 14.5z" />
    <glyph glyph-name="D.sinf" horiz-adv-x="450" 
d="M260 449q77 0 118.5 -44t41.5 -128q0 -72 -28.5 -135.5t-83.5 -102.5t-130 -39h-167l78 449h171zM192 89q40 0 67.5 30t40.5 73.5t13 82.5q0 85 -67 85h-66l-47 -271h59z" />
    <glyph glyph-name="E.sinf" horiz-adv-x="364" 
d="M357 449l-15 -85h-162l-16 -94h117l-15 -85h-116l-17 -100h162l-15 -85h-269l78 449h268z" />
    <glyph glyph-name="F.sinf" horiz-adv-x="356" 
d="M352 449l-15 -87h-157l-20 -115h116l-15 -87h-116l-27 -160h-107l78 449h263z" />
    <glyph glyph-name="G.sinf" horiz-adv-x="416" 
d="M322 360.5q-31 5.5 -53 5.5q-51 0 -82.5 -29t-45.5 -70.5t-14 -82.5q0 -51 22.5 -76t67.5 -25q14 0 24 1l23 134l103 3l-36 -210q-32 -8 -69 -13.5t-65 -5.5q-87 0 -133 46.5t-46 134.5q0 72 30 137t90 105.5t143 40.5q60 0 107 -16l-16 -92q-19 7 -50 12.5z" />
    <glyph glyph-name="H.sinf" horiz-adv-x="456" 
d="M195 449l-30 -177h131l31 177h106l-78 -449h-106l32 184h-131l-32 -184h-107l78 449h106z" />
    <glyph glyph-name="I.sinf" horiz-adv-x="219" 
d="M196 449l-78 -449h-107l78 449h107z" />
    <glyph glyph-name="J.sinf" horiz-adv-x="282" 
d="M36 81q29 0 46 15.5t22 44.5l53 308h106l-52 -303q-13 -73 -58.5 -113.5t-120.5 -40.5q-23 0 -53 5l16 89q22 -5 41 -5z" />
    <glyph glyph-name="K.sinf" horiz-adv-x="420" 
d="M199 197h-6l-53 -68l-22 -129h-107l78 449h107l-34 -197h3l156 197h111l-140 -177l69 -272h-110z" />
    <glyph glyph-name="L.sinf" horiz-adv-x="350" 
d="M195 449l-62 -361h151l-15 -88h-258l78 449h106z" />
    <glyph glyph-name="M.sinf" horiz-adv-x="651" 
d="M295 104h6l147 345h145l-28 -449h-107l21 221q6 61 13 106h-6l-144 -327h-130l-34 327h-6q-8 -40 -24 -105l-56 -222h-96l124 449h148z" />
    <glyph glyph-name="N.sinf" horiz-adv-x="457" 
d="M88 449h107l101 -308h6q2 82 16 159l25 149h91l-77 -449h-107l-102 307h-5q-1 -70 -16 -158l-25 -149h-91z" />
    <glyph glyph-name="O.sinf" horiz-adv-x="450" 
d="M59.5 38q-41.5 46 -41.5 134q0 73 29 138.5t84 105.5t129 40q77 0 118.5 -45.5t41.5 -132.5q0 -74 -28.5 -139.5t-83 -106t-129.5 -40.5q-78 0 -119.5 46zM143 105.5q17 -24.5 50 -24.5q40 0 67 31.5t40 77t13 86.5q0 92 -69 92q-41 0 -67.5 -31t-38.5 -75.5t-12 -85.5
q0 -46 17 -70.5z" />
    <glyph glyph-name="P.sinf" horiz-adv-x="390" 
d="M353.5 231q-21.5 -44 -62.5 -71t-95 -27h-55l-23 -133h-107l78 449h156q63 0 96.5 -32.5t33.5 -92.5q0 -49 -21.5 -93zM193 218q42 0 60.5 28.5t18.5 64.5q0 27 -13.5 40t-43.5 13h-35l-25 -146h38z" />
    <glyph glyph-name="Q.sinf" horiz-adv-x="450" 
d="M207.5 -83.5q-88.5 40.5 -136.5 106.5q-52 62 -52 152q0 70 28.5 135t83.5 105.5t130 40.5q77 0 118 -45t41 -131q0 -65 -24 -127t-72.5 -103.5t-119.5 -46.5v-8q46 -11 98.5 -17t97.5 -6l-16 -96q-88 0 -176.5 40.5zM193 81q42 0 68.5 33.5t38.5 79.5t12 84
q0 43 -17 66.5t-51 23.5q-40 0 -67 -31t-39 -76t-12 -86q0 -94 67 -94z" />
    <glyph glyph-name="R.sinf" horiz-adv-x="410" 
d="M195 158h-50l-27 -158h-107l78 449h182q52 0 81 -26t29 -75q0 -41 -20 -82t-66 -66l-1 -3l52 -197h-109zM201 235q34 0 55 25t21 62q0 50 -47 50h-48l-24 -137h43z" />
    <glyph glyph-name="S.sinf" horiz-adv-x="361" 
d="M95 417.5q52 38.5 133 38.5q62 0 109 -18l-15 -91q-29 10 -59 16.5t-52 6.5q-28 0 -45 -11t-17 -31q0 -19 15 -32.5t48 -32.5q48 -28 74 -55.5t26 -74.5q0 -62 -50 -101.5t-131 -39.5q-37 0 -76 8.5t-64 21.5l17 96q30 -18 69 -28.5t69 -10.5q27 0 43.5 10.5t16.5 30.5
q0 19 -15 32.5t-48 32.5q-48 28 -74 55.5t-26 74.5q0 64 52 102.5z" />
    <glyph glyph-name="T.sinf" horiz-adv-x="364" 
d="M359 362h-105l-63 -362h-106l62 362h-106l16 87h317z" />
    <glyph glyph-name="U.sinf" horiz-adv-x="440" 
d="M305.5 36.5q-51.5 -44.5 -129.5 -44.5q-68 0 -106 34t-38 93q0 18 3 37l50 293h107l-50 -290q-2 -9 -2 -24q0 -54 51 -54q62 0 74 78l50 290h105l-50 -292q-13 -76 -64.5 -120.5z" />
    <glyph glyph-name="V.sinf" horiz-adv-x="424" 
d="M162 449l23 -346h6l143 346h103l-192 -449h-155l-36 449h108z" />
    <glyph glyph-name="W.sinf" horiz-adv-x="707" 
d="M163 449l19 -348h8l122 348h160l4 -348h6l137 348h101l-185 -449h-149l-8 350h-8l-125 -350h-159l-32 449h109z" />
    <glyph glyph-name="X.sinf" horiz-adv-x="412" 
d="M161 449l49 -161h5l100 161h109l-138 -219l66 -230h-111l-51 172h-4l-105 -172h-111l145 229l-64 220h110z" />
    <glyph glyph-name="Y.sinf" horiz-adv-x="407" 
d="M162 449l39 -196h9l104 196h112l-187 -306l-25 -143h-106l25 143l-84 306h113z" />
    <glyph glyph-name="Z.sinf" horiz-adv-x="402" 
d="M388 449l-11 -65l-242 -299l199 3l-15 -88h-325l11 66l241 297l-187 -3l15 89h314z" />
    <glyph glyph-name="a.sinf" horiz-adv-x="392" 
d="M219 173l15 84q-24 7 -38 7q-29 0 -48 -22.5t-28 -53.5t-9 -56q0 -27 10 -42t27 -15q24 0 44.5 30t26.5 70v-2zM29.5 234.5q24.5 50.5 71 81t110.5 30.5q35 0 74.5 -9t64.5 -21l-39 -217v-99h-105v44h-6q-14 -21 -40.5 -36.5t-56.5 -15.5q-44 0 -71 35t-27 98
q0 59 24.5 109.5z" />
    <glyph glyph-name="b.sinf" horiz-adv-x="388" 
d="M84 475h106l-34 -174h8q15 19 39.5 32t51.5 13q43 0 70 -34.5t27 -96.5q0 -59 -24.5 -110t-71 -82t-109.5 -31q-35 0 -75 9t-65 22zM163 75q28 0 46.5 22.5t27 53.5t8.5 56q0 27 -10 42t-26 15q-24 0 -44.5 -30t-27.5 -70v1l-14 -83q26 -7 40 -7z" />
    <glyph glyph-name="c.sinf" horiz-adv-x="295" 
d="M199 262q-45 0 -64.5 -43t-19.5 -86q0 -29 12.5 -42.5t39.5 -13.5q34 0 64 13l-15 -86q-38 -12 -75 -12q-66 0 -101 36t-35 101q0 55 24.5 105t70.5 81t107 31q31 0 65 -10l-14 -87q-36 13 -59 13z" />
    <glyph glyph-name="d.sinf" horiz-adv-x="392" 
d="M206 -1v45h-6q-14 -21 -40.5 -36.5t-56.5 -15.5q-44 0 -71 34.5t-27 97.5q0 58 24.5 109t69.5 82t103 31q21 0 46 -5l23 134h106l-65 -376l-1 -100h-105zM122 90q10 -15 26 -15q24 0 44.5 30t26.5 70v-1l14 82q-22 8 -40 8q-28 0 -46 -22.5t-26.5 -54t-8.5 -56.5
q0 -26 10 -41z" />
    <glyph glyph-name="e.sinf" horiz-adv-x="339" 
d="M207 -3q-29 -5 -52 -5q-73 0 -111 36.5t-38 102.5q0 55 24 104.5t67.5 80t99.5 30.5q52 0 83 -26t31 -73q0 -54 -40.5 -84.5t-101.5 -30.5q-32 0 -66 8q1 -37 17.5 -53.5t56.5 -16.5q45 0 95 18l-14 -78q-22 -8 -51 -13zM155 192q31 0 48 13.5t17 32.5q0 15 -10.5 25
t-28.5 10q-25 0 -43.5 -21.5t-28.5 -55.5q30 -4 46 -4z" />
    <glyph glyph-name="f.sinf" horiz-adv-x="259" 
d="M120 451.5q38 30.5 98 30.5q33 0 65 -9l-15 -87q-12 4 -29 8t-28 4q-34 0 -40 -40l-6 -30h91l-13 -79h-84l-43 -249h-105l43 249h-34l10 57l35 10l9 52q8 53 46 83.5z" />
    <glyph glyph-name="g.sinf" horiz-adv-x="390" 
d="M96 -138q-29 0 -60.5 4.5t-50.5 12.5l14 76q20 -7 47 -12t48 -5q45 0 70.5 21t32.5 66l2 11h-7q-14 -18 -38.5 -31t-51.5 -13q-44 0 -70.5 35t-26.5 98q0 59 24.5 109.5t71 81t110.5 30.5q35 0 74.5 -9t64.5 -21l-51 -294q-28 -160 -203 -160zM121 90q10 -15 27 -15
q24 0 44.5 30t26.5 70v-1l15 83q-24 7 -38 7q-29 0 -48 -22.5t-28 -53.5t-9 -56q0 -27 10 -42z" />
    <glyph glyph-name="h.sinf" horiz-adv-x="389" 
d="M190 475l-32 -188h6q20 27 48 43t61 16q34 0 53 -18t19 -48q0 -12 -3 -24l-33 -160l-6 -96h-106l7 96l24 116q1 4 1 12q0 27 -24 27q-31 0 -64 -57l-33 -194h-105l81 475h106z" />
    <glyph glyph-name="i.sinf" horiz-adv-x="202" 
d="M167 338l-59 -338h-105l58 338h106zM89.5 461q17.5 16 49.5 16q48 0 48 -39q0 -25 -17.5 -42t-49.5 -17q-48 0 -48 41q0 25 17.5 41z" />
    <glyph glyph-name="j.sinf" horiz-adv-x="203" 
d="M-16 -46q14 10 18 36l59 348h106l-63 -363q-10 -56 -42.5 -84.5t-86.5 -28.5q-12 0 -46 4l15 80q26 -2 40 8zM89.5 461q17.5 16 49.5 16q48 0 48 -39q0 -25 -17 -42t-49 -17q-49 0 -49 41q0 25 17.5 41z" />
    <glyph glyph-name="k.sinf" horiz-adv-x="373" 
d="M84 475h106l-44 -254h6l115 117h102l-108 -111l55 -227l-104 -4l-41 165h-6l-36 -37l-21 -124h-105z" />
    <glyph glyph-name="l.sinf" horiz-adv-x="199" 
d="M12 0l6 96l65 379h106l-65 -379l-6 -96h-106z" />
    <glyph glyph-name="m.sinf" horiz-adv-x="570" 
d="M152 338v-51h6q23 27 52.5 43t61.5 16t50 -15.5t20 -43.5h5q46 59 108 59q33 0 51.5 -18t18.5 -49q0 -15 -2 -23l-33 -160l-7 -96h-105l6 96l25 122q1 4 1 11q0 22 -22 22q-16 0 -31.5 -14t-26.5 -37l-37 -200h-105l39 218l1 8q0 11 -6 18t-16 7q-15 0 -31 -13.5
t-30 -36.5l-34 -201h-105l41 240v98h105z" />
    <glyph glyph-name="n.sinf" horiz-adv-x="392" 
d="M152 338v-51h6q24 27 53.5 43t62.5 16q35 0 54 -17.5t19 -48.5q0 -10 -3 -24l-33 -160l-6 -96h-105l6 96l24 116q1 4 1 12q0 13 -6.5 20t-17.5 7q-16 0 -32.5 -16t-30.5 -41l-33 -194h-105l41 240v98h105z" />
    <glyph glyph-name="o.sinf" horiz-adv-x="373" 
d="M40 28q-35 36 -35 101q0 55 24.5 105t70 81t104.5 31q63 0 97.5 -35.5t34.5 -100.5q0 -55 -24.5 -105t-69.5 -81.5t-104 -31.5q-63 0 -98 36zM121.5 89.5q9.5 -14.5 29.5 -14.5q25 0 42.5 22.5t26.5 54t9 56.5q0 26 -10.5 41t-29.5 15q-24 0 -41.5 -23t-26.5 -54.5
t-9 -56.5q0 -26 9.5 -40.5z" />
    <glyph glyph-name="p.sinf" horiz-adv-x="390" 
d="M152 338v-43h6q14 21 41 36t57 15q44 0 70.5 -34.5t26.5 -96.5q0 -59 -24.5 -110t-69 -82t-102.5 -31q-22 0 -47 5l-22 -127h-105l64 370v98h105zM166 75q27 0 45.5 22.5t27.5 53.5t9 56q0 26 -10.5 41.5t-27.5 15.5q-23 0 -44 -30.5t-27 -70.5v2l-14 -82q22 -8 41 -8z
" />
    <glyph glyph-name="q.sinf" horiz-adv-x="388" 
d="M273 -130h-105l30 164h-6q-15 -17 -39.5 -29.5t-51.5 -12.5q-43 0 -69.5 35t-26.5 98q0 59 24.5 109.5t71 81t110.5 30.5q35 0 74.5 -9t64.5 -21zM121 90q10 -15 27 -15q24 0 44.5 30t26.5 70v-1l15 83q-24 7 -38 7q-29 0 -48 -22.5t-28 -53.5t-9 -56q0 -27 10 -42z" />
    <glyph glyph-name="r.sinf" horiz-adv-x="279" 
d="M217 232q-24 0 -43.5 -16.5t-33.5 -46.5l-29 -169h-105l41 240v98h105v-72h5q18 38 43.5 59t62.5 21h7l-20 -120q-13 6 -33 6z" />
    <glyph glyph-name="s.sinf" horiz-adv-x="300" 
d="M226.5 343q25.5 -3 40.5 -7l-15 -84q-19 9 -44.5 15t-41.5 6q-18 0 -29 -7.5t-11 -19.5t11 -21t34 -20q39 -20 60 -41t21 -61q0 -52 -43.5 -81.5t-114.5 -29.5q-28 0 -60 5t-51 13l15 86q25 -13 56.5 -21.5t53.5 -8.5q20 0 31 8t11 21t-10.5 22t-36.5 23
q-38 20 -58.5 40.5t-20.5 57.5q0 52 44.5 80t110.5 28q22 0 47.5 -3z" />
    <glyph glyph-name="t.sinf" horiz-adv-x="265" 
d="M51 259h-35l12 63l40 8l47 90h69l-14 -82h82l-13 -79h-82l-24 -140q-1 -5 -1 -14q0 -28 26 -28q22 0 53 13l-15 -86q-16 -5 -39 -8.5t-40 -3.5q-46 0 -70 22t-24 62q0 18 2 27z" />
    <glyph glyph-name="u.sinf" horiz-adv-x="390" 
d="M202 0l1 52h-5q-24 -27 -53.5 -43.5t-61.5 -16.5q-34 0 -52 18.5t-18 50.5q0 7 2 21l46 256h106l-38 -219q-1 -3 -1 -9q0 -11 5.5 -17t15.5 -6q15 0 32 14t30 37l34 200h105l-42 -239v-100z" />
    <glyph glyph-name="v.sinf" horiz-adv-x="347" 
d="M134 338l11 -249h7l96 249h102l-148 -338h-144l-33 338h109z" />
    <glyph glyph-name="w.sinf" horiz-adv-x="572" 
d="M133 338l4 -249h8l90 249h143l3 -249h6l90 249h99l-144 -338h-137l-7 250h-7l-91 -250h-137l-28 338h108z" />
    <glyph glyph-name="x.sinf" horiz-adv-x="343" 
d="M134 338l33 -111h4l69 111h98l-111 -164l58 -174h-107l-34 118h-5l-71 -118h-101l118 175l-56 163h105z" />
    <glyph glyph-name="y.sinf" horiz-adv-x="347" 
d="M134 338l11 -249h7l96 249h102l-145 -330q-29 -67 -78.5 -106.5t-115.5 -39.5q-17 0 -38 3t-33 7l14 86q13 -5 32.5 -8t32.5 -3q30 0 51.5 14t38.5 43h-51l-33 334h109z" />
    <glyph glyph-name="z.sinf" horiz-adv-x="296" 
d="M283 338l-12 -67l-169 -194l143 3l-14 -80h-254l12 68l169 193l-135 -2l13 79h247z" />
    <glyph glyph-name="zero.osf" horiz-adv-x="621" 
d="M97.5 45.5q-58.5 57.5 -58.5 159.5q0 83 38 158t110.5 121.5t171.5 46.5q107 0 165.5 -57t58.5 -160q0 -84 -38 -158.5t-110.5 -121t-170.5 -46.5q-108 0 -166.5 57.5zM214 135q23 -29 70 -29q50 0 83 31t48 76.5t15 89.5q0 52 -23 81t-70 29q-50 0 -83 -31t-48 -76.5
t-15 -89.5q0 -52 23 -81z" />
    <glyph glyph-name="one.osf" horiz-adv-x="391" 
d="M193 384l-154 -74l21 119l189 90h117l-87 -519h-150z" />
    <glyph glyph-name="two.osf" horiz-adv-x="525" 
d="M3 0l23 129l175 99q60 35 89.5 63t29.5 61q0 29 -21.5 45t-59.5 16q-31 0 -74.5 -10.5t-82.5 -26.5l21 122q34 14 87 23.5t95 9.5q87 0 140 -42t53 -115q0 -64 -40.5 -112.5t-115.5 -85.5l-105 -54l-3 -13l233 13l-22 -122h-422z" />
    <glyph glyph-name="three.osf" horiz-adv-x="500" 
d="M264 531q83 0 138 -32t55 -100q0 -58 -40.5 -106t-109.5 -78v-6q53 -13 82.5 -49t29.5 -98q0 -125 -120 -185t-332 -60l20 118q140 0 210.5 27.5t70.5 92.5q0 79 -105 79q-33 0 -91 -8l18 107q89 13 149.5 43.5t60.5 78.5q0 29 -21 43.5t-61 14.5q-35 0 -77 -9.5
t-79 -24.5l20 118q93 34 182 34z" />
    <glyph glyph-name="four.osf" horiz-adv-x="540" 
d="M258 0h-282l19 106l268 430h147l-261 -418h130l83 184h88l-31 -184h82l-31 -118h-72l-26 -154h-149z" />
    <glyph glyph-name="five.osf" horiz-adv-x="502" 
d="M375 206.5q50 -40.5 50 -127.5q0 -135 -120.5 -198.5t-324.5 -63.5l20 118q132 0 202.5 25t70.5 92q0 79 -107 79q-54 0 -135 -14l69 402h378l-21 -121h-257l-26 -154q35 3 64 3q87 0 137 -40.5z" />
    <glyph glyph-name="six.osf" horiz-adv-x="577" 
d="M94 50.5q-57 62.5 -57 180.5q0 129 66 239t182.5 174.5t260.5 64.5l-20 -121q-128 0 -210 -61.5t-114 -164.5h11q33 36 79 57t96 21q73 0 116.5 -44t43.5 -125q0 -74 -36.5 -139t-103 -104.5t-152.5 -39.5q-105 0 -162 62.5zM207 137q22 -34 69 -34q55 0 90 39t35 97
q0 41 -21 64t-63 23q-37 0 -71.5 -17.5t-60.5 -48.5v-20q0 -69 22 -103z" />
    <glyph glyph-name="seven.osf" horiz-adv-x="506" 
d="M519 519l-13 -78q-72 -83 -124 -164.5t-93.5 -191.5t-66.5 -256h-152q28 173 92.5 309.5t159.5 236.5l2 11h-269l23 133h441z" />
    <glyph glyph-name="eight.osf" horiz-adv-x="592" 
d="M67 246.5q42 48.5 115 80.5v7q-79 56 -79 144q0 62 35.5 113t98.5 81t141 30q86 0 140.5 -37.5t54.5 -103.5q0 -57 -38.5 -105.5t-99.5 -81.5v-7q50 -28 77 -66t27 -90q0 -61 -37 -112t-103.5 -81t-152.5 -30q-99 0 -160 40.5t-61 110.5q0 59 42 107.5zM193.5 113
q25.5 -21 70.5 -21q54 0 93 27t39 68q0 29 -22.5 49.5t-62.5 37.5l-43 17q-45 -21 -72.5 -53t-27.5 -69q0 -35 25.5 -56zM263.5 453q23.5 -22 67.5 -40l24 -10q35 25 58 57t23 65q0 34 -21.5 53.5t-59.5 19.5q-46 0 -80.5 -27t-34.5 -65q0 -31 23.5 -53z" />
    <glyph glyph-name="nine.osf" horiz-adv-x="576" 
d="M480 468.5q58 -62.5 58 -182.5q0 -130 -66 -239t-182 -173t-260 -64l21 122q135 0 213.5 61.5t108.5 159.5h-10q-32 -33 -78 -52t-94 -19q-74 0 -118 43.5t-44 123.5q0 71 35.5 136t101 105.5t152.5 40.5q104 0 162 -62.5zM198.5 218.5q22.5 -22.5 66.5 -22.5q37 0 69 16
t57 44q1 9 1 27q0 70 -22 102t-70 32q-38 0 -66.5 -19t-43 -50.5t-14.5 -65.5q0 -41 22.5 -63.5z" />
    <glyph glyph-name="zero.tf" 
d="M103 53q-55 65 -55 191q0 106 37.5 211.5t114 176t187.5 70.5q104 0 159 -65t55 -191q0 -105 -37.5 -211t-114 -176.5t-187.5 -70.5q-104 0 -159 65zM219.5 138q21.5 -32 60.5 -32q56 0 94.5 63t57.5 147t19 144q0 59 -21.5 91.5t-61.5 32.5q-56 0 -94.5 -63t-57 -147.5
t-18.5 -144.5q0 -59 21.5 -91z" />
    <glyph glyph-name="one.tf" 
d="M64 123h147l74 432l-160 -74l20 119l196 90h117l-97 -567h149l-22 -123h-445z" />
    <glyph glyph-name="two.tf" 
d="M44 0l23 130l197 193q63 60 92.5 101.5t29.5 81.5q0 37 -24 57.5t-66 20.5q-29 0 -69 -10.5t-74 -26.5l21 123q43 15 91.5 23.5t89.5 8.5q90 0 139 -39.5t49 -115.5q0 -72 -42 -136.5t-123 -142.5l-145 -140v-7h256l-22 -121h-423z" />
    <glyph glyph-name="three.tf" 
d="M355 702q83 0 138 -32t55 -100q0 -58 -40.5 -106t-109.5 -78v-6q53 -13 82.5 -49t29.5 -98q0 -125 -120 -185t-332 -60l20 118q140 0 210.5 27.5t70.5 92.5q0 79 -105 79q-35 0 -91 -8l18 107q89 13 149.5 43.5t60.5 78.5q0 29 -21 43.5t-61 14.5q-35 0 -77 -9.5
t-79 -24.5l20 118q91 34 182 34z" />
    <glyph glyph-name="four.tf" 
d="M317 154h-281l18 106l268 430h148l-261 -418h129l84 184h87l-31 -184h83l-31 -118h-73l-26 -154h-149z" />
    <glyph glyph-name="five.tf" 
d="M464 377.5q50 -40.5 50 -127.5q0 -135 -120.5 -198.5t-324.5 -63.5l21 118q132 0 202 25t70 92q0 41 -27 60t-80 19q-54 0 -135 -14l69 402h378l-20 -121h-257l-27 -155q31 4 64 4q87 0 137 -40.5z" />
    <glyph glyph-name="six.tf" 
d="M106 50q-56 62 -56 185q0 129 66 237.5t182.5 172.5t259.5 64l-21 -121q-127 0 -208.5 -62.5t-112.5 -163.5h10q33 36 78.5 57t95.5 21q72 0 115.5 -44t43.5 -126q0 -73 -35.5 -138t-102 -104.5t-154.5 -39.5q-105 0 -161 62zM220 137q22 -34 68 -34q57 0 90.5 39
t33.5 96q0 42 -20.5 65t-63.5 23q-37 0 -70.5 -17.5t-59.5 -48.5v-17q0 -72 22 -106z" />
    <glyph glyph-name="seven.tf" 
d="M602 690l-13 -78q-72 -83 -124.5 -164t-94 -191t-66.5 -257h-152q28 173 93 309.5t159 235.5l2 12h-269l24 133h441z" />
    <glyph glyph-name="eight.tf" 
d="M79 246.5q42 48.5 115 80.5v7q-79 56 -79 144q0 62 35.5 113t98.5 81t141 30q86 0 140.5 -37.5t54.5 -103.5q0 -57 -38.5 -105.5t-99.5 -81.5v-7q50 -28 77 -66t27 -90q0 -61 -37 -112t-103.5 -81t-152.5 -30q-99 0 -160 40.5t-61 110.5q0 59 42 107.5zM205.5 113
q25.5 -21 70.5 -21q54 0 92.5 27t38.5 68q0 29 -22 49.5t-62 37.5l-43 17q-45 -21 -72.5 -53t-27.5 -69q0 -35 25.5 -56zM275.5 453q23.5 -22 67.5 -40l24 -10q35 25 58 57t23 65q0 34 -21.5 53.5t-59.5 19.5q-46 0 -80.5 -27t-34.5 -65q0 -31 23.5 -53z" />
    <glyph glyph-name="nine.tf" 
d="M527 637.5q57 -64.5 57 -185.5q0 -132 -66 -239.5t-181.5 -169.5t-258.5 -62l21 122q134 0 212 61.5t108 159.5h-10q-32 -33 -77 -52t-93 -19q-74 0 -117.5 43.5t-43.5 123.5q0 71 35 136t100 105.5t151 40.5q106 0 163 -64.5zM246.5 389.5q22.5 -22.5 66.5 -22.5
q37 0 68.5 16t55.5 44q1 10 1 29q0 69 -22 100.5t-69 31.5q-57 0 -90 -40t-33 -94q0 -42 22.5 -64.5z" />
    <glyph glyph-name="zero.sups" horiz-adv-x="417" 
d="M117.5 385.5q-36.5 42.5 -36.5 125.5q0 69 25 137.5t75.5 113.5t123.5 45q69 0 105.5 -42.5t36.5 -125.5q0 -69 -25 -137.5t-75.5 -113.5t-123.5 -45q-69 0 -105.5 42.5zM199 445.5q13 -19.5 37 -19.5q34 0 58 40t35.5 93t11.5 90q0 36 -13 56.5t-36 20.5
q-35 0 -59 -40.5t-35.5 -94t-11.5 -90.5q0 -36 13 -55.5z" />
    <glyph glyph-name="one.sups" horiz-adv-x="271" 
d="M189 706l-99 -48l14 83l124 59h82l-77 -449h-105z" />
    <glyph glyph-name="two.sups" horiz-adv-x="357" 
d="M56 351l15 86l141 132q30 28 46.5 54t16.5 53q0 24 -13.5 37t-40.5 13q-40 0 -95 -25l15 86q60 20 119 20q57 0 91 -26t34 -75q0 -54 -35.5 -101t-93.5 -95l-76 -66v-8h170l-15 -85h-279z" />
    <glyph glyph-name="three.sups" horiz-adv-x="347" 
d="M249 807q55 0 91.5 -20t36.5 -65q0 -38 -26 -69t-71 -51v-3q72 -18 72 -95q0 -82 -79 -121.5t-220 -39.5l14 83q91 0 135 16t44 57q0 24 -15.5 35t-48.5 11q-29 0 -61 -5l12 75q58 9 96 27.5t38 48.5q0 35 -51 35q-22 0 -49.5 -6.5t-52.5 -16.5l14 83q60 21 121 21z" />
    <glyph glyph-name="four.sups" horiz-adv-x="375" 
d="M240 451h-183l13 73l171 276h103l-165 -267h75l57 117h61l-20 -117h53l-21 -82h-46l-17 -100h-105z" />
    <glyph glyph-name="five.sups" horiz-adv-x="347" 
d="M323 598q32 -26 32 -83q0 -88 -80 -130t-214 -42l14 83q85 0 129 14.5t44 55.5q0 48 -65 48q-39 0 -89 -10l45 266h250l-14 -85h-165l-16 -92q14 1 40 1q57 0 89 -26z" />
    <glyph glyph-name="six.sups" horiz-adv-x="397" 
d="M115.5 384q-37.5 41 -37.5 118q0 85 44 156t121 112.5t172 41.5l-14 -84q-82 0 -134 -37.5t-73 -100.5h6q22 23 51.5 36.5t60.5 13.5q47 0 76 -29t29 -82q0 -48 -24 -91t-68 -69t-101 -26q-71 0 -108.5 41zM195 445q13 -21 42 -21q34 0 55.5 23.5t21.5 58.5q0 54 -52 54
q-23 0 -44 -10.5t-36 -28.5v-12q0 -43 13 -64z" />
    <glyph glyph-name="seven.sups" horiz-adv-x="352" 
d="M418 800l-9 -55q-71 -81 -116 -169.5t-68 -224.5h-107q17 109 59 197t102 151l1 8h-172l17 93h293z" />
    <glyph glyph-name="eight.sups" horiz-adv-x="408" 
d="M171 562v6q-50 34 -50 93q0 42 23.5 75t65 52t93.5 19q58 0 94.5 -23.5t36.5 -67.5q0 -36 -24 -67t-63 -53v-5q32 -19 48.5 -43t16.5 -57q0 -41 -24.5 -74.5t-69 -53.5t-102.5 -20q-65 0 -105 26t-40 73q0 73 100 120zM187 429q16 -13 43 -13q33 0 57.5 16t24.5 41
q0 18 -13.5 30t-38.5 23l-28 11q-28 -13 -44.5 -32.5t-16.5 -41.5q0 -21 16 -34zM231 647.5q14 -12.5 42 -24.5l16 -6q21 15 35 34t14 39q0 21 -13 33t-37 12q-28 0 -49.5 -16t-21.5 -40q0 -19 14 -31.5z" />
    <glyph glyph-name="nine.sups" horiz-adv-x="396" 
d="M390.5 766q38.5 -41 38.5 -119q0 -85 -43.5 -155.5t-120 -112t-171.5 -41.5l14 86q86 0 136 37t70 97h-7q-20 -20 -49 -32t-60 -12q-48 0 -77 28.5t-29 79.5q0 47 23.5 89.5t67 69t100.5 26.5q69 0 107.5 -41zM250 593q45 0 77 35v17q0 43 -13.5 63t-42.5 20
q-35 0 -55.5 -24.5t-20.5 -57.5q0 -53 55 -53z" />
    <glyph glyph-name="zero.sinf" horiz-adv-x="417" 
d="M55.5 34.5q-36.5 42.5 -36.5 125.5q0 69 25 137.5t75.5 113.5t123.5 45q69 0 105.5 -42.5t36.5 -125.5q0 -69 -25 -137.5t-75.5 -113.5t-123.5 -45q-69 0 -105.5 42.5zM137 94.5q13 -19.5 37 -19.5q34 0 58 40t35.5 93t11.5 90q0 36 -13 56.5t-36 20.5q-35 0 -59 -40.5
t-35.5 -94t-11.5 -90.5q0 -36 13 -55.5z" />
    <glyph glyph-name="one.sinf" horiz-adv-x="271" 
d="M127 355l-99 -48l14 83l124 59h82l-77 -449h-105z" />
    <glyph glyph-name="two.sinf" horiz-adv-x="357" 
d="M-6 0l15 86l141 132q30 28 46.5 54t16.5 53q0 24 -13.5 37t-40.5 13q-40 0 -95 -25l15 86q60 20 119 20q57 0 91 -26t34 -75q0 -54 -35.5 -101t-93.5 -95l-76 -66v-8h170l-15 -85h-279z" />
    <glyph glyph-name="three.sinf" horiz-adv-x="347" 
d="M187 456q55 0 91.5 -20t36.5 -65q0 -38 -26 -69t-71 -51v-3q72 -18 72 -95q0 -82 -79 -121.5t-220 -39.5l14 83q91 0 135 16t44 57q0 24 -15.5 35t-48.5 11q-29 0 -61 -5l12 75q58 9 96 27.5t38 48.5q0 35 -51 35q-22 0 -49.5 -6.5t-52.5 -16.5l14 83q60 21 121 21z" />
    <glyph glyph-name="four.sinf" horiz-adv-x="375" 
d="M178 100h-183l13 73l171 276h103l-165 -267h75l57 117h61l-20 -117h53l-21 -82h-46l-17 -100h-105z" />
    <glyph glyph-name="five.sinf" horiz-adv-x="347" 
d="M261 247q32 -26 32 -83q0 -88 -80 -130t-214 -42l14 83q85 0 129 14.5t44 55.5q0 48 -65 48q-39 0 -89 -10l45 266h250l-14 -85h-165l-16 -92q14 1 40 1q57 0 89 -26z" />
    <glyph glyph-name="six.sinf" horiz-adv-x="397" 
d="M53.5 33q-37.5 41 -37.5 118q0 85 44 156t121 112.5t172 41.5l-14 -84q-82 0 -134 -37.5t-73 -100.5h6q22 23 51.5 36.5t60.5 13.5q47 0 76 -29t29 -82q0 -48 -24 -91t-68 -69t-101 -26q-71 0 -108.5 41zM133 94q13 -21 42 -21q34 0 55.5 23.5t21.5 58.5q0 54 -52 54
q-23 0 -44 -10.5t-36 -28.5v-12q0 -43 13 -64z" />
    <glyph glyph-name="seven.sinf" horiz-adv-x="352" 
d="M356 449l-9 -55q-71 -81 -116 -169.5t-68 -224.5h-107q17 109 59 197t102 151l1 8h-172l17 93h293z" />
    <glyph glyph-name="eight.sinf" horiz-adv-x="408" 
d="M109 211v6q-50 34 -50 93q0 42 23.5 75t65 52t93.5 19q58 0 94.5 -23.5t36.5 -67.5q0 -36 -24 -67t-63 -53v-5q32 -19 48.5 -43t16.5 -57q0 -41 -24.5 -74.5t-69 -53.5t-102.5 -20q-65 0 -105 26t-40 73q0 73 100 120zM125 78q16 -13 43 -13q33 0 57.5 16t24.5 41
q0 18 -13.5 30t-38.5 23l-28 11q-28 -13 -44.5 -32.5t-16.5 -41.5q0 -21 16 -34zM169 296.5q14 -12.5 42 -24.5l16 -6q21 15 35 34t14 39q0 21 -13 33t-37 12q-28 0 -49.5 -16t-21.5 -40q0 -19 14 -31.5z" />
    <glyph glyph-name="nine.sinf" horiz-adv-x="396" 
d="M328.5 415q38.5 -41 38.5 -119q0 -85 -43.5 -155.5t-120 -112t-171.5 -41.5l14 86q86 0 136 37t70 97h-7q-20 -20 -49 -32t-60 -12q-48 0 -77 28.5t-29 79.5q0 47 23.5 89.5t67 69t100.5 26.5q69 0 107.5 -41zM188 242q45 0 77 35v17q0 43 -13.5 63t-42.5 20
q-35 0 -55.5 -24.5t-20.5 -57.5q0 -53 55 -53z" />
    <glyph glyph-name="zero.numr" horiz-adv-x="326" 
d="M91.5 372q-29.5 33 -29.5 98q0 54 20 106t60 86t98 34q56 0 86 -33.5t30 -98.5q0 -54 -20 -106t-60.5 -85.5t-98.5 -33.5q-56 0 -85.5 33zM190 411q29 0 46.5 28t24 64t6.5 63q0 58 -39 58q-27 0 -44.5 -28.5t-25.5 -66t-8 -63.5q0 -55 40 -55z" />
    <glyph glyph-name="one.numr" horiz-adv-x="211" 
d="M159 609l-79 -36l13 72l98 45h70l-59 -345h-88z" />
    <glyph glyph-name="two.numr" horiz-adv-x="268" 
d="M37 345l12 70l84 76q36 31 55 54t19 44q0 35 -42 35q-34 0 -75 -19l13 75q44 16 96 16q49 0 75.5 -20.5t26.5 -61.5q0 -35 -22 -68t-71 -71l-60 -50l-1 -6h127l-13 -74h-224z" />
    <glyph glyph-name="three.numr" horiz-adv-x="261" 
d="M190 696q45 0 75.5 -16.5t30.5 -51.5q0 -30 -22.5 -53.5t-59.5 -37.5v-3q62 -13 62 -73q0 -65 -70.5 -93.5t-168.5 -28.5l12 71q63 0 101 13t38 40q0 16 -12 22t-35 6q-22 0 -52 -4l10 61q51 8 77.5 20.5t26.5 32.5q0 24 -33 24q-38 0 -88 -16l13 70q45 17 95 17z" />
    <glyph glyph-name="four.numr" horiz-adv-x="283" 
d="M181 420h-146l11 65l132 205h93l-137 -198h63l46 87h47l-15 -87h43l-19 -72h-36l-13 -75h-87z" />
    <glyph glyph-name="five.numr" horiz-adv-x="263" 
d="M252 536q24 -20 24 -60q0 -68 -67.5 -102.5t-167.5 -34.5l12 71q56 0 94.5 12.5t38.5 40.5q0 15 -11 21.5t-34 6.5q-39 0 -76 -10l35 209h202l-13 -75h-130l-10 -63q15 4 36 4q43 0 67 -20z" />
    <glyph glyph-name="six.numr" horiz-adv-x="311" 
d="M90.5 370.5q-30.5 31.5 -30.5 93.5q0 66 34.5 120t96 85t139.5 31l-13 -74q-67 0 -108 -26.5t-56 -74.5h7q15 18 38.5 29t51.5 11q40 0 61.5 -22t21.5 -62q0 -38 -20 -71t-55.5 -52t-80.5 -19q-56 0 -86.5 31.5zM156.5 422.5q10.5 -15.5 33.5 -15.5q25 0 42 17t17 41
q0 18 -10.5 28t-31.5 10q-35 0 -61 -28v-4q0 -33 10.5 -48.5z" />
    <glyph glyph-name="seven.numr" horiz-adv-x="264" 
d="M326 690l-8 -48q-54 -58 -90 -126.5t-53 -170.5h-90q13 79 44.5 145t77.5 112l2 10h-133l13 78h237z" />
    <glyph glyph-name="eight.numr" horiz-adv-x="309" 
d="M69.5 467.5q20.5 23.5 55.5 39.5l1 6q-39 27 -39 70q0 31 18.5 56.5t52.5 41t78 15.5q46 0 74.5 -17.5t28.5 -52.5q0 -28 -18.5 -52t-50.5 -41l-1 -6q25 -14 39.5 -32t14.5 -46q0 -48 -44 -79t-115 -31q-48 0 -81.5 17.5t-33.5 57.5q0 30 20.5 53.5zM144.5 410
q12.5 -9 36.5 -9q26 0 43 10t17 27q0 15 -15.5 25t-48.5 24q-19 -9 -32 -23t-13 -29q0 -16 12.5 -25zM181 570.5q14 -10.5 42 -22.5q38 25 38 52q0 15 -11 24.5t-32 9.5t-36 -9.5t-15 -27.5q0 -16 14 -26.5z" />
    <glyph glyph-name="nine.numr" horiz-adv-x="311" 
d="M311 663.5q32 -32.5 32 -94.5q0 -65 -34.5 -118.5t-96.5 -84.5t-139 -31l13 74q63 0 104 28t57 73h-6q-15 -18 -38 -29t-51 -11q-39 0 -60.5 22t-21.5 64q0 39 19.5 71t54 50.5t78.5 18.5q57 0 89 -32.5zM165 542.5q11 -10.5 31 -10.5q34 0 60 28v6q0 62 -46 62
q-25 0 -40.5 -17t-15.5 -39q0 -19 11 -29.5z" />
    <glyph glyph-name="zero.dnom" horiz-adv-x="326" 
d="M30.5 27q-29.5 33 -29.5 98q0 54 20 106t60 86t98 34q56 0 86 -33.5t30 -98.5q0 -54 -20 -106t-60.5 -85.5t-98.5 -33.5q-56 0 -85.5 33zM129 66q29 0 46.5 28t24 64t6.5 63q0 58 -39 58q-27 0 -44.5 -28.5t-25.5 -66t-8 -63.5q0 -55 40 -55z" />
    <glyph glyph-name="one.dnom" horiz-adv-x="212" 
d="M98 264l-79 -36l13 72l98 45h70l-59 -345h-88z" />
    <glyph glyph-name="two.dnom" horiz-adv-x="268" 
d="M-24 0l12 70l84 76q36 31 55 54t19 44q0 35 -42 35q-34 0 -75 -19l13 75q44 16 96 16q49 0 75.5 -20.5t26.5 -61.5q0 -35 -22 -68t-71 -71l-60 -50l-1 -6h127l-13 -74h-224z" />
    <glyph glyph-name="three.dnom" horiz-adv-x="261" 
d="M129 351q45 0 75.5 -16.5t30.5 -51.5q0 -30 -22.5 -53.5t-59.5 -37.5v-3q62 -13 62 -73q0 -65 -70.5 -93.5t-168.5 -28.5l12 71q63 0 101 13t38 40q0 16 -12 22t-35 6q-22 0 -52 -4l10 61q51 8 77.5 20.5t26.5 32.5q0 24 -33 24q-38 0 -88 -16l13 70q45 17 95 17z" />
    <glyph glyph-name="four.dnom" horiz-adv-x="283" 
d="M120 75h-146l11 65l132 205h93l-137 -198h63l46 87h47l-15 -87h43l-19 -72h-36l-13 -75h-87z" />
    <glyph glyph-name="five.dnom" horiz-adv-x="263" 
d="M191 191q24 -20 24 -60q0 -68 -67.5 -102.5t-167.5 -34.5l12 71q56 0 94.5 12.5t38.5 40.5q0 15 -11 21.5t-34 6.5q-39 0 -76 -10l35 209h202l-13 -75h-130l-10 -63q15 4 36 4q43 0 67 -20z" />
    <glyph glyph-name="six.dnom" horiz-adv-x="311" 
d="M29.5 25.5q-30.5 31.5 -30.5 93.5q0 66 34.5 120t96 85t139.5 31l-13 -74q-67 0 -108 -26.5t-56 -74.5h7q15 18 38.5 29t51.5 11q40 0 61.5 -22t21.5 -62q0 -38 -20 -71t-55.5 -52t-80.5 -19q-56 0 -86.5 31.5zM95.5 77.5q10.5 -15.5 33.5 -15.5q25 0 42 17t17 41
q0 18 -10.5 28t-31.5 10q-35 0 -61 -28v-4q0 -33 10.5 -48.5z" />
    <glyph glyph-name="seven.dnom" horiz-adv-x="263" 
d="M265 345l-8 -48q-54 -58 -90 -126.5t-53 -170.5h-90q13 79 44.5 145t77.5 112l2 10h-133l13 78h237z" />
    <glyph glyph-name="eight.dnom" horiz-adv-x="309" 
d="M8.5 122.5q20.5 23.5 55.5 39.5l1 6q-39 27 -39 70q0 31 18.5 56.5t52.5 41t78 15.5q46 0 74.5 -17.5t28.5 -52.5q0 -28 -18.5 -52t-50.5 -41l-1 -6q25 -14 39.5 -32t14.5 -46q0 -48 -44 -79t-115 -31q-48 0 -81.5 17.5t-33.5 57.5q0 30 20.5 53.5zM83.5 65
q12.5 -9 36.5 -9q26 0 43 10t17 27q0 15 -15.5 25t-48.5 24q-19 -9 -32 -23t-13 -29q0 -16 12.5 -25zM120 225.5q14 -10.5 42 -22.5q38 25 38 52q0 15 -11 24.5t-32 9.5t-36 -9.5t-15 -27.5q0 -16 14 -26.5z" />
    <glyph glyph-name="nine.dnom" horiz-adv-x="311" 
d="M250 318.5q32 -32.5 32 -94.5q0 -65 -34.5 -118.5t-96.5 -84.5t-139 -31l13 74q63 0 104 28t57 73h-6q-15 -18 -38 -29t-51 -11q-39 0 -60.5 22t-21.5 64q0 39 19.5 71t54 50.5t78.5 18.5q57 0 89 -32.5zM104 197.5q11 -10.5 31 -10.5q34 0 60 28v6q0 62 -46 62
q-25 0 -40.5 -17t-15.5 -39q0 -19 11 -29.5z" />
    <glyph glyph-name="exclamdown.case" horiz-adv-x="304" 
d="M30 0l97 486h123l-66 -486h-154zM150.5 673.5q26.5 28.5 78.5 28.5q38 0 56.5 -17.5t18.5 -49.5q0 -38 -25.5 -68t-79.5 -30q-75 0 -75 66q0 42 26.5 70.5z" />
    <glyph glyph-name="questiondown.case" horiz-adv-x="420" 
d="M234 486h125l-6 -36q-11 -60 -39.5 -99.5t-75.5 -83.5q-35 -32 -50.5 -52.5t-15.5 -45.5q0 -28 20 -41.5t55 -13.5q53 0 127 27l-23 -130q-31 -10 -72 -16.5t-78 -6.5q-86 0 -136.5 38.5t-50.5 111.5q0 41 16 74t38.5 57t60.5 57q46 39 70.5 68.5t30.5 67.5zM256 673
q27 29 79 29q76 0 76 -68q0 -40 -25.5 -69.5t-80.5 -29.5q-76 0 -76 66q0 43 27 72z" />
    <glyph glyph-name="parenleft.case" horiz-adv-x="345" 
d="M267.5 495.5q-51.5 -174.5 -51.5 -342.5q0 -71 10 -142.5t29 -130.5h-111q-69 137 -69 308q0 156 56 321t171 301h111q-94 -140 -145.5 -314.5z" />
    <glyph glyph-name="parenright.case" horiz-adv-x="346" 
d="M108.5 194.5q51.5 174.5 51.5 342.5q0 71 -10 142.5t-29 130.5h111q69 -134 69 -308q0 -156 -55.5 -321t-170.5 -301h-112q94 140 145.5 314.5z" />
    <glyph glyph-name="braceleft.case" horiz-adv-x="383" 
d="M238.5 3q12.5 -11 35.5 -11h17l-20 -112h-66q-54 0 -88.5 30t-34.5 83q0 25 7 53.5t22 74.5q13 41 19.5 66.5t6.5 46.5q0 30 -15.5 43.5t-46.5 13.5h-5l18 108h6q41 0 63 26.5t25 75.5q2 17 2 61q0 27 2 63q3 92 48.5 138.5t128.5 46.5h66l-20 -112h-15q-30 0 -48 -18.5
t-20 -52.5q-2 -13 -2 -56q0 -29 -2 -59q-2 -59 -34.5 -102t-82.5 -61l-2 -8q33 -14 52 -42.5t19 -65.5q0 -23 -7 -49t-19 -60t-17 -52.5t-5 -34.5q0 -23 12.5 -34z" />
    <glyph glyph-name="braceright.case" horiz-adv-x="384" 
d="M175.5 687q-12.5 11 -35.5 11h-17l20 112h66q54 0 88.5 -30t34.5 -83q0 -25 -7 -53.5t-22 -74.5q-13 -41 -19.5 -66.5t-6.5 -46.5q0 -30 15.5 -43.5t45.5 -13.5h6l-18 -108h-6q-41 0 -63 -26.5t-25 -75.5q-2 -17 -2 -61q0 -27 -2 -63q-3 -91 -48.5 -138t-128.5 -47h-66
l19 112h16q30 0 48 18.5t20 52.5q2 13 2 56q0 29 2 59q2 59 34.5 102t82.5 61l2 8q-33 14 -52 42.5t-19 65.5q0 23 7 49t19 60t17 52.5t5 34.5q0 23 -12.5 34z" />
    <glyph glyph-name="bracketleft.case" horiz-adv-x="329" 
d="M392 810l-19 -115h-82l-119 -700h83l-20 -115h-219l157 930h219z" />
    <glyph glyph-name="bracketright.case" horiz-adv-x="329" 
d="M-32 -120l19 115h83l118 700h-82l20 115h219l-157 -930h-220z" />
    <glyph glyph-name="period.tf" 
d="M184 56q0 40 26 70.5t81 30.5q77 0 77 -67q0 -43 -27.5 -72.5t-79.5 -29.5q-77 0 -77 68z" />
    <glyph glyph-name="comma.tf" 
d="M243 -7q-26 7 -41.5 25.5t-15.5 45.5q0 36 26 63.5t70 27.5q38 0 61 -21.5t23 -57.5q0 -49 -39 -122.5t-91 -125.5h-73q53 84 80 165z" />
    <glyph glyph-name="colon.tf" 
d="M184 56q0 40 26 70.5t81 30.5q77 0 77 -67q0 -43 -27.5 -72.5t-79.5 -29.5q-77 0 -77 68zM250 430q0 40 26 70.5t81 30.5q77 0 77 -67q0 -43 -27.5 -72.5t-79.5 -29.5q-77 0 -77 68z" />
    <glyph glyph-name="semicolon.tf" 
d="M241 -7q-26 7 -41.5 25.5t-15.5 45.5q0 36 26 63.5t70 27.5q38 0 61 -21.5t23 -57.5q0 -49 -39 -122.5t-91 -125.5h-73q53 84 80 165zM249 430q0 40 26 70.5t81 30.5q77 0 77 -67q0 -43 -27.5 -72.5t-79.5 -29.5q-77 0 -77 68z" />
    <glyph glyph-name="numbersign.tf" 
d="M615 730l-62 -189h100l-32 -95h-99l-53 -162h100l-32 -95h-99l-62 -189h-104l62 189h-129l-62 -189h-104l62 189h-100l32 95h99l53 162h-99l31 95h99l62 189h104l-62 -189h129l62 189h104zM365 284l53 162h-129l-53 -162h129z" />
    <glyph glyph-name="parenleft.tf" 
d="M382.5 415.5q-51.5 -174.5 -51.5 -342.5q0 -71 10 -142.5t29 -130.5h-111q-69 137 -69 308q0 156 56 321t171 301h111q-94 -140 -145.5 -314.5z" />
    <glyph glyph-name="parenright.tf" 
d="M236.5 114.5q51.5 174.5 51.5 342.5q0 71 -10 142.5t-29 130.5h111q69 -134 69 -308q0 -156 -55.5 -321t-170.5 -301h-112q94 140 145.5 314.5z" />
    <glyph glyph-name="braceleft.tf" 
d="M327.5 -77q12.5 -11 35.5 -11h17l-20 -112h-66q-54 0 -88.5 30t-34.5 83q0 25 7 53.5t22 74.5q13 41 19.5 66.5t6.5 46.5q0 30 -15.5 43.5t-46.5 13.5h-5l18 108h6q41 0 63 26.5t25 75.5q2 17 2 61q0 27 2 63q3 92 48.5 138.5t128.5 46.5h66l-20 -112h-15
q-30 0 -48 -18.5t-20 -52.5q-2 -13 -2 -56q0 -29 -2 -59q-2 -59 -34.5 -102t-82.5 -61l-2 -8q33 -14 52 -42.5t19 -65.5q0 -23 -7 -49t-19 -60t-17 -52.5t-5 -34.5q0 -23 12.5 -34z" />
    <glyph glyph-name="braceright.tf" 
d="M291.5 607q-12.5 11 -35.5 11h-17l20 112h66q54 0 88.5 -30t34.5 -83q0 -25 -7 -53.5t-22 -74.5q-13 -41 -19.5 -66.5t-6.5 -46.5q0 -30 15.5 -43.5t45.5 -13.5h6l-18 -108h-6q-41 0 -63 -26.5t-25 -75.5q-2 -17 -2 -61q0 -27 -2 -63q-3 -91 -48.5 -138t-128.5 -47h-66
l19 112h16q30 0 48 18.5t20 52.5q2 13 2 56q0 29 2 59q2 59 34.5 102t82.5 61l2 8q-33 14 -52 42.5t-19 65.5q0 23 7 49t19 60t17 52.5t5 34.5q0 23 -12.5 34z" />
    <glyph glyph-name="bracketleft.tf" 
d="M536 730l-19 -115h-82l-119 -700h83l-20 -115h-219l157 930h219z" />
    <glyph glyph-name="bracketright.tf" 
d="M82 -200l19 115h83l118 700h-82l20 115h219l-157 -930h-220z" />
    <glyph glyph-name="period.sups" horiz-adv-x="222" 
d="M86.5 355.5q-13.5 12.5 -13.5 34.5q0 28 17.5 48.5t56.5 20.5q53 0 53 -46q0 -29 -19 -49.5t-55 -20.5q-26 0 -39.5 12.5z" />
    <glyph glyph-name="comma.sups" horiz-adv-x="222" 
d="M112 347q-17 6 -28 18.5t-11 30.5q0 24 18.5 42.5t48.5 18.5q25 0 41.5 -14.5t16.5 -39.5q0 -33 -26 -81t-62 -83h-51q34 49 53 108z" />
    <glyph glyph-name="colon.sups" horiz-adv-x="251" 
d="M88 390q0 28 17.5 48.5t56.5 20.5q53 0 53 -46q0 -29 -19 -49.5t-55 -20.5q-53 0 -53 47zM146 676.5q18 20.5 56 20.5q53 0 53 -46q0 -29 -19 -49.5t-55 -20.5q-26 0 -39.5 12.5t-13.5 34.5q0 28 18 48.5z" />
    <glyph glyph-name="semicolon.sups" horiz-adv-x="251" 
d="M127 347q-17 5 -27.5 18t-10.5 31q0 24 18 42.5t48 18.5q26 0 42 -14.5t16 -39.5q0 -33 -26 -81t-62 -83h-51q34 49 53 108zM146.5 676.5q17.5 20.5 55.5 20.5q54 0 54 -46q0 -29 -19 -49.5t-55 -20.5q-53 0 -53 47q0 28 17.5 48.5z" />
    <glyph glyph-name="exclam.sups" horiz-adv-x="217" 
d="M254 800l-63 -311h-86l41 311h108zM88 438.5q18 20.5 56 20.5q54 0 54 -46q0 -29 -19 -49.5t-55 -20.5q-27 0 -40.5 12.5t-13.5 34.5q0 28 18 48.5z" />
    <glyph glyph-name="exclamdown.sups" horiz-adv-x="217" 
d="M75 351l63 311h86l-41 -311h-108zM150 788q19 20 55 20q54 0 54 -47q0 -27 -18 -48t-56 -21q-27 0 -40.5 12t-13.5 34q0 30 19 50z" />
    <glyph glyph-name="question.sups" horiz-adv-x="295" 
d="M202 489h-87l3 22q6 40 24.5 65.5t49.5 53.5q21 19 30.5 31t9.5 27q0 32 -44 32q-39 0 -94 -22l16 91q22 8 52 13t58 5q58 0 90.5 -24.5t32.5 -72.5q0 -38 -18.5 -63t-54.5 -55q-31 -26 -46.5 -44t-19.5 -44zM99 438.5q18 20.5 56 20.5q53 0 53 -46q0 -29 -19 -49.5
t-55 -20.5q-26 0 -39.5 12.5t-13.5 34.5q0 28 18 48.5z" />
    <glyph glyph-name="questiondown.sups" horiz-adv-x="295" 
d="M205 661h87l-3 -22q-6 -40 -24.5 -65.5t-49.5 -53.5q-21 -19 -30.5 -31t-9.5 -27q0 -32 44 -32q39 0 94 22l-16 -90q-23 -8 -52.5 -13.5t-57.5 -5.5q-57 0 -90 25t-33 72q0 38 18.5 63t54.5 55q30 25 45.5 43.5t19.5 44.5zM217.5 787q18.5 20 55.5 20q53 0 53 -47
q0 -27 -18 -48t-56 -21q-53 0 -53 46q0 30 18.5 50z" />
    <glyph glyph-name="bullet.sups" horiz-adv-x="289" 
d="M129.5 510.5q-19.5 17.5 -19.5 47.5q0 41 27.5 70t77.5 29q37 0 56.5 -17.5t19.5 -48.5q0 -40 -28 -69t-77 -29q-37 0 -56.5 17.5z" />
    <glyph glyph-name="numbersign.sups" horiz-adv-x="480" 
d="M491 826l-39 -120h66l-22 -67h-66l-34 -101h67l-22 -66h-66l-40 -121h-73l40 121h-82l-40 -121h-73l40 121h-67l22 66h66l34 101h-67l21 67h68l39 120h73l-39 -120h82l39 120h73zM323 538l34 101h-82l-34 -101h82z" />
    <glyph glyph-name="slash.sups" horiz-adv-x="256" 
d="M254 826h93l-248 -587h-93z" />
    <glyph glyph-name="parenleft.sups" horiz-adv-x="250" 
d="M227.5 619.5q-33.5 -113.5 -33.5 -221.5q0 -98 25 -177h-77q-46 89 -46 202q0 100 36.5 207t112.5 196h77q-61 -93 -94.5 -206.5z" />
    <glyph glyph-name="parenright.sups" horiz-adv-x="250" 
d="M116.5 427.5q33.5 113.5 33.5 221.5q0 99 -25 177h77q46 -89 46 -201q0 -100 -36.5 -207.5t-112.5 -196.5h-77q61 93 94.5 206.5z" />
    <glyph glyph-name="braceleft.sups" horiz-adv-x="274" 
d="M210 383q-5 -15 -9.5 -29.5t-4.5 -25.5q0 -29 31 -29h12l-14 -78h-47q-37 0 -60.5 20t-23.5 56q0 16 6 38.5t13 43.5q17 49 17 71q0 36 -39 36h-4l11 62l2 13h4q51 0 56 65q1 8 1 26v33q0 141 120 141h47l-13 -78h-12q-20 0 -31.5 -11.5t-12.5 -33.5v-27q0 -31 -1 -41
q-1 -39 -22.5 -68t-55.5 -41l-1 -5q22 -10 34.5 -28.5t12.5 -42.5q0 -23 -16 -67z" />
    <glyph glyph-name="braceright.sups" horiz-adv-x="274" 
d="M158 665q1 3 7.5 21.5t6.5 32.5q0 15 -8 22.5t-23 7.5h-12l14 77h46q38 0 61 -20t23 -55q0 -17 -6 -39.5t-13 -44.5q-6 -19 -11 -38t-5 -32q0 -19 9.5 -27.5t28.5 -8.5h4v-1l-2 -10l-10 -63l-1 1v-1h-4q-26 0 -39.5 -17.5t-15.5 -48.5q-1 -7 -1 -26v-32q0 -142 -121 -142
h-46l13 78h12q19 0 30.5 12t12.5 34q1 8 1 33q0 26 1 35q1 39 22.5 68t55.5 41l1 5q-22 10 -34.5 28.5t-12.5 41.5q0 24 16 68z" />
    <glyph glyph-name="bracketleft.sups" horiz-adv-x="237" 
d="M305 826l-14 -81h-52l-75 -444h52l-14 -80h-148l103 605h148z" />
    <glyph glyph-name="bracketright.sups" horiz-adv-x="237" 
d="M25 221l14 81h53l75 444h-52l13 80h148l-102 -605h-149z" />
    <glyph glyph-name="period.sinf" horiz-adv-x="222" 
d="M24.5 4.5q-13.5 12.5 -13.5 34.5q0 28 17.5 48.5t56.5 20.5q53 0 53 -46q0 -29 -19 -49.5t-55 -20.5q-26 0 -39.5 12.5z" />
    <glyph glyph-name="comma.sinf" horiz-adv-x="222" 
d="M50 -4q-17 6 -28 18.5t-11 30.5q0 24 18.5 42.5t48.5 18.5q25 0 41.5 -14.5t16.5 -39.5q0 -33 -26 -81t-62 -83h-51q34 49 53 108z" />
    <glyph glyph-name="colon.sinf" horiz-adv-x="251" 
d="M26 39q0 28 17.5 48.5t56.5 20.5q53 0 53 -46q0 -29 -19 -49.5t-55 -20.5q-53 0 -53 47zM84 325.5q18 20.5 56 20.5q53 0 53 -46q0 -29 -19 -49.5t-55 -20.5q-26 0 -39.5 12.5t-13.5 34.5q0 28 18 48.5z" />
    <glyph glyph-name="semicolon.sinf" horiz-adv-x="251" 
d="M65 -4q-17 5 -27.5 18t-10.5 31q0 24 18 42.5t48 18.5q26 0 42 -14.5t16 -39.5q0 -33 -26 -81t-62 -83h-51q34 49 53 108zM84.5 325.5q17.5 20.5 55.5 20.5q54 0 54 -46q0 -29 -19 -49.5t-55 -20.5q-53 0 -53 47q0 28 17.5 48.5z" />
    <glyph glyph-name="exclam.sinf" horiz-adv-x="217" 
d="M192 449l-63 -311h-86l41 311h108zM26 87.5q18 20.5 56 20.5q54 0 54 -46q0 -29 -19 -49.5t-55 -20.5q-27 0 -40.5 12.5t-13.5 34.5q0 28 18 48.5z" />
    <glyph glyph-name="exclamdown.sinf" horiz-adv-x="217" 
d="M13 0l63 311h86l-41 -311h-108zM88 437q19 20 55 20q54 0 54 -47q0 -27 -18 -48t-56 -21q-27 0 -40.5 12t-13.5 34q0 30 19 50z" />
    <glyph glyph-name="question.sinf" horiz-adv-x="295" 
d="M140 138h-87l3 22q6 40 24.5 65.5t49.5 53.5q21 19 30.5 31t9.5 27q0 32 -44 32q-39 0 -94 -22l16 91q22 8 52 13t58 5q58 0 90.5 -24.5t32.5 -72.5q0 -38 -18.5 -63t-54.5 -55q-31 -26 -46.5 -44t-19.5 -44zM37 87.5q18 20.5 56 20.5q53 0 53 -46q0 -29 -19 -49.5
t-55 -20.5q-26 0 -39.5 12.5t-13.5 34.5q0 28 18 48.5z" />
    <glyph glyph-name="questiondown.sinf" horiz-adv-x="295" 
d="M143 310h87l-3 -22q-6 -40 -24.5 -65.5t-49.5 -53.5q-21 -19 -30.5 -31t-9.5 -27q0 -32 44 -32q39 0 94 22l-16 -90q-23 -8 -52.5 -13.5t-57.5 -5.5q-57 0 -90 25t-33 72q0 38 18.5 63t54.5 55q30 25 45.5 43.5t19.5 44.5zM155.5 436q18.5 20 55.5 20q53 0 53 -47
q0 -27 -18 -48t-56 -21q-53 0 -53 46q0 30 18.5 50z" />
    <glyph glyph-name="bullet.sinf" horiz-adv-x="289" 
d="M67.5 159.5q-19.5 17.5 -19.5 47.5q0 41 27.5 70t77.5 29q37 0 56.5 -17.5t19.5 -48.5q0 -40 -28 -69t-77 -29q-37 0 -56.5 17.5z" />
    <glyph glyph-name="numbersign.sinf" horiz-adv-x="480" 
d="M429 475l-39 -120h66l-22 -67h-66l-34 -101h67l-22 -66h-66l-40 -121h-73l40 121h-82l-40 -121h-73l40 121h-67l22 66h66l34 101h-67l21 67h68l39 120h73l-39 -120h82l39 120h73zM261 187l34 101h-82l-34 -101h82z" />
    <glyph glyph-name="slash.sinf" horiz-adv-x="256" 
d="M192 475h93l-248 -587h-93z" />
    <glyph glyph-name="parenleft.sinf" horiz-adv-x="250" 
d="M165.5 268.5q-33.5 -113.5 -33.5 -221.5q0 -98 25 -177h-77q-46 89 -46 202q0 100 36.5 207t112.5 196h77q-61 -93 -94.5 -206.5z" />
    <glyph glyph-name="parenright.sinf" horiz-adv-x="250" 
d="M54.5 76.5q33.5 113.5 33.5 221.5q0 99 -25 177h77q46 -89 46 -201q0 -100 -36.5 -207.5t-112.5 -196.5h-77q61 93 94.5 206.5z" />
    <glyph glyph-name="braceleft.sinf" horiz-adv-x="274" 
d="M148 32q-5 -15 -9.5 -29.5t-4.5 -25.5q0 -29 31 -29h12l-14 -78h-47q-37 0 -60.5 20t-23.5 56q0 16 6 38.5t13 43.5q17 49 17 71q0 36 -39 36h-4l11 62l2 13h4q51 0 56 65q1 8 1 26v33q0 141 120 141h47l-13 -78h-12q-20 0 -31.5 -11.5t-12.5 -33.5v-27q0 -31 -1 -41
q-1 -39 -22.5 -68t-55.5 -41l-1 -5q22 -10 34.5 -28.5t12.5 -42.5q0 -23 -16 -67z" />
    <glyph glyph-name="braceright.sinf" horiz-adv-x="274" 
d="M96 314q1 3 7.5 21.5t6.5 32.5q0 15 -8 22.5t-23 7.5h-12l14 77h46q38 0 61 -20t23 -55q0 -17 -6 -39.5t-13 -44.5q-6 -19 -11 -38t-5 -32q0 -19 9.5 -27.5t28.5 -8.5h4v-1l-2 -10l-10 -63l-1 1v-1h-4q-26 0 -39.5 -17.5t-15.5 -48.5q-1 -7 -1 -26v-32q0 -142 -121 -142
h-46l13 78h12q19 0 30.5 12t12.5 34q1 8 1 33q0 26 1 35q1 39 22.5 68t55.5 41l1 5q-22 10 -34.5 28.5t-12.5 41.5q0 24 16 68z" />
    <glyph glyph-name="bracketleft.sinf" horiz-adv-x="237" 
d="M243 475l-14 -81h-52l-75 -444h52l-14 -80h-148l103 605h148z" />
    <glyph glyph-name="bracketright.sinf" horiz-adv-x="237" 
d="M-37 -130l14 81h53l75 444h-52l13 80h148l-102 -605h-149z" />
    <glyph glyph-name="at.case" horiz-adv-x="1026" 
d="M583 373l30 89q-30 8 -50 8q-39 0 -70.5 -33.5t-49 -80t-17.5 -80.5q0 -24 10 -37.5t27 -13.5q32 0 66 44.5t54 104.5v-1zM160 525q70 123 192.5 198t273.5 75q109 0 189 -40.5t123 -114t43 -168.5q0 -88 -35.5 -168.5t-100.5 -130t-149 -49.5q-60 0 -92.5 25.5
t-41.5 70.5h-8q-27 -40 -70 -68t-88 -28q-46 0 -72.5 31t-26.5 89q0 71 37.5 146t105 125t151.5 50q42 0 86.5 -12.5t80.5 -31.5l-69 -206q-9 -28 -9 -52q0 -29 14.5 -45.5t43.5 -16.5q47 0 83 40.5t55 100.5t19 117q0 74 -34.5 133t-99.5 92.5t-153 33.5q-120 0 -220 -62.5
t-157 -164.5t-57 -217q0 -95 40 -164.5t111 -106.5t161 -37q72 0 147 24t143 72l-14 -81q-54 -40 -131 -66t-161 -26q-108 0 -194.5 45t-136 129.5t-49.5 198.5q0 137 70 260z" />
    <glyph glyph-name="currency.tf" 
d="M185 142l-100 -89l-58 72l101 89q-14 34 -14 72t13 74.5t37 67.5l-70 90l82 72l70 -89q52 30 108 30q55 0 98 -30l100 89l58 -72l-101 -90q14 -33 14 -71t-13 -75t-37 -68l70 -89l-82 -72l-70 88q-53 -29 -107 -29q-56 0 -99 30zM234 233.5q26 -27.5 65 -27.5
q32 0 62.5 19t49.5 50t19 66q0 40 -26 67.5t-66 27.5q-33 0 -63 -18.5t-48.5 -49.5t-18.5 -66q0 -41 26 -68.5z" />
    <glyph glyph-name="cent.tf" 
d="M464 730l-16 -93q47 -3 87 -16l-21 -125q-20 7 -46 13.5t-46 6.5q-49 0 -79.5 -35.5t-43.5 -84t-13 -87.5q0 -48 21 -70.5t65 -22.5q24 0 51 5.5t47 13.5l-21 -123q-42 -14 -93 -17l-16 -95h-94l17 103q-65 17 -98.5 68.5t-33.5 130.5q0 70 26.5 137t76.5 117t118 70
l18 104h94z" />
    <glyph glyph-name="colonmonetary.tf" 
d="M484 563.5q-36 8.5 -69 8.5q-72 0 -119 -45.5t-68.5 -112.5t-21.5 -133q0 -163 135 -163q30 0 71 6.5t66 16.5l-24 -134q-61 -19 -140 -19q-17 0 -25 1l-37 -99h-75l41 110q-30 10 -43 17l-47 -127h-75l63 171q-66 71 -66 204q0 93 31.5 179t92.5 150t144 91l42 114h75
l-37 -98q11 1 33 1h17l36 97h74l-39 -106q28 -6 49 -16l-23 -134q-25 12 -61 20.5z" />
    <glyph glyph-name="dollar.tf" 
d="M447 799l-16 -98q63 -4 114 -28l-21 -130q-81 35 -138 35q-41 0 -67 -18t-26 -51q0 -30 21 -53.5t65 -57.5q40 -31 65.5 -55.5t44 -60.5t18.5 -83q0 -85 -58 -142t-155 -67l-17 -100h-94l18 102q-40 5 -77 16.5t-62 26.5l24 137q41 -26 93.5 -43t90.5 -17q37 0 61 18
t24 52q0 32 -21 56t-66 58q-40 30 -65 54t-43 59.5t-18 81.5q0 80 53.5 134.5t140.5 70.5l17 103h94z" />
    <glyph glyph-name="Euro.tf" 
d="M512 563.5q-36 8.5 -69 8.5q-59 0 -101 -31t-68 -83h147l-15 -83h-161q-6 -25 -10 -60h162l-15 -83h-144q18 -114 131 -114q30 0 71 6.5t66 16.5l-24 -134q-61 -19 -140 -19q-128 0 -196 70.5t-68 206.5q0 113 45.5 213t132 162t203.5 62q81 0 137 -25l-23 -134
q-25 12 -61 20.5z" />
    <glyph glyph-name="uni20B2.tf" 
d="M536 799l-18 -103q49 -7 83 -19l-22 -132q-28 11 -75 19t-82 8q-80 0 -131 -45.5t-73.5 -112.5t-22.5 -133q0 -163 144 -163q9 0 45 2l38 218h146l-55 -322q-57 -16 -126 -23l-18 -103h-98l17 99q-120 5 -184 75.5t-64 201.5q0 109 44 207t130 161t207 68l17 97h98z" />
    <glyph glyph-name="sterling.tf" 
d="M478 0h-434l16 94q50 40 83.5 94.5t36.5 110.5h-86l14 82h60q-1 5 -7.5 25.5t-9.5 40.5t-3 39q0 63 31.5 112t89 76.5t131.5 27.5q41 0 86 -8.5t82 -23.5l-21 -123q-30 17 -66 27t-68 10q-55 0 -86 -29t-31 -79q0 -22 10 -68l5 -27h160l-13 -82h-141q-11 -96 -116 -178
h299z" />
    <glyph glyph-name="yen.tf" 
d="M251 690l66 -310h14l167 310h153l-231 -385h105l-14 -82h-139l-11 -60h140l-14 -84h-140l-14 -79h-152l14 79h-125l14 84h125l11 60h-126l15 82h90l-102 385h154z" />
    <glyph glyph-name="cent.sups" horiz-adv-x="295" 
d="M302 831l-11 -63q23 -1 56 -10l-14 -88q-12 5 -29 9t-31 4q-45 0 -64.5 -43t-19.5 -85q0 -29 12.5 -42.5t40.5 -13.5q16 0 33.5 4t30.5 9l-15 -86q-35 -11 -70 -12l-11 -63h-66l13 72q-38 14 -57.5 47t-19.5 81q0 70 38.5 129.5t105.5 79.5l12 71h66z" />
    <glyph glyph-name="dollar.sups" horiz-adv-x="348" 
d="M315 870l-10 -64q44 -3 74 -17l-14 -91q-53 23 -91 23q-25 0 -40.5 -10.5t-15.5 -30.5q0 -18 13 -33t40 -36q40 -32 62 -60.5t22 -71.5q0 -53 -38.5 -90t-101.5 -45l-11 -64h-65l11 66q-55 8 -90 27l16 96q27 -17 61.5 -28t59.5 -11q24 0 38 10.5t14 30.5
q0 19 -13.5 34.5t-41.5 36.5q-40 31 -61 58.5t-21 69.5q0 51 34.5 86t91.5 47l12 67h65z" />
    <glyph glyph-name="colonmonetary.sups" horiz-adv-x="384" 
d="M376.5 711.5q-23.5 5.5 -45.5 5.5q-46 0 -75.5 -29t-43 -71t-13.5 -82q0 -101 85 -101q20 0 46.5 4t43.5 11l-17 -93q-44 -13 -92 -13q-14 0 -20 1l-24 -64h-51l27 73q-18 5 -27 11l-31 -84h-52l43 115q-40 48 -40 129q0 90 45 165.5t124 103.5l28 77h51l-24 -64
q9 1 28 1h4l23 63h51l-25 -68q24 -6 36 -11l-15 -94q-16 9 -39.5 14.5z" />
    <glyph glyph-name="Euro.sups" horiz-adv-x="384" 
d="M306 593h-100q-4 -18 -6 -35h100l-10 -58h-88q14 -66 82 -66q20 0 46.5 4t43.5 11l-17 -93q-44 -13 -92 -13q-84 0 -129.5 46.5t-45.5 134.5q0 73 30.5 138t87.5 105t134 40q53 0 89 -16l-15 -94q-16 9 -39.5 14.5t-45.5 5.5q-67 0 -104 -66h89z" />
    <glyph glyph-name="uni20B2.sups" horiz-adv-x="416" 
d="M408 870l-12 -67q31 -3 54 -12l-16 -92q-19 7 -50 12.5t-53 5.5q-51 0 -82.5 -29t-45.5 -70.5t-14 -82.5q0 -51 22.5 -76t67.5 -25q14 0 24 1l24 137h102l-36 -210q-35 -10 -83 -15l-11 -67h-68l11 63q-78 5 -120 51.5t-42 129.5q0 70 28.5 133.5t85 104.5t135.5 45
l11 63h68z" />
    <glyph glyph-name="sterling.sups" horiz-adv-x="367" 
d="M345 351h-289l12 67q31 23 52.5 56.5t25.5 68.5h-57l10 58h38q-1 5 -6.5 24t-5.5 41q0 63 46 102t120 39q28 0 58 -5t53 -15l-14 -86q-20 11 -43.5 18t-43.5 7q-34 0 -53.5 -18t-19.5 -49q0 -15 4 -34t5 -24h102l-9 -58h-89q-10 -59 -73 -107h192z" />
    <glyph glyph-name="yen.sups" horiz-adv-x="407" 
d="M302 495l-6 -37h85l-10 -58h-85l-9 -49h-106l8 49h-87l10 58h87l6 37h-87l10 56h62l-69 249h113l39 -196h9l104 196h113l-153 -249h61l-9 -56h-86z" />
    <glyph glyph-name="cent.sinf" horiz-adv-x="295" 
d="M240 480l-11 -63q23 -1 56 -10l-14 -88q-12 5 -29 9t-31 4q-45 0 -64.5 -43t-19.5 -85q0 -29 12.5 -42.5t40.5 -13.5q16 0 33.5 4t30.5 9l-15 -86q-35 -11 -70 -12l-11 -63h-66l13 72q-38 14 -57.5 47t-19.5 81q0 70 38.5 129.5t105.5 79.5l12 71h66z" />
    <glyph glyph-name="dollar.sinf" horiz-adv-x="348" 
d="M253 519l-10 -64q44 -3 74 -17l-14 -91q-53 23 -91 23q-25 0 -40.5 -10.5t-15.5 -30.5q0 -18 13 -33t40 -36q40 -32 62 -60.5t22 -71.5q0 -53 -38.5 -90t-101.5 -45l-11 -64h-65l11 66q-55 8 -90 27l16 96q27 -17 61.5 -28t59.5 -11q24 0 38 10.5t14 30.5
q0 19 -13.5 34.5t-41.5 36.5q-40 31 -61 58.5t-21 69.5q0 51 34.5 86t91.5 47l12 67h65z" />
    <glyph glyph-name="colonmonetary.sinf" horiz-adv-x="384" 
d="M314.5 360.5q-23.5 5.5 -45.5 5.5q-46 0 -75.5 -29t-43 -71t-13.5 -82q0 -101 85 -101q20 0 46.5 4t43.5 11l-17 -93q-44 -13 -92 -13q-14 0 -20 1l-24 -64h-51l27 73q-18 5 -27 11l-31 -84h-52l43 115q-40 48 -40 129q0 90 45 165.5t124 103.5l28 77h51l-24 -64
q9 1 28 1h4l23 63h51l-25 -68q24 -6 36 -11l-15 -94q-16 9 -39.5 14.5z" />
    <glyph glyph-name="Euro.sinf" horiz-adv-x="384" 
d="M244 242h-100q-4 -18 -6 -35h100l-10 -58h-88q14 -66 82 -66q20 0 46.5 4t43.5 11l-17 -93q-44 -13 -92 -13q-84 0 -129.5 46.5t-45.5 134.5q0 73 30.5 138t87.5 105t134 40q53 0 89 -16l-15 -94q-16 9 -39.5 14.5t-45.5 5.5q-67 0 -104 -66h89z" />
    <glyph glyph-name="uni20B2.sinf" horiz-adv-x="416" 
d="M346 519l-12 -67q31 -3 54 -12l-16 -92q-19 7 -50 12.5t-53 5.5q-51 0 -82.5 -29t-45.5 -70.5t-14 -82.5q0 -51 22.5 -76t67.5 -25q14 0 24 1l24 137h102l-36 -210q-35 -10 -83 -15l-11 -67h-68l11 63q-78 5 -120 51.5t-42 129.5q0 70 28.5 133.5t85 104.5t135.5 45
l11 63h68z" />
    <glyph glyph-name="sterling.sinf" horiz-adv-x="367" 
d="M283 0h-289l12 67q31 23 52.5 56.5t25.5 68.5h-57l10 58h38q-1 5 -6.5 24t-5.5 41q0 63 46 102t120 39q28 0 58 -5t53 -15l-14 -86q-20 11 -43.5 18t-43.5 7q-34 0 -53.5 -18t-19.5 -49q0 -15 4 -34t5 -24h102l-9 -58h-89q-10 -59 -73 -107h192z" />
    <glyph glyph-name="yen.sinf" horiz-adv-x="407" 
d="M240 144l-6 -37h85l-10 -58h-85l-9 -49h-106l8 49h-87l10 58h87l6 37h-87l10 56h62l-69 249h113l39 -196h9l104 196h113l-153 -249h61l-9 -56h-86z" />
    <glyph glyph-name="plus.tf" 
d="M246 280h-183l22 129h183l33 195h132l-33 -195h183l-22 -129h-183l-33 -194h-132z" />
    <glyph glyph-name="minus.tf" 
d="M63 280l22 129h498l-22 -129h-498z" />
    <glyph glyph-name="multiply.tf" 
d="M240 343l-112 142l101 86l110 -140l158 140l67 -86l-157 -139l112 -142l-101 -86l-110 140l-158 -140l-67 86z" />
    <glyph glyph-name="divide.tf" 
d="M63 280l22 129h498l-22 -129h-498zM226 175.5q24 27.5 75 27.5q70 0 70 -60q0 -38 -23.5 -66.5t-75.5 -28.5q-70 0 -70 63q0 37 24 64.5zM299 613q24 28 76 28q70 0 70 -62q0 -38 -24.5 -65.5t-74.5 -27.5q-71 0 -71 62q0 37 24 65z" />
    <glyph glyph-name="equal.tf" 
d="M40 148l22 129h498l-22 -129h-498zM87 413l22 129h498l-22 -129h-498z" />
    <glyph glyph-name="notequal.tf" 
d="M249 148l-88 -148h-92l88 148h-117l22 129h172l80 136h-227l22 129h282l88 148h90l-88 -148h126l-22 -129h-180l-80 -136h235l-22 -129h-289z" />
    <glyph glyph-name="greater.tf" 
d="M584 417l-25 -145l-528 -186l23 132l383 121l2 12l-342 121l22 132z" />
    <glyph glyph-name="less.tf" 
d="M57 273l25 144l528 187l-22 -132l-384 -121l-2 -12l343 -121l-23 -132z" />
    <glyph glyph-name="greaterequal.tf" 
d="M544 171l-20 -117h-498l20 117h498zM74 340l415 71l1 8l-390 73l22 122l479 -106l-31 -185l-516 -107z" />
    <glyph glyph-name="lessequal.tf" 
d="M64 323l31 185l517 106l-21 -122l-414 -73l-2 -8l390 -71l-22 -124zM38 171h498l-20 -117h-498z" />
    <glyph glyph-name="plusminus.tf" 
d="M246 358h-181l20 123h181l23 138h138l-23 -138h180l-21 -123h-180l-23 -138h-137zM40 165h498l-22 -117h-497z" />
    <glyph glyph-name="percent.tf" 
d="M85 389.5q-31 36.5 -31 97.5q0 52 22.5 100.5t63 78.5t91.5 30q56 0 87.5 -37t31.5 -98q0 -52 -23 -100t-63.5 -78t-91.5 -30q-56 0 -87 36.5zM574 690h79l-579 -690h-79zM185 426q34 0 55 39.5t21 89.5q0 31 -10.5 49.5t-32.5 18.5q-35 0 -54.5 -39.5t-19.5 -90.5
q0 -67 41 -67zM320.5 229q22.5 48 63 78t91.5 30q57 0 88 -36.5t31 -97.5q0 -52 -23 -100.5t-63.5 -78.5t-91.5 -30q-55 0 -86.5 37t-31.5 97q0 53 22.5 101zM430 67q33 0 54 39.5t21 89.5q0 69 -43 69q-34 0 -54 -39.5t-20 -90.5q0 -68 42 -68z" />
    <glyph glyph-name="perthousand.tf" 
d="M83.5 395q-31.5 36 -31.5 95q0 52 22.5 99.5t63.5 77t92 29.5q56 0 87.5 -36t31.5 -95q0 -52 -23 -99.5t-64 -77t-92 -29.5q-55 0 -86.5 36zM9.5 224.5q22.5 47.5 63 77t91.5 29.5q56 0 87.5 -36t31.5 -95q0 -51 -23 -99t-63.5 -77.5t-91.5 -29.5q-55 0 -86.5 36
t-31.5 95q0 52 22.5 99.5zM118 67q34 0 55 38.5t21 87.5q0 65 -43 65q-35 0 -54.5 -38t-19.5 -88q0 -65 41 -65zM184 432q34 0 55 38.5t21 88.5q0 29 -10.5 46.5t-32.5 17.5q-35 0 -54.5 -38.5t-19.5 -87.5q0 -65 41 -65zM323.5 224.5q22.5 47.5 63.5 77t92 29.5
q56 0 87.5 -36t31.5 -95q0 -51 -23 -99t-64 -77.5t-92 -29.5q-55 0 -86.5 36t-31.5 95q0 52 22.5 99.5zM579 690h79l-269 -320h-79zM401 84.5q10 -17.5 32 -17.5q34 0 55 38.5t21 87.5q0 30 -10.5 47.5t-32.5 17.5q-35 0 -55 -38t-20 -88q0 -30 10 -47.5z" />
    <glyph glyph-name="plus.sups" horiz-adv-x="419" 
d="M212 530h-117l16 90h117l21 124h92l-21 -124h117l-16 -90h-116l-21 -124h-93z" />
    <glyph glyph-name="minus.sups" horiz-adv-x="420" 
d="M95 530l16 90h326l-16 -90h-326z" />
    <glyph glyph-name="equal.sups" horiz-adv-x="446" 
d="M93 443l16 90h326l-16 -90h-326zM138 707h326l-15 -90h-326z" />
    <glyph glyph-name="plus.sinf" horiz-adv-x="419" 
d="M150 179h-117l16 90h117l21 124h92l-21 -124h117l-16 -90h-116l-21 -124h-93z" />
    <glyph glyph-name="minus.sinf" horiz-adv-x="420" 
d="M33 179l16 90h326l-16 -90h-326z" />
    <glyph glyph-name="equal.sinf" horiz-adv-x="446" 
d="M31 92l16 90h326l-16 -90h-326zM76 356h326l-15 -90h-326z" />
    <glyph glyph-name="percent.sups" horiz-adv-x="518" 
d="M116 596.5q-24 25.5 -24 67.5q0 35 16.5 67.5t46 52.5t66.5 20q41 0 65 -25.5t24 -67.5q0 -35 -16.5 -67.5t-46 -52.5t-66.5 -20q-41 0 -65 25.5zM496 800h66l-428 -449h-66zM189 622q27 0 43 26t16 58q0 22 -9 34.5t-26 12.5q-28 0 -43 -25.5t-15 -57.5q0 -48 34 -48z
M336.5 506.5q16.5 32.5 46 52.5t66.5 20q42 0 65.5 -24.5t23.5 -65.5q0 -35 -16.5 -68t-46 -53.5t-66.5 -20.5q-41 0 -65 25.5t-24 66.5q0 35 16.5 67.5zM390.5 410.5q8.5 -12.5 27.5 -12.5q28 0 43 27t15 57q0 47 -36 47q-28 0 -43 -28t-15 -57q0 -21 8.5 -33.5z" />
    <glyph glyph-name="perthousand.sups" horiz-adv-x="763" 
d="M588.5 372.5q-23.5 25.5 -23.5 66.5q0 35 16.5 67.5t46 52.5t66.5 20q41 0 65 -25t24 -65q0 -35 -16.5 -68t-46 -53.5t-66.5 -20.5q-42 0 -65.5 25.5zM496 800h66l-428 -449h-66zM108.5 731.5q16.5 32.5 46 52.5t66.5 20q41 0 65 -25.5t24 -67.5q0 -35 -16.5 -67.5
t-46 -52.5t-66.5 -20q-41 0 -65 25.5t-24 67.5q0 35 16.5 67.5zM189 622q27 0 43 26t16 58q0 22 -9 34.5t-26 12.5q-28 0 -43 -25.5t-15 -57.5q0 -48 34 -48zM336.5 506.5q16.5 32.5 46 52.5t66.5 20q42 0 65.5 -24.5t23.5 -65.5q0 -35 -16.5 -68t-46 -53.5t-66.5 -20.5
q-41 0 -65 25.5t-24 66.5q0 35 16.5 67.5zM390.5 410.5q8.5 -12.5 27.5 -12.5q28 0 43 27t15 57q0 47 -36 47q-28 0 -43 -28t-15 -57q0 -21 8.5 -33.5zM636.5 410.5q8.5 -12.5 26.5 -12.5q28 0 43 27t15 57q0 47 -36 47q-29 0 -43 -27.5t-14 -57.5q0 -21 8.5 -33.5z" />
    <glyph glyph-name="percent.sinf" horiz-adv-x="518" 
d="M54 245.5q-24 25.5 -24 67.5q0 35 16.5 67.5t46 52.5t66.5 20q41 0 65 -25.5t24 -67.5q0 -35 -16.5 -67.5t-46 -52.5t-66.5 -20q-41 0 -65 25.5zM434 449h66l-428 -449h-66zM127 271q27 0 43 26t16 58q0 22 -9 34.5t-26 12.5q-28 0 -43 -25.5t-15 -57.5q0 -48 34 -48z
M274.5 155.5q16.5 32.5 46 52.5t66.5 20q42 0 65.5 -24.5t23.5 -65.5q0 -35 -16.5 -68t-46 -53.5t-66.5 -20.5q-41 0 -65 25.5t-24 66.5q0 35 16.5 67.5zM328.5 59.5q8.5 -12.5 27.5 -12.5q28 0 43 27t15 57q0 47 -36 47q-28 0 -43 -28t-15 -57q0 -21 8.5 -33.5z" />
    <glyph glyph-name="perthousand.sinf" horiz-adv-x="763" 
d="M526.5 21.5q-23.5 25.5 -23.5 66.5q0 35 16.5 67.5t46 52.5t66.5 20q41 0 65 -25t24 -65q0 -35 -16.5 -68t-46 -53.5t-66.5 -20.5q-42 0 -65.5 25.5zM434 449h66l-428 -449h-66zM46.5 380.5q16.5 32.5 46 52.5t66.5 20q41 0 65 -25.5t24 -67.5q0 -35 -16.5 -67.5
t-46 -52.5t-66.5 -20q-41 0 -65 25.5t-24 67.5q0 35 16.5 67.5zM127 271q27 0 43 26t16 58q0 22 -9 34.5t-26 12.5q-28 0 -43 -25.5t-15 -57.5q0 -48 34 -48zM274.5 155.5q16.5 32.5 46 52.5t66.5 20q42 0 65.5 -24.5t23.5 -65.5q0 -35 -16.5 -68t-46 -53.5t-66.5 -20.5
q-41 0 -65 25.5t-24 66.5q0 35 16.5 67.5zM328.5 59.5q8.5 -12.5 27.5 -12.5q28 0 43 27t15 57q0 47 -36 47q-28 0 -43 -28t-15 -57q0 -21 8.5 -33.5zM574.5 59.5q8.5 -12.5 26.5 -12.5q28 0 43 27t15 57q0 47 -36 47q-29 0 -43 -27.5t-14 -57.5q0 -21 8.5 -33.5z" />
    <glyph glyph-name="uni030C.alt" horiz-adv-x="0" 
d="M130 781h108l-18 -91l-61 -131h-70z" />
    <glyph glyph-name="uni0308.ss01" horiz-adv-x="0" 
d="M106 644q0 35 21.5 60.5t61.5 25.5q30 0 44 -15t14 -42q0 -36 -22 -61.5t-61 -25.5q-58 0 -58 58zM294.5 704.5q21.5 25.5 61.5 25.5q30 0 44 -15t14 -42q0 -36 -22 -61.5t-62 -25.5q-28 0 -42.5 15t-14.5 43q0 35 21.5 60.5z" />
    <glyph glyph-name="dieresis.ss01" horiz-adv-x="380" 
d="M106 644q0 35 21.5 60.5t61.5 25.5q30 0 44 -15t14 -42q0 -36 -22 -61.5t-61 -25.5q-58 0 -58 58zM294.5 704.5q21.5 25.5 61.5 25.5q30 0 44 -15t14 -42q0 -36 -22 -61.5t-62 -25.5q-28 0 -42.5 15t-14.5 43q0 35 21.5 60.5z" />
    </font>
</defs>
</svg>
